<svg width="128" height="128" viewBox="0 0 128 128" fill="none" xmlns="http://www.w3.org/2000/svg">
<path d="M31.1002 99.6297C30.5302 98.7997 30.3402 97.6797 30.5152 96.3047C30.1552 96.5397 29.7802 96.7847 29.4002 97.0497C29.1952 98.3847 29.3552 99.4497 29.8752 100.215C30.3052 100.85 30.9052 101.14 31.3152 101.27C31.6152 101.065 31.9252 100.86 32.2502 100.65C31.8602 100.445 31.4352 100.13 31.0952 99.6297H31.1002Z" fill="#878787"/>
<path d="M24.9752 104.755C24.2902 104.165 23.8402 103.28 23.6252 102.115C23.2202 102.585 22.8352 103.075 22.4702 103.58C22.8002 104.615 23.3002 105.36 23.9652 105.8C24.5902 106.215 25.2402 106.26 25.6752 106.225C25.8752 105.985 26.1002 105.725 26.3552 105.445C25.9252 105.35 25.4352 105.15 24.9752 104.755Z" fill="#878787"/>
<path d="M33.8703 94.3496C33.5503 94.5146 33.1653 94.7246 32.7203 94.9746C32.4703 96.3996 32.6153 97.5296 33.1603 98.3296C33.5403 98.8896 34.0553 99.1796 34.4553 99.3346C34.7303 99.1796 35.0103 99.0246 35.3003 98.8696L33.8703 94.3496Z" fill="#878787"/>
<path d="M25.3052 104.375C25.8052 104.805 26.3552 104.96 26.7752 105.005C27.0802 104.69 27.4202 104.36 27.8002 104.015C27.3752 103.86 26.9002 103.59 26.4902 103.11C25.8752 102.395 25.5702 101.39 25.5552 100.125C25.0452 100.6 24.5402 101.105 24.0652 101.63C24.2302 102.875 24.6452 103.8 25.3102 104.375H25.3052Z" fill="#878787"/>
<path d="M32.7501 98.6147C32.1801 97.7847 31.9901 96.6647 32.1651 95.2847C31.8251 95.4847 31.4551 95.7047 31.0751 95.9447C30.8201 97.3897 30.9601 98.5297 31.5101 99.3347C31.8801 99.8797 32.3701 100.17 32.7651 100.325C33.1301 100.095 33.5151 99.8697 33.9151 99.6347C33.5251 99.4297 33.0951 99.1147 32.7501 98.6097V98.6147Z" fill="#878787"/>
<path d="M29.4703 100.5C28.9353 99.7197 28.7403 98.6897 28.8603 97.4297C28.4853 97.6997 28.1053 97.9847 27.7203 98.2797C27.5053 99.6397 27.6603 100.715 28.1903 101.49C28.6053 102.095 29.1703 102.385 29.5803 102.525C29.9703 102.225 30.3803 101.92 30.8253 101.605C30.3853 101.41 29.8753 101.075 29.4753 100.49L29.4703 100.5Z" fill="#878787"/>
<path d="M31.685 86.93C32.355 87.21 32.955 87.28 33.465 87.12C33.56 87.09 33.645 87.055 33.725 87.015C33.725 87.005 33.725 87 33.725 87C33.725 87 34.19 86.93 34.37 85.755C34.465 85.125 33.985 84.04 34.32 83.075C34.575 82.34 35.505 81.725 36.38 81.15C36.38 81.15 33.66 80.28 30.945 84.765C30.945 84.765 30 85.86 31.69 86.93H31.685Z" fill="#878787"/>
<path d="M36.1149 91.0452C35.8849 90.8402 35.1949 90.2002 34.7049 89.4252C34.3299 88.8252 34.0299 88.0102 33.8649 87.4902C33.7849 87.5252 33.7049 87.5602 33.6199 87.5902C33.3849 87.6652 33.1399 87.7002 32.8799 87.7002C32.5799 87.7002 32.2599 87.6502 31.9299 87.5502C32.4149 88.9202 33.6699 92.1702 34.2649 93.7052H34.2799L34.3499 93.9152C34.4999 94.3002 34.5899 94.5352 34.5899 94.5352C34.5899 94.5352 34.5749 94.5402 34.5499 94.5552L36.4049 100.41C36.6999 101.255 37.1249 102.425 37.6549 103.725C37.7599 103.615 37.8799 103.505 38.0299 103.405C38.3949 103.165 38.8299 103.025 39.3299 102.99C39.0449 102.125 38.2099 99.3102 38.8649 97.9802C39.5499 95.6352 41.0649 93.5902 42.8299 91.9002C40.5699 92.8402 37.6949 93.0952 36.1199 91.0502L36.1149 91.0452Z" fill="#878787"/>
<path d="M27.7803 101.785C27.2503 101.005 27.0503 99.9796 27.1703 98.7246C26.7953 99.0296 26.4253 99.3446 26.0553 99.6746C25.9953 101.035 26.2653 102.075 26.8653 102.785C27.2953 103.29 27.8253 103.53 28.2353 103.64C28.5153 103.4 28.8103 103.15 29.1203 102.895C28.6853 102.7 28.1803 102.365 27.7803 101.785Z" fill="#878787"/>
<path d="M23.7002 106.22C23.0152 105.77 22.4902 105.05 22.1202 104.075C21.6052 104.845 21.1552 105.65 20.7852 106.49C22.3402 107.21 23.7502 107.575 24.5752 107.745C24.7252 107.5 24.9502 107.15 25.2702 106.725C24.8102 106.7 24.2502 106.575 23.7002 106.215V106.22Z" fill="#878787"/>
<path d="M41.1049 106.89C41.9199 105.45 40.4149 104.03 39.7299 103.485C39.1649 103.47 38.685 103.57 38.31 103.815C38.1099 103.945 37.9649 104.105 37.8549 104.255C37.7099 104.54 35.6999 108.725 43.055 110.525C43.055 110.525 40.0649 108.715 41.0999 106.885L41.1049 106.89Z" fill="#878787"/>
<path d="M20.4403 106.885C20.1703 106.97 19.6753 107.17 19.2953 107.56C18.2803 108.595 17.5803 110.37 15.9053 107.895C15.9053 107.895 15.3703 110.205 16.0053 111.58C16.8303 113.36 18.4203 114.275 20.1003 114.11C22.0753 113.91 25.0303 112.82 24.3353 108.22C23.4453 108.03 22.0153 107.645 20.4353 106.89L20.4403 106.885ZM21.8903 111.615C21.3153 112.1 20.4653 112.03 19.9853 111.465C19.5103 110.9 19.5853 110.05 20.1603 109.565C20.7353 109.08 21.5853 109.15 22.0603 109.715C22.5353 110.28 22.4603 111.13 21.8853 111.615H21.8903Z" fill="#878787"/>
<path d="M91.9949 46.5064C91.9949 46.5064 95.6499 47.8214 92.0899 52.0614C89.1649 55.5364 72.7399 70.8564 58.6849 79.5164C45.3799 87.7164 38.0099 90.3564 37.3799 90.5764C39.3449 92.4564 42.4599 91.6714 44.6649 90.4864C44.7649 90.4314 44.8749 90.3914 44.9999 90.4414C45.2549 90.5414 45.2749 90.8864 45.0749 91.0314C45.0449 91.0614 44.9499 91.1414 44.9199 91.1664C42.9949 92.8414 41.2599 94.8264 40.1799 97.1614C40.2449 97.0864 40.3099 97.0164 40.3899 96.9614C42.3249 95.6314 54.6399 89.6564 59.4999 86.7664C62.7699 84.8264 78.1249 75.0264 91.3449 61.4764C97.7899 54.8714 102.94 47.0714 107.61 39.2914C112.77 30.6914 115.095 13.6914 115.095 13.6914C115.095 13.6914 101.775 39.9864 91.9899 46.5064H91.9949ZM49.2599 89.4314C48.8199 89.8014 48.1749 89.7464 47.8099 89.3164C47.4449 88.8864 47.5049 88.2364 47.9449 87.8664C48.3849 87.4964 49.0299 87.5514 49.3949 87.9814C49.7599 88.4114 49.6999 89.0614 49.2599 89.4314ZM53.8899 87.1664C53.5099 87.4864 52.9449 87.4414 52.6249 87.0664C52.3099 86.6914 52.3599 86.1264 52.7399 85.8064C53.1199 85.4864 53.6849 85.5314 54.0049 85.9064C54.3249 86.2814 54.2699 86.8464 53.8899 87.1664ZM98.9549 45.6714C98.9549 45.6714 98.2299 46.3964 97.9699 46.6514C98.0899 47.2164 97.9749 47.7814 97.8249 48.2764C96.4749 52.0014 93.6799 54.9464 91.0449 57.8114C88.0249 61.0764 84.8299 64.1814 81.5249 67.1564C74.7849 72.9814 67.3399 77.8614 59.8899 82.7114C63.5299 80.1714 67.1499 77.6064 70.7199 74.9714C77.9899 69.8464 84.4699 63.8164 90.5199 57.3214C92.8049 54.9514 95.0299 52.4664 96.6499 49.5814C97.0849 48.7364 97.6449 47.7064 97.4949 46.7564C96.5799 46.5564 95.6349 46.3864 94.6949 46.4914C95.6199 46.1714 96.6349 46.1914 97.6049 46.3114L98.6249 45.3364C104 40.0264 107.94 33.3064 110.48 26.2164C108.08 33.3964 104.25 40.2214 98.9599 45.6714H98.9549Z" fill="white"/>
</svg>
