<svg width="128" height="128" viewBox="0 0 128 128" fill="none" xmlns="http://www.w3.org/2000/svg">
<g clip-path="url(#clip0_268_8651)">
<path d="M24.1381 110.156C23.9978 111.095 23.6267 111.454 23.2805 111.837C20.3396 115.146 17.4548 118.511 13.9401 121.246C12.9858 121.988 11.9941 122.693 11.0273 123.423C10.5096 123.816 10.0106 123.828 9.13115 122.874C7.77142 121.402 6.31501 120.008 4.87419 118.605C4.21303 117.962 4.14754 117.579 4.40951 117.073C7.8681 110.477 15.3435 109.62 24.1381 110.156Z" fill="#878787"/>
<path d="M13.5346 106.844C14.8445 105.753 16.148 104.655 17.4704 103.576C18.25 102.94 19.0796 102.359 19.853 101.723C20.2803 101.371 20.6982 101.283 21.4716 102.082C22.9155 103.569 24.4031 105.013 25.8627 106.485C26.1745 106.797 26.6423 107.159 26.4646 107.511C26.3242 107.789 26.2151 108.179 25.6568 107.957C23.3771 107.05 21.2221 106.585 19.17 106.504C17.2115 106.429 15.49 106.791 13.5346 106.838L13.5346 106.844Z" fill="#878787"/>
<path d="M9.67055 110.864C12.8796 107.424 17.5077 106.271 23.8667 107.945C24.3656 108.076 25.2358 108.036 25.401 108.843C25.5164 109.414 25.058 109.854 24.2222 109.692C21.0848 109.08 18.2562 109.158 15.5742 109.539C13.5158 109.832 11.6041 110.372 9.67055 110.864Z" fill="#878787"/>
<path d="M27.4704 105.591L79.6521 53.4096C79.9129 53.1489 79.9288 52.742 79.6877 52.5009L75.1469 47.9601C74.9058 47.719 74.4989 47.7349 74.2381 47.9957L22.0564 100.177C21.7956 100.438 21.7797 100.845 22.0209 101.086L26.5616 105.627C26.8028 105.868 27.2096 105.852 27.4704 105.591Z" fill="#878787"/>
<path d="M96.2883 24.0804L76.2478 44.1209L75.3683 46.5222C75.2872 46.7406 75.3402 46.9869 75.5055 47.1522L80.3894 52.036C80.5484 52.1951 80.7854 52.2512 81.0006 52.1795L83.4862 51.3593L103.527 31.3188C104.787 30.0589 104.787 28.0193 103.527 26.7593L100.845 24.0773C99.5847 22.8173 97.5451 22.8173 96.2851 24.0773L96.2883 24.0804Z" fill="#878787"/>
<path d="M103.92 25.9861L109.602 23.485C110.135 23.3259 110.572 22.9704 110.831 22.487L116.762 11.422C116.953 11.0634 116.535 10.6517 116.182 10.842L105.158 16.8204C104.681 17.0793 104.325 17.5159 104.166 18.0429L101.656 23.7407L103.92 25.9861ZM105.835 18.3454L105.863 18.3174C106.499 18.8351 107.095 19.3933 107.687 19.9609C108.498 19.0627 111.177 16.4711 112.003 15.6384C113.014 14.6966 114.031 13.5365 115.057 12.7163C113.182 14.7527 109.808 18.4328 107.856 20.3975L107.703 20.5441C107.063 19.8237 106.418 19.1157 105.832 18.3486L105.835 18.3454Z" fill="white"/>
<path d="M109.134 56.4116C109.215 56.3305 109.53 56.0155 109.611 55.9344C125.532 40.3256 124.537 29.0579 124.537 29.0579L118.487 30.3303C118.487 30.3303 114.782 36.1559 109.689 37.3753C104.038 38.7288 99.6973 36.5395 99.6973 36.5395L89.7456 46.4911C89.7456 46.4911 92.7177 50.6171 90.2353 55.8752C87.7684 61.1052 82.9095 63.625 82.9095 63.625L81.634 70.1025C81.634 70.1025 93.5254 72.3323 109.134 56.4116ZM105.532 51.5309C109.331 47.8384 112.805 43.8153 115.487 39.2434C116.448 37.7652 117.28 36.2089 118.041 34.6122C117.446 36.2807 116.706 37.8993 115.867 39.4679C113.173 44.0648 109.652 48.1472 105.85 51.8428C100.873 56.8077 95.0567 61.4513 88.1052 63.176C94.7386 60.7278 100.614 56.58 105.535 51.534L105.532 51.5309Z" fill="white"/>
<path d="M57.5457 46.0142L64.0231 44.7386C64.0231 44.7386 66.5461 39.8829 71.773 37.4129C77.031 34.9305 81.157 37.9025 81.157 37.9025L91.1087 27.9509C91.1087 27.9509 88.9194 23.6097 90.2729 17.9587C91.4923 12.866 97.3179 9.16101 97.3179 9.16101L98.5903 3.11082C98.5903 3.11082 87.3226 2.11597 71.7169 18.0398C71.6358 18.1209 71.3208 18.4359 71.2397 18.517C55.3158 34.1227 57.5457 46.0142 57.5457 46.0142ZM64.4816 39.5461C66.2031 32.5977 70.8468 26.7814 75.8148 21.8009C79.5104 17.9993 83.5927 14.4721 88.1896 11.7838C89.7583 10.9449 91.3769 10.2058 93.0453 9.6101C91.4455 10.3679 89.8893 11.2068 88.4141 12.1643C83.8422 14.8463 79.8191 18.3205 76.1266 22.119C71.0775 27.0371 66.9297 32.9127 64.4847 39.5492L64.4816 39.5461Z" fill="white"/>
</g>
<defs>
<clipPath id="clip0_268_8651">
<rect width="128" height="128" fill="white"/>
</clipPath>
</defs>
</svg>
