<svg width="128" height="128" viewBox="0 0 128 128" fill="none" xmlns="http://www.w3.org/2000/svg">
<path d="M35.088 80.595L41.488 87.98C111.343 40.68 120.423 8.5 120.423 8.5C86.078 28.68 41.558 73.94 35.088 80.595ZM81.988 52.92C70.453 63.115 58.098 73.19 45.238 81.28C70.493 63.575 93.973 42.78 112.158 17.735L112.253 17.795C104.238 31.105 93.498 42.575 81.983 52.92H81.988Z" fill="white"/>
<path d="M23.268 103.51C27.353 97.6699 36.293 91.7349 38.323 90.4299L31.888 83.0049L14.543 100.195L14.498 100.3C15.733 101.205 19.553 103.735 23.268 103.51Z" fill="#878787"/>
<path d="M12.558 105.615C13.833 106.535 17.308 108.775 20.773 108.775C20.933 108.17 21.173 107.48 21.508 106.7C17.963 106.6 14.563 104.415 13.248 103.46C13.013 104.225 12.783 104.945 12.553 105.615H12.558Z" fill="#878787"/>
<path d="M22.148 113.21C21.898 113.13 21.988 113.15 21.988 113.15C21.988 113.15 21.133 112.97 20.718 111.92C20.498 111.945 20.273 111.97 20.053 111.97C16.373 112.045 12.768 109.73 11.393 108.73C10.628 110.59 9.92799 111.92 9.33299 112.865C9.34299 112.865 9.34799 112.875 9.34799 112.875C8.94299 113.66 9.49799 114.265 10.208 114.575C12.178 115.64 14.418 116.1 16.638 116.25C18.978 116.495 21.478 115.97 23.068 114.21C23.283 113.76 22.573 113.555 22.198 113.38L22.203 113.325C22.258 113.325 22.098 113.21 22.148 113.21Z" fill="#878787"/>
<path d="M21.768 106.135C21.893 105.865 22.028 105.59 22.173 105.305C22.378 104.905 22.613 104.505 22.873 104.105C19.198 104.14 15.608 101.82 14.268 100.845L13.533 102.535C13.498 102.655 13.463 102.765 13.428 102.88C14.568 103.72 18.168 106.13 21.768 106.135Z" fill="#878787"/>
<path d="M20.5679 111.355C20.4729 110.84 20.4779 110.185 20.6429 109.345C17.1429 109.3 13.7629 107.185 12.3629 106.18C12.1079 106.9 11.8629 107.565 11.6179 108.18C12.9029 109.115 16.8229 111.685 20.5679 111.355Z" fill="#878787"/>
<path d="M26.103 112.405C24.723 113.3 23.683 113.475 22.993 113.43C23.593 113.665 23.843 114.245 23.148 114.945C21.398 116.575 18.853 116.88 16.618 116.61C14.368 116.405 12.103 115.855 10.148 114.695C9.48797 114.37 8.95297 113.78 9.22297 113.05C8.55297 114.085 8.01797 114.625 7.68297 114.895C7.47297 115.065 7.43797 115.38 7.60797 115.585C10.088 118.56 13.888 119.235 16.858 119.23C19.353 119.225 21.703 118.825 23.633 117.245C23.633 117.245 24.763 116.33 25.263 115.735C25.793 115.105 26.673 114.07 26.843 113.78C27.433 112.775 28.253 111.015 26.113 112.4L26.103 112.405Z" fill="#878787"/>
<path d="M40.4479 88.685C40.4779 88.665 34.2929 81.415 34.2929 81.415H34.2879L33.6529 80.72C33.3279 80.36 32.7679 80.34 32.4129 80.67L31.4829 81.545L32.3229 82.575L32.2979 82.6L39.8729 91.34L40.8229 90.5C41.2029 90.145 41.2279 89.545 40.8779 89.16L40.4479 88.69V88.685Z" fill="#878787"/>
</svg>
