<svg width="128" height="128" viewBox="0 0 128 128" fill="none" xmlns="http://www.w3.org/2000/svg">
<path d="M16.1195 118.312C15.1518 117.568 14.0312 116.637 12.8862 115.53C12.7833 115.427 12.6784 115.326 12.5781 115.226C11.5651 114.213 10.725 113.192 10.0485 112.279C9.69892 112.187 9.21452 111.925 7.18665 112.534C5.65323 112.993 5.31646 114.286 6.5006 115.74C7.41038 116.856 11.5522 120.998 12.671 121.91C14.1247 123.094 15.4178 122.757 15.8766 121.224C16.5146 119.095 16.1939 118.665 16.1195 118.312Z" fill="white"/>
<path d="M109.236 27.0169C109.623 27.5555 109.994 28.1203 110.251 28.7108C110.641 28.3467 111.026 27.9822 111.416 27.6181L109.367 26.8031L109.236 27.0169Z" fill="white"/>
<path d="M90.0917 29.8501L90.1284 29.5667L90.3575 29.6821L90.3204 29.9608L92.3667 31.5859L92.9225 31.2152C92.4981 30.3233 92.0215 29.4424 91.606 28.5467C91.4264 28.1607 91.2411 27.7649 91.0835 27.3672C90.458 28.0389 89.8351 28.7133 89.2101 29.3897C89.4614 29.5652 89.7094 29.7542 89.9507 29.9449L90.0887 29.8429L90.0917 29.8501Z" fill="white"/>
<path d="M91.6492 27.5113C92.2255 28.8837 92.9346 30.216 93.5872 31.5636C93.8701 32.1497 94.1487 32.7401 94.4269 33.3257C94.8575 33.7436 95.2711 34.1784 95.7115 34.6019C96.7049 35.5573 97.9497 36.3641 99.1863 36.8552C99.8056 37.0997 100.476 37.2313 101.015 36.97C101.547 36.7103 101.833 36.1414 101.925 35.5462C102.069 34.595 101.711 33.5639 101.275 32.5759C100.505 31.9321 99.7216 31.2962 98.9414 30.6675L98.8403 30.7686L98.7675 31.2939L98.5384 31.1785L98.6098 30.6392L96.5123 28.9419L95.9151 29.3386L95.7316 29.1467L96.4615 28.6636C95.5588 27.9209 94.6509 27.1731 93.7826 26.3806C93.5333 26.3882 93.2865 26.3984 93.0372 26.406C92.7374 26.4179 92.4351 26.4271 92.1348 26.4343C92.0817 26.436 92.0197 26.4414 91.9488 26.4506C91.7792 26.6305 91.6121 26.813 91.4446 26.9908C91.5081 27.1638 91.5763 27.3373 91.6492 27.5113Z" fill="white"/>
<path d="M107.181 31.1026L107.282 31.4947C107.431 31.3567 107.581 31.2165 107.727 31.0759C107.565 31.032 107.403 30.9834 107.24 30.9349L107.178 31.1L107.181 31.1026Z" fill="white"/>
<path d="M113.373 25.6713C113.267 25.0982 112.905 24.5458 112.539 24.0579C112.536 24.0554 112.534 24.0528 112.531 24.0502C112.429 23.9984 112.324 23.9439 112.221 23.8921C110.748 23.1181 109.341 22.1655 107.969 21.1562C107.388 21.1516 106.812 21.1569 106.237 21.1715C105.548 21.1863 104.861 21.2106 104.177 21.2467C105.232 22.4028 106.33 23.5308 107.368 24.7037C107.757 24.953 108.147 25.2002 108.536 25.4542C108.838 25.6509 109.156 25.8724 109.483 26.0855L109.53 26.0023L109.461 25.706L109.701 25.7391L109.77 26.0353L112.124 26.9409L112.491 26.343L112.667 26.4439C112.907 26.22 113.146 25.996 113.381 25.7716C113.378 25.7389 113.377 25.7087 113.371 25.6734L113.373 25.6713Z" fill="white"/>
<path d="M87.063 32.1954C87.3994 33.2268 88.0338 34.1813 88.7346 35.059C89.4647 35.9744 90.2818 36.8336 91.0621 37.7192L91.4085 37.6402L91.545 37.406L91.7343 37.5869L91.5999 37.819L93.0924 39.9516L93.8155 39.8198L93.9335 40.0515L93.117 40.1995L92.9984 40.241C93.0622 40.3469 93.1286 40.4553 93.1902 40.5634C93.4986 41.1034 93.7284 41.6449 93.9035 42.1948C94.1663 42.3228 94.4303 42.4394 94.6992 42.5356C94.8768 42.5995 95.0595 42.6432 95.2386 42.6749C95.8455 42.1194 96.4546 41.5617 97.0615 41.0062C96.9937 40.4415 96.8112 39.863 96.62 39.3138C96.3085 38.4169 95.9173 37.5329 95.5109 36.659C95.0136 35.5931 94.462 34.5404 93.9512 33.4778C93.7495 33.2887 93.5414 33.106 93.3255 32.9363C92.944 32.639 92.5426 32.3977 92.1407 32.1517L91.965 32.3171L91.8948 32.845L91.6657 32.7296L91.7371 32.1902L89.6396 30.4929L89.0424 30.8896L88.8589 30.6977L89.5626 30.2306C89.5275 30.2039 89.4946 30.1752 89.4595 30.1486C89.2744 30.0097 89.0892 29.8709 88.9003 29.741C88.2522 30.4406 87.6045 31.1449 86.9589 31.847C86.9892 31.9658 87.0195 32.0846 87.0592 32.2043L87.063 32.1954Z" fill="white"/>
<path d="M90.4373 39.8194C91.3326 40.5336 92.2903 41.2933 93.2995 41.873C93.1108 41.3726 92.8674 40.8807 92.562 40.3942L92.4299 40.439L92.1745 40.8743L91.9852 40.6934L92.2464 40.2471L90.7274 38.0331L89.986 38.1677L89.868 37.936L90.5458 37.8136C90.4595 37.7147 90.3733 37.6158 90.2849 37.5191C88.8579 35.9278 87.2254 34.2489 86.5862 32.2451C85.8404 33.0577 85.0947 33.8703 84.3515 34.6855C84.2825 34.7597 84.216 34.8364 84.1449 34.9127C84.8712 35.3021 85.569 35.823 86.2221 36.3371C87.6515 37.4633 89.0138 38.6823 90.4347 39.8169L90.4373 39.8194Z" fill="white"/>
<path d="M109.528 28.2872C109.355 27.9875 109.169 27.6957 108.973 27.4077L108.762 27.2895L108.822 27.1936C108.308 26.464 107.736 25.7658 107.133 25.0877C107.067 25.0464 107.002 25.0029 106.938 24.9594C105.071 23.762 103.18 22.6038 101.274 21.4859C100.349 21.5883 99.4311 21.7193 98.5255 21.8793C98.0203 21.968 97.5166 22.0707 97.021 22.1858C97.166 22.5036 97.3111 22.8213 97.4561 23.139L97.6381 22.9673L97.7912 23.1793L97.5986 23.3616L98.5294 25.48C98.5618 25.5504 98.5943 25.6208 98.6268 25.6911L99.391 25.7394L99.4568 25.9821L98.7393 25.9385C98.7987 26.0694 98.8606 26.2029 98.9199 26.3338C98.9697 26.4383 99.0147 26.5424 99.0645 26.6469C99.9609 27 100.839 27.4532 101.703 27.8909C102.683 28.3866 103.659 28.8959 104.651 29.3649L104.577 29.0635L104.816 29.0919L104.891 29.3865L107.258 30.2332L107.607 29.6219L107.837 29.7467L107.443 30.4344L107.417 30.5013C107.661 30.5812 107.904 30.647 108.148 30.706C108.731 30.1596 109.313 29.6133 109.897 29.0648C109.796 28.7861 109.669 28.5165 109.541 28.2954L109.528 28.2872Z" fill="white"/>
<path d="M106.938 31.0622L104.501 30.1623L104.144 30.7866L103.914 30.6619L104.385 29.8359L104.39 29.841L104.421 29.7793C103.579 29.3714 102.753 28.9327 101.953 28.5244C101.092 28.0845 100.22 27.625 99.3304 27.2494C99.9131 28.5229 100.496 29.7964 101.079 31.0699C101.271 31.4896 101.476 31.9221 101.672 32.3584C102.492 33.0396 103.318 33.7306 104.091 34.4743C105.104 33.5285 106.119 32.5806 107.129 31.6322L107.082 31.6276L106.935 31.0596L106.938 31.0622Z" fill="white"/>
<path d="M96.3217 21.7643C96.2963 21.7896 96.271 21.815 96.2457 21.8403C96.2797 21.8321 96.309 21.8234 96.3404 21.8126C96.3317 21.7955 96.3252 21.7763 96.3191 21.7617L96.3217 21.7643Z" fill="white"/>
<path d="M117.218 21.0081L117.206 21.2985L116.971 21.1988L116.984 20.913L114.844 19.4337L114.302 19.8729L114.108 19.6915L114.716 19.1964L114.809 19.0876C113.696 18.1804 112.584 17.2664 111.472 16.3571C110.084 15.2211 108.69 14.0846 107.301 12.9486C106.931 12.6455 106.318 12.1122 105.704 11.7641C105.194 12.3106 104.68 12.8546 104.17 13.4012C104.252 13.5553 104.346 13.7082 104.441 13.8449C104.505 13.9347 104.574 14.0202 104.643 14.1105L104.76 14.0711L104.871 13.8206L105.076 13.9867L104.963 14.2326L106.619 16.2587L107.317 16.0596L107.453 16.2838L106.68 16.5057C107.662 17.6475 108.642 18.7914 109.624 19.9333C109.854 20.2016 110.089 20.4704 110.324 20.7392C112.119 20.832 114.03 20.9874 115.812 21.6531C116.221 21.8049 116.693 22.0116 117.042 22.3358C117.436 21.9674 117.83 21.5991 118.222 21.2283C117.921 21.1636 117.625 21.0485 117.333 20.9037L117.223 21.0038L117.218 21.0081Z" fill="white"/>
<path d="M101.556 18.0103C102.208 18.9828 102.965 19.8916 103.752 20.771C104.93 20.6983 106.117 20.6635 107.309 20.664C106.458 20.0237 105.62 19.3661 104.789 18.7209C103.776 17.9347 102.767 17.1329 101.717 16.3988C101.645 16.3476 101.571 16.2985 101.499 16.2473C101.294 16.4677 101.086 16.6856 100.881 16.906C101.087 17.2807 101.314 17.6506 101.556 18.0103Z" fill="white"/>
<path d="M96.7407 21.5765C96.7585 21.6153 96.7788 21.6567 96.7966 21.6955C98.0153 21.4022 99.2762 21.2058 100.546 21.0566C99.7727 20.6115 98.9975 20.1732 98.2207 19.7417C97.7038 20.2946 97.1822 20.8471 96.6653 21.3999C96.6922 21.4605 96.7164 21.5185 96.7428 21.5744L96.7407 21.5765Z" fill="white"/>
<path d="M112.484 16.6158C113.351 17.3225 114.206 18.072 115.085 18.7822L115.182 18.6691L115.207 18.1299L115.442 18.2296L115.418 18.7829L117.612 20.3324L118.165 19.8826L118.359 20.064L117.714 20.5856C118.03 20.7166 118.353 20.7997 118.68 20.8021C118.781 20.7057 118.881 20.6114 118.985 20.5175C119.328 20.1951 119.661 19.8624 119.988 19.5245C119.908 18.5094 118.951 17.4557 118.281 16.6759C117.286 15.5212 116.274 14.3787 115.216 13.2778C114.4 12.4326 113.553 11.6029 112.668 10.8226L112.657 11.0901L112.423 10.9904L112.436 10.7046L110.295 9.22526L109.753 9.66451L109.559 9.48314L110.168 8.98796L110.238 8.90701C109.878 8.65581 109.511 8.41562 109.136 8.18852C108.711 8.58841 108.301 9.00374 107.903 9.42724C107.279 10.0922 106.653 10.7593 106.029 11.4242C106.85 11.8994 107.612 12.6282 108.318 13.2031C109.706 14.3391 111.1 15.4755 112.489 16.6115L112.484 16.6158Z" fill="white"/>
<path d="M106.582 19.5406C107.081 19.9213 107.583 20.2978 108.09 20.67C108.628 20.6772 109.164 20.6912 109.706 20.715C109.552 20.5399 109.398 20.3648 109.246 20.1876C108.251 19.0283 107.254 17.8663 106.258 16.707L106.015 16.8217L105.807 17.2872L105.603 17.121L105.817 16.6445L104.133 14.5391L103.421 14.7416L103.285 14.5174L104.166 14.2646C104.045 14.0974 103.933 13.9312 103.835 13.7617C103.163 14.4751 102.491 15.1932 101.819 15.9066C102.289 16.2288 102.746 16.5845 103.191 16.9205C104.328 17.7838 105.447 18.6706 106.584 19.5385L106.582 19.5406Z" fill="white"/>
<path d="M110.626 8.45692L110.651 7.91764L110.886 8.01736L110.862 8.57068L113.056 10.1202L113.609 9.67038L113.803 9.85174L113.07 10.4457L113.065 10.4405L112.98 10.5154C114.933 12.2332 116.697 14.1659 118.395 16.1291C119.172 17.0284 120.058 17.9892 120.379 19.1071C120.741 18.7194 121.088 18.321 121.425 17.9122C122.716 16.3388 122.788 14.4359 121.317 12.4976C120.563 11.5034 116.91 7.85007 115.913 7.0934C113.975 5.62259 112.074 5.69287 110.498 6.98557C110.15 7.27271 109.811 7.57013 109.476 7.87479C109.831 8.09536 110.183 8.32948 110.529 8.56993L110.626 8.45692Z" fill="white"/>
<path d="M116.675 22.6167C116.443 22.4316 116.173 22.3006 115.91 22.1934C115.101 21.8606 114.258 21.6957 113.435 21.5629C112.545 21.4188 111.656 21.3211 110.767 21.2582C111.465 22.0523 112.16 22.8531 112.805 23.6789C113.162 23.8511 113.523 24.0097 113.89 24.1411C114.193 24.2499 114.517 24.3423 114.837 24.3974C115.458 23.8131 116.08 23.2314 116.703 22.645C116.693 22.6347 116.682 22.6244 116.672 22.6141L116.675 22.6167Z" fill="white"/>
<path d="M113.786 25.3925C114.004 25.1896 114.217 24.9863 114.436 24.7834C114.068 24.6936 113.694 24.5638 113.327 24.4115C113.52 24.7271 113.685 25.0607 113.788 25.3951L113.786 25.3925Z" fill="white"/>
<path d="M93.2697 25.2786C93.4686 25.486 93.6759 25.6849 93.8921 25.88C95.0219 25.8558 96.1589 25.8809 97.3147 26.1185L97.3095 26.1134L97.682 25.7614L96.6553 23.3533L95.8703 23.3053L95.8045 23.0626L96.8458 23.1268L96.8484 23.1294L96.9508 23.1349C96.8235 22.856 96.6937 22.5745 96.5664 22.2956C96.2256 22.3844 95.8853 22.4779 95.5531 22.5838C94.7538 23.4397 93.9498 24.2951 93.153 25.1536C93.1942 25.1947 93.2358 25.2405 93.2697 25.2786Z" fill="white"/>
<path d="M92.8376 25.4949C92.7037 25.6391 92.5678 25.7853 92.4339 25.9294C92.7087 25.922 92.9809 25.9121 93.2532 25.9021C93.1157 25.7773 92.9701 25.6401 92.8376 25.4949Z" fill="white"/>
<path d="M101.291 20.9753C101.504 20.9525 101.715 20.9318 101.93 20.9116C102.35 20.8723 102.771 20.8424 103.191 20.8125C102.207 19.6935 101.28 18.5178 100.559 17.249C99.8866 17.9624 99.219 18.6763 98.5467 19.3897C98.9219 19.6007 99.296 19.8231 99.6665 20.0336C100.209 20.3399 100.75 20.6576 101.288 20.9728L101.291 20.9753Z" fill="white"/>
<path d="M97.5156 36.5154C96.569 35.9605 95.765 35.2786 94.9916 34.5094C95.1383 34.8204 95.2849 35.1313 95.4384 35.4406C96.238 37.0783 97.0836 38.7831 97.4608 40.5039C97.4692 40.5417 97.475 40.5771 97.4834 40.6149C98.5758 39.6099 99.6678 38.6002 100.755 37.5901C99.6945 37.7508 98.5087 37.0958 97.5156 36.5154Z" fill="white"/>
<path d="M111.834 23.1634C111.294 22.5054 110.723 21.8629 110.155 21.2229C109.696 21.1981 109.238 21.178 108.783 21.1699C109.312 21.5466 109.842 21.9165 110.381 22.2665C110.857 22.5777 111.341 22.8805 111.837 23.166L111.834 23.1634Z" fill="white"/>
<path d="M102.029 33.2204C102.27 33.8742 102.445 34.5328 102.449 35.1816C102.449 35.5104 102.405 35.8371 102.313 36.1404C102.8 35.6888 103.285 35.2346 103.77 34.7805C103.724 34.7342 103.676 34.69 103.627 34.6458C103.107 34.1588 102.571 33.6864 102.029 33.2204Z" fill="white"/>
<path d="M109.261 26.4777L109.266 26.4828L109.272 26.4765C109.215 26.4408 109.159 26.405 109.104 26.3672C108.864 26.2113 108.621 26.0529 108.381 25.897C108.618 26.1892 108.85 26.4877 109.072 26.79L109.263 26.4803L109.261 26.4777Z" fill="white"/>
<path d="M84.1558 46.3327C84.0999 46.3063 84.0419 46.2821 83.986 46.2557C85.0362 47.7354 85.8529 49.5924 85.765 51.2229C86.6352 50.4505 87.5133 49.6649 88.3998 48.871C88.0199 48.6132 87.6513 48.3289 87.285 48.0678C86.3078 47.3687 85.2128 46.8338 84.1537 46.3348L84.1558 46.3327Z" fill="white"/>
<path d="M94.2393 43.5456C94.2393 43.5456 94.2442 43.5716 94.2477 43.5835C94.4344 43.4122 94.6232 43.2388 94.81 43.0675C94.5663 42.9924 94.3208 42.8985 94.0781 42.7864C94.1423 43.0359 94.1929 43.2886 94.2393 43.5456Z" fill="white"/>
<path d="M87.4829 43.0308C87.409 42.9864 87.3373 42.9399 87.2634 42.8955C87.5307 43.2555 87.7938 43.6197 88.0523 43.9835C88.6741 44.858 89.2938 45.7346 89.8099 46.6634C89.9199 46.8619 90.0407 47.0753 90.1505 47.2946C90.8603 46.6568 91.5761 46.0079 92.3023 45.3485C91.9138 45.1663 91.5376 45.0386 91.1195 44.8859C89.8602 44.4226 88.6518 43.749 87.4782 43.0304L87.4829 43.0308Z" fill="white"/>
<path d="M93.0374 31.4602L92.49 31.8225C92.7312 31.9669 92.9704 32.1134 93.202 32.2777C93.3093 32.3555 93.4119 32.4329 93.515 32.5149C93.4492 32.3648 93.3739 32.2138 93.3102 32.0616C93.2252 31.8586 93.1287 31.6569 93.0348 31.4577L93.0374 31.4602Z" fill="white"/>
<path d="M83.4035 40.0299C83.9194 40.3058 84.4279 40.5994 84.9284 40.9062L83.9828 39.8259L83.4014 40.032L83.4035 40.0299Z" fill="white"/>
<path d="M75.3905 44.7826C75.4718 44.9945 75.5049 45.1876 75.5284 45.4006C75.6643 46.5348 76.5176 47.5018 77.4395 48.251C78.0089 48.7151 78.6249 49.1121 79.2521 49.4824L79.3925 49.3111L79.3985 48.7653L79.6346 48.8583L79.6275 49.4155L81.857 50.9037L82.3916 50.4359L82.5919 50.611L82.0957 51.0455C82.912 51.4787 83.7338 51.8961 84.5568 52.3021C84.7566 52.1228 84.9568 51.9483 85.1567 51.769C85.3463 50.9984 85.2743 50.1345 85.0128 49.275C84.6302 48.0122 83.9351 46.9128 83.1186 45.873C82.1631 45.4608 81.1914 45.0956 80.2154 44.7809C79.0674 44.412 77.8593 44.021 76.7064 43.9758C76.5275 43.9696 76.2712 43.9534 76.0198 43.9631C75.7968 44.2118 75.5785 44.461 75.3576 44.7076C75.3693 44.7319 75.3788 44.7583 75.3905 44.7826Z" fill="white"/>
<path d="M83.1885 39.9157L83.1451 39.8512L84.0577 39.5298C83.5765 38.9518 83.0865 38.3774 82.588 37.8116C82.4237 37.6262 82.2414 37.4228 82.0649 37.2085C81.5642 37.7607 81.0723 38.3091 80.5847 38.8533C81.1774 39.0165 81.7626 39.2437 82.337 39.5022C82.6232 39.6326 82.9082 39.7744 83.1864 39.9178L83.1885 39.9157Z" fill="white"/>
<path d="M98.452 26.4213C98.3784 26.2635 98.3074 26.1082 98.2359 25.9483L97.8246 25.9792L97.6151 26.1783C97.7765 26.2175 97.9378 26.2567 98.1001 26.3053C98.2193 26.3403 98.3365 26.3774 98.4541 26.4192L98.452 26.4213Z" fill="white"/>
<path d="M79.3746 40.4694C79.4736 40.7201 79.6082 40.9557 79.7606 41.1839L79.8808 41.1357L79.978 40.8791L80.1879 41.0342L80.0928 41.2887L81.8386 43.2451L82.5162 43.0046L82.663 43.2229L81.9002 43.492L81.7662 43.5644C82.329 44.1945 82.8871 44.8242 83.411 45.4829C83.7355 45.6264 84.0579 45.7719 84.3813 45.9267C85.4071 46.4177 86.4744 46.929 87.4212 47.602C87.8473 47.906 88.2879 48.2624 88.7459 48.5603C89.0966 48.2456 89.4473 47.9309 89.8002 47.614C89.4542 46.8596 89.0019 46.1292 88.5273 45.4315C87.792 44.3465 87.0169 43.2808 86.2177 42.2289C86.1288 42.1738 86.0447 42.1191 85.9584 42.0665L85.7935 42.5039L85.5836 42.3488L85.7415 41.9338C85.1016 41.5298 84.4623 41.1305 83.8049 40.7595C83.179 40.4033 82.5445 40.0762 81.8897 39.8004C81.3797 39.5853 80.7922 39.3347 80.2429 39.2361C79.9303 39.5847 79.6198 39.9312 79.3114 40.2756C79.3319 40.3425 79.3546 40.4073 79.3793 40.4699L79.3746 40.4694Z" fill="white"/>
<path d="M83.6586 38.3605C83.9414 38.6896 84.2199 39.0229 84.4964 39.3583L84.5764 39.3246L84.6736 39.068L84.8835 39.2232L84.7884 39.4777L86.5342 41.4341L87.2119 41.1935L87.3586 41.4118L86.5958 41.681L86.4225 41.7772C86.4517 41.8148 86.4809 41.8525 86.5101 41.8901C87.496 42.5137 88.486 43.1331 89.514 43.6683C90.5513 44.2044 91.6421 44.4865 92.67 45.0217C93.0203 44.7023 93.3727 44.3808 93.7297 44.0598C93.7613 44.0282 93.7933 44.0013 93.8275 43.9722C93.7984 43.7957 93.7671 43.6213 93.7385 43.4494C93.6809 43.1265 93.6034 42.8131 93.5124 42.5031C93.2038 42.3335 92.9078 42.1512 92.631 41.9755C91.0783 40.983 89.6464 39.7617 88.2287 38.5672C86.8667 37.42 85.4629 36.1088 83.8993 35.2865C83.8797 35.2753 83.8579 35.2662 83.8383 35.255C83.3438 35.8008 82.8531 36.3378 82.3713 36.871C82.7742 37.3834 83.2389 37.8649 83.6633 38.3609L83.6586 38.3605Z" fill="white"/>
<path d="M98.7186 27.0082C98.572 26.9543 98.428 26.9029 98.2797 26.8557C97.1079 26.4799 95.9298 26.3674 94.7785 26.3617C94.6625 26.3594 94.5474 26.3665 94.4293 26.3663C95.2161 27.0604 96.0193 27.733 96.8241 28.3988L96.9537 28.3052L96.9903 28.0218L97.2194 28.1372L97.1823 28.4159L99.2286 30.041L99.8127 29.6523L99.9962 29.8442L99.3402 30.279L99.2476 30.3717C99.784 30.8071 100.325 31.2429 100.86 31.6851C100.799 31.5562 100.74 31.43 100.683 31.3016C100.029 29.8682 99.3719 28.4323 98.7156 27.001L98.7186 27.0082Z" fill="white"/>
<path d="M104.585 22.3451C104.258 21.9931 103.934 21.639 103.609 21.2802C103.082 21.3135 102.556 21.3561 102.033 21.406C103.351 22.1854 104.658 22.9821 105.957 23.8013C105.496 23.3109 105.034 22.8273 104.585 22.3451Z" fill="white"/>
<path d="M80.4398 44.3564C81.129 44.5824 81.816 44.8313 82.4963 45.1073C82.1191 44.6669 81.7309 44.2324 81.3402 43.7953L81.2653 43.8342L81.0838 44.3139L80.8739 44.1588L81.0613 43.668L79.2799 41.634L78.5888 41.8778L78.442 41.6595L79.3234 41.3489C79.1869 41.1408 79.057 40.9057 78.9521 40.666C78.1102 41.6056 77.2835 42.5352 76.4631 43.4585C76.6607 43.4665 76.8452 43.4826 76.9855 43.4965C78.118 43.593 79.3151 43.9898 80.4372 44.3538L80.4398 44.3564Z" fill="white"/>
<path d="M109.141 30.8598C108.815 30.8366 108.475 30.7751 108.136 30.6927C107.998 30.8203 107.863 30.9504 107.725 31.0779C108.191 31.203 108.659 31.2958 109.125 31.3491C110.157 31.4633 110.719 30.8038 110.572 29.7889C110.519 29.4202 110.405 29.0615 110.252 28.7106C110.131 28.8259 110.008 28.9387 109.888 29.0541C110.21 29.9451 110.256 30.9429 109.144 30.8624L109.141 30.8598Z" fill="white"/>
<path d="M112.547 27.0265C112.482 27.0454 112.414 27.0572 112.35 27.0694L112.717 26.4714L112.665 26.4408C112.248 26.8323 111.829 27.2259 111.411 27.6173L111.783 27.7654L111.913 28.3341L112.153 28.3671L112.026 27.8104L112.119 27.5835C112.857 27.5805 113.533 27.3004 113.792 26.62C113.941 26.2296 113.908 25.8096 113.781 25.3918C113.645 25.5172 113.514 25.6431 113.379 25.7685C113.45 26.3915 113.105 26.8643 112.543 27.026L112.547 27.0265Z" fill="white"/>
<path d="M119.985 19.8409C119.91 20.4864 119.347 20.8031 118.71 20.8023C118.7 20.8014 118.689 20.8026 118.68 20.8016C118.525 20.946 118.372 21.0883 118.218 21.2327C118.535 21.3012 118.857 21.324 119.178 21.2702C120.195 21.112 120.685 20.2255 120.399 19.1597C120.395 19.1431 120.386 19.126 120.38 19.1069C120.25 19.2468 120.118 19.3841 119.986 19.5215C119.994 19.6265 119.995 19.7331 119.982 19.8384L119.985 19.8409Z" fill="white"/>
<path d="M93.8813 44.9988C93.8596 45.2004 93.8183 45.4371 93.5847 45.4393C93.3693 45.4387 93.0865 45.2485 92.8927 45.1389C92.8193 45.0992 92.7438 45.0616 92.6703 45.0219C92.5494 45.1326 92.4305 45.2412 92.307 45.3493C92.4332 45.4081 92.5599 45.4717 92.6902 45.5471C93.0436 45.749 93.4916 46.0158 93.8672 45.9281C94.6893 45.7436 94.3737 44.2698 94.2476 43.5835C94.1077 43.7131 93.9677 43.8428 93.8252 43.9698C93.8809 44.3204 93.9179 44.669 93.8813 44.9988Z" fill="white"/>
<path d="M116.986 23.0204C117.03 23.1661 117.009 23.3422 116.928 23.5101C116.805 23.7665 116.609 23.9993 116.384 24.1622C115.965 24.4678 115.408 24.4957 114.845 24.4004C114.707 24.5279 114.572 24.658 114.434 24.7856C115.561 25.0621 116.631 24.9693 117.272 23.9935C117.518 23.6197 117.621 23.1206 117.303 22.6468C117.229 22.5352 117.138 22.4359 117.039 22.345C116.931 22.4477 116.819 22.55 116.711 22.6527C116.83 22.7548 116.946 22.896 116.986 23.0251L116.986 23.0204Z" fill="white"/>
<path d="M97.0944 41.4769C97.0794 42.5358 96.1826 42.831 95.2428 42.6704C95.0987 42.8042 94.952 42.9355 94.81 43.0672C95.3428 43.2337 95.8722 43.2956 96.3627 43.1754C97.5487 42.8789 97.7187 41.7937 97.4834 40.6149C97.3434 40.7446 97.2056 40.8721 97.0657 41.0017C97.0862 41.1612 97.0973 41.3198 97.0965 41.4748L97.0944 41.4769Z" fill="white"/>
<path d="M92.8163 24.6988C92.7804 24.5702 92.8254 24.3246 92.9085 24.1592C93.023 23.9367 93.2025 23.7624 93.4016 23.5993C93.9783 23.1357 94.7214 22.8554 95.4385 22.6165C95.4767 22.604 95.5127 22.5937 95.5508 22.5813C95.7832 22.3335 96.0155 22.0857 96.2479 21.838C95.869 21.9392 95.4952 22.0456 95.1254 22.1686C94.3858 22.4145 93.6539 22.7145 93.0543 23.1804C92.6568 23.4905 92.2833 23.9257 92.3087 24.5071C92.3254 24.8606 92.5551 25.1914 92.8346 25.4878C92.9415 25.3757 93.0438 25.2632 93.1481 25.1485C92.9981 24.99 92.8462 24.8129 92.8133 24.6915L92.8163 24.6988Z" fill="white"/>
<path d="M100.823 37.583C101.603 37.4406 102.092 36.8594 102.312 36.1404C101.793 36.6236 101.274 37.1068 100.755 37.59C100.778 37.5877 100.801 37.59 100.823 37.583Z" fill="white"/>
<path d="M96.323 19.6599C96.515 18.9126 97.3779 19.2786 97.9512 19.5949C98.0416 19.6433 98.13 19.6937 98.2184 19.7442C98.3295 19.6279 98.4381 19.509 98.5492 19.3927C98.2526 19.2266 97.9517 19.0647 97.6463 18.9279C97.1495 18.7048 96.6049 18.6067 96.2063 18.8819C95.39 19.4513 95.9161 20.8535 96.3237 21.7622C96.437 21.6439 96.5498 21.5208 96.663 21.4024C96.4199 20.8434 96.1878 20.1859 96.323 19.6599Z" fill="white"/>
<path d="M75.2798 44.1792C75.4242 44.0245 75.7203 43.9752 76.0222 43.9613C76.1699 43.793 76.3201 43.6274 76.4657 43.4613C75.7725 43.4294 74.8698 43.4785 74.7299 44.0504C74.6457 44.3916 74.9145 44.7656 75.0024 45.1147C75.1211 44.9807 75.2418 44.8445 75.3605 44.7104C75.2773 44.5262 75.1544 44.3149 75.2824 44.1817L75.2798 44.1792Z" fill="white"/>
<path d="M82.2345 36.7048C81.8361 36.1674 81.5727 35.4744 82.1206 35.1167C82.6034 34.8035 83.2633 34.9664 83.8337 35.2547C83.9381 35.14 84.0424 35.0254 84.1468 34.9107C84.0589 34.8649 83.9701 34.8098 83.8801 34.7661C82.983 34.3366 81.781 34.2633 81.3898 35.1482C81.0898 35.8338 81.5447 36.5667 82.0642 37.2041C82.1644 37.0937 82.2645 36.9833 82.3668 36.8707C82.3217 36.813 82.277 36.7599 82.2319 36.7022L82.2345 36.7048Z" fill="white"/>
<path d="M79.8985 39.1952C80.0077 39.1991 80.123 39.2175 80.2362 39.238C80.3506 39.1082 80.4676 38.9809 80.582 38.8511C80.5296 38.8366 80.4794 38.82 80.4296 38.8081C79.9021 38.6723 79.3336 38.6135 78.973 38.9689C78.5645 39.3774 78.6731 40.0504 78.9503 40.673C79.0669 40.541 79.186 40.4117 79.3025 40.2797C79.1333 39.7188 79.2058 39.168 79.8964 39.1973L79.8985 39.1952Z" fill="white"/>
<path d="M84.8926 52.4654C84.7783 52.4101 84.6661 52.3526 84.5564 52.2977C84.4329 52.4058 84.3119 52.5165 84.1905 52.6225C84.4584 52.7556 84.7242 52.8909 84.9917 53.0194C85.1035 53.0722 85.2104 53.0064 85.2581 52.9278C85.5795 52.411 85.7325 51.8312 85.7647 51.2232C85.5627 51.4045 85.3582 51.5833 85.1584 51.7625C85.0994 52.0067 85.0118 52.2434 84.8947 52.4633L84.8926 52.4654Z" fill="white"/>
<path d="M91.3371 26.682C91.3161 26.6104 91.3073 26.5215 91.2842 26.4521C91.4521 26.5105 91.7287 26.4755 91.9486 26.451C92.1119 26.2774 92.2706 26.1033 92.4339 25.9297C92.0737 25.9402 91.7136 25.9507 91.3525 25.9518C91.1002 25.9522 90.8437 25.9105 90.7832 26.187C90.748 26.3455 90.8075 26.5483 90.854 26.7126C90.9154 26.9341 90.9976 27.1552 91.0865 27.3748C91.2056 27.2454 91.3252 27.1207 91.4443 26.9913C91.4065 26.8903 91.3682 26.7846 91.3371 26.682Z" fill="white"/>
<path d="M100.59 16.3492C100.532 16.2324 100.481 16.1138 100.429 15.9953C100.387 15.8985 100.338 15.6597 100.261 15.5826C100.275 15.584 100.292 15.588 100.304 15.5915C100.425 15.6291 100.546 15.6781 100.661 15.7381C100.948 15.8825 101.228 16.0655 101.499 16.2522C101.606 16.1401 101.71 16.0254 101.817 15.9134C101.482 15.6832 101.136 15.4682 100.783 15.2919C100.547 15.1734 100.261 15.0431 100.02 15.0886C99.4103 15.1993 99.9322 16.0246 100.125 16.4281C100.257 16.7075 100.405 16.9815 100.561 17.2517C100.67 17.1375 100.777 17.0208 100.886 16.9066C100.784 16.7205 100.685 16.537 100.594 16.3497L100.59 16.3492Z" fill="white"/>
<path d="M107.324 31.6588L107.282 31.4949C107.234 31.5433 107.183 31.5892 107.132 31.6351L107.324 31.6588Z" fill="white"/>
<path d="M108.165 7.12375C107.862 6.96864 107.657 7.37426 107.962 7.53194C108.36 7.73588 108.75 7.95759 109.132 8.18772C109.244 8.08079 109.361 7.979 109.476 7.87463C109.049 7.60757 108.612 7.35572 108.163 7.12586L108.165 7.12375Z" fill="white"/>
<path d="M104.037 11.7606C104.409 11.2349 105.059 11.4016 105.705 11.769C105.812 11.657 105.918 11.5402 106.025 11.4281C105.733 11.2578 105.432 11.1214 105.123 11.0351C104.027 10.7317 103.263 11.429 103.377 12.5077C103.423 12.9405 103.596 13.3583 103.831 13.7614C103.944 13.643 104.055 13.522 104.166 13.4057C103.87 12.8484 103.71 12.2166 104.03 11.7623L104.037 11.7606Z" fill="white"/>
<path d="M104.44 34.8146C104.327 34.7015 104.21 34.5926 104.092 34.479C103.984 34.5817 103.876 34.6798 103.768 34.7825C104.036 35.0337 104.305 35.2943 104.535 35.5788C104.593 35.6494 104.684 35.795 104.716 35.8399C104.721 35.8451 104.721 35.8451 104.726 35.8502C104.601 36.0369 104.854 36.3861 105.071 36.2457C105.581 35.9213 104.747 35.1253 104.44 34.8146Z" fill="white"/>
<path d="M89.8287 47.6938C90.0401 48.1663 90.5237 49.3743 89.6116 49.0266C89.3133 48.9136 89.0239 48.7505 88.7394 48.5671C88.6268 48.6694 88.5117 48.7691 88.3992 48.8713C88.7517 49.1101 89.1159 49.3269 89.497 49.4806C90.0951 49.7207 90.6363 49.5754 90.6528 48.9264C90.6657 48.4044 90.4301 47.8277 90.1549 47.2956C90.034 47.4062 89.9125 47.5122 89.7937 47.6208C89.8053 47.6451 89.817 47.6694 89.8313 47.6963L89.8287 47.6938Z" fill="white"/>
<path d="M86.8037 30.5928C86.8051 30.1183 86.8334 29.2158 87.3368 29.0621C87.6224 28.9771 88.0137 29.1873 88.2887 29.3443C88.4995 29.4625 88.7024 29.5939 88.9016 29.7341C89.0039 29.6215 89.1108 29.5094 89.2131 29.3969C88.9194 29.1917 88.6226 29.0001 88.3102 28.8394C87.6881 28.5206 87.0439 28.3986 86.675 28.9269C86.114 29.7347 86.2361 31.0781 86.5484 32.1233C86.5594 32.1637 86.575 32.2046 86.5906 32.2456C86.7161 32.1098 86.8368 31.9737 86.9622 31.838C86.8584 31.4225 86.8051 31.0027 86.8037 30.5928Z" fill="white"/>
<path d="M40.2121 83.5039C41.7169 84.9455 43.6986 86.5735 45.717 87.4294C52.4886 80.9972 59.1314 74.8994 64.6396 69.9414C71.678 63.6075 77.775 58.3075 84.1856 52.6219C83.3627 52.2159 82.543 51.7964 81.7292 51.3658L81.4861 51.5987L81.4827 51.89L81.2465 51.7971L81.2504 51.5104L79.0764 50.0902L78.5548 50.55L78.3545 50.375L78.9444 49.8571L78.9612 49.8403C78.503 49.5632 78.0553 49.2756 77.6231 48.9571C76.7514 48.317 75.8908 47.5322 75.4033 46.5646C75.1643 46.0939 75.0991 45.6707 75.0163 45.1878C75.0114 45.1619 75.0044 45.138 74.9974 45.1142C69.6085 51.2023 64.507 57.0598 58.4667 63.7685C53.3105 69.4955 46.9245 76.4523 40.2096 83.5014L40.2121 83.5039Z" fill="white"/>
<path d="M26.3429 106.593C26.6406 106.28 26.945 105.965 27.2473 105.653C25.7483 103.943 24.63 101.801 23.8841 100.074C22.932 101 21.9874 101.909 21.0503 102.8C22.5083 104.19 24.4031 105.736 26.3429 106.593Z" fill="#878787"/>
<path d="M36.7815 96.0567C37.5221 95.3316 38.2647 94.6043 39.01 93.8797C38.2395 93.3492 37.5118 92.7143 36.8434 92.0458C35.959 91.1614 35.1824 90.2206 34.5554 89.3872C33.8918 90.0714 33.2252 90.7483 32.5611 91.4278C33.6056 92.9903 35.083 94.8552 36.7841 96.0593L36.7815 96.0567Z" fill="#878787"/>
<path d="M30.923 101.895C29.4476 100.213 28.3302 98.1267 27.577 96.4427C26.4204 97.5942 25.2687 98.7253 24.1313 99.8369C24.867 101.554 25.9813 103.725 27.4642 105.436C28.5934 104.265 29.7472 103.086 30.923 101.895Z" fill="#878787"/>
<path d="M39.2335 93.6611C39.9345 92.9806 40.6376 92.2981 41.3433 91.6181C39.7052 89.9294 38.4047 87.8413 37.5574 86.2822C36.6319 87.2437 35.7018 88.2046 34.7712 89.1609C35.8752 90.6228 37.455 92.447 39.2356 93.659L39.2335 93.6611Z" fill="#878787"/>
<path d="M32.3335 91.6553C31.5199 92.4843 30.7059 93.3086 29.8956 94.124C31.24 95.4432 33.0211 96.9632 34.8816 97.9308C35.4333 97.379 35.9944 96.8282 36.5534 96.2795C35.9926 95.8788 35.4555 95.4132 34.9541 94.9119C33.9232 93.8809 33.0354 92.7068 32.3314 91.6574L32.3335 91.6553Z" fill="#878787"/>
<path d="M27.8172 96.2026C28.5601 97.8764 29.6735 99.9921 31.1353 101.677C32.2905 100.512 33.4635 99.3387 34.65 98.1625C32.7732 97.1701 31.0091 95.6588 29.6771 94.3478C29.0538 94.9711 28.4347 95.5903 27.8176 96.2073L27.8172 96.2026Z" fill="#878787"/>
<path d="M18.4326 115.172C19.2374 114.254 20.0751 113.318 20.9479 112.363C19.1546 110.372 17.809 107.969 17.0837 106.519C15.8235 107.677 14.5935 108.789 13.3969 109.841C14.4627 111.362 16.2993 113.695 18.4326 115.172Z" fill="#878787"/>
<path d="M23.7425 109.337C24.5149 108.513 25.3093 107.678 26.1147 106.836C24.1551 105.942 22.2769 104.401 20.8287 103.016C20.283 103.536 19.739 104.049 19.2014 104.556C20.3248 106.214 21.917 108.185 23.7425 109.337Z" fill="#878787"/>
<path d="M18.2272 115.408C17.4759 114.884 16.7611 114.262 16.108 113.609C14.8843 112.385 13.8673 111.053 13.1653 110.047C12.8714 110.305 12.5776 110.563 12.29 110.815C11.3076 111.669 10.8809 111.987 10.6035 112.085C11.316 113.033 12.2036 114.089 13.2792 115.127C14.3599 116.17 15.4155 117.053 16.3414 117.772C16.455 117.494 16.7848 117.062 17.5991 116.124C17.8048 115.887 18.0168 115.644 18.2293 115.406L18.2272 115.408Z" fill="#878787"/>
<path d="M37.7837 86.0411C38.6202 87.5852 39.9312 89.7091 41.5652 91.402C42.8687 90.1448 44.1731 88.8969 45.4764 87.6605C43.4423 86.7636 41.4859 85.1567 39.9986 83.7284C39.2627 84.5003 38.5268 85.2722 37.7862 86.0437L37.7837 86.0411Z" fill="#878787"/>
<path d="M21.1541 112.131C21.9247 111.289 22.7168 110.43 23.5287 109.561C22.8192 109.109 22.1475 108.546 21.5253 107.924C20.5277 106.927 19.6598 105.789 18.9654 104.766C18.4104 105.285 17.8638 105.796 17.3163 106.297C18.0157 107.696 19.3667 110.129 21.1516 112.129L21.1541 112.131Z" fill="#878787"/>
</svg>
