<svg width="128" height="128" viewBox="0 0 128 128" fill="none" xmlns="http://www.w3.org/2000/svg">
<g clip-path="url(#clip0_268_8647)">
<g clip-path="url(#clip1_268_8647)">
<path d="M40.5045 80.5725C40.5045 80.5725 41.1991 82.168 43.4845 84.4534C45.7699 86.7388 47.747 87.7656 47.747 87.7656L56.2566 78.0508C56.6646 77.5778 57.1979 77.23 57.7879 77.0479L62.905 75.4632C64.0223 75.1155 64.8903 74.1918 65.1621 73.0578L67.2147 64.4688C67.4858 63.3541 68.3297 62.4359 69.4235 62.0746L76.2616 59.8351C77.3164 59.4942 78.1443 58.6293 78.4426 57.5614L80.4769 50.2609C80.8025 49.0917 81.7661 48.1744 82.948 47.9011C84.4913 47.5538 86.6999 47.0697 88.5262 46.7083C89.6923 46.4786 90.6636 45.6186 91.0407 44.4812C91.6888 42.5258 92.415 40.2327 92.9068 38.6655C93.2648 37.5287 94.2271 36.6498 95.3889 36.4059L100.914 35.2388C102.109 34.989 103.097 34.0661 103.428 32.8824L105.047 27.137C105.167 26.7022 105.386 26.2881 105.675 25.9339C105.675 25.9339 115.189 16.6985 116.786 12.6726C109.5 17.7705 103.072 20.4992 103.072 20.4992C102.361 20.8767 101.799 21.5031 101.511 22.2546L99.0425 28.6358C98.6347 29.6833 97.7136 30.4747 96.6241 30.7018L90.9838 31.8919C89.7738 32.147 88.7808 33.0843 88.4639 34.282L86.8569 40.228C86.5245 41.4597 85.4929 42.4079 84.2455 42.6355L78.7793 43.6236C77.5127 43.8518 76.4656 44.834 76.1517 46.0842L74.3574 53.2189C74.055 54.4113 73.0951 55.3619 71.8984 55.6501L64.5838 57.3833C63.4789 57.6445 62.566 58.4739 62.2003 59.5535L59.5257 67.4016C59.1606 68.462 58.2719 69.2859 57.1905 69.5607L51.5565 70.9947C51.0351 71.1267 50.5477 71.3916 50.1431 71.7591L40.5094 80.5676L40.5045 80.5725Z" fill="white"/>
<path d="M26.6864 108.765C27.3224 108.427 28.0168 108.018 28.7435 107.552L23.8046 95.6937C23.1733 96.3746 22.6028 97.0567 22.092 97.7289L26.6864 108.765Z" fill="#878787"/>
<path d="M21.5787 98.4282C18.9073 102.129 17.9971 105.186 17.9971 105.186L23.1701 110.359C23.1701 110.359 24.3251 109.973 26.0293 109.112L21.5787 98.4282Z" fill="#878787"/>
<path d="M35.0017 88.1808C35.0017 88.1808 29.7161 89.7447 24.6361 94.8248C24.5416 94.9192 24.4521 95.0087 24.3627 95.0981L29.3697 107.124C30.7151 106.212 32.1476 105.09 33.5245 103.713C38.3461 98.8917 40.1685 93.3476 40.1685 93.3476C40.1685 93.3476 38.7081 92.265 37.3931 90.95C36.0781 89.635 34.9955 88.1746 34.9955 88.1746L35.0017 88.1808Z" fill="#878787"/>
<path d="M21.138 117.055L13.3282 117.297C12.1461 117.338 11.0048 116.197 11.0394 115.009L11.2807 107.237C11.3088 106.341 12.0269 105.747 12.9568 105.871L17.1494 106.157L22.2852 111.293L22.5027 115.417C22.6025 116.322 22.0171 117.019 21.1318 117.049L21.138 117.055Z" fill="#878787"/>
<path d="M42.7626 85.5436C30.6364 73.4173 31.0353 58.4669 30.3406 57.7722C26.4887 53.9203 22.2934 74.1806 38.2095 90.0967C54.1256 106.013 74.603 102.035 70.534 97.9656C69.3617 96.7933 54.8889 97.6699 42.7626 85.5436Z" fill="#878787"/>
</g>
</g>
<defs>
<clipPath id="clip0_268_8647">
<rect width="128" height="128" fill="white"/>
</clipPath>
<clipPath id="clip1_268_8647">
<rect width="148.057" height="59.614" fill="white" transform="translate(-9.34094 95.543) rotate(-45)"/>
</clipPath>
</defs>
</svg>
