<svg width="128" height="128" viewBox="0 0 128 128" fill="none" xmlns="http://www.w3.org/2000/svg">
<g clip-path="url(#clip0_268_8650)">
<path d="M23.8861 103.381C22.5814 107.469 20.9766 111.161 18.5553 114.464C17.8006 115.493 17.0683 115.642 16.0358 114.542C15.0482 113.493 14.0634 112.407 12.9776 111.467C11.7151 110.373 12.3576 109.613 13.2021 108.931C14.6778 107.736 16.3164 106.759 18.0082 105.887C19.8206 104.95 21.6303 103.993 23.8861 103.381Z" fill="#878787"/>
<path d="M22.4606 79.4487C22.2025 81.7999 22.6991 84.0191 23.8634 86.0813C25.2214 88.4886 39.1179 102.385 41.5252 103.743C43.5873 104.907 45.8094 105.401 48.1578 105.146C51.0392 104.829 53.2136 102.621 53.5334 99.759C53.6457 98.777 53.5811 97.809 52.5009 97.3349C51.2861 96.8046 50.1863 97.0627 49.2828 98.0111C48.4608 98.8724 48.8087 99.7141 49.3361 100.606C49.743 101.294 50.8344 101.959 50.4416 102.643C49.9478 103.507 48.6936 103.488 47.6892 103.572C44.631 103.824 42.2687 102.511 40.2907 100.292C39.2778 99.0435 38.2453 97.809 37.2465 96.5521C38.1696 95.528 38.9692 94.2458 38.8261 93.6931C38.3463 91.8217 36.1214 89.855 36.6882 90.4161C37.2549 90.9772 35.7146 89.1451 33.9106 88.5756C33.2484 88.3679 32.6873 88.6373 32.2103 89.0638C31.7754 89.4537 31.349 89.8521 30.9281 90.2562C29.7133 89.2882 28.5208 88.2922 27.3144 87.3158C25.0923 85.335 23.7821 82.9754 24.0346 79.9173C24.1159 78.9156 24.0991 77.6587 24.9633 77.1649C25.6506 76.7749 26.3184 77.8635 27.0002 78.2703C27.8896 78.8006 28.7341 79.1457 29.5954 78.3236C30.5409 77.4174 30.8019 76.3204 30.2716 75.1055C29.8002 74.0225 28.8323 73.9636 27.8475 74.073C24.9857 74.3929 22.7776 76.5673 22.4606 79.4487Z" fill="#878787"/>
<path d="M5.03766 117.998C4.47372 119.572 4.16509 121.239 3.71899 122.858C3.58432 123.346 3.58993 123.66 3.80035 123.786C3.92661 123.997 4.24084 124.003 4.72903 123.868C6.34791 123.422 8.01167 123.116 9.58846 122.549C12.5344 121.494 13.1012 121.971 10.7696 119.067C10.374 118.571 9.0161 117.213 8.5223 116.82C5.61843 114.488 6.0982 115.052 5.04046 118.001L5.03766 117.998Z" fill="#878787"/>
<path d="M25.9258 96.3695C25.8248 98.3222 25.3927 100.224 24.9185 102.292C24.9073 102.343 24.8905 102.382 24.9803 102.354C27.0509 101.877 28.9503 101.448 30.903 101.347C31.8317 101.299 32.2638 100.536 32.5921 99.8822C32.8951 99.2762 32.5388 99.1275 31.8963 98.4625C31.4726 98.022 30.9115 97.4721 30.3559 96.9222C29.806 96.3667 29.2589 95.8083 28.8156 95.3819C28.1507 94.7394 27.9964 94.3831 27.396 94.6861C26.7394 95.0171 25.9791 95.4464 25.9314 96.3751L25.9258 96.3695Z" fill="#878787"/>
<path d="M20.898 112.491C22.1297 109.671 23.4877 106.916 24.3659 103.962C24.4809 103.572 24.6773 103.252 25.115 103.134C26.8882 102.651 28.6613 102.18 30.8582 102.121C27.7467 106.057 24.4837 109.399 20.8924 112.491L20.898 112.491Z" fill="#878787"/>
<path d="M14.8211 106.414C17.6408 105.182 20.396 103.825 23.3504 102.946C23.7404 102.831 24.0602 102.635 24.1781 102.197C24.6606 100.424 25.132 98.6509 25.1909 96.454C21.2545 99.5655 17.913 102.829 14.8211 106.42L14.8211 106.414Z" fill="#878787"/>
<path d="M10.0035 113.88C9.32458 113.369 9.00473 112.904 9.69492 112.309C10.3627 111.736 10.7779 110.126 11.9984 111.116C13.6313 112.441 15.1183 113.978 16.4819 115.583C17.3376 116.59 16.1901 117.171 15.5307 117.684C14.9359 118.145 14.2626 118.689 13.6621 117.55C13.3563 116.975 12.798 116.534 12.3519 116.032C12.3266 116.057 10.8424 114.511 10.0035 113.88Z" fill="#878787"/>
<path d="M6.97607 115.207C8.00014 115.833 8.98493 116.531 9.8575 117.365C9.92203 117.429 9.98375 117.491 10.0483 117.555C10.1128 117.62 10.1745 117.682 10.2391 117.746C11.0752 118.622 11.771 119.604 12.3966 120.628C12.9325 121.506 13.3281 121.172 13.7967 120.658C14.5065 119.887 14.2792 119.115 13.7714 118.355C12.9185 117.087 10.5112 114.68 9.24306 113.827C8.48833 113.319 7.71396 113.094 6.9396 113.801C6.42896 114.273 6.09228 114.666 6.97046 115.201L6.97607 115.207Z" fill="#878787"/>
<path d="M31.7699 95.7161C32.4011 96.3473 33.01 97.0067 33.6749 97.5987C34.0593 97.9438 34.2894 98.2131 33.919 98.7069C33.4841 99.2877 33.1643 98.9173 32.8472 98.6003C31.4584 97.2227 30.0752 95.8451 28.7005 94.4535C28.4002 94.1533 27.9513 93.811 28.5349 93.3733C28.9558 93.0591 29.2924 93.1264 29.6684 93.5585C30.3277 94.3132 31.0741 94.9922 31.7839 95.702C31.7783 95.7076 31.7755 95.7104 31.7699 95.7161Z" fill="#878787"/>
<path d="M112.756 10.2917C106.047 16.7924 34.3961 87.3832 33.8153 87.9415C35.5604 87.7507 39.8082 91.3813 39.2611 93.7465C39.8924 93.0984 109.597 22.3505 117.206 14.7415C124.815 7.13248 124.13 4.1809 123.653 3.70956C123.274 3.3364 119.52 3.72919 112.753 10.2889L112.756 10.2917ZM77.1069 50.6934L40.6808 87.1419L40.2599 86.7211C61.454 65.7346 92.1285 34.4317 113.345 14.0569C103.158 24.8615 87.7235 40.0038 77.1069 50.6934Z" fill="white"/>
</g>
<defs>
<clipPath id="clip0_268_8650">
<rect width="128" height="128" fill="white"/>
</clipPath>
</defs>
</svg>
