<svg width="128" height="128" viewBox="0 0 128 128" fill="none" xmlns="http://www.w3.org/2000/svg">
<path d="M43.3699 85.0398C43.3699 85.0398 46.1199 87.4898 45.1099 88.8898L43.7949 90.2348C43.7949 90.2348 43.105 90.6348 42.685 90.3748C42.685 90.3748 44.26 89.2798 41.58 86.8648C39.11 84.2298 38.435 86.1348 38.435 86.1348C38.17 85.7198 38.2999 84.8398 38.2999 84.8398L39.615 83.4948C40.995 82.4598 43.3749 85.0348 43.3749 85.0348L43.3699 85.0398Z" fill="#878787"/>
<path d="M30.9351 94.4096C32.2001 94.7596 33.4251 95.0596 34.7101 94.7696C35.0551 94.7046 35.3951 94.7096 35.7301 94.7546L35.2101 94.2446C34.0851 94.2896 32.7501 93.9246 31.9951 93.3296L30.9401 94.4046L30.9351 94.4096Z" fill="#878787"/>
<path d="M33.415 96.2646C32.3 96.5196 30.73 96.2096 29.77 95.5996L28.75 96.6396C29.835 96.9196 30.895 97.1096 32.005 96.8596C33.215 96.6396 34.415 97.1646 35.285 97.9946L36.29 96.9696C35.425 96.4296 34.42 96.0696 33.415 96.2646Z" fill="#878787"/>
<path d="M34.81 95.2598C33.605 95.5398 31.835 95.1448 30.92 94.4248L29.865 95.4998C31.02 95.8098 32.14 96.0348 33.315 95.7748C34.465 95.5648 35.61 96.0298 36.47 96.7898L37.12 96.1248L36.33 95.3498C35.835 95.2098 35.325 95.1648 34.81 95.2648V95.2598Z" fill="#878787"/>
<path d="M34.74 93.7895L33.11 92.1895L32.005 93.3145C32.925 93.5695 33.825 93.7945 34.74 93.7895Z" fill="#878787"/>
<path d="M28.615 96.7798L27.54 97.8748C28.405 98.0598 29.265 98.1448 30.155 97.9448C31.555 97.6848 32.945 98.4348 33.825 99.4898L35.135 98.1548C34.235 97.5598 33.18 97.1448 32.11 97.3498C31.055 97.5898 29.585 97.3248 28.615 96.7798Z" fill="#878787"/>
<path d="M30.255 98.4346C29.38 98.6346 28.23 98.4846 27.305 98.1196L26.46 98.9796C27.185 99.1046 27.91 99.1396 28.66 98.9696C30.16 98.6946 31.655 99.5646 32.515 100.74L32.48 100.775C31.46 99.9296 30.115 99.1946 28.76 99.4546C28 99.6296 27.02 99.5396 26.17 99.2696L26.16 99.2796C26.16 99.2796 25.895 99.5346 25.4 100.06C25.98 100.125 26.565 100.125 27.165 99.9896C28.665 99.7146 30.16 100.585 31.02 101.76L30.985 101.795C29.965 100.95 28.62 100.215 27.265 100.475C26.625 100.625 25.83 100.58 25.085 100.4C24.865 100.64 24.61 100.925 24.33 101.25C24.665 101.25 25.005 101.215 25.345 101.135C26.845 100.86 28.34 101.73 29.2 102.905L29.165 102.94C28.145 102.095 26.8 101.36 25.445 101.62C25 101.72 24.485 101.73 23.965 101.67C23.765 101.905 23.55 102.16 23.325 102.435C23.38 102.425 23.43 102.42 23.485 102.41C24.985 102.135 26.48 103.005 27.34 104.18L27.305 104.215C26.285 103.37 24.94 102.635 23.585 102.895C23.365 102.945 23.125 102.965 22.88 102.975C22.76 103.125 22.635 103.28 22.505 103.44C23.69 103.555 24.795 104.29 25.485 105.235L25.45 105.27C24.53 104.51 23.345 103.845 22.125 103.91C21.965 104.115 21.795 104.33 21.625 104.55C22.42 104.865 23.13 105.43 23.625 106.11L23.59 106.145C22.95 105.615 22.175 105.125 21.355 104.905C21.23 105.065 21.11 105.225 20.985 105.395C20.915 105.49 20.845 105.57 20.775 105.66C21.285 105.98 21.74 106.4 22.085 106.87L22.05 106.905C21.605 106.535 21.095 106.195 20.55 105.94C20.325 106.22 20.11 106.485 19.9 106.73C20.245 107 20.56 107.315 20.81 107.66L20.775 107.695C20.45 107.425 20.085 107.17 19.7 106.95C19.445 107.235 19.2 107.495 18.97 107.725L21.855 110.555C22.425 109.955 23.165 109.27 24.15 108.5C28.345 105.2 30.17 103.195 30.17 103.195L33.74 99.5496C32.755 98.7896 31.51 98.1696 30.25 98.4096L30.255 98.4346Z" fill="#878787"/>
<path d="M21.52 110.945L18.61 108.095C16.91 109.655 15.995 109.65 15.995 109.65L14.95 109.67L14.4 110.235L12.88 114.745L14.995 116.815L19.475 115.2L20.025 114.635V113.59C20.025 113.59 20 112.675 21.525 110.945H21.52ZM15.515 115.425L14.35 114.28L15.595 111.175L18.625 114.145L15.515 115.425ZM19.305 113.45C18.515 112.705 16.95 111.175 16.19 110.4L16.225 110.365C17.295 110.76 18.12 111.525 18.79 112.415C19.005 112.715 19.2 113.035 19.335 113.415L19.3 113.45H19.305Z" fill="#878787"/>
<path d="M27.34 83.1147L27.36 84.3197L28.595 84.3097L28.575 82.9897L27.34 83.1147Z" fill="#878787"/>
<path d="M44.6749 100.1L44.6949 101.305L45.9299 101.3L45.9099 99.9746L44.6749 100.1Z" fill="#878787"/>
<path d="M47.59 99.2148L48.06 98.7398L47.205 97.9048L46.715 98.4048L44.32 98.1848L42.13 96.8048C42.325 96.8248 46.97 97.3298 46.82 92.2998C46.82 92.2998 46.615 90.8848 45.515 89.1948L45.495 89.2198L45.47 89.2448L44.155 90.5898L44.095 90.6548C44.51 91.3798 45.31 93.1698 43.77 94.2498C41.805 95.6348 39.865 93.7448 39.39 93.3048C38.915 92.8648 38.085 91.2148 38.925 89.7098C37.44 90.5798 35.85 89.8348 35.325 89.3198C34.8 88.8048 32.95 86.9548 34.295 84.9598C35.345 83.3948 37.155 84.1598 37.885 84.5598L37.945 84.4948L39.26 83.1498L39.285 83.1248L39.31 83.1048C37.6 82.0398 36.18 81.8648 36.18 81.8648C31.155 81.8148 31.745 86.4448 31.77 86.6448L30.35 84.4848L30.08 82.0948L30.57 81.5948L29.715 80.7598L29.245 81.2348L26.565 81.5098L25.92 80.8748L25.105 81.7048L25.75 82.3398L25.775 84.9348L25.225 85.4998L26.08 86.3348L26.51 85.8948L28.18 86.1898L42.655 100.375L42.98 102.04L42.55 102.48L43.405 103.315L43.955 102.75L46.55 102.725L47.195 103.36L48.01 102.53L47.365 101.895L47.585 99.2098L47.59 99.2148ZM26.87 84.8198L26.84 82.6598L29.07 82.4298L29.105 84.8048L26.87 84.8148V84.8198ZM44.205 101.81L44.175 99.6498L46.405 99.4198L46.44 101.795L44.205 101.805V101.81Z" fill="#878787"/>
<path d="M42.64 90.0446L42.61 89.7746C42.61 89.7746 42.585 89.5446 42.565 89.2696C42.545 89.0446 42.535 88.3996 41.25 87.2446L41.235 87.2296L41.22 87.2146C40.21 86.1396 39.635 85.9746 39.38 85.9746C39.06 85.9746 38.595 86.0696 38.575 86.1196L38.065 86.4846L35.99 88.5446C36.1 88.6646 36.23 88.7896 36.37 88.8796C36.68 89.0896 38.245 89.2596 40.09 88.5846C39.035 90.3096 39.53 91.8646 40.02 92.4796C40.135 92.6196 40.28 92.7496 40.415 92.8596L42.68 90.4046C42.705 90.3196 42.645 90.0396 42.645 90.0396L42.64 90.0446Z" fill="white"/>
<path d="M105.06 19.9698L41.53 83.0448C42.605 83.5298 43.535 84.4898 43.72 84.6898C43.99 84.9348 45.34 86.1998 45.73 87.5148L109.315 23.5248C109.315 23.5248 114.055 18.0498 115.535 12.8848C110.4 14.4598 105.065 19.9748 105.065 19.9748L105.06 19.9698ZM46.08 82.9198C64.175 64.6498 89.135 38.5998 107.51 21.1398L107.565 21.1948C90.29 39.4848 64.155 65.1198 46.08 82.9198Z" fill="white"/>
</svg>
