<svg width="128" height="128" viewBox="0 0 128 128" fill="none" xmlns="http://www.w3.org/2000/svg">
<path d="M118.07 12.4399C110.525 12.6249 102.555 22.0249 102.555 22.0249L46.0349 78.1699C40.4749 75.7599 42.1799 81.3799 42.1799 81.3799C42.1799 81.3799 42.0349 82.1049 40.0449 83.5599C38.0599 85.0149 35.2049 81.5749 35.2049 81.5749C35.6599 81.8299 36.1249 81.4099 36.4649 80.9599C36.8149 80.4949 36.9099 79.4299 36.6849 78.8949C36.2349 77.8449 34.0699 75.1449 31.6149 77.0599C28.6349 79.3899 31.8899 84.8699 33.8749 87.6749C33.9549 87.7649 34.0449 87.8799 34.1449 88.0049C34.9199 88.9999 37.0499 91.7199 40.7449 94.9799C40.7699 94.9599 40.7849 94.9499 40.7849 94.9499C45.2199 99.2799 48.8999 99.6249 50.6549 99.2549C51.4799 99.0799 52.2449 98.6699 52.7599 97.9999C53.3549 97.2299 53.6199 95.3499 52.0499 94.0199C48.7999 91.2699 47.6899 94.5549 47.6899 94.5549C45.8999 92.8949 45.8399 92.5899 45.8999 91.0999C45.9599 89.6099 48.5949 87.8799 48.5949 87.8799C53.7599 88.5099 51.4499 83.7799 51.4499 83.7799C51.4499 83.7799 98.9899 36.3699 108.99 27.1899C118.99 18.0099 118.06 12.4399 118.06 12.4399H118.07ZM43.4149 87.9149C42.4499 88.8399 40.7699 88.6549 40.7699 88.6549C40.7699 88.6549 40.6499 86.9699 41.6099 86.0399C42.5749 85.1149 44.2549 85.2999 44.2549 85.2999C44.2549 85.2999 44.3749 86.9849 43.4149 87.9149ZM45.1699 82.0249C44.5599 82.0649 43.6949 81.4949 43.4699 80.6699C43.0399 79.1049 44.9099 78.4749 45.3249 79.4549C46.1999 81.5299 48.9699 80.2299 48.9699 80.2299C48.9699 80.2299 47.1599 81.8949 45.1749 82.0249H45.1699ZM48.8549 86.2699C48.0399 86.0099 47.5049 85.1199 47.5699 84.5149C47.7749 82.5349 49.5099 80.7949 49.5099 80.7949C49.5099 80.7949 48.1049 83.5099 50.1449 84.4649C51.1099 84.9149 50.4049 86.7649 48.8549 86.2699ZM53.0899 76.6049C52.9649 76.7149 52.8449 76.8299 52.7199 76.9449C51.5349 78.1249 50.3949 79.3699 49.5099 80.7949C50.1749 79.7049 50.9849 78.7149 51.8499 77.7749C50.9349 78.6599 50.0099 79.5449 48.9649 80.2249C50.4599 79.1849 51.6949 77.7799 53.0199 76.5349C72.0799 57.5849 92.0499 36.6699 111.63 18.5349C93.0449 37.9299 72.2999 57.7599 53.0849 76.6049H53.0899Z" fill="white"/>
<path d="M17.5549 109.085L20.6649 112.32C21.3949 111.66 22.1099 111.025 22.7949 110.41L19.5549 107.04C18.6399 107.98 17.9399 108.695 17.5549 109.09V109.085Z" fill="#878787"/>
<path d="M17.0649 109.295C16.1649 108.52 15.1199 108.31 14.3399 108.19C11.8999 107.81 10.3449 109.755 10.3449 109.755C10.3449 109.755 9.13989 111.11 10.7199 113.525C12.2999 115.94 14.1349 114.68 14.1349 114.68L14.7449 115.315C13.4599 117.43 15.8049 118.825 16.7499 119.145C17.3049 119.335 18.0249 119.6 18.8549 119.305C19.4399 119.095 20.0849 118.55 20.7149 117.755C22.1149 115.995 20.6099 113.185 20.3449 112.715L17.0599 109.3L17.0649 109.295ZM13.5999 113.29C12.9099 113.345 11.9299 112.715 11.6899 111.785C11.2299 110.015 13.3749 109.26 13.8249 110.365C14.7749 112.705 17.9549 111.17 17.9549 111.17C17.9549 111.17 15.8599 113.1 13.5999 113.29ZM17.7049 118.04C16.7849 117.765 16.1899 116.765 16.2749 116.075C16.5499 113.82 18.5599 111.805 18.5599 111.805C18.5599 111.805 16.9049 114.92 19.2049 115.965C20.2899 116.455 19.4549 118.57 17.6999 118.045L17.7049 118.04Z" fill="#878787"/>
<path d="M23.17 110.07C32.87 101.41 38.07 97.13 39.96 95.615C37.545 93.47 35.805 91.57 34.67 90.23C32.08 93.96 24.125 102.325 19.905 106.675L23.17 110.07Z" fill="#878787"/>
</svg>
