<svg width="128" height="128" viewBox="0 0 128 128" fill="none" xmlns="http://www.w3.org/2000/svg">
<path d="M117.33 23.1799C118.26 19.3949 113.735 14.6799 113.735 14.6799C113.735 14.6799 108.86 10.2949 105.115 11.7199C112.36 15.7249 115.755 20.1649 117.33 23.1799Z" fill="white"/>
<path d="M116.075 25.2299L116.575 24.7199C116.755 24.4899 116.905 24.2499 117.03 23.9999C115.59 21.0399 112.2 16.2549 104.45 12.0449C104.265 12.1549 104.085 12.2799 103.91 12.4249L103.28 13.0849C111.17 17.3649 114.61 22.1749 116.08 25.2249L116.075 25.2299Z" fill="#878787"/>
<path d="M24.8901 115.035L24.0051 114.175L17.2401 107.605L17.2351 107.61L16.3501 106.75C15.5151 105.94 14.1851 105.96 13.3801 106.79L12.9051 107.28C11.9201 108.295 11.9401 109.925 12.9601 110.91L17.1001 114.93L20.8401 118.555C21.8551 119.54 23.4751 119.52 24.4651 118.5L24.9401 118.01C25.7501 117.175 25.7301 115.845 24.8951 115.035H24.8901Z" fill="white"/>
<path d="M115.6 25.71C114.2 22.75 110.805 17.84 102.84 13.54L73.005 44.665C73.005 44.665 70.48 47.155 68.65 52.135C66.82 57.11 63.555 60.7 63.555 60.7L58.915 65.995L51.775 73.72C51.775 73.72 51.645 73.88 51.375 74.2L56.385 79.065C56.695 78.785 56.85 78.65 56.85 78.65L65 70.635L69.52 66.49C69.52 66.49 73.005 63.115 77.935 61.14C82.855 59.16 85.265 56.57 85.265 56.57L115.605 25.715L115.6 25.71Z" fill="white"/>
<path d="M40.4751 85.865L45.0451 90.3C45.4151 89.91 45.5651 89.75 45.9151 89.385L41.3601 84.96C41.0051 85.325 40.8501 85.48 40.4751 85.86V85.865Z" fill="#878787"/>
<path d="M25.605 100.295C24.175 101.635 22.68 103.02 21.115 104.465L27.03 110.21C28.425 108.6 29.77 107.065 31.065 105.6L25.605 100.3V100.295Z" fill="#878787"/>
<path d="M32.6999 103.75L27.3999 98.605C26.9549 99.025 26.5049 99.45 26.0449 99.88L31.4649 105.14C31.8799 104.67 32.2949 104.205 32.6999 103.745V103.75Z" fill="#878787"/>
<path d="M37.37 98.5552L32.455 93.7852C31.935 94.2902 31.4 94.8001 30.855 95.3251L35.88 100.205C36.385 99.6452 36.885 99.0951 37.37 98.5602V98.5552Z" fill="#878787"/>
<path d="M44.035 82.21C43.4 82.875 42.505 83.795 41.78 84.535L46.335 88.955C47.055 88.21 47.95 87.29 48.595 86.635L44.035 82.21Z" fill="#878787"/>
<path d="M48.9699 76.9551C48.3049 77.6851 46.6799 79.4001 45.7849 80.3551L50.3949 84.8301C51.3199 83.9051 52.9849 82.2351 53.6949 81.5451L48.9699 76.9551Z" fill="#878787"/>
<path d="M33.1 103.3C33.91 102.39 34.705 101.5 35.47 100.65L30.415 95.7402C29.585 96.5302 28.72 97.3552 27.835 98.1902L33.095 103.3H33.1Z" fill="#878787"/>
<path d="M45.375 80.7949C44.955 81.2399 44.925 81.2849 44.45 81.7749L49.0149 86.2049C49.4949 85.7199 49.535 85.6899 49.97 85.2549L45.375 80.7949Z" fill="#878787"/>
<path d="M55.9349 79.4702L50.9799 74.6602C50.5199 75.1902 50.2749 75.5202 49.3799 76.5102L54.1349 81.1252C55.0999 80.2002 55.4199 79.9452 55.9349 79.4702Z" fill="#878787"/>
<path d="M40.0501 86.2949C38.8751 87.4799 40.4351 85.8299 39.0601 87.1849L43.7651 91.7549C45.0801 90.3399 43.4751 91.9499 44.6251 90.7399L40.0451 86.2949H40.0501Z" fill="#878787"/>
<path d="M20.67 104.875C20.67 104.875 20.2 104.5 19.515 105.205C19.055 105.68 18.175 106.605 17.655 107.16L24.435 113.74C24.97 113.205 25.875 112.295 26.34 111.82C27.025 111.115 26.64 110.665 26.64 110.665L20.675 104.875H20.67Z" fill="#878787"/>
<path d="M32.885 93.365L37.775 98.11C38.73 97.065 42.475 93.145 43.36 92.195L38.635 87.605C37.71 88.515 33.91 92.38 32.89 93.365H32.885Z" fill="#878787"/>
</svg>
