<svg width="128" height="128" viewBox="0 0 128 128" fill="none" xmlns="http://www.w3.org/2000/svg">
<path d="M20.3423 75.5404C21.1323 76.4304 22.1323 77.3404 23.3923 78.2104L29.7823 71.6003C28.9373 70.5553 27.8773 69.6354 26.7973 68.8604L20.3423 75.5404Z" fill="#878787"/>
<path d="M34.0121 86.02L38.4071 81.475C37.3771 80.92 36.2221 80.215 35.1421 79.375L31.4521 83.195C32.5671 84.18 33.4021 85.155 34.0121 86.02Z" fill="#878787"/>
<path d="M34.7472 79.0603C33.7722 78.2603 32.8772 77.3503 32.2172 76.3403L27.9722 80.7353C29.1822 81.4203 30.2072 82.1403 31.0722 82.8653L34.7522 79.0603H34.7472Z" fill="#878787"/>
<path d="M26.387 68.5701C24.687 67.4101 23.002 66.6051 22.097 66.2051L17.627 70.8301C17.897 71.7351 18.542 73.3751 20.017 75.1551L26.387 68.5651V68.5701Z" fill="#878787"/>
<path d="M27.5169 80.485L31.9469 75.9C31.6769 75.425 31.4569 74.93 31.3119 74.415C31.0619 73.55 30.6319 72.745 30.0919 72L23.8169 78.49C24.5619 78.97 25.3819 79.435 26.3069 79.87C26.7319 80.07 27.1319 80.275 27.5169 80.485Z" fill="#878787"/>
<path d="M63.6369 71.675H63.6419L59.6719 67.755C57.6269 66.005 53.1519 71.035 53.1519 71.035L41.6169 82.965C41.6169 82.965 40.4369 82.53 38.8669 81.715L34.2969 86.44C35.3569 88.06 35.6319 89.225 35.6319 89.225L34.0269 90.885C33.2419 91.7 33.2619 92.995 34.0769 93.78L34.2069 93.905L34.1869 93.925L38.3669 97.815L38.3769 97.805L38.5519 97.975C39.2869 98.685 40.4569 98.665 41.1669 97.93L60.327 78.11C65.347 72.915 63.6269 71.68 63.6269 71.68L63.6369 71.675Z" fill="#878787"/>
<path d="M15.732 71.8702L17.447 70.0952C17.447 70.0952 17.457 70.1552 17.477 70.2602L21.602 65.9952C21.482 65.9452 21.417 65.9202 21.417 65.9202L23.067 64.2152L22.882 64.0352C20.872 62.0902 17.667 62.1452 15.722 64.1552L15.442 64.4452C13.472 66.4802 13.527 69.7302 15.567 71.6952L15.742 71.8652L15.732 71.8702Z" fill="#878787"/>
<path d="M115.397 14.4004L115.212 14.2204C114.192 13.2354 112.572 13.2654 111.587 14.2804L60.4819 67.1454L64.3419 70.9504L115.467 18.0254C116.452 17.0054 116.422 15.3854 115.407 14.4004H115.397Z" fill="white"/>
<path d="M33.4919 94.6455L18.5319 110.121C17.5519 111.136 17.5769 112.756 18.5919 113.736L19.0619 114.191C20.0569 115.151 21.6369 115.126 22.5969 114.131L37.6719 98.5355L33.4919 94.6455Z" fill="white"/>
</svg>
