<svg width="128" height="128" viewBox="0 0 128 128" fill="none" xmlns="http://www.w3.org/2000/svg">
<path d="M52.9978 91.6144L43.3591 98.7745L30.7713 110.723C30.0166 111.441 29.3959 112.29 28.9527 113.236C27.851 115.584 25.4187 120.141 23.2043 119.749C16.2395 118.518 15.1581 110.897 15.1581 110.897L43.4602 81.4386L43.6712 81.5522L52.9982 91.6095L52.9978 91.6144ZM21.6934 110.77C21.024 111.43 21.0209 112.508 21.6806 113.178C22.3403 113.847 23.419 113.85 24.0885 113.191C24.7579 112.531 24.761 111.452 24.1013 110.783C23.4415 110.113 22.3628 110.11 21.6934 110.77ZM31.7098 98.8999C30.6974 99.5801 30.6864 101.04 31.6953 101.734C32.2542 102.119 33.0215 102.125 33.5862 101.747C34.5986 101.067 34.6096 99.6078 33.6008 98.9131C33.0419 98.5285 32.2745 98.5223 31.7098 98.8999ZM41.5155 91.0868C42.1957 92.0993 43.6552 92.1102 44.3498 91.1014C44.7345 90.5425 44.7407 89.7752 44.363 89.2105C43.6828 88.198 42.2233 88.1871 41.5287 89.1959C41.144 89.7548 41.1378 90.5221 41.5155 91.0868Z" fill="#878787"/>
<path d="M114.641 27.275C113.086 14.02 97.0211 10.5 97.0211 10.5C101.371 16.185 100.681 21.88 99.3511 25.63C98.5211 27.97 97.0811 30.05 95.2411 31.72L80.8561 44.825L48.5211 75.095C48.0361 75.545 46.6811 77.125 46.2911 77.66L45.2511 79.25C44.9411 79.675 44.7711 80.19 44.7711 80.72V80.85L44.7661 80.855L53.8661 90.885C59.9961 85.77 105.611 47.69 108.046 44.935C110.661 41.985 115.831 37.45 114.636 27.265L114.641 27.275ZM105.781 42.055C104.131 44.165 102.216 46.025 100.016 47.595C100.161 47.355 59.5411 81.68 59.6411 81.22C59.6611 81.21 99.4311 46.78 99.4611 46.775C101.511 45.275 103.376 43.42 104.981 41.42C108.211 37.43 110.221 32.335 109.586 27.15C109.326 24.56 108.281 22.04 107.216 19.705C108.701 21.81 109.701 24.46 110.161 27.07C111.091 32.405 109.101 37.895 105.786 42.05L105.781 42.055Z" fill="white"/>
</svg>
