<svg width="128" height="128" viewBox="0 0 128 128" fill="none" xmlns="http://www.w3.org/2000/svg">
<path d="M30.0699 101.32L28.2849 102.675C28.3899 103.49 28.4449 104.885 28.0199 106.6C28.3699 106.715 28.7349 106.85 29.1049 107.005L30.3199 106.085C30.8049 103.86 30.4149 102.21 30.0699 101.315V101.32Z" fill="#878787"/>
<path d="M27.54 106.46C27.885 105.025 27.89 103.825 27.82 103.035L23.88 106.035C24.835 105.985 26.095 106.06 27.545 106.46H27.54Z" fill="#878787"/>
<path d="M32.1849 104.68L36.2199 101.625C36.0549 99.6697 35.3649 98.3547 34.8749 97.6597L32.4299 99.5197C32.6649 100.245 33.0749 102.135 32.1849 104.68Z" fill="#878787"/>
<path d="M27.41 106.945C25.58 106.44 24.055 106.485 23.115 106.61L19.87 109.08C19.93 109.435 19.8299 109.915 19.3099 110.41C19.5599 110.465 19.6749 110.6 19.7299 110.71C19.8349 110.915 19.7999 111.185 19.6299 111.53C19.5399 111.71 19.375 111.9 19.17 112.085C19.255 112.12 19.33 112.175 19.385 112.255C19.7 112.685 19.645 112.86 19.325 113.155C19.265 113.21 19.1899 113.28 19.1049 113.365C18.9599 113.52 18.875 113.64 18.825 113.73C19.01 113.82 19.25 113.99 19.465 114.3L26.6749 108.845C26.9899 108.185 27.235 107.55 27.405 106.945H27.41Z" fill="#878787"/>
<path d="M27.895 107.09C27.79 107.455 27.65 107.835 27.495 108.225L28.64 107.36C28.385 107.26 28.135 107.17 27.89 107.09H27.895Z" fill="#878787"/>
<path d="M31.425 105.255C32.545 102.69 32.235 100.695 32.005 99.8447L30.49 100.995C30.85 101.855 31.275 103.45 30.915 105.635L31.42 105.25L31.425 105.255Z" fill="#878787"/>
<path d="M37.545 95.5698C37.545 95.5698 36.9 93.8948 37.43 92.1048C37.9 90.5198 36.12 91.1898 35.41 92.1448C34.7 93.0948 33.97 95.0398 35.255 97.3198C35.765 98.0248 36.59 99.2198 36.8 101.2C36.865 102.135 36.865 102.62 36.825 103.695C36.78 104.835 37.5 104.68 37.5 104.68C37.5 104.68 39.18 104.35 39.55 101.62C39.92 98.8898 37.55 95.5698 37.55 95.5698H37.545Z" fill="#878787"/>
<path d="M18.475 114.125L18.28 114.09L18.27 113.89C18.27 113.805 18.295 113.5 18.755 113.02C18.85 112.92 18.93 112.845 18.995 112.785C19.03 112.755 19.065 112.72 19.09 112.695C19.075 112.67 19.045 112.625 18.99 112.55C18.94 112.525 18.62 112.55 17.885 113.02L17.685 113.15L17.515 112.975L17.38 112.78L17.58 112.625C17.605 112.605 17.665 112.565 17.75 112.51C18.055 112.315 18.985 111.72 19.195 111.31C19.335 111.025 19.295 110.94 19.295 110.94C19.29 110.93 19.255 110.91 19.19 110.9C19.05 110.905 18.53 111.165 17.985 111.515C17.58 111.81 17.285 111.995 17.26 112.01L16.98 111.595C17.16 111.465 17.43 111.275 17.725 111.085C18.095 110.815 18.555 110.46 18.965 110.075C19.405 109.66 19.43 109.33 19.38 109.13C19.215 109.1 18.88 109.205 18.21 109.715C16.81 110.78 13.64 113.195 13.64 113.195C13.64 113.195 12.73 113.81 13.39 114.885C13.39 114.885 12.9 115.385 12.285 116.04C12.015 116.325 11.445 116.25 11.24 116.585C11.01 116.955 10.965 117.62 11.165 118.01C11.375 118.425 11.84 118.095 12.155 118.135C12.335 118.16 12.58 118.325 12.795 118.39C13.035 118.465 13.515 118.38 13.515 118.38C13.515 118.38 13.035 118.07 13.025 117.755C13.02 117.505 13.355 116.895 13.355 116.895L14.25 116.115L15.3 115.355L16.07 115.065L16.685 114.44L15.97 115.395L15.225 116.07C15.225 116.07 15.005 116.84 14.59 117.095C14.175 117.35 13.685 116.965 13.685 116.965C13.685 116.965 13.645 118.92 14.98 118.065L16.05 117.31L17.06 115.77L17.505 114.58L17.535 115.37C17.535 115.37 18.52 115.55 18.88 115.26C19.04 115.135 19.14 114.96 19.205 114.81C18.915 114.235 18.515 114.145 18.5 114.145L18.475 114.125ZM15.35 113.705C15.145 113.955 14.865 114.12 14.585 114.265C14.51 114.47 14.415 114.67 14.265 114.86C14.175 114.56 14.18 114.285 14.195 114.005C14.435 113.79 14.715 113.605 14.995 113.46C15 113.46 15.005 113.455 14.995 113.46C15.09 113.31 15.21 113.065 15.36 112.91C15.41 113.195 15.435 113.435 15.345 113.705H15.35Z" fill="white"/>
<path d="M115.855 14.215C113.13 18.985 110.32 23.885 106.96 28.485C86.7199 56.205 57.8699 79.295 57.8699 79.295L47.5599 87.855L38.3899 94.9C38.6099 95.335 39.3349 96.805 40.1099 98.585L46.0399 94.16C58.0749 85.065 67.0149 77.35 77.7549 67.37C86.5599 59.195 97.2299 47.93 103.94 39.815C108.08 34.805 112.11 28.87 114.06 25.93C119.325 17.995 115.85 14.21 115.85 14.21L115.855 14.215Z" fill="white"/>
</svg>
