<svg width="128" height="128" viewBox="0 0 128 128" fill="none" xmlns="http://www.w3.org/2000/svg">
<path d="M83.0914 36.61L43.4114 74.615L53.5364 85.505L53.6364 85.42L54.7264 85.525C54.9814 85.55 55.2364 85.47 55.4264 85.3C57.2064 83.715 66.7014 75.24 77.3614 64.985C94.5014 48.505 115.811 25.52 115.771 10C115.771 10 87.7014 36.855 83.0914 36.61ZM54.5814 80.465C70.0014 65.82 86.7464 51.18 99.3864 34.05C100.891 32 101.586 30.97 102.886 28.8C100.301 30.895 98.9564 31.67 96.1814 33.5C92.9514 35.515 89.4414 37.67 85.9114 38.835C93.4164 35.445 100.041 30.41 106.311 25.14C103.176 31.13 98.9164 36.425 94.5664 41.555C82.9264 55.175 67.7564 68.41 54.5764 80.465H54.5814Z" fill="white"/>
<path d="M32.7213 83.445C33.6713 84.625 37.3113 89.51 37.1813 94.93C37.5013 94.575 37.8263 94.22 38.1413 93.86C38.5863 88.615 35.1363 83.705 33.9813 82.23L32.7213 83.45V83.445Z" fill="#878787"/>
<path d="M42.6863 75.3099L42.5613 75.4299L42.4063 75.2699C42.0813 74.9299 41.5413 74.9199 41.2063 75.2449L34.3413 81.8799C35.4563 83.2999 38.8163 88.0299 38.6763 93.2449C40.3813 91.2649 41.9613 89.2149 43.2313 87.1999C43.2313 87.1999 43.8613 86.0099 45.5613 86.6199C47.2613 87.2299 50.9963 87.4149 52.1963 86.6749L52.7813 86.1649L42.6863 75.3099Z" fill="#878787"/>
<path d="M32.3613 83.795L12.7613 102.735C11.7913 103.65 11.7413 105.18 12.6513 106.155L15.4313 109.145C16.2963 110.075 16.7763 111.295 16.7713 112.565V114.875C16.7713 116.73 18.4013 118.16 20.2413 117.915L20.6463 117.86C22.0663 117.67 23.0563 116.36 22.8563 114.945C22.8563 114.945 22.3763 114.115 22.1263 112.505C21.8763 110.895 22.0963 109.565 22.0963 109.565C22.0963 109.565 22.5413 108.73 24.1213 107.305C25.3263 106.22 31.2413 101.345 36.6513 95.505C37.0763 90.07 33.3513 85.03 32.3563 83.79L32.3613 83.795ZM19.8163 106.055C19.0263 107.125 17.4413 107.07 16.7313 105.945C16.3363 105.32 16.3663 104.48 16.8063 103.885C17.5963 102.815 19.1813 102.87 19.8913 103.995C20.2863 104.62 20.2563 105.46 19.8163 106.055Z" fill="#878787"/>
</svg>
