<svg width="128" height="128" viewBox="0 0 128 128" fill="none" xmlns="http://www.w3.org/2000/svg">
<path d="M100.089 53.7849C98.5987 55.2913 95.1152 58.206 95.1152 58.206C95.1152 58.206 93.091 59.7477 91.8592 59.7908C91.8592 59.7908 90.0037 57.1115 94.6091 53.1337C95.3584 52.7336 96.0802 52.2511 96.7589 51.6862C102.188 47.171 102.929 39.0821 98.4143 33.6529C93.8991 28.2237 85.8102 27.4823 80.381 31.9975C78.1567 33.8451 76.7367 36.2969 76.1247 38.9174C71.4801 35.3083 64.7838 35.2652 60.0803 39.1802C56.0319 42.5499 54.5922 47.9085 55.9966 52.6669C51.5716 50.4191 46.0444 50.8585 41.9921 54.2282C37.116 58.2844 36.0372 65.2161 39.1362 70.5198C36.1156 70.4256 33.0519 71.375 30.553 73.4541C25.1238 77.9693 24.3824 86.0582 28.8976 91.4874C33.4128 96.9166 41.5017 97.658 46.9309 93.1428C47.5115 92.6603 48.0254 92.1307 48.5001 91.5737H48.5079C48.5079 91.5737 53.2506 86.2151 56.4634 89.5063C56.4634 89.5063 55.6239 92.2602 49.6377 96.3988C46.4955 98.572 49.9319 98.8898 53.8743 98.2543C57.4363 97.6815 61.4023 96.2458 61.4023 96.2458C61.4023 96.2458 70.6484 93.0761 82.1933 83.5201C91.9024 75.4861 92.6242 73.5874 95.99 68.9624C99.1793 64.5845 100.87 60.3086 101.713 57.0056C102.529 53.8163 101.482 52.3806 100.089 53.7849ZM94.9936 36.497C97.9436 40.0432 97.4611 45.3116 93.9148 48.2655C90.3686 51.2155 85.1002 50.733 82.1463 47.1867C79.1963 43.6405 79.6788 38.3721 83.2251 35.4182C86.7713 32.4682 92.0397 32.9507 94.9936 36.497ZM84.2528 31.5189C86.3986 30.8245 88.7366 30.8363 90.8354 31.5032C88.6778 31.0834 86.43 31.26 84.4176 32.0014C78.1764 34.3041 75.2538 42.5578 79.5415 47.9438C74.3555 42.7304 77.5644 33.6333 84.2489 31.5228L84.2528 31.5189ZM74.6929 43.6797C77.6428 47.2259 77.1603 52.4943 73.6141 55.4482C70.0678 58.3982 64.7995 57.9157 61.8456 54.3694C58.8956 50.8232 59.3781 45.5548 62.9243 42.6009C66.4706 39.6509 71.739 40.1334 74.6929 43.6797ZM64.3052 38.1367C66.451 37.4424 68.789 37.4541 70.8877 38.121C68.7302 37.7013 66.4824 37.8778 64.4699 38.6192C58.2287 40.9219 55.3062 49.1756 59.5938 54.5617C54.4079 49.3482 57.6167 40.2511 64.3013 38.1406L64.3052 38.1367ZM46.4327 53.5221C48.5785 52.8278 50.9165 52.8395 53.0152 53.5064C50.8577 53.0867 48.6099 53.2632 46.5975 54.0046C40.3562 56.3073 37.4337 64.561 41.7214 69.947C36.5354 64.7336 39.7443 55.6365 46.4288 53.526L46.4327 53.5221ZM34.8486 72.6263C36.9944 71.932 39.3324 71.9438 41.4311 72.6107C39.2735 72.1909 37.0257 72.3674 35.0133 73.1089C28.7721 75.4116 25.8496 83.6652 30.1372 89.0513C24.9512 83.8378 28.1601 74.7408 34.8446 72.6303L34.8486 72.6263ZM44.0869 89.7221C40.5406 92.6721 35.2722 92.1896 32.3183 88.6433C29.3683 85.0971 29.8509 79.8287 33.3971 76.8748C36.9434 73.9248 42.2117 74.4073 45.1656 77.9536C48.1156 81.4998 47.6331 86.7682 44.0869 89.7221ZM43.7613 69.4135C40.8113 65.8673 41.2938 60.5989 44.84 57.645C48.3863 54.695 53.6547 55.1775 56.6086 58.7238C59.5585 62.27 59.076 67.5384 55.5298 70.4923C51.9835 73.4423 46.7152 72.9598 43.7613 69.4135ZM63.6971 92.4563C62.5242 93.0173 60.7668 92.7819 60.2176 91.6051C59.1702 89.3651 61.2728 87.4821 62.2025 88.7688C64.1718 91.4913 73.4179 85.8463 73.4179 85.8463C73.4179 85.8463 67.5219 90.6204 63.6971 92.4563ZM75.8462 78.2321C63.8619 86.725 57.6756 86.2621 54.1489 80.3308C54.1489 80.3308 52.725 78.2752 56.5654 75.1566C57.1931 74.7957 57.8011 74.3916 58.3778 73.913C62.4261 70.5433 63.8658 65.1847 62.4614 60.4263C66.8864 62.6741 72.4137 62.2347 76.466 58.865C76.9485 58.4649 77.3761 58.0294 77.7841 57.5744C79.5337 56.1112 83.1701 53.6947 84.9903 57.0644C87.4421 61.5953 87.8305 69.7391 75.8501 78.2321H75.8462ZM93.2401 67.8758C90.7608 71.2847 85.0413 76.1726 85.0413 76.1726C85.0413 76.1726 92.2084 68.1661 89.89 65.73C88.7955 64.5806 91.008 62.8702 93.0204 64.3099C94.0756 65.067 93.9972 66.8323 93.2401 67.8758Z" fill="white"/>
</svg>
