<svg width="128" height="128" viewBox="0 0 128 128" fill="none" xmlns="http://www.w3.org/2000/svg">
<path d="M37.7999 78.5103C37.7149 78.6003 37.6299 78.6953 37.5449 78.7903C37.5449 78.7903 20.5999 99.5702 9.58991 107.74C9.00991 108.17 8.83991 108.95 9.16991 109.59C10.1499 111.465 12.4599 115.09 16.2099 116.425C16.6549 116.585 17.1499 116.44 17.4349 116.065C19.2349 113.69 26.8549 104.2 45.8199 86.8802C43.9599 81.7702 39.8749 79.4153 37.8049 78.5153L37.7999 78.5103ZM18.3949 109.32C18.1149 109.59 17.7499 109.735 17.3599 109.735C17.3499 109.735 17.3399 109.735 17.3299 109.735C16.9299 109.725 16.5599 109.565 16.2799 109.275C16.0049 108.985 15.8549 108.61 15.8649 108.21C15.8749 107.81 16.0349 107.44 16.3249 107.16C16.6149 106.885 17.0149 106.74 17.3899 106.745C17.7899 106.755 18.1599 106.915 18.4399 107.205C18.7149 107.495 18.8649 107.87 18.8549 108.27C18.8449 108.67 18.6849 109.04 18.3949 109.32ZM29.2499 98.0602C28.9699 98.3302 28.6049 98.4752 28.2149 98.4752C28.2049 98.4752 28.1949 98.4752 28.1849 98.4752C27.7849 98.4652 27.4149 98.3052 27.1349 98.0152C26.8599 97.7252 26.7099 97.3502 26.7199 96.9502C26.7299 96.5502 26.8899 96.1803 27.1799 95.9003C27.7749 95.3303 28.7249 95.3453 29.2949 95.9403C29.8649 96.5353 29.8449 97.4853 29.2549 98.0553L29.2499 98.0602ZM39.6499 87.1653C39.3699 87.4353 39.0049 87.5803 38.6149 87.5803C38.6049 87.5803 38.5949 87.5803 38.5849 87.5803C38.1849 87.5703 37.8149 87.4103 37.5349 87.1203C37.2599 86.8303 37.1099 86.4553 37.1199 86.0553C37.1299 85.6553 37.2899 85.2852 37.5799 85.0052C37.8599 84.7352 38.2249 84.5902 38.6149 84.5902C38.6249 84.5902 38.6349 84.5902 38.6449 84.5902C39.0449 84.6002 39.4149 84.7603 39.6949 85.0503C39.9699 85.3403 40.1199 85.7152 40.1099 86.1152C40.0999 86.5152 39.9399 86.8853 39.6499 87.1653Z" fill="#878787"/>
<path d="M117.45 27.3451L117.46 27.3351L112.05 22.5101L112.025 22.5401L101.825 13.4801C100.29 12.1201 97.955 12.2101 96.535 13.6851L93.605 16.7301C93.005 17.3551 93.565 18.6001 94.425 18.6901L97.08 18.4251C97.745 18.4951 98.505 18.9451 98.63 19.4801C98.755 20.0301 98.225 20.6751 97.61 20.9751L92.6 23.7851C92.6 23.7851 82.915 30.7751 71.51 41.6901C61.085 51.6651 49.545 65.7701 38.48 77.7701C40.7 78.7951 44.515 81.1701 46.485 85.9551C48.875 84.2951 61.93 75.4201 78.15 68.0051C96.12 59.7851 119 28.7351 119 28.7351L117.45 27.3451ZM79.56 60.5451C73.54 63.8301 67.935 67.2301 61.895 70.4801C58.895 72.1101 55.785 73.6101 53.05 75.6651C55.765 73.5851 58.865 72.0501 61.85 70.3951C67.84 67.0951 72.78 63.6751 78.74 60.3501C81.68 58.6151 85.69 55.4951 88.355 53.3601C97.33 46.0501 104.29 37.8701 110.96 28.7101L111.485 29.1551C102.49 41.2101 92.48 52.7351 79.56 60.5451Z" fill="white"/>
</svg>
