<svg width="128" height="128" viewBox="0 0 128 128" fill="none" xmlns="http://www.w3.org/2000/svg">
<path d="M37.4149 86.4248C37.0549 87.2548 36.8749 87.9348 36.9399 88.4148C37.4899 92.3698 33.3449 93.0298 33.3449 93.0298C33.3449 93.0298 30.3299 93.4298 30.6699 96.6748C31.0049 99.9198 26.9249 100.765 26.9249 100.765C26.9249 100.765 25.1999 101.305 24.4199 102.23C24.0199 102.705 23.6249 103.74 23.9749 104.685C25.2349 108.09 21.9599 110.065 21.9599 110.065C21.9599 110.065 19.1849 111.655 18.5599 115.285C17.9349 118.915 16.2149 118.38 16.2149 118.38C8.68492 117.7 8.96992 113.4 8.96992 113.4C13.4299 99.6998 27.6799 82.1398 28.2649 81.4248L37.4049 86.4248H37.4149ZM12.3349 111.505C11.5849 112.265 11.5899 113.495 12.3549 114.245C13.1149 114.995 14.3449 114.985 15.0949 114.225C15.8449 113.465 15.8349 112.235 15.0749 111.485C14.3149 110.735 13.0849 110.745 12.3349 111.505Z" fill="#878787"/>
<path d="M114.985 23.9701C110.405 19.4601 103.035 19.5201 98.525 24.1001C94.015 28.6801 94.075 36.0501 98.655 40.5601C103.235 45.0701 110.605 45.0101 115.115 40.4301C119.625 35.8501 119.565 28.4801 114.985 23.9701ZM112.305 25.7651C115.22 28.0601 116.14 31.5151 115.22 34.6051L114.42 34.1551C115.12 31.2801 114.285 28.2551 112.305 25.7651ZM114.115 35.1551L114.87 35.5751C114.635 36.1101 114.345 36.6301 113.995 37.1251L113.325 36.7501C113.65 36.2301 113.91 35.6951 114.115 35.1551ZM110.225 40.3101C111.145 39.4701 112.025 38.5951 112.75 37.6001L113.35 37.9351C112.965 38.3651 112.535 38.7751 112.05 39.1501C111.47 39.5901 110.87 39.9851 110.225 40.3101Z" fill="white"/>
<path d="M118.975 25.385C119.315 26.135 117.795 26.58 117.795 26.58C117.745 26.505 117.69 26.435 117.635 26.36C114.83 20.87 107.69 18.355 101.95 20.87C95.6098 23.4 92.6948 31.46 95.6598 37.52C95.6848 37.63 95.7098 37.74 95.7348 37.85C96.0998 39.615 95.0798 39.715 94.3648 39.59C93.9848 39.525 93.2348 38.685 92.9948 38.385C91.1348 36.08 88.0648 36.275 88.0648 36.275C83.0998 35.355 52.5198 66.405 52.5198 66.405C52.5198 66.405 41.2298 79.04 37.8648 85.485L28.9248 80.595C65.8598 33.575 81.8998 23.645 81.8998 23.645C81.8998 23.645 93.2848 14.375 102.045 12.585C110.8 10.795 118.635 24.63 118.975 25.385Z" fill="white"/>
</svg>
