<svg width="128" height="128" viewBox="0 0 128 128" fill="none" xmlns="http://www.w3.org/2000/svg">
<path d="M12.3501 109.92C8.29006 114.46 12.0301 117.705 12.0301 117.705C12.0301 117.705 15.2701 121.44 19.8151 117.385L26.4751 110.725L19.0151 103.265L12.3551 109.925L12.3501 109.92Z" fill="#878787"/>
<path d="M115.885 25.3701C115.885 25.3701 113.125 21.5501 110.455 19.2851C108.19 16.6101 104.365 13.8501 104.365 13.8501C97.2801 9.44506 92.8551 15.2551 92.8551 15.2551C92.8551 15.2551 92.3651 15.7451 91.5201 16.5901L90.2151 15.2851L85.6951 19.8051L87.0001 21.1101C85.7101 22.4001 84.2851 23.8251 82.8051 25.3051L81.5001 24.0001L76.9801 28.5201L78.2851 29.8251C76.8401 31.2701 75.4151 32.6951 74.0901 34.0201L72.7851 32.7151L68.2651 37.2351L69.5701 38.5401C68.0351 40.0751 66.9751 41.1351 66.6951 41.4201C65.6701 42.4451 64.6651 45.9351 64.0801 48.3101C63.6051 50.2201 62.9001 52.0551 61.9751 53.7951C59.7851 57.9151 57.0001 62.1151 53.9601 66.2001L52.7051 67.8551C51.8451 68.9701 50.9701 70.0801 50.0851 71.1751L41.0701 81.5051C37.0351 85.8101 39.1751 83.4901 37.5851 85.2101L44.3651 91.9601C46.0251 90.3401 50.1401 86.9101 51.0951 86.0551L53.8401 83.6251C59.7601 78.4901 66.3601 73.3651 72.8901 69.4901C75.9751 67.6601 79.2951 66.2601 82.7551 65.3201C84.9501 64.7251 87.4751 63.8951 88.3201 63.0451C88.5901 62.7751 89.5801 61.7901 91.0151 60.3501L91.6601 60.9951L96.1801 56.4751L95.5351 55.8301C96.8601 54.5051 98.2801 53.0851 99.7301 51.6351L100.375 52.2801L104.895 47.7601L104.25 47.1151C105.855 45.5101 107.4 43.9651 108.78 42.5851L109.425 43.2301L113.945 38.7101L113.3 38.0651C114.05 37.3151 114.485 36.8801 114.485 36.8801C114.485 36.8801 120.295 32.4651 115.885 25.3701ZM104.795 35.9701C105.25 36.1501 105.695 36.3501 106.14 36.5601C105.95 35.2101 105.81 33.8551 105.815 32.4851C106.375 34.1801 106.695 35.9351 106.99 37.6951C105.575 37.0901 100.36 34.2051 104.795 35.9701ZM97.4601 41.5651C98.0251 43.2601 98.3451 45.0151 98.6351 46.7701C97.2201 46.1651 92.0101 43.2801 96.4401 45.0501C96.8951 45.2301 97.3451 45.4301 97.7901 45.6351C97.6001 44.2851 97.4551 42.9351 97.4601 41.5651ZM97.5551 24.0901C96.4401 24.3401 95.3101 24.4401 94.1751 24.4901C94.2851 24.8351 94.3851 25.1801 94.4651 25.5351C95.2451 28.9001 93.5701 24.9651 93.2701 23.8551C94.7051 23.8301 96.1351 23.8401 97.5551 24.0901ZM76.1451 42.4301C76.9251 45.8001 75.2551 41.8651 74.9551 40.7501C76.3851 40.7301 77.8201 40.7401 79.2401 40.9901C78.1201 41.2401 76.9901 41.3351 75.8551 41.3901C75.9651 41.7351 76.0651 42.0801 76.1451 42.4301ZM83.9801 32.3451C85.4151 32.3201 86.8451 32.3301 88.2651 32.5801C87.1451 32.8301 86.0201 32.9301 84.8851 32.9851C84.9901 33.3251 85.0901 33.6751 85.1751 34.0251C85.9501 37.3951 84.2801 33.4601 83.9801 32.3451ZM87.3651 53.4001C87.8201 53.5801 88.2651 53.7801 88.7101 53.9901C88.5201 52.6401 88.3801 51.2851 88.3801 49.9151C88.9451 51.6101 89.2651 53.3651 89.5601 55.1251C88.1401 54.5201 82.9301 51.6301 87.3651 53.4001Z" fill="#878787"/>
<path d="M89.125 15.3999L83.27 12.6299L85.84 18.6849L89.125 15.3999Z" fill="white"/>
<path d="M80.3949 24.13L74.5449 21.355L77.1149 27.41L80.3949 24.13Z" fill="white"/>
<path d="M71.705 32.8248L65.85 30.0498L68.42 36.1048L71.705 32.8248Z" fill="white"/>
<path d="M113.765 40.0347L116.54 45.8847L110.48 43.3147L113.765 40.0347Z" fill="white"/>
<path d="M105.035 48.7598L107.81 54.6148L101.755 52.0448L105.035 48.7598Z" fill="white"/>
<path d="M96.3399 57.4551L99.1149 63.3101L93.0599 60.7351L96.3399 57.4551Z" fill="white"/>
<path d="M29.555 100.02C27.865 98.785 26.355 97.51 25.215 96.48C24.97 96.715 24.73 96.945 24.495 97.17C25.99 98.5 28.055 100.21 30.305 101.685C30.04 101.13 29.79 100.57 29.555 100.02Z" fill="white"/>
<path d="M30.725 102.55C28.165 100.955 25.79 99.0001 24.13 97.5151C23.96 97.6801 23.79 97.8351 23.625 97.9901C25.16 99.9001 28.165 103.385 31.51 105.915C31.735 105.665 31.965 105.415 32.2 105.155C31.67 104.325 31.18 103.445 30.725 102.55Z" fill="white"/>
<path d="M31.545 103.04C31.865 103.635 32.2 104.215 32.55 104.77C32.79 104.505 33.035 104.24 33.29 103.97C32.705 103.685 32.125 103.375 31.545 103.04Z" fill="white"/>
<path d="M25.575 96.135C26.55 97.01 27.7899 98.07 29.1849 99.125C28.4299 97.25 27.855 95.515 27.475 94.27C26.825 94.915 26.19 95.54 25.575 96.135Z" fill="white"/>
<path d="M30.345 100.585C30.585 101.12 30.84 101.66 31.11 102.195C31.94 102.71 32.795 103.18 33.645 103.585C33.845 103.37 34.045 103.16 34.25 102.945C32.915 102.275 31.595 101.45 30.35 100.585H30.345Z" fill="white"/>
<path d="M21.525 99.9049C21.1 100.275 20.77 100.545 20.545 100.705C22.42 102.81 25.75 106.24 29.26 108.45C29.31 108.39 29.365 108.33 29.415 108.27C26.165 105.765 23.215 102.165 21.52 99.8999L21.525 99.9049Z" fill="white"/>
<path d="M42.685 95.0849C42.87 94.9499 43.0499 94.8249 43.2249 94.7099C44.58 93.8099 44.235 93.3049 44.075 93.0299L36.48 85.3899C36.48 85.3899 35.915 85.1099 35.52 85.6049C35.27 85.9199 34.995 86.2549 34.7 86.5999C36.305 88.7449 39.33 92.4949 42.68 95.0849H42.685Z" fill="white"/>
<path d="M35.4349 90.8649C36.7049 92.8249 38.3699 95.1249 40.2349 97.0699C40.4799 96.8549 40.7249 96.6449 40.9649 96.4399C38.8899 94.7549 36.9599 92.6799 35.4399 90.8599L35.4349 90.8649Z" fill="white"/>
<path d="M22.005 99.48C21.97 99.51 21.935 99.545 21.9 99.575C23.58 101.815 26.52 105.42 29.75 107.9C30.045 107.565 30.365 107.205 30.71 106.815C27.195 104.66 23.88 101.445 22.005 99.48Z" fill="white"/>
<path d="M23.26 98.335C22.945 98.625 22.65 98.9 22.375 99.15C24.24 101.11 27.555 104.315 31.045 106.44C31.085 106.39 31.13 106.345 31.175 106.295C27.82 103.745 24.815 100.265 23.26 98.335Z" fill="white"/>
<path d="M34.37 86.9849C34.14 87.2499 33.9 87.5249 33.655 87.7999C35.175 89.8449 38.085 93.4849 41.35 96.1149C41.665 95.8599 41.97 95.6149 42.27 95.3899C38.965 92.7999 35.99 89.1399 34.37 86.9849Z" fill="white"/>
<path d="M33.2499 88.25C33.1899 88.32 33.1249 88.39 33.0599 88.46C34.1499 91.11 36.1099 95.35 38.6349 98.53C39.0449 98.14 39.4549 97.765 39.8549 97.405C36.9049 94.32 34.4599 90.365 33.2499 88.255V88.25Z" fill="white"/>
<path d="M20.11 100.97C19.195 101.525 19.25 102.04 19.25 102.04C19.25 102.04 19.12 102.125 19.985 102.89C20.845 103.655 27.295 110.19 27.295 110.19C27.295 110.19 27.58 110.38 27.835 110.105C27.885 110.05 28.285 109.585 28.93 108.84C25.355 106.57 21.985 103.08 20.11 100.975V100.97Z" fill="white"/>
<path d="M32.69 88.8649C32.32 89.2699 31.935 89.6849 31.54 90.0999C32.175 91.6949 33.22 94.1249 34.585 96.5699C35.59 97.5649 36.67 98.5249 37.775 99.3499C37.94 99.1899 38.105 99.0299 38.27 98.8699C35.77 95.7249 33.81 91.5599 32.69 88.8599V88.8649Z" fill="white"/>
<path d="M28.465 93.2749C28.265 93.4749 28.07 93.6699 27.875 93.8699C28.295 95.2749 29 97.4199 29.96 99.6999C31.42 100.76 33.005 101.78 34.605 102.57C34.72 102.45 34.835 102.33 34.945 102.21C32.095 99.2299 29.71 95.4299 28.465 93.2749Z" fill="white"/>
<path d="M35.84 101.29C32.985 98.2797 30.605 94.4697 29.385 92.3447C29.2 92.5297 29.02 92.7197 28.835 92.9047C30.045 95.0097 32.435 98.8497 35.3 101.85C35.48 101.665 35.66 101.475 35.845 101.29H35.84Z" fill="white"/>
<path d="M34.185 96.8749C32.455 95.1549 30.935 93.3349 29.815 91.8999C29.79 91.9249 29.77 91.9499 29.745 91.9699C30.93 94.0399 33.315 97.8999 36.19 100.93C36.31 100.81 36.43 100.685 36.55 100.565C35.685 99.4049 34.895 98.1399 34.185 96.8749Z" fill="white"/>
<path d="M35.49 98.1147C35.935 98.8347 36.41 99.5397 36.905 100.21C37.075 100.04 37.245 99.8748 37.415 99.7048C36.76 99.2148 36.12 98.6747 35.495 98.1147H35.49Z" fill="white"/>
<path d="M30.165 91.54C31.01 92.625 32.095 93.945 33.325 95.27C32.4 93.46 31.665 91.76 31.16 90.5C30.835 90.845 30.5 91.19 30.165 91.54Z" fill="white"/>
</svg>
