<svg width="128" height="128" viewBox="0 0 128 128" fill="none" xmlns="http://www.w3.org/2000/svg">
<path d="M46.825 89.1049L40.94 83.4648L19.63 104.33L26.89 111.29L46.825 89.1049Z" fill="#878787"/>
<path d="M44.145 80.36L49.79 85.77L91.035 39.175L88.94 37.165L44.145 80.36Z" fill="#878787"/>
<path d="M41.385 83.0302L41.36 83.0552L47.22 88.6702L47.245 88.6452C51.39 89.6302 49.385 86.2352 49.385 86.2352L49.405 86.2102L43.725 80.7652L43.7 80.7902C43.7 80.7902 40.22 78.9352 41.38 83.0352L41.385 83.0302Z" fill="#878787"/>
<path d="M16.15 107.245C14.31 107.725 9.37503 109.52 13.1 114.28L13.08 114.315L17.185 118.25L17.22 118.23C22.14 121.75 23.72 116.745 24.125 114.885L16.15 107.245Z" fill="#878787"/>
<path d="M12.785 114.84L11.53 117.05L14.525 119.915L16.675 118.57L12.785 114.84Z" fill="#878787"/>
<path d="M16.785 107.045L24.3 114.245C27.86 114.815 26.62 111.96 26.515 111.73L19.2 104.72C18.965 104.625 16.065 103.51 16.785 107.04V107.045Z" fill="#878787"/>
<path d="M90.415 37.0901C89.68 36.3851 89.025 35.5751 88.48 34.6851C85.01 29.0351 86.785 21.6201 92.43 18.1501C98.075 14.6801 105.495 16.4551 108.965 22.1001C110.645 24.8351 111.16 28.0651 110.415 31.1851C109.67 34.3051 107.75 36.9501 105.015 38.6351C102.28 40.3151 99.05 40.8301 95.93 40.0851C93.825 39.5801 91.94 38.5501 90.42 37.0901H90.415ZM106.435 20.3451C102.865 16.9251 97.295 16.1901 92.89 18.8951C87.655 22.1101 86.01 28.9901 89.225 34.2251C90.785 36.7601 93.235 38.5401 96.13 39.2351C99.025 39.9251 102.02 39.4501 104.555 37.8901C107.09 36.3301 108.87 33.8801 109.565 30.9851C110.255 28.0901 109.78 25.0951 108.22 22.5601C107.71 21.7301 107.11 20.9901 106.435 20.3451Z" fill="white"/>
<path d="M93.74 37.8799L94.535 45.8049L99.2 39.2749L93.74 37.8799Z" fill="white"/>
<path d="M97.34 18.0999L91.49 10.1699L92.55 20.2449L97.34 18.0999Z" fill="white"/>
<path d="M106.445 21.4502L109.99 12.2002L102.01 18.5302L106.445 21.4502Z" fill="white"/>
<path d="M110.34 31.1496L117.685 27.5096L108.605 25.1396L110.34 31.1496Z" fill="white"/>
<path d="M88.515 22.1948L80.245 23.3198L88.305 27.6948L88.515 22.1948Z" fill="white"/>
<path d="M88.8701 29.98L82.9451 36.48L92.8251 34.28L88.8701 29.98Z" fill="white"/>
<path d="M110.6 44.2699L102.455 38.8149L107.17 34.6299L110.6 44.2699Z" fill="white"/>
<path d="M108.595 22.3301C105.245 16.8801 98.1151 15.1751 92.6651 18.5201C87.2151 21.8701 85.5101 29.0001 88.8551 34.4501C92.2051 39.9001 99.3351 41.6051 104.785 38.2601C110.235 34.9151 111.94 27.7801 108.595 22.3301ZM90.4801 21.5351C92.1651 21.9001 93.845 22.2901 95.465 22.8901C94.16 22.8101 92.8751 22.6001 91.5951 22.3551C91.8301 22.7851 92.0601 23.2151 92.2751 23.6551C92.5801 24.2801 92.8651 24.9151 93.0951 25.5851C92.0701 24.3401 91.2601 22.9451 90.4801 21.5351ZM102.555 24.3351C103.65 24.0251 104.78 23.9601 105.91 23.9351C105.56 25.0801 105.185 26.2201 104.61 27.2801C104.69 26.3401 104.89 25.4301 105.135 24.5301C104.27 24.5451 103.41 24.5151 102.555 24.3351ZM97.2751 33.0801C97.5701 33.7101 97.805 34.3551 98.02 35.0101C98.17 35.4651 98.3 35.9251 98.43 36.3901C99.1851 35.3151 99.9701 34.2701 100.86 33.2951C100.105 34.8601 99.16 36.3151 98.195 37.7501C97.78 36.2151 97.4001 34.6701 97.2751 33.0801Z" fill="white"/>
</svg>
