<svg width="128" height="128" viewBox="0 0 128 128" fill="none" xmlns="http://www.w3.org/2000/svg">
<path d="M47.16 73.2549L54.955 81.2649C61.59 75.4199 110.515 31.9099 114.74 15.3149C98.035 19.0849 53.185 66.7849 47.16 73.2549ZM78.805 51.4249C73.5 56.3899 62.795 66.9399 57.475 71.6399C71.07 58.2899 85.43 43.3099 99.6 30.6649L99.66 30.7249C92.96 37.8799 85.93 44.6999 78.805 51.4249Z" fill="white"/>
<path d="M24.27 97.7348C23.92 98.1548 23.58 98.5598 23.255 98.9548C22.975 99.2948 23.205 99.8098 23.645 99.8298L32.77 100.255C33.45 100.285 34.115 100.07 34.64 99.6448C35.165 99.2198 35.74 98.7498 36.295 98.2948C36.675 97.9848 36.47 97.3648 35.98 97.3448L26.195 96.8898C25.455 96.8548 24.745 97.1698 24.27 97.7398V97.7348Z" fill="#878787"/>
<path d="M21.2 102.805L29.315 103.185C29.86 103.21 30.4 103.04 30.83 102.7C31.26 102.36 31.685 102.02 32.125 101.67C32.51 101.36 32.31 100.735 31.815 100.71L23.295 100.315C22.59 100.28 21.905 100.585 21.455 101.135C21.225 101.415 21.005 101.685 20.8 101.935C20.52 102.275 20.755 102.785 21.195 102.81L21.2 102.805Z" fill="#878787"/>
<path d="M27.14 94.3247C26.795 94.7297 26.46 95.1297 26.125 95.5197C25.84 95.8597 26.065 96.3797 26.51 96.3997L36.61 96.8697C37.465 96.9097 38.305 96.6297 38.96 96.0797C39.405 95.7047 39.85 95.3297 40.29 94.9597C40.66 94.6447 40.45 94.0397 39.965 94.0147L29.025 93.5047C28.305 93.4697 27.61 93.7747 27.14 94.3247Z" fill="#878787"/>
<path d="M19.575 103.45C19.55 103.48 19.53 103.505 19.505 103.535C19.335 103.745 19.35 104.05 19.54 104.245L21.17 105.92C21.265 106.02 21.395 106.075 21.53 106.08L26.03 106.29C26.155 106.295 26.28 106.26 26.38 106.18C26.995 105.7 27.685 105.17 28.425 104.59C28.815 104.285 28.615 103.655 28.12 103.63L20.015 103.255C19.845 103.245 19.68 103.32 19.57 103.455L19.575 103.45Z" fill="#878787"/>
<path d="M45.32 79.0398L43.605 77.2798C43.325 77.4648 43.03 77.6798 42.715 77.9198C42.3 78.2398 42.505 78.9098 43.03 78.9348L45.32 79.0398Z" fill="#878787"/>
<path d="M24.15 106.7L23.185 106.655C22.7 106.63 22.435 107.215 22.775 107.565L23.21 108.015C23.4 108.21 23.705 108.235 23.92 108.07C24.075 107.95 24.25 107.815 24.45 107.665C24.85 107.36 24.65 106.725 24.15 106.7Z" fill="#878787"/>
<path d="M29.905 91.1098C29.605 91.4548 29.31 91.7948 29.015 92.1348C28.72 92.4748 28.95 92.9998 29.4 93.0198L40.625 93.5398C41.43 93.5748 42.215 93.2998 42.82 92.7698C43.21 92.4248 43.595 92.0848 43.97 91.7498C44.345 91.4148 44.115 90.8348 43.635 90.8148L31.88 90.2698C31.13 90.2348 30.4 90.5448 29.905 91.1148V91.1098Z" fill="#878787"/>
<path d="M32.955 87.655C32.59 88.065 32.22 88.475 31.855 88.89C31.555 89.225 31.78 89.76 32.23 89.78L44.265 90.34C45.03 90.375 45.775 90.095 46.33 89.57C46.835 89.09 47.315 88.625 47.76 88.175C48.09 87.845 47.865 87.285 47.4 87.26L35.24 86.695C34.375 86.655 33.53 87.005 32.95 87.65L32.955 87.655Z" fill="#878787"/>
<path d="M58.68 87.0499L54.225 81.9498L46.46 73.9648L41.485 69.3698C42.065 67.9498 41.85 66.3248 40.78 65.2248C39.305 63.7048 36.79 63.7598 35.16 65.3498C33.53 66.9348 33.405 69.4498 34.88 70.9648C35.945 72.0598 37.54 72.3198 38.96 71.7948L42.11 75.0298L42.12 75.0198L53 86.2048L52.99 86.2148L56.185 89.4998C55.625 90.9098 55.845 92.5149 56.91 93.6049C58.385 95.1249 60.9 95.0699 62.53 93.4799C64.16 91.8949 64.285 89.3798 62.81 87.8648C61.735 86.7598 60.12 86.4998 58.685 87.0448L58.68 87.0499Z" fill="#878787"/>
<path d="M23.14 108.66L18.895 104.295L18.89 104.305C17.775 103.585 14.35 105.845 14.03 107.61C13.69 109.525 12.245 115.01 12.245 115.01C12.245 115.01 17.77 113.72 19.695 113.43C21.47 113.16 23.825 109.8 23.13 108.665C23.13 108.665 23.135 108.665 23.14 108.66ZM14.755 112.68L14.38 112.74C14.755 111.245 15.16 109.76 15.735 108.315C15.595 109.61 15.335 110.88 15.04 112.135C15.635 112.045 16.23 111.965 16.83 111.905C17.555 111.83 18.275 111.775 19.005 111.76C17.615 112.18 16.185 112.45 14.755 112.68Z" fill="#878787"/>
<path d="M50.535 84.3999L49.795 83.6399C49.705 83.5499 49.585 83.4949 49.46 83.4899L38.5 82.9799C37.76 82.9449 37.05 83.2349 36.54 83.7699C36.03 84.3049 35.545 84.8249 35.04 85.3699C34.75 85.6799 34.96 86.1899 35.385 86.2099L47.93 86.7949C48.66 86.8299 49.365 86.5199 49.84 85.9649C50.115 85.6449 50.36 85.3399 50.575 85.0549C50.725 84.8549 50.71 84.5799 50.535 84.3999Z" fill="#878787"/>
<path d="M40.845 79.5097C40.205 80.0897 39.525 80.7447 38.81 81.4497C38.425 81.8297 38.68 82.4897 39.22 82.5147L47.58 82.9047C48.145 82.9297 48.45 82.2547 48.055 81.8497L46.005 79.7447C45.895 79.6297 45.745 79.5647 45.59 79.5547L41.295 79.3547C41.13 79.3447 40.97 79.3997 40.85 79.5147L40.845 79.5097Z" fill="#878787"/>
</svg>
