<svg width="128" height="128" viewBox="0 0 128 128" fill="none" xmlns="http://www.w3.org/2000/svg">
<g clip-path="url(#clip0_268_8643)">
<path d="M89.9466 33.6517C78.0553 58.5099 58.6088 76.0218 38.3214 92.6716C39.5341 94.3634 40.8435 96.0558 42.1383 97.7776C61.328 84.5936 70.4385 78.5492 92.096 54.974C114.746 30.3174 122.155 10.2878 123.982 4C114.865 14.9127 102.781 25.4028 89.9466 33.6517ZM90.446 34.523C92.4641 33.5187 94.4867 32.5203 96.4821 31.4736C102.479 28.3847 108.017 24.3988 112.577 19.4111L113.494 18.4287C110.952 26.1617 106.474 33.0816 101.543 39.4899C96.9083 45.5791 91.6925 51.1884 86.506 56.7756C81.3342 62.3885 76.0451 67.9429 70.1241 72.7851C64.2318 77.6471 58.0509 82.1255 51.9032 86.6478C57.9269 81.9667 64.0116 77.3543 69.8379 72.4411C78.5326 65.027 86.0365 56.3036 93.7004 47.854C96.169 45.0166 98.6931 42.0274 100.986 39.0605C105.366 33.4062 109.383 27.3969 112.04 20.7505C109.154 23.6309 105.974 26.2289 102.506 28.3781C98.6552 30.7608 94.5514 32.6551 90.4511 34.5237L90.446 34.523Z" fill="white"/>
<path d="M34.9497 82.6103C35.6388 83.4352 35.5253 84.6619 34.7004 85.351C34.1873 85.7782 33.5192 85.8955 32.9203 85.727C33.1429 87.3153 34.1376 88.7539 35.1241 90.0474C35.8544 91.0247 36.625 91.9946 37.4125 92.9564C38.0811 93.7967 41.2013 97.9459 41.8209 98.8185C42.5264 99.842 43.2443 100.852 43.9805 101.824C44.9523 103.129 46.0576 104.489 47.5195 105.141C47.5238 104.519 47.822 103.909 48.3747 103.535C49.2657 102.934 50.4758 103.165 51.077 104.056C51.6783 104.947 51.4468 106.157 50.5559 106.758C50.0668 107.089 49.4836 107.161 48.9522 107.015C48.3851 107.029 47.7835 106.991 47.1868 106.844C45.1338 106.339 43.5872 104.806 42.1923 103.33C41.4476 102.528 40.7034 101.667 39.9703 100.802C38.7917 101.624 36.769 100.848 35.4126 99.0444C34.0562 97.2406 33.8775 95.0829 34.9894 94.178C34.3617 93.2336 33.7406 92.2796 33.1774 91.3417C32.1456 89.5918 31.0997 87.6829 31.1872 85.568C31.2113 84.954 31.3439 84.3684 31.5124 83.8244C31.522 83.2763 31.7477 82.7353 32.2045 82.3551C33.0294 81.666 34.2562 81.7795 34.9453 82.6044L34.9497 82.6103Z" fill="#878787"/>
<path d="M28.3472 111.99L28.315 112.014C27.908 112.321 27.3526 112.307 26.9792 111.988C25.7241 110.91 24.4636 109.63 23.3428 108.139C22.222 106.649 21.3348 105.061 20.6507 103.554C20.4471 103.106 20.5886 102.569 20.9956 102.263L21.0278 102.239C21.5724 101.829 22.334 102.013 22.6183 102.61C23.2781 103.994 24.1014 105.424 25.1297 106.791C26.158 108.159 27.2916 109.337 28.4345 110.357C28.9268 110.798 28.8897 111.578 28.345 111.987L28.3472 111.99Z" fill="#878787"/>
<path d="M25.7146 106.356C24.8558 105.214 24.0863 103.94 23.4089 102.57C27.5618 100.016 33.756 97.4571 33.756 97.4571C33.756 97.4571 34.0093 98.4035 34.8285 99.4928C35.6476 100.582 36.4865 101.088 36.4865 101.088C36.4865 101.088 32.3034 106.333 28.6967 109.614C27.5735 108.584 26.5668 107.489 25.7168 106.359L25.7146 106.356Z" fill="#878787"/>
<path d="M16.2499 118.506L16.2265 118.524C15.9161 118.757 15.5102 118.778 15.2542 118.572C14.3946 117.88 13.5384 117.052 12.7963 116.066C12.0542 115.079 11.4879 114.015 11.0646 112.995C10.9374 112.691 11.0703 112.307 11.3807 112.074L11.4041 112.056C11.8199 111.744 12.3674 111.832 12.5459 112.234C12.9553 113.168 13.4841 114.127 14.1645 115.032C14.8449 115.937 15.6101 116.705 16.3914 117.359C16.728 117.642 16.6606 118.193 16.2448 118.506L16.2499 118.506Z" fill="#878787"/>
<path d="M14.7552 114.592C14.2532 113.925 13.8067 113.179 13.4159 112.372C14.688 110.705 17.6311 107.011 20.4052 104.714C21.0943 106.112 21.8786 107.411 22.7572 108.579C23.6357 109.748 24.6571 110.85 25.8038 111.899C22.8248 113.924 18.4593 115.726 16.5075 116.484C15.8465 115.885 15.2558 115.252 14.7582 114.59L14.7552 114.592Z" fill="#878787"/>
<path d="M7.0644 113.454C8.12333 112.979 9.42378 112.849 10.3826 113.173C10.3974 113.235 10.4121 113.297 10.4378 113.356C10.9193 114.52 11.5149 115.581 12.2129 116.509C12.9109 117.437 13.7525 118.294 14.7347 119.082C14.7889 119.124 14.8439 119.16 14.9026 119.189C14.9479 120.237 14.4227 121.508 13.6215 122.399C13.3325 122.722 12.8519 122.808 12.4633 122.615C10.5525 121.659 9.2197 122.257 8.39427 122.544C8.08885 122.649 8.39427 122.544 8.08885 122.649C7.81194 122.129 6.41493 122.386 5.68607 121.417C4.95721 120.448 5.59233 119.177 5.16901 118.767L5.35552 118.503C5.84337 117.81 6.90249 116.335 6.50608 114.626C6.39556 114.15 6.62428 113.661 7.07172 113.458L7.0644 113.454Z" fill="#878787"/>
</g>
<defs>
<clipPath id="clip0_268_8643">
<rect width="128" height="128" fill="white"/>
</clipPath>
</defs>
</svg>
