<svg width="128" height="128" viewBox="0 0 128 128" fill="none" xmlns="http://www.w3.org/2000/svg">
<path d="M115.905 13.54C114.65 13.8 111.75 18.02 111.075 19.02C110.82 18.98 110.595 19.02 110.465 19.15C109.5 18.995 108.27 18.885 107.785 19.23C107.58 19.375 107.52 19.555 107.505 19.685C107.4 20.53 107.505 21.135 107.505 21.16L108.245 21.035C108.245 21.035 108.16 20.53 108.245 19.83C108.47 19.705 109.305 19.735 110.285 19.89L22.16 107.63C22.16 107.63 21.705 108.24 20.615 109.215C20.805 108.805 20.94 108.23 20.855 107.455L20.36 107.51C20.535 109.06 19.705 109.625 19.67 109.65L19.685 109.675C19.32 109.88 19.095 110.19 19.095 110.465C18.515 110.905 17.85 111.38 17.07 111.88C13.995 113.865 14.855 115.98 14.855 115.98C15.105 116.765 16.035 115.775 16.035 115.775C16.035 115.775 15.855 115.875 15.75 115.47C15.36 114.015 18.085 112.41 18.085 112.41L18.2 112.79L19.11 112.805L19.18 112.245L19.88 110.95L19.885 110.945C20.04 110.93 20.205 110.89 20.37 110.82C20.83 110.62 21.125 110.25 21.11 109.935C24.4 106.83 108.615 23.16 108.615 23.16L111.41 20.465C111.77 20.555 112.095 20.495 112.22 20.28C112.31 20.13 112.28 19.93 112.17 19.735L112.53 19.385L113.2 17.875C115.055 14.98 115.865 15.2 115.865 15.2L116.24 15.54C116.24 15.54 117.325 13.235 115.905 13.53V13.54Z" fill="#878787"/>
<path d="M82.06 78.4353C82.385 78.1103 82.72 77.7803 83.06 77.4453C83.285 76.4553 83.355 75.5003 83.315 74.6053C82.84 74.3353 82.36 74.1103 81.885 73.9253C82.2 75.2553 82.325 76.7853 82.06 78.4353Z" fill="#878787"/>
<path d="M80.035 69.635C80.545 70.415 81.26 71.7 81.73 73.335C82.24 73.515 82.76 73.74 83.275 74.01C83.03 71.495 81.975 69.485 81.285 68.415C80.885 68.805 80.465 69.21 80.035 69.635Z" fill="#878787"/>
<path d="M83.805 74.3102C84.275 74.5901 84.735 74.9202 85.19 75.2952C88.29 72.1202 91.69 68.3452 94.925 64.1602C94.925 64.1602 85.315 69.8702 85.335 64.5652C85.335 64.5652 83.81 65.9802 81.655 68.0602C82.405 69.2052 83.615 71.4651 83.805 74.3102Z" fill="#878787"/>
<path d="M83.825 74.915C83.835 75.525 83.79 76.16 83.685 76.815C83.87 76.63 84.05 76.445 84.24 76.26C84.435 76.065 84.635 75.855 84.835 75.655C84.505 75.38 84.165 75.135 83.825 74.915Z" fill="#878787"/>
<path d="M81.43 79.0552C81.89 77.0752 81.725 75.2502 81.32 73.7202C79.465 73.1102 77.71 73.0602 76.49 73.1402C74.705 74.9002 72.885 76.6702 71.02 78.6702C71.02 78.6702 79.545 74.0852 70.26 89.4652C70.26 89.4652 74.62 85.7452 81.425 79.0552H81.43Z" fill="#878787"/>
<path d="M81.155 73.1453C80.72 71.7753 80.12 70.6854 79.67 69.9854C79.13 70.5154 78.58 71.0653 78.01 71.6303C77.68 71.9603 77.35 72.2853 77.02 72.6153C78.16 72.5853 79.615 72.6853 81.15 73.1453H81.155Z" fill="#878787"/>
<path d="M115.085 23.2851C115.085 23.2851 114.925 23.0851 115.1 22.9201C115.495 22.5401 116.315 21.9601 117.39 22.5901C117.465 22.6351 117.6 22.7201 117.605 22.8401C117.605 22.8401 118.125 22.3551 117.705 21.8901C117.285 21.4251 115.92 21.4051 114.74 22.3551C113.885 23.0401 115.09 23.2851 115.09 23.2851H115.085Z" fill="#878787"/>
<path d="M115.015 22.0649C115.015 22.0649 114.855 21.8649 115.03 21.6999C115.425 21.3199 116.245 20.7399 117.32 21.3699C117.395 21.4149 117.53 21.4999 117.535 21.6199C117.535 21.6199 118.055 21.1349 117.635 20.6699C117.215 20.2049 115.85 20.1849 114.67 21.1349C113.815 21.8199 115.02 22.0649 115.02 22.0649H115.015Z" fill="#878787"/>
<path d="M22.837 113.37C22.837 113.37 22.617 113.245 22.482 113.44C22.172 113.89 21.732 114.795 22.527 115.755C22.582 115.82 22.692 115.94 22.807 115.925C22.807 115.925 22.412 116.52 21.887 116.175C21.362 115.83 21.117 114.495 21.862 113.175C22.397 112.225 22.837 113.37 22.837 113.37Z" fill="#878787"/>
<path d="M23.985 113.31C23.985 113.31 23.765 113.185 23.63 113.38C23.32 113.83 22.88 114.735 23.675 115.695C23.73 115.76 23.84 115.88 23.955 115.865C23.955 115.865 23.56 116.46 23.035 116.115C22.51 115.77 22.265 114.435 23.01 113.115C23.545 112.165 23.985 113.31 23.985 113.31Z" fill="#878787"/>
<path d="M26.36 113.5C26.36 113.5 26.14 113.375 26.005 113.57C25.695 114.02 25.255 114.925 26.05 115.885C26.105 115.95 26.215 116.07 26.33 116.055C26.33 116.055 25.935 116.65 25.41 116.305C24.885 115.96 24.64 114.625 25.385 113.305C25.92 112.355 26.36 113.5 26.36 113.5Z" fill="#878787"/>
<path d="M113.35 11.135C113.76 11.03 114.125 11.02 114.415 11.04C114.04 9.97002 113.42 8.67002 112.725 9.27002C112.415 9.54002 112.42 10.39 112.59 11.475C112.755 11.36 112.995 11.225 113.345 11.135H113.35Z" fill="white"/>
<path d="M25.01 113.445L24.175 113.41C23.96 113.625 23.5 114.195 23.67 114.965C23.76 115.38 24.04 115.62 24.275 115.78C24.29 115.79 24.305 115.8 24.32 115.81C24.425 115.815 24.525 115.82 24.62 115.83C24.705 115.835 24.8 115.845 24.905 115.85C24.77 115.675 24.655 115.465 24.595 115.195C24.425 114.425 24.73 113.815 25.01 113.445Z" fill="white"/>
<path d="M113.845 14.6351C114.39 14.0401 114.87 13.6601 115.095 13.5001C115.04 13.2801 114.99 13.0901 114.95 12.9301C114.775 12.7901 114.39 12.5451 113.885 12.5701C113.595 12.5851 113.41 12.7101 113.285 12.8151C113.19 12.8951 113.055 13.0951 112.96 13.2551C113.11 13.8751 113.28 14.5051 113.455 15.1101C113.555 14.9751 113.685 14.8201 113.85 14.6351H113.845Z" fill="white"/>
<path d="M113.475 11.6201C113.115 11.7101 112.905 11.8601 112.78 11.9601C112.75 11.9801 112.725 12.0151 112.695 12.0501C112.73 12.2251 112.765 12.4101 112.805 12.5901C112.855 12.5251 112.91 12.4701 112.965 12.4251C113.135 12.2851 113.415 12.0901 113.855 12.0651C114.215 12.0451 114.525 12.1251 114.775 12.2401C114.76 12.1751 114.695 11.9101 114.59 11.5651C114.325 11.5251 113.935 11.5051 113.48 11.6201H113.475Z" fill="white"/>
<path d="M14.3 114.855C14.34 114.6 14.595 113.965 14.855 113.56C14.96 113.395 15.09 113.235 15.215 113.085C13 113.1 10.405 113.28 9.72999 114C8.49999 115.315 11.66 115.505 11.66 115.505C11.66 115.505 12.765 115.515 14.34 115.54C14.305 115.345 14.265 115.065 14.3 114.855Z" fill="white"/>
<path d="M118.625 12.6298C118.435 12.1148 117.485 12.4548 117.485 12.4548C117.485 12.4548 117.48 15.1048 117.2 15.5898C116.915 16.0748 115.705 15.8398 115.7 15.7648C115.7 15.7598 115.7 15.7548 115.7 15.7448C115.475 15.8948 115.21 16.0898 114.935 16.3498C114.61 16.6598 114.445 16.8998 114.35 17.0598C114.28 17.1748 114.22 17.3398 114.185 17.4648C114.415 18.1748 114.58 18.6348 114.58 18.6348L114.785 20.4798C114.84 20.4448 114.895 20.4048 114.945 20.3748C115.16 20.2398 115.51 20.0548 116.075 19.9848C116.615 19.9148 117.055 19.9698 117.385 20.0448C117.37 19.8648 117.355 19.6998 117.34 19.5498C117.29 19.1298 118.155 18.5598 118.315 17.5498C118.415 16.9298 118.95 13.4298 118.645 12.6248L118.625 12.6298Z" fill="white"/>
<path d="M21.4714 113.296L18.62 113.18C18.62 113.18 18.315 113.16 17.825 113.14C17.655 113.255 17.19 113.585 16.87 113.945C16.57 114.285 16.275 114.805 16.225 114.96C16.18 115.1 16.18 115.375 16.19 115.57C16.215 115.57 16.235 115.57 16.26 115.57C16.34 115.57 16.37 116.36 15.795 116.715C15.22 117.07 13.48 117.29 13.48 117.29C13.48 117.29 13.145 117.955 13.675 118.12C14.52 118.38 16.465 118.17 17.16 118.005C18.3 117.735 19.625 115.735 20.085 115.745C20.835 115.765 20.6465 115.74 21.2415 115.745C21.0815 115.56 21.0548 115.379 21.0548 114.862C21.0548 114.345 21.1756 113.707 21.4714 113.296Z" fill="white"/>
<path d="M112.825 12.865C112.825 12.865 112.7 12.705 112.835 12.57C113.155 12.265 113.815 11.8 114.68 12.305C114.74 12.34 114.85 12.41 114.855 12.505C114.855 12.505 115.275 12.115 114.935 11.74C114.595 11.365 113.5 11.35 112.55 12.11C111.865 12.66 112.83 12.86 112.83 12.86L112.825 12.865Z" fill="#878787"/>
<path d="M73.505 79.1851C72.705 78.5251 71.025 79.5951 69.905 80.5051C67.785 82.9151 65.995 85.1901 65.345 86.6451C63.35 91.1151 59.44 96.9851 59.44 96.9851C47.555 113.695 26.84 113.53 26.84 113.53L26.66 113.52C26.455 113.72 25.96 114.3 26.135 115.095C26.22 115.475 26.455 115.7 26.67 115.86C28.255 115.825 30.5 115.715 33.125 115.55C35.92 115.375 39.145 114.84 42.5 113.94C45.58 113.115 52.37 110.125 55.27 107.82C60.18 103.92 64.265 99.1701 69.18 90.5501C69.21 90.4951 69.245 90.4451 69.275 90.3901L69.26 90.3801C72.015 85.5551 74.38 79.9051 73.51 79.1901L73.505 79.1851ZM47.315 110.61C47.08 110.61 46.89 110.42 46.89 110.185C46.89 109.95 47.08 109.76 47.315 109.76C47.55 109.76 47.74 109.95 47.74 110.185C47.74 110.42 47.55 110.61 47.315 110.61ZM52.365 108C52.04 108 51.775 107.735 51.775 107.41C51.775 107.085 52.04 106.82 52.365 106.82C52.69 106.82 52.955 107.085 52.955 107.41C52.955 107.735 52.69 108 52.365 108ZM57.015 104.15C56.605 104.15 56.27 103.815 56.27 103.405C56.27 102.995 56.605 102.66 57.015 102.66C57.425 102.66 57.76 102.995 57.76 103.405C57.76 103.815 57.425 104.15 57.015 104.15Z" fill="white"/>
<path d="M117.56 23.145C117.32 22.975 116.745 22.655 116 22.865C115.58 22.985 115.355 23.25 115.21 23.465C115.185 23.505 115.155 23.55 115.125 23.595L115.4 26.055C115.4 26.055 117.28 41.62 103.125 51.695C103.125 51.695 97.58 55.64 93.955 57.905C92.28 58.955 89.11 61.685 86.23 64.275C86.175 64.8 86.25 65.575 87.095 65.84C88.335 66.23 92.77 64.33 95.345 63.005C96.12 62.375 96.895 61.765 97.66 61.19C104.365 56.135 108.065 53.985 111.27 49.97C113.16 47.6 115.99 42.275 116.71 39.585C117.49 36.66 117.87 32.92 117.815 30.37C117.765 28.095 117.675 25.38 117.57 23.14L117.56 23.145ZM107.625 51.53C107.215 51.565 106.855 51.265 106.815 50.855C106.78 50.445 107.08 50.085 107.49 50.045C107.9 50.01 108.26 50.31 108.3 50.72C108.335 51.13 108.035 51.49 107.625 51.53ZM111.72 46.615C111.395 46.645 111.11 46.405 111.08 46.08C111.05 45.755 111.29 45.47 111.615 45.44C111.94 45.41 112.225 45.65 112.255 45.975C112.285 46.3 112.045 46.585 111.72 46.615ZM113.965 41.78C113.73 41.8 113.525 41.63 113.505 41.395C113.485 41.16 113.655 40.955 113.89 40.935C114.125 40.915 114.33 41.085 114.35 41.32C114.37 41.555 114.2 41.76 113.965 41.78Z" fill="white"/>
</svg>
