<svg width="128" height="128" viewBox="0 0 128 128" fill="none" xmlns="http://www.w3.org/2000/svg">
<path d="M113.625 12.88L43.0649 80.24C44.2599 81.395 47.2749 84.475 50.3949 88.965C58.9199 80.865 97.2449 44.415 105.835 35.475C115.52 25.405 113.625 12.875 113.625 12.875V12.88ZM107.345 25.01C104.985 30.44 100.775 34.805 96.8499 39.135C87.4599 48.92 63.1549 71.245 52.9849 80.615C63.2099 70.73 86.7749 48.515 96.3099 38.62C100.3 34.395 104.52 30.165 107.155 24.93C107.5 24.175 107.795 23.39 107.94 22.565L108.015 22.575C107.91 23.415 107.655 24.225 107.345 25.01Z" fill="white"/>
<path d="M30.17 94.5153C25.55 99.2003 20.595 104.31 19.165 106.085C20.5 108.82 22.645 110.18 23.6 110.67C25.5 109.095 32.76 103.05 38.535 97.8903C36.72 97.8053 33.61 97.1903 30.17 94.5103V94.5153Z" fill="#878787"/>
<path d="M32.69 91.9648C31.99 92.6698 31.265 93.4048 30.53 94.1498C34.205 96.9698 37.5 97.3848 39.095 97.3898C39.61 96.9298 40.11 96.4749 40.59 96.0349C38.54 95.6699 35.705 94.6448 32.69 91.9648Z" fill="#878787"/>
<path d="M33.0449 91.6052C36.1549 94.3452 39.0899 95.2852 41.0849 95.5802C42.2849 94.4702 43.3449 93.4602 44.1849 92.6102L38.4449 86.2002C37.4499 87.1952 35.4299 89.2102 33.0499 91.6102L33.0449 91.6052Z" fill="#878787"/>
<path d="M42.3449 80.9301L42.3299 80.9451C40.6399 79.3351 39.0049 78.1501 37.7499 78.0151C33.5999 77.5651 35.9599 82.2051 35.9599 82.2051C35.9599 82.2051 37.1149 83.7751 38.8049 85.8451L44.5399 92.2501C46.9649 94.8701 48.0049 96.3851 47.9949 98.7001C47.9849 101.47 45.9549 109.055 37.2099 112.165C30.6849 114.485 25.9699 112.78 23.4949 111.325C23.7349 112.085 23.6999 112.71 23.3899 113.19C23.1749 113.515 22.8599 113.73 22.5249 113.87C29.7899 118.695 36.9399 116.5 36.9399 116.5C36.9399 116.5 41.1699 116.6 48.6499 108.695C55.0999 101.885 52.6199 94.7901 51.3799 92.2751C47.7099 86.3101 43.7049 82.2301 42.3549 80.9301H42.3449Z" fill="#878787"/>
<path d="M21.6551 113.5C21.7501 113.495 21.8351 113.48 21.9151 113.46C21.9401 113.48 21.9701 113.495 21.9951 113.515C22.3701 113.415 22.7451 113.24 22.9601 112.91C23.2751 112.43 23.1851 111.7 22.7051 110.745C21.6001 110.065 19.9751 108.755 18.8301 106.535C18.8301 106.54 18.8201 106.55 18.8151 106.555C18.8151 106.555 17.4051 105.075 16.2701 106.92C15.1351 108.765 17.4651 111.565 17.7751 111.89C18.0851 112.215 19.7101 113.625 21.6501 113.495L21.6551 113.5Z" fill="#878787"/>
</svg>
