<svg width="128" height="128" viewBox="0 0 128 128" fill="none" xmlns="http://www.w3.org/2000/svg">
<path d="M30.9714 97.3347C30.1764 96.4097 28.7764 96.2997 27.8514 97.0947C27.1514 97.6947 27.0014 98.8797 27.2664 99.7097C27.3714 99.6797 27.4764 99.5897 27.5714 99.5297C27.6814 99.4697 28.0964 99.1097 28.2064 98.9247C28.1364 98.5497 28.2614 98.2046 28.5714 97.9346C28.8114 97.7297 29.1164 97.6447 29.4064 97.6747C29.6814 97.7047 29.9414 97.8297 30.1314 98.0547C30.5314 98.5197 30.4764 99.2197 30.0114 99.6197C29.8164 99.7847 29.6064 99.8846 29.3664 99.8946C29.3664 99.9196 29.1764 100.22 29.0464 100.33C28.8264 100.52 28.6364 100.63 28.5514 100.66C28.5064 100.675 28.3514 100.76 28.3064 100.775C28.5264 100.88 28.8214 100.955 29.0564 100.98C29.6414 101.04 30.2464 100.87 30.7264 100.46C31.6514 99.6647 31.7614 98.2646 30.9664 97.3396L30.9714 97.3347Z" fill="#878787"/>
<path d="M39.3864 105.32C38.4864 104.495 37.0864 104.555 36.2614 105.455C35.8614 105.89 35.6564 106.455 35.6814 107.045C35.7064 107.625 35.9564 108.16 36.3814 108.56C36.4464 108.475 36.5114 108.385 36.5764 108.3C36.6664 108.175 37.0064 107.63 37.0564 107.56C36.9514 107.4 36.7914 107.195 36.7814 107C36.7664 106.705 36.8714 106.42 37.0714 106.205C37.2864 105.97 37.5764 105.85 37.8714 105.845C38.1464 105.845 38.4214 105.935 38.6364 106.135C38.8564 106.335 38.9814 106.61 38.9964 106.905C39.0114 107.2 38.9064 107.485 38.7064 107.7C38.5464 107.875 38.3414 107.985 38.1164 108.035C38.1164 108.055 37.8264 108.655 37.7714 108.735C37.6864 108.865 37.6114 109 37.5464 109.135C37.6714 109.155 37.7964 109.165 37.9214 109.165C37.9414 109.165 37.9614 109.165 37.9814 109.165C38.5714 109.14 39.1164 108.885 39.5164 108.45C39.9164 108.015 40.1214 107.45 40.0964 106.86C40.0714 106.27 39.8164 105.725 39.3814 105.325L39.3864 105.32Z" fill="#878787"/>
<path d="M38.2013 107.68C38.1663 107.31 37.8613 107.335 37.8163 107.32C37.8113 107.32 37.5063 107.255 37.3413 107.445C36.5213 108.59 33.6063 112.84 30.3513 114.465C22.8363 118.21 18.8463 112.405 18.8463 112.405C18.8463 112.405 15.4163 107.65 19.2263 103.35C19.9413 102.545 22.4963 102.215 23.7113 102.15C24.2663 102.12 24.8063 102.02 25.3363 101.845C26.8213 101.365 29.5863 100.35 29.3113 99.5648C28.9363 98.4948 28.2513 99.0898 28.2513 99.0898C28.2513 99.0898 27.6763 99.8798 26.3363 100.34C24.9963 100.795 20.0113 101.64 20.0113 101.64C20.0113 101.64 16.4763 102.045 16.0263 107.665C15.5813 113.285 20.9213 115.845 20.9213 115.845C20.9213 115.845 26.6663 119.27 32.9013 114.415C35.5563 112.345 38.2313 107.885 38.2113 107.685L38.2013 107.68Z" fill="#878787"/>
<path d="M52.9814 91.7395L55.4114 89.0396C51.3864 87.9646 47.7314 84.6996 45.0564 81.6646L42.5364 84.1896C45.1964 87.2746 48.9114 90.6895 52.9814 91.7395Z" fill="#878787"/>
<path d="M53.9314 72.7744L53.1864 73.5194C54.7364 77.2144 57.1114 81.2894 60.5064 83.3794L63.6964 79.8344C59.9214 78.6394 56.4914 75.6094 53.9314 72.7744Z" fill="#878787"/>
<path d="M50.3914 94.6194L52.6164 92.1494C48.5364 90.9944 44.8414 87.6094 42.1864 84.5444L39.7664 86.9694C42.4564 90.1044 46.2414 93.5994 50.3914 94.6244V94.6194Z" fill="#878787"/>
<path d="M48.2114 97.0448L50.0214 95.0348C45.8614 93.8998 42.1014 90.4348 39.4164 87.3198L38.8064 87.9348C41.0114 91.5248 44.2264 95.5348 48.2114 97.0498V97.0448Z" fill="#878787"/>
<path d="M55.7864 88.6248L57.0414 87.2298C53.3864 85.4698 50.6164 81.6198 48.7064 78.0098L45.4114 81.3148C48.0914 84.3698 51.7764 87.6598 55.7914 88.6248H55.7864Z" fill="#878787"/>
<path d="M58.2014 68.4946L56.0214 70.6796C58.8414 73.5746 62.4914 76.3696 66.3664 76.8646L66.9114 76.2596C63.2314 75.1596 60.3314 71.9096 58.2014 68.4946Z" fill="#878787"/>
<path d="M51.1064 75.6045L49.0614 77.6495C50.9564 81.2745 53.7214 85.1695 57.3764 86.8545L59.1914 84.8345C55.6464 82.9745 52.9614 79.1545 51.1014 75.6045H51.1064Z" fill="#878787"/>
<path d="M38.4514 88.2847L31.0664 95.6847L32.2064 96.7647C26.6964 102.075 31.3914 105.275 31.3914 105.275C31.3914 105.275 34.8364 109.785 39.8464 104.005L40.9814 105.08L47.8614 97.4347C43.8764 95.8347 40.6664 91.8597 38.4514 88.2847Z" fill="#878787"/>
<path d="M52.8113 73.8945L51.4663 75.2395C53.3063 78.7995 55.9913 82.6595 59.5363 84.4545L60.1763 83.7445C56.7813 81.6095 54.3913 77.5795 52.8113 73.8945Z" fill="#878787"/>
<path d="M64.0514 79.4344L65.9664 77.3044C62.0864 76.6744 58.4764 73.8894 55.6714 71.0244L54.2714 72.4294C56.8314 75.2844 60.2864 78.3344 64.0464 79.4394L64.0514 79.4344Z" fill="#878787"/>
<path d="M78.2663 60.3598L73.7163 56.0498L73.6863 56.0798L72.0913 54.5698L58.5513 68.1398C60.6713 71.5798 63.5813 74.8598 67.2713 75.8548L79.8213 61.9048L78.2263 60.3948L78.2563 60.3648L78.2663 60.3598Z" fill="#878787"/>
<path d="M48.265 26.9349L44.03 24.0249L45.14 29.5449L48.265 26.9349Z" fill="white" stroke="white" stroke-width="1.5" stroke-miterlimit="10"/>
<path d="M56.735 27.97L56.81 22.085L52.98 26.74L56.735 27.97Z" fill="white" stroke="white" stroke-width="1.5" stroke-miterlimit="10"/>
<path d="M62.28 34.9452L65.76 31.2752L59.6 30.5552L62.28 34.9452Z" fill="white" stroke="white" stroke-width="1.5" stroke-miterlimit="10"/>
<path d="M41.785 32.8701L36.98 35.1501L42.715 36.9601L41.785 32.8701Z" fill="white" stroke="white" stroke-width="1.5" stroke-miterlimit="10"/>
<path d="M44.3149 39.5098L42.4349 43.9498L47.6299 41.6148L44.3149 39.5098Z" fill="white" stroke="white" stroke-width="1.5" stroke-miterlimit="10"/>
<path d="M50.1 44.6052L52.265 50.3202L54.425 44.5552L50.1 44.6052Z" fill="white" stroke="white" stroke-width="1.5" stroke-miterlimit="10"/>
<path d="M58.155 43.5599L62.905 44.6949L60.675 39.7349L58.155 43.5599Z" fill="white" stroke="white" stroke-width="1.5" stroke-miterlimit="10"/>
<path d="M103.85 17.425C103.475 17.425 103.155 17.14 103.12 16.76C103.08 16.355 103.375 15.995 103.78 15.955L107.995 15.55C108.4 15.51 108.76 15.805 108.8 16.21C108.84 16.615 108.545 16.975 108.14 17.015L103.925 17.42C103.925 17.42 103.88 17.42 103.855 17.42L103.85 17.425Z" fill="white"/>
<path d="M96.23 19.4098C95.925 19.4098 95.64 19.2198 95.535 18.9148C95.4 18.5298 95.605 18.1098 95.99 17.9798L99.99 16.5948C100.375 16.4648 100.795 16.6648 100.925 17.0498C101.06 17.4348 100.855 17.8548 100.47 17.9848L96.47 19.3698C96.39 19.3948 96.31 19.4098 96.23 19.4098Z" fill="white"/>
<path d="M88.255 21.0398C87.91 21.0398 87.605 20.7998 87.535 20.4498C87.455 20.0498 87.715 19.6648 88.11 19.5848L92.26 18.7498C92.66 18.6698 93.045 18.9298 93.125 19.3248C93.205 19.7248 92.945 20.1098 92.55 20.1898L88.4 21.0248C88.35 21.0348 88.3 21.0398 88.255 21.0398Z" fill="white"/>
<path d="M81.345 24.0951C81.095 24.0951 80.855 23.9701 80.715 23.7401C80.505 23.3901 80.615 22.9401 80.965 22.7301L84.585 20.5351C84.935 20.3251 85.385 20.4351 85.595 20.7851C85.805 21.1351 85.695 21.5851 85.345 21.7951L81.725 23.9901C81.605 24.0601 81.475 24.0951 81.345 24.0951Z" fill="white"/>
<path d="M77.83 30.725C77.715 30.725 77.6 30.7 77.495 30.645C77.135 30.46 76.99 30.015 77.18 29.655L79.12 25.89C79.305 25.53 79.75 25.385 80.11 25.575C80.47 25.76 80.615 26.205 80.425 26.565L78.485 30.33C78.355 30.585 78.095 30.73 77.83 30.73V30.725Z" fill="white"/>
<path d="M71.59 35.7847C71.355 35.7847 71.12 35.6697 70.98 35.4597C70.75 35.1247 70.84 34.6647 71.175 34.4347L74.685 32.0647C75.025 31.8347 75.48 31.9247 75.71 32.2597C75.94 32.5947 75.85 33.0547 75.515 33.2847L72.005 35.6547C71.88 35.7397 71.735 35.7797 71.595 35.7797L71.59 35.7847Z" fill="white"/>
<path d="M64.365 38.2951C64.045 38.2951 63.75 38.0851 63.655 37.7651C63.54 37.3751 63.77 36.9651 64.16 36.8551L68.23 35.6801C68.62 35.5701 69.03 35.7901 69.14 36.1851C69.255 36.5751 69.025 36.9851 68.635 37.0951L64.565 38.2701C64.495 38.2901 64.43 38.3001 64.36 38.3001L64.365 38.2951Z" fill="white"/>
<path d="M104.03 17.6202C104 17.6202 103.97 17.6202 103.94 17.6202C103.86 17.6202 103.78 17.6052 103.705 17.5852C103.52 17.8202 103.26 17.9802 102.96 18.0302L101.14 18.3452C100.475 18.4602 99.8399 18.0152 99.7249 17.3502C99.6099 16.6852 100.055 16.0502 100.72 15.9352L102.54 15.6202C102.61 15.6102 102.68 15.6002 102.75 15.6002C103 15.6002 103.245 15.6752 103.45 15.8252C103.465 15.8352 103.475 15.8502 103.49 15.8602C103.6 15.8002 103.72 15.7652 103.85 15.7502L105.15 15.6252C104.955 15.2302 104.675 14.8852 104.305 14.6252C103.715 14.2102 103 14.0502 102.295 14.1702L100.475 14.4852C99.0099 14.7402 98.0249 16.1352 98.2799 17.6002C98.5049 18.9102 99.6499 19.8352 100.935 19.8352C101.085 19.8352 101.24 19.8202 101.395 19.7952L103.215 19.4802C103.925 19.3602 104.545 18.9652 104.96 18.3802C105.155 18.1052 105.285 17.8052 105.365 17.4902L104.035 17.6202H104.03Z" fill="white"/>
<path d="M110.87 14.1999C109.81 13.1949 108.125 13.2399 107.12 14.2999C106.795 14.6449 106.59 15.0599 106.485 15.4899L107.7 15.3749C107.76 15.2649 107.835 15.1549 107.925 15.0599C108.23 14.7399 108.64 14.5749 109.05 14.5749C109.435 14.5749 109.815 14.7149 110.115 14.9999C110.735 15.5899 110.76 16.5699 110.175 17.1899C109.59 17.8099 108.605 17.8349 107.985 17.2499C107.98 17.2449 107.975 17.2349 107.97 17.2299L106.71 17.3499C106.84 17.6049 107.005 17.8399 107.225 18.0499C107.735 18.5349 108.395 18.7749 109.05 18.7749C109.755 18.7749 110.455 18.4949 110.975 17.9499C111.98 16.8899 111.935 15.2049 110.875 14.1999H110.87Z" fill="white"/>
<path d="M48.265 26.9349L44.03 24.0249L45.14 29.5449L48.265 26.9349Z" fill="white" stroke="white" stroke-width="1.5" stroke-miterlimit="10"/>
<path d="M56.735 27.97L56.81 22.085L52.98 26.74L56.735 27.97Z" fill="white" stroke="white" stroke-width="1.5" stroke-miterlimit="10"/>
<path d="M62.28 34.9447L65.76 31.2747L59.6 30.5547L62.28 34.9447Z" fill="white" stroke="white" stroke-width="1.5" stroke-miterlimit="10"/>
<path d="M41.785 32.8701L36.98 35.1501L42.715 36.9601L41.785 32.8701Z" fill="white" stroke="white" stroke-width="1.5" stroke-miterlimit="10"/>
<path d="M44.3149 39.5098L42.4349 43.9498L47.6299 41.6148L44.3149 39.5098Z" fill="white" stroke="white" stroke-width="1.5" stroke-miterlimit="10"/>
<path d="M50.1 44.6047L52.265 50.3197L54.425 44.5547L50.1 44.6047Z" fill="white" stroke="white" stroke-width="1.5" stroke-miterlimit="10"/>
<path d="M58.155 43.5599L62.905 44.6949L60.675 39.7349L58.155 43.5599Z" fill="white" stroke="white" stroke-width="1.5" stroke-miterlimit="10"/>
<path d="M58.9699 28.2098C54.7849 24.2448 48.1799 24.4248 44.2199 28.6048C40.2549 32.7898 40.4349 39.3948 44.6149 43.3548C48.7999 47.3198 55.4049 47.1398 59.3649 42.9598C63.3299 38.7748 63.1499 32.1698 58.9699 28.2098ZM45.7299 33.3998C45.9249 33.7998 46.1049 34.2098 46.2399 34.6498C45.5299 33.9148 44.9949 33.0598 44.4899 32.1848C45.5399 31.9648 46.5949 31.7698 47.6749 31.7548C46.8899 32.0948 46.0799 32.3248 45.2549 32.5198C45.4199 32.8098 45.5799 33.0998 45.7299 33.3998ZM53.5599 42.5198C52.8449 41.8048 52.1499 41.0698 51.6249 40.1998C52.0149 40.4398 52.3649 40.7198 52.6999 41.0098C52.9549 41.2298 53.1899 41.4648 53.4249 41.6998C53.8249 40.9498 54.2599 40.2248 54.7899 39.5498C54.4999 40.5898 54.0399 41.5598 53.5599 42.5198ZM56.6549 33.4448C56.5099 32.6048 56.4799 31.7598 56.4849 30.9148C55.7349 31.1348 54.9749 31.3098 54.1849 31.3648C54.9649 30.9098 55.8049 30.6098 56.6649 30.3498L56.9999 30.2498C56.9649 31.3248 56.8999 32.3948 56.6599 33.4448H56.6549Z" fill="white"/>
<path d="M112.135 14.9551L102.775 24.5551L108.275 29.7701L108.41 29.9001L117.5 20.0401L112.135 14.9551Z" fill="white"/>
<path d="M103.85 17.425C103.475 17.425 103.155 17.14 103.12 16.76C103.08 16.355 103.375 15.995 103.78 15.955L107.995 15.55C108.4 15.51 108.76 15.805 108.8 16.21C108.84 16.615 108.545 16.975 108.14 17.015L103.925 17.42C103.925 17.42 103.88 17.42 103.855 17.42L103.85 17.425Z" fill="white"/>
<path d="M110.87 14.1999C109.81 13.1949 108.125 13.2399 107.12 14.2999C106.795 14.6449 106.59 15.0599 106.485 15.4899L107.7 15.3749C107.76 15.2649 107.835 15.1549 107.925 15.0599C108.23 14.7399 108.64 14.5749 109.05 14.5749C109.435 14.5749 109.815 14.7149 110.115 14.9999C110.735 15.5899 110.76 16.5699 110.175 17.1899C109.59 17.8099 108.605 17.8349 107.985 17.2499C107.98 17.2449 107.975 17.2349 107.97 17.2299L106.71 17.3499C106.84 17.6049 107.005 17.8399 107.225 18.0499C107.735 18.5349 108.395 18.7749 109.05 18.7749C109.755 18.7749 110.455 18.4949 110.975 17.9499C111.98 16.8899 111.935 15.2049 110.875 14.1999H110.87Z" fill="white"/>
<path d="M99.925 16.4051C99.925 16.4051 99.955 16.4001 99.97 16.3951C100.15 16.1651 100.41 15.9951 100.72 15.9401L102.54 15.6251C102.61 15.6151 102.68 15.6051 102.75 15.6051C103 15.6051 103.245 15.6801 103.45 15.8301C103.465 15.8401 103.475 15.8551 103.49 15.8651C103.6 15.8051 103.72 15.7701 103.85 15.7551L105.15 15.6301C104.955 15.2351 104.675 14.8901 104.305 14.6301C103.715 14.2151 103 14.0551 102.295 14.1751L100.475 14.4901C99.22 14.7051 98.32 15.7651 98.245 16.9851L99.93 16.4051H99.925Z" fill="white"/>
<path d="M104.03 17.6199C104 17.6199 103.97 17.6199 103.94 17.6199C103.86 17.6199 103.78 17.6049 103.705 17.5849C103.52 17.8199 103.26 17.9799 102.96 18.0299L101.14 18.3449C100.87 18.3899 100.61 18.3449 100.38 18.2249L98.7949 18.7699C99.2949 19.4199 100.075 19.8299 100.925 19.8299C101.075 19.8299 101.23 19.8149 101.385 19.7899L103.205 19.4749C103.915 19.3549 104.535 18.9599 104.95 18.3749C105.145 18.0999 105.275 17.7999 105.355 17.4849L104.025 17.6149L104.03 17.6199Z" fill="white"/>
<path d="M92.22 18.5548C92.305 18.5398 92.39 18.5348 92.475 18.5448C92.65 18.3498 92.885 18.2098 93.165 18.1598L94.985 17.8448C95.055 17.8348 95.125 17.8248 95.195 17.8248C95.365 17.8248 95.525 17.8648 95.675 17.9248C95.75 17.8698 95.83 17.8198 95.925 17.7848L97.265 17.3198C96.665 16.6048 95.715 16.2148 94.74 16.3848L92.915 16.6998C91.78 16.8948 90.94 17.7798 90.73 18.8448L92.22 18.5448V18.5548Z" fill="white"/>
<path d="M96.5349 19.5597C96.4499 19.5897 96.3649 19.5997 96.2749 19.6047C96.1049 19.9347 95.7949 20.1847 95.3999 20.2547L93.5799 20.5697C93.2449 20.6297 92.9199 20.5497 92.6699 20.3697C92.6449 20.3797 92.6199 20.3897 92.5899 20.3947L91.0349 20.7047C91.5099 21.5297 92.3949 22.0597 93.3699 22.0597C93.5199 22.0597 93.6749 22.0447 93.8299 22.0197L95.6499 21.7047C96.3599 21.5797 96.9799 21.1897 97.3949 20.5997C97.7099 20.1497 97.8749 19.6297 97.8849 19.0947L96.5349 19.5597Z" fill="white"/>
<path d="M88.6001 21.19C88.4251 21.485 88.1301 21.705 87.7651 21.77L85.9451 22.085C85.7351 22.125 85.5251 22.1 85.3401 22.03L83.9451 22.875C84.4301 23.31 85.0651 23.57 85.7401 23.57C85.8901 23.57 86.0451 23.555 86.2001 23.53L88.0201 23.215C89.2301 23.005 90.1101 22.02 90.2401 20.855L88.6051 21.185L88.6001 21.19Z" fill="white"/>
<path d="M84.48 20.3601C84.545 20.3201 84.615 20.2951 84.68 20.2701C84.855 19.9651 85.155 19.7401 85.525 19.6751L87.345 19.3601C87.415 19.3501 87.485 19.3401 87.555 19.3401C87.7 19.3401 87.84 19.3651 87.97 19.4151C88.005 19.4051 88.035 19.3901 88.07 19.3851L89.775 19.0451C89.195 18.2051 88.165 17.7251 87.095 17.9101L85.275 18.2251C83.85 18.4701 82.885 19.8001 83.065 21.2201L84.48 20.3651V20.3601Z" fill="white"/>
<path d="M83.4549 23.3796C83.4399 23.3196 83.4149 23.2646 83.3999 23.2046L82.0349 24.0296C82.0199 24.2346 81.9599 24.4296 81.8499 24.6046L80.8449 26.1596C80.7999 26.2296 80.7499 26.2946 80.6899 26.3496C80.6749 26.4546 80.6449 26.5546 80.5949 26.6546L79.8049 28.1896C79.8049 28.1896 79.8049 28.1896 79.8099 28.1896C80.6949 28.1896 81.5649 27.7546 82.0799 26.9596L83.0849 25.4046C83.4749 24.7996 83.6049 24.0796 83.4549 23.3746V23.3796Z" fill="white"/>
<path d="M78.0499 27.5147L78.7699 26.1147C78.5449 25.7297 78.5299 25.2347 78.7899 24.8347L79.7949 23.2797C79.9699 23.0047 80.2449 22.8197 80.5649 22.7497C80.5899 22.7447 80.6149 22.7497 80.6399 22.7397C80.6999 22.6697 80.7699 22.6047 80.8549 22.5547L82.2899 21.6847C82.2899 21.6847 82.2899 21.6847 82.2849 21.6797C81.6799 21.2897 80.9599 21.1597 80.2549 21.3097C79.5499 21.4597 78.9499 21.8747 78.5599 22.4797L77.5549 24.0347C76.8199 25.1697 77.0599 26.6497 78.0499 27.5147Z" fill="white"/>
<path d="M74.51 31.945C74.525 31.655 74.635 31.385 74.835 31.175L76.105 29.835C76.345 29.58 76.67 29.455 76.995 29.455C77.015 29.455 77.03 29.455 77.05 29.455L77.75 28.095C76.81 27.82 75.76 28.06 75.04 28.815L73.77 30.155C73.275 30.68 73.015 31.36 73.035 32.08C73.04 32.345 73.1 32.595 73.18 32.84L74.515 31.935L74.51 31.945Z" fill="white"/>
<path d="M79.27 29.2402L78.665 30.4202C78.565 30.6152 78.4 30.7552 78.21 30.8402C78.175 31.0902 78.07 31.3252 77.89 31.5152L76.62 32.8602C76.415 33.0802 76.14 33.2002 75.86 33.2302C75.8 33.3152 75.72 33.3952 75.63 33.4602L74.345 34.3302C74.77 34.5852 75.25 34.7202 75.73 34.7202C76.445 34.7202 77.155 34.4402 77.685 33.8802L78.955 32.5352C79.45 32.0152 79.71 31.3302 79.695 30.6102C79.68 30.1202 79.53 29.6552 79.275 29.2502L79.27 29.2402Z" fill="white"/>
<path d="M64.83 38.3999C64.83 38.3999 64.795 38.4449 64.775 38.4699C64.355 38.9099 63.65 38.9349 63.21 38.5099C62.765 38.0899 62.75 37.3849 63.17 36.9399C63.385 36.7099 63.68 36.5949 63.975 36.5949C64.055 36.5949 64.135 36.6049 64.215 36.6249L65.605 36.2249C65.565 36.1849 65.535 36.1349 65.495 36.0999C64.61 35.2599 63.205 35.2999 62.365 36.1849C61.525 37.0699 61.565 38.4749 62.45 39.3149C62.875 39.7199 63.425 39.9199 63.97 39.9199C64.555 39.9199 65.145 39.6899 65.575 39.2299C65.905 38.8849 66.095 38.4599 66.155 38.0199L64.825 38.4049L64.83 38.3999Z" fill="white"/>
<path d="M68.095 35.5749C68.22 35.3449 68.415 35.1599 68.66 35.0499L70.345 34.2949C70.505 34.2199 70.675 34.1899 70.845 34.1899C70.96 34.1899 71.075 34.2049 71.18 34.2399L72.54 33.3199C71.775 32.7049 70.7 32.5249 69.745 32.9549L68.06 33.7099C67.405 34.0049 66.9 34.5349 66.645 35.2099C66.54 35.4799 66.495 35.7649 66.48 36.0449L68.095 35.5799V35.5749Z" fill="white"/>
<path d="M73.4999 34.9297L72.0399 35.9147C72.0049 35.9397 71.9649 35.9497 71.9299 35.9697C71.8049 36.2047 71.6149 36.4047 71.3499 36.5247L69.6649 37.2797C69.3749 37.4097 69.0599 37.4197 68.7599 37.3147C68.7149 37.3347 68.6649 37.3597 68.6149 37.3747L67.0499 37.8247C67.3499 38.2047 67.7399 38.5047 68.2049 38.6847C68.5149 38.8047 68.8399 38.8647 69.1649 38.8647C69.5399 38.8647 69.9149 38.7847 70.2649 38.6247L71.9499 37.8697C73.0999 37.3547 73.7099 36.1247 73.4949 34.9347L73.4999 34.9297Z" fill="white"/>
<path d="M102.986 26.5L74.0713 55.695L78.6013 59.99L106.201 29.55L102.986 26.5Z" fill="#878787"/>
</svg>
