<svg width="128" height="128" viewBox="0 0 128 128" fill="none" xmlns="http://www.w3.org/2000/svg">
<g clip-path="url(#clip0_268_8689)">
<path d="M10.6573 118.052L13.0277 120.423C13.0277 120.423 11.8776 122.026 10.2133 122.106C7.33494 122.192 5.78237 120.352 6.18808 117.506C6.39573 116.219 7.68634 115.081 7.68634 115.081L10.6573 118.052Z" fill="#878787"/>
<path d="M23.0492 100.83L27.3044 105.085C26.378 105.628 25.5602 106.044 24.589 105.073C23.998 104.482 23.1674 104.124 22.3113 103.964C21.7906 103.865 21.6117 103.693 21.9663 103.204C22.4646 102.52 22.717 101.705 23.046 100.833L23.0492 100.83Z" fill="#878787"/>
<path d="M19.7683 105.843C20.2123 105.303 20.5638 104.907 20.8768 104.485C21.0429 104.262 21.2123 104.143 21.4934 104.175C22.7425 104.306 23.7711 104.9 24.7135 105.683C24.8221 105.773 24.9052 105.881 24.8445 106.044C24.7103 106.389 23.2728 107.047 22.9437 106.865C22.0045 106.348 20.9886 106.06 19.7683 105.843Z" fill="#878787"/>
<path d="M22.8255 107.494C22.4869 108.012 21.9502 108.312 21.5125 108.718C21.3176 108.9 21.126 108.964 20.8512 108.823C20.0047 108.392 19.1006 108.107 18.1326 107.951C19.2507 106.053 20.8097 105.925 22.8319 107.494L22.8255 107.494Z" fill="#878787"/>
<path d="M16.43 109.711C17.3405 108.322 19.2444 108.117 20.5159 109.21C20.6948 109.363 20.7363 109.468 20.5798 109.612C20.0367 110.104 19.6661 110.89 18.6471 110.369C17.9762 110.024 17.1807 109.925 16.4268 109.714L16.43 109.711Z" fill="#878787"/>
<path d="M14.8486 111.331C15.8133 109.951 16.8548 109.893 18.9696 111.063C18.8514 111.456 18.4584 111.618 18.2284 111.912C17.8099 112.452 17.3915 112.494 16.7845 112.117C16.2063 111.756 15.5066 111.587 14.8486 111.331Z" fill="#878787"/>
<path d="M12.8871 113.407C14.2831 111.685 14.5675 111.586 16.1552 112.312C16.4619 112.452 17.1679 112.532 16.9155 112.963C16.6216 113.462 16.1967 114.231 15.3853 113.963C14.6154 113.704 13.8583 113.458 12.8871 113.407Z" fill="#878787"/>
<path d="M15.1585 114.497C14.1938 116.842 12.6795 115.474 11.2963 115.069C12.178 113.676 13.6028 113.478 15.1585 114.497Z" fill="#878787"/>
<path d="M13.376 116.535C11.9352 118.532 11.8649 118.308 10.0983 116.573C9.98012 116.423 9.85873 116.295 10.0089 116.126C10.2517 115.858 10.5232 115.657 10.9193 115.65C11.4912 115.641 12.5007 115.986 13.3728 116.538L13.376 116.535Z" fill="#878787"/>
<path d="M6.74083 121.292C6.92931 121.48 7.12738 121.665 7.30947 121.86C7.45323 122.017 7.84297 122.049 7.51073 122.464C7.2935 122.739 7.00598 122.905 6.73764 122.815C6.02524 122.576 5.53647 122.093 5.32243 121.362C5.23938 121.081 5.42786 120.809 5.6962 120.598C6.0508 120.32 6.11469 120.614 6.24887 120.761C6.41179 120.937 6.56832 121.125 6.72486 121.308C6.73125 121.301 6.73444 121.298 6.74083 121.292Z" fill="#878787"/>
<path d="M6.99316 97.4568C1.35151 103.558 6.38299 115.605 6.38299 115.605L7.6736 114.289L9.23576 115.851C9.23576 115.851 6.64814 106.37 11.111 101.958C14.887 98.2267 19.0943 97.1501 19.0943 97.1501L15.5579 93.6137C15.5579 93.6137 11.6125 92.4605 6.99316 97.4568ZM11.8841 95.8691C8.11765 98.4216 5.53004 102.83 5.89741 107.453C4.79847 102.099 8.57767 96.639 13.5644 94.8404C12.9766 95.1407 12.4144 95.4858 11.8841 95.8691Z" fill="#878787"/>
<path d="M16.1042 93.0674L35.0673 112.03C35.0673 112.03 43.5586 101.91 34.8884 93.2463C25.4037 83.7615 16.1042 93.0674 16.1042 93.0674ZM32.8343 94.2909C29.3522 91.0708 23.8128 90.1699 19.7237 92.7575C24.3016 89.1061 31.2722 90.9526 34.2815 95.7317C33.8374 95.211 33.3518 94.7254 32.8343 94.2845V94.2909Z" fill="#878787"/>
<path d="M37.0159 94.505C37.0159 94.505 36.3004 93.4827 35.4698 92.6585C34.6392 91.8343 33.6233 91.1123 33.6233 91.1123C33.6233 91.1123 123.337 2.90649 124.279 3.8489C125.222 4.7913 37.0159 94.505 37.0159 94.505Z" fill="white"/>
</g>
<defs>
<clipPath id="clip0_268_8689">
<rect width="128" height="128" fill="white"/>
</clipPath>
</defs>
</svg>
