<svg width="128" height="128" viewBox="0 0 128 128" fill="none" xmlns="http://www.w3.org/2000/svg">
<path d="M32.18 95.3101C33.23 97.3601 34.75 98.3801 35.85 98.8701C58.97 74.1651 114.33 12.0151 114.33 12.0151C114.33 12.0151 55.56 70.7951 32.18 95.3101Z" fill="white"/>
<path d="M15.955 113.935C15.2 114.7 13.71 116.385 13.67 117.895C13.66 118.32 14.025 118.665 14.45 118.625C15.99 118.485 17.61 116.81 18.29 116.025C17.87 115.32 17.155 114.51 15.955 113.93V113.935Z" fill="#878787"/>
<path d="M24.345 99.1352C27.525 102.09 32.04 106.405 35.295 109.24C35.67 109.565 36.045 109.895 36.435 110.205C38.595 104.745 35.605 100.415 35.135 99.7902C33.945 99.2152 32.455 98.1452 31.35 96.1852C31.35 96.1852 26.545 92.7402 20.765 95.4252C21.83 96.7702 23.125 97.9252 24.345 99.1302V99.1352Z" fill="#878787"/>
<path d="M37.92 111.825C36.995 111.145 36.57 110.575 36.44 110.39C36.41 110.37 36.375 110.35 36.345 110.325C31.865 107.16 27.89 103.335 24.05 99.435C22.88 98.165 21.615 96.93 20.685 95.47C20.685 95.47 19.99 95.12 19.1 94.04C18.59 93.42 18.775 92.34 17.935 92.18C16.265 91.87 15.81 93.37 15.85 93.86C15.875 94.215 20.305 98.37 22.815 100.695L22.825 100.68L24.1 101.885C24.35 102.115 24.5 102.25 24.5 102.25C24.5 102.25 24.5 102.25 24.5 102.26L29.42 106.9C29.42 106.9 29.465 106.945 29.54 107.02L30.245 107.685L30.235 107.695C32.355 109.745 37.885 115.055 38.285 115.06C38.775 115.07 40.24 114.525 39.84 112.875C39.64 112.05 38.57 112.3 37.925 111.825H37.92Z" fill="#878787"/>
<path d="M18.455 111.28C18.24 111.225 16.03 110.73 16.385 113.515C17.535 114.11 18.26 114.91 18.71 115.63C21.275 115.76 20.84 113.825 20.74 113.47C20.35 112.75 19.655 111.9 18.45 111.28H18.455Z" fill="#878787"/>
<path d="M21.135 113.01C25.47 108.785 27.765 107.48 28.765 107.08L24.34 102.905C23.995 103.93 22.82 106.29 18.855 110.85C19.99 111.47 20.7 112.28 21.135 113.01Z" fill="#878787"/>
</svg>
