<svg width="128" height="128" viewBox="0 0 128 128" fill="none" xmlns="http://www.w3.org/2000/svg">
<path d="M22.0151 111.72C21.9601 111.72 21.9051 111.72 21.8501 111.715C20.9601 111.655 20.1801 111.16 19.7651 110.395C19.3801 109.69 19.3601 108.84 19.6801 107.955C18.8501 107.53 16.9751 106.81 15.1951 107.76C13.2101 108.82 12.1851 110.96 12.1851 110.96C12.1851 110.96 14.4001 109.455 17.7351 111.455C17.7351 111.455 19.3901 113.775 18.2251 118.15C19.9651 117.15 23.0101 114.875 22.4651 111.675C22.3201 111.7 22.1651 111.72 22.0101 111.72H22.0151Z" fill="#878787"/>
<path d="M41.7199 96.5603C41.7199 96.5603 41.7249 96.5703 41.7299 96.5753C43.1149 95.9353 43.6349 95.1304 43.8199 94.6354C43.7899 94.6054 43.7599 94.5754 43.7299 94.5354C43.3899 94.0904 43.3849 93.5253 43.3849 93.4753C42.6349 90.9353 40.8349 89.4954 39.9999 88.9454L39.9799 88.9704C39.9799 88.9704 38.8199 88.9004 38.3549 88.2354C38.0949 88.8304 37.4849 89.6603 36.0749 90.3103C36.1899 90.6003 36.0949 91.0253 36.2249 91.4353C36.3649 91.8703 36.9899 92.8854 37.1699 93.1904C37.1699 93.1904 35.2299 94.1303 32.9999 95.9753C30.0799 98.3953 26.4999 102.055 24.4999 104.04C23.5049 105.025 22.8899 106.86 22.8899 106.86L22.7549 106.98C23.2649 107.63 23.7199 108.1 24.0899 108.435L24.2799 108.275C24.2799 108.275 25.3949 108.705 27.3899 107.095C29.2349 105.61 33.7799 101.92 36.6449 98.9653C38.4699 97.0803 39.3099 95.2604 39.3099 95.2604L40.9449 96.1003C40.9449 96.1003 41.4249 96.1804 41.7149 96.5654L41.7199 96.5603ZM26.3349 107.315C25.9449 106.24 25.7799 105.3 24.5699 104.765C26.0699 104.185 27.0799 106.115 26.3349 107.315ZM28.2399 105.68C27.8499 104.535 27.6549 103.515 26.3749 102.975C27.9399 102.4 28.9899 104.42 28.2399 105.68ZM29.8449 104.23C29.3599 103.11 29.1399 102.045 27.9399 101.395C29.4699 100.97 30.4749 102.99 29.8449 104.23ZM31.6799 102.62C31.1949 101.5 30.9749 100.435 29.7749 99.7854C31.3049 99.3604 32.3099 101.38 31.6799 102.62ZM33.4699 100.89C32.9849 99.7704 32.7649 98.7054 31.5649 98.0554C33.0949 97.6304 34.0999 99.6504 33.4699 100.89ZM35.1999 99.3704C34.7149 98.2504 34.4949 97.1854 33.2949 96.5354C34.8249 96.1104 35.8299 98.1304 35.1999 99.3704ZM36.9149 97.3004C36.7699 97.7954 36.7499 97.8103 36.5699 97.3253C36.2149 96.4553 35.9749 95.7954 35.0749 95.2454C35.6699 94.9954 36.3999 95.3804 36.7149 95.9454C36.9599 96.3654 36.9949 96.8404 36.9149 97.3004Z" fill="#878787"/>
<path d="M42.8649 97.8854C44.3299 97.2104 44.8249 96.3654 44.9899 95.8754C44.8899 95.6104 44.9449 95.3004 44.7849 95.1404C44.5849 94.9454 44.4249 94.9004 44.2699 94.8604C44.0249 95.4704 43.4149 96.3653 41.8799 97.0603C41.9199 97.2503 41.9649 97.4453 42.0949 97.5753C42.2749 97.7603 42.6799 97.6254 42.8349 97.8304C42.8449 97.8454 42.8549 97.8704 42.8649 97.8854Z" fill="#878787"/>
<path d="M20.1201 108.205C19.8801 108.92 19.9051 109.6 20.2051 110.155C20.5401 110.77 21.1651 111.165 21.8851 111.215C22.0501 111.225 22.2101 111.21 22.3651 111.18C22.3651 111.17 22.3651 111.16 22.3601 111.15C22.3601 111.15 23.0651 111.16 23.6351 110.35C24.1651 109.6 23.6751 108.785 23.6751 108.785L23.7101 108.755C23.3301 108.405 22.8801 107.94 22.3851 107.3L22.2951 107.38C22.2951 107.38 21.5401 107.065 20.8901 107.525C20.2401 107.99 20.1251 108.195 20.1251 108.195L20.1201 108.205Z" fill="#878787"/>
<path d="M34.66 89.13C34.72 89.345 34.77 89.575 34.865 89.715C35.03 89.955 35.33 89.92 35.61 89.975C37.98 88.985 38.05 87.525 38.05 87.46H38.125C38.095 87.245 38.065 87.045 37.96 86.945C37.795 86.79 37.555 86.765 37.315 86.625C37.13 87.24 36.54 88.335 34.655 89.125L34.66 89.13Z" fill="#878787"/>
<path d="M32.1349 84.7202C32.2699 85.1852 32.1049 85.9452 32.2349 86.5452C32.2899 86.7952 32.4549 87.2052 32.9649 87.7602C33.2999 88.1252 33.975 88.2052 34.435 88.6802C36.575 87.7952 36.86 86.5352 36.895 86.2252C36.465 85.6402 36.3549 84.9452 35.6899 84.3602C35.0999 83.8402 33.5699 83.8352 33.1199 83.4602C32.8799 83.2602 32.8149 83.0652 32.6049 82.9052C32.3399 82.7002 31.7449 82.5752 31.7449 82.5752L31.1799 83.0202C31.1799 83.0202 31.1599 83.6552 31.4699 84.0552C31.6649 84.3102 31.9999 84.2752 32.1299 84.7152L32.1349 84.7202Z" fill="#878787"/>
<path d="M48.27 100.29C48.02 99.79 48.22 99.23 47.985 98.64C47.705 97.925 46.975 97.2 46.49 96.93C46.125 96.73 45.68 96.535 45.355 96.29C45.085 96.885 44.47 97.685 43.095 98.325C43.225 98.645 43.32 98.985 43.43 99.215C43.795 99.985 44.515 100.875 45.435 101.205C46.155 101.465 46.425 101.26 46.98 101.555C47.67 101.92 47.145 102.675 48.08 102.945C48.83 103.165 49.72 102.365 49.53 101.67C49.34 100.975 48.77 101.285 48.275 100.285L48.27 100.29Z" fill="#878787"/>
<path d="M94.5299 24.635C94.5299 24.635 86.5999 26.015 85.7849 31.295C85.7849 31.295 87.5549 29.925 88.1049 30.115C88.6449 30.3 89.0299 30.465 88.7649 31.15C88.0599 32.975 85.7949 33.43 85.7949 33.43C85.7949 33.43 82.2049 34.055 80.3899 39.46C80.3899 39.46 83.3449 37.31 83.9349 38.03C84.8399 39.13 83.5999 40.35 82.3999 41.25C81.1999 42.15 77.1499 42.345 75.3149 47.19C75.3149 47.19 78.1649 44.895 78.6699 46.57C79.1749 48.245 75.4849 49.21 75.4849 49.21C75.4849 49.21 71.4249 50.37 70.8249 53.555C70.8249 53.555 72.7899 52.535 72.5849 53.795C72.3799 55.055 70.7199 54.785 69.5349 55.44C68.3499 56.09 67.2949 56.815 66.9349 58.6C66.9349 58.6 68.7399 57.4 68.7599 58.65C68.7799 59.905 65.0999 60.415 65.0999 60.415L52.9299 75.14L40.6899 88.21C41.6399 88.86 43.3349 90.305 44.1949 92.76L56.9399 81.67C56.9399 81.67 103.97 40.115 115.81 13.145C115.81 13.145 107.725 21.225 94.5299 24.64V24.635ZM89.7949 32.405C90.5649 31.82 91.7349 30.915 91.2849 29.87C90.6499 28.975 89.2899 29 88.2199 28.8C89.3999 28.48 91.0999 28.315 91.8949 29.545C92.3649 30.51 91.8349 31.495 91.0849 32.075C90.1049 32.845 88.9599 33.445 87.7399 33.67C88.4849 33.325 89.1549 32.88 89.7949 32.405ZM86.3249 38.41C86.7299 37.845 86.8599 37.08 86.4699 36.58C85.6449 35.87 84.3399 36.21 83.2549 36.26C84.3199 35.645 85.9449 35.07 87.0199 36.09C87.6999 36.865 87.4449 38.04 86.8399 38.765C86.0699 39.745 85.0949 40.6 83.9549 41.105C84.8849 40.325 85.6799 39.42 86.3249 38.415V38.41ZM79.9049 48.055C80.5649 47.355 81.5899 46.425 81.1049 45.42C80.4149 44.625 79.0849 44.87 78.0399 44.805C79.1299 44.295 80.8299 43.845 81.7349 45.03C82.2749 45.88 81.7749 47.03 81.1499 47.61C80.2849 48.475 79.2499 49.21 78.0899 49.59C78.7599 49.145 79.3499 48.615 79.9049 48.065V48.055ZM76.1749 51.74C76.6549 52.555 76.2049 53.475 75.6649 53.995C74.9149 54.73 74.0249 55.35 73.0199 55.65C73.8449 55.055 74.5699 54.36 75.1949 53.585C75.3849 53.335 75.5849 53.065 75.6049 52.845C75.9099 51.385 73.9649 51.69 72.9799 51.575C73.9099 51.095 75.3849 50.695 76.1749 51.735V51.74ZM69.7299 59.525C70.1749 58.99 70.7999 58.47 70.8899 57.77C70.9049 57.57 70.9199 57.415 70.7699 57.3C70.1699 56.995 69.4349 57.16 68.6699 57.135C70.8249 55.59 72.8749 57.14 70.7799 59.24C70.0799 59.905 69.2799 60.485 68.3699 60.815C68.8649 60.415 69.2999 59.97 69.7299 59.525ZM62.0149 73.635C59.5649 75.83 57.1599 78.085 54.9299 80.505C53.8349 81.725 52.7249 82.965 51.9599 84.415L51.8799 84.375C52.6299 82.89 53.7199 81.625 54.7999 80.38C58.0749 76.665 61.8049 73.395 65.3849 69.99C79.6299 56.33 91.4499 40.035 103.775 24.905C91.7249 42.595 77.9799 59.32 62.0199 73.63L62.0149 73.635Z" fill="white"/>
</svg>
