<svg width="128" height="128" viewBox="0 0 128 128" fill="none" xmlns="http://www.w3.org/2000/svg">
<path d="M49.1199 83.4557C49.3249 82.5557 42.7049 88.5357 43.1149 87.7057C42.4049 88.1257 48.4848 81.7295 47.6948 81.9645C44.7448 82.8645 41.5849 82.1507 38.9099 80.6807C38.9049 80.6907 36.8949 84.0457 38.4999 86.8107C38.4999 86.8107 38.4999 86.8157 38.4899 86.8307C40.2149 89.0457 43.2149 92.1007 46.4749 93.7157C48.8549 94.4157 50.6199 92.8707 50.9299 92.5707C49.1799 89.9107 48.3749 86.6007 49.1199 83.4607V83.4557Z" fill="white"/>
<path d="M101.535 46.24L60.635 88.59C52.2801 89.335 53.2551 81.46 53.2551 81.46C53.2551 81.46 98.3451 34.345 105.595 27.24C112.845 20.135 113.415 15.395 113.415 15.395C113.415 15.395 108.5 15.32 101.655 22.815C94.8201 30.295 48.6751 77.4251 48.6751 77.4251C48.6751 77.4251 41.4601 78.255 41.9101 69.88L82.8201 27.52C82.8201 27.52 85.5301 24.385 84.7451 21.94C82.3751 20.945 78.965 23.91 78.965 23.91L35.8701 68.5351C35.8701 68.5351 33.8851 71.915 35.5001 75.7C36.4151 77.845 38.3551 79.705 38.9951 80.285C42.7401 82.105 47.4601 82.335 50.8701 79.705L51.9301 78.935C49.4801 82.25 48.8351 86.635 50.4551 90.47C50.7351 91.185 51.0851 91.87 51.4801 92.535C52.1601 93.245 54.4851 95.55 56.7101 96.135C59.1601 96.775 62.1851 94.6 62.1851 94.6L105.295 49.965C105.295 49.965 107.9 46.47 107.175 44.425C105.07 43.495 101.545 46.25 101.545 46.25L101.535 46.24ZM95.2551 33.42C100.21 28.265 105.25 22.78 110.58 18.2C101.365 28.67 90.2401 39.1601 80.4101 49.1151L80.3551 49.065C84.0601 45.15 91.5251 37.31 95.2501 33.425L95.2551 33.42Z" fill="white"/>
<path d="M33.3351 98.9806C32.4351 97.9606 31.3001 97.2406 30.1601 96.7256C29.5851 97.1756 28.9951 97.6256 28.4301 98.0506C29.6851 98.5906 30.9551 99.3806 31.9651 100.521C32.4901 101.116 32.9051 101.776 33.2201 102.491C33.6151 101.901 34.0351 101.286 34.4501 100.691C34.1651 100.071 33.8001 99.4956 33.3401 98.9706L33.3351 98.9806Z" fill="#878787"/>
<path d="M31.5901 100.855C30.5701 99.7003 29.2451 98.9253 27.9551 98.4053C27.0851 99.0553 26.3251 99.6053 25.8551 99.9453C27.4301 100.55 29.1601 101.525 30.4101 103.095C30.8901 103.695 31.2551 104.355 31.5351 105.055C31.8351 104.585 32.3201 103.84 32.8851 102.99C32.5801 102.205 32.1551 101.49 31.5901 100.85V100.855Z" fill="#878787"/>
<path d="M30.0201 103.41C28.7551 101.82 26.9251 100.865 25.3251 100.295C24.8451 100.255 19.9451 99.9554 18.3001 103.97C16.5801 108.18 17.5101 114.435 17.5101 114.435C17.5101 114.435 23.1301 115.145 27.3001 113.28C31.2351 111.515 31.2151 106.165 31.2051 105.615C30.9401 104.81 30.5501 104.07 30.0201 103.405V103.41ZM19.5251 112.22L19.3301 112.2L19.3101 112C19.0051 108.97 19.5001 105.725 21.2301 103.175C19.9101 105.81 19.5301 108.825 19.7901 111.74C22.7801 111.975 25.9351 111.445 28.4851 109.795C26.0251 111.84 22.6601 112.495 19.5251 112.225V112.22Z" fill="#878787"/>
<path d="M37.9101 87.7056C36.8201 89.3506 34.4751 92.8056 33.1401 94.1906C32.5951 94.7556 31.6501 95.5506 30.6101 96.3756C31.7201 96.9056 32.8201 97.6406 33.7101 98.6506C34.1401 99.1356 34.4901 99.6656 34.7751 100.231C35.5151 99.1906 36.2101 98.2756 36.6851 97.7806C37.8751 96.5506 41.5301 93.9906 43.2051 92.8456C41.1051 91.2906 39.2301 89.3606 37.9101 87.7056Z" fill="#878787"/>
</svg>
