<svg width="128" height="128" viewBox="0 0 128 128" fill="none" xmlns="http://www.w3.org/2000/svg">
<path d="M25.5099 91.9948L11.5449 108.27C10.7199 109.23 10.8299 110.675 11.7899 111.5L15.9849 115.1L16.2699 119.27C16.3999 120.535 17.7999 122.06 19.0499 121.815C20.8549 121.46 22.2099 119.69 21.9549 117.975C21.6999 116.26 20.7599 115.895 20.6549 114.635C20.5499 113.375 21.4449 111.795 21.4449 111.795C21.4449 111.795 23.4599 109.79 26.3099 106.76C28.2999 104.645 32.5949 99.7048 33.6649 96.7448C33.9099 96.0598 34.2049 95.4498 34.5199 94.9098C32.8149 94.6648 28.7799 93.9197 25.5049 91.9897L25.5099 91.9948ZM19.6899 119.325C19.3549 119.72 18.7599 119.765 18.3699 119.425C17.9749 119.09 17.9299 118.495 18.2699 118.105C18.6049 117.71 19.1999 117.665 19.5899 118.005C19.9849 118.34 20.0299 118.935 19.6899 119.325Z" fill="#878787"/>
<path d="M27.98 89.1147L25.84 91.6097C29.18 93.5497 33.31 94.2497 34.81 94.4497C35.575 93.2747 36.405 92.4797 36.955 92.0297C35.23 91.7797 31.23 91.0297 27.98 89.1147Z" fill="#878787"/>
<path d="M33.5149 82.6697L28.3149 88.7297C31.8649 90.7947 37.5849 91.5697 37.5849 91.5697C41.0699 91.8047 42.5849 91.4197 43.2099 91.1297C43.4299 91.0297 43.4649 90.7347 43.2849 90.5797L34.1449 82.6197C33.9599 82.4597 33.6749 82.4797 33.5149 82.6647V82.6697Z" fill="#878787"/>
<path d="M120.41 23.7548C120.41 23.7548 107.605 48.6298 77.98 65.5298L49.575 84.9348C49.335 82.0498 50.865 79.2898 52.51 77.0198C58.025 69.7098 66.51 65.7548 74.23 61.2598C89.37 51.6198 101.845 38.2998 112.675 24.0448L112.065 23.5248C108.565 28.2398 104.83 32.7848 100.94 37.1748C91.62 47.5748 81.23 56.9748 68.825 63.5898C62.74 66.9998 56.68 71.3198 52.44 76.9698C50.81 79.2598 49.3 82.0498 49.57 84.9398L43.34 89.1948L34.875 81.9348L99.9 6.15479L115.155 19.2448V19.2498L115.825 19.8198L116.03 19.9948L118.155 21.8198L120.415 23.7548H120.41Z" fill="white"/>
</svg>
