<svg width="128" height="128" viewBox="0 0 128 128" fill="none" xmlns="http://www.w3.org/2000/svg">
<g clip-path="url(#clip0_268_8648)">
<path d="M83.5658 46.5072L7.66814 123.109C6.82883 123.956 5.45934 123.96 4.61643 123.117C3.77352 122.274 3.77711 120.904 4.62361 120.065L81.2258 44.1672L83.5658 46.5072Z" fill="#878787"/>
<path d="M108.237 21.4768C108.237 21.4768 126.2 3.70027 125.35 2.85017C124.619 2.11869 106.355 19.5951 106.355 19.5951L107.823 19.9851L108.235 21.475L108.237 21.4768Z" fill="#878787"/>
<path d="M81.5511 43.5682C81.1452 43.1622 81.1448 42.5044 81.5503 42.0989C81.9557 41.6934 82.6135 41.6939 83.0195 42.0998L85.6327 44.713C86.0387 45.119 86.0391 45.7768 85.6336 46.1823C85.2281 46.5877 84.5703 46.5873 84.1643 46.1814L81.5511 43.5682Z" fill="white"/>
<path d="M86.3498 44.3339L107.733 21.9797L107.322 20.4898L105.852 20.098L83.3214 41.3055L86.3498 44.3339Z" fill="white"/>
<path d="M101.7 35.0942C100.803 34.715 100.083 35.45 100.223 36.55C100.277 36.9741 99.5434 35.0798 98.3644 35.3782C97.1926 35.6765 97.4693 37.0927 97.4693 37.0927L93.936 37.1431L106.988 23.6709C106.988 23.6709 106.867 30.2794 107.451 33.5989C108.876 41.7242 104.135 46.9219 104.125 46.6882C103.85 40.6764 102.009 36.5715 102.009 36.5715C102.009 36.5715 102.733 35.5273 101.7 35.0906L101.7 35.0942ZM101.107 33.5953C101.35 33.3527 101.35 32.9573 101.107 32.7146C100.864 32.472 100.469 32.472 100.226 32.7146C99.9837 32.9573 99.9837 33.3527 100.226 33.5953C100.469 33.8379 100.864 33.8379 101.107 33.5953Z" fill="white"/>
<path d="M97.6832 4.37402C101.139 10.0875 100.453 13.3764 100.453 13.3764C100.453 13.3764 99.3511 13.4214 99.2145 14.6147C99.0653 15.9034 100.269 16.3131 100.269 16.3131C100.269 16.3131 97.7012 17.5982 99.0078 19.6848C100.316 21.7732 102.29 20.1664 102.29 20.1664L104.132 20.9087L91.4702 32.7939C91.4702 32.7939 91.3659 31.5538 90.4547 31.3004C89.3512 30.9948 88.7545 31.9581 88.7545 31.9581L80.7999 32.296C80.7999 32.296 93.8677 21.4748 97.6832 4.37402ZM98.0121 16.5108C98.1577 16.3652 98.1577 16.128 98.0121 15.9824C97.8665 15.8369 97.6293 15.8369 97.4837 15.9824C97.3382 16.128 97.3382 16.3652 97.4837 16.5108C97.6293 16.6564 97.8665 16.6564 98.0121 16.5108ZM100.401 22.6125C100.643 22.3698 100.643 21.9744 100.401 21.7318C100.158 21.4892 99.7626 21.4892 99.52 21.7318C99.2774 21.9744 99.2774 22.3698 99.52 22.6125C99.7626 22.8551 100.158 22.8551 100.401 22.6125ZM97.3615 21.1226C97.6041 20.8799 97.6041 20.4845 97.3615 20.2419C97.1189 19.9993 96.7235 19.9993 96.4809 20.2419C96.2382 20.4845 96.2382 20.8799 96.4809 21.1226C96.7235 21.3652 97.1189 21.3652 97.3615 21.1226ZM88.839 30.7558C88.9917 30.603 88.9935 30.3532 88.8408 30.2004C88.688 30.0477 88.4382 30.0459 88.2836 30.2004C88.1291 30.355 88.1309 30.6012 88.2854 30.7558C88.44 30.9104 88.6862 30.9086 88.839 30.7558Z" fill="white"/>
</g>
<defs>
<clipPath id="clip0_268_8648">
<rect width="128" height="128" fill="white"/>
</clipPath>
</defs>
</svg>
