<svg width="128" height="128" viewBox="0 0 128 128" fill="none" xmlns="http://www.w3.org/2000/svg">
<path d="M48.2149 88.1604C48.2149 88.1604 48.3849 87.1254 46.2499 84.8704C44.6649 83.2004 43.9949 84.1104 43.9949 84.1104C43.9949 84.1104 42.5949 82.5704 41.7049 83.4154C40.9549 84.1304 42.0749 85.8204 42.0749 85.8204C42.0749 85.8204 42.1649 85.9704 42.4449 86.3104C42.4749 86.2704 42.5049 86.2454 42.5299 86.2254C42.8449 85.9704 43.1699 85.8754 43.4899 85.8954C43.2999 85.4904 43.2249 85.1404 43.2949 84.8604C43.3049 84.8254 43.3149 84.8054 43.3299 84.7754C43.2899 84.7354 43.2599 84.6804 43.2199 84.6404C42.8699 84.2854 42.4649 83.7604 41.9399 83.7304C41.7349 83.7404 41.6399 84.0004 41.6049 84.2154C41.6049 83.9854 41.6449 83.6854 41.9099 83.6054C42.5399 83.5154 43.0449 83.9854 43.5249 84.3104C43.5649 84.3454 43.6099 84.3754 43.6549 84.4054C43.6799 84.3954 43.7049 84.3854 43.7299 84.3804C44.2549 84.2904 44.7649 84.5204 45.2099 84.7654C46.5049 85.6754 47.4499 87.1654 47.8399 88.7004C48.8549 89.5254 50.1199 90.4904 50.1699 91.9054C50.1649 92.1054 50.0849 92.3154 49.9199 92.4254C50.6599 91.3854 48.5949 89.7004 47.6699 89.0354C47.4449 88.9154 47.1999 88.7904 46.9549 88.6904C47.1599 88.9704 47.3399 89.2304 47.4649 89.4404C47.7849 89.9754 47.8949 90.4554 47.7849 90.8754C47.7299 91.0854 47.6299 91.2404 47.5349 91.3454C48.2899 92.0704 49.9249 93.3754 50.6049 91.8104C51.2949 90.2254 48.2199 88.1504 48.2199 88.1504L48.2149 88.1604Z" fill="white"/>
<path d="M46.5599 88.2003C46.8499 88.2653 47.1099 88.3703 47.3649 88.4953C46.9649 87.4253 46.2149 86.5303 45.4999 85.6503C45.0799 85.2303 44.4599 84.8303 43.8499 84.8503C43.8499 84.8503 43.7949 84.8953 43.7749 85.0053C43.7499 85.1503 43.7749 85.4703 44.1499 86.0703C44.5749 86.2653 45.0049 86.5953 45.4149 86.9403C45.7049 87.1803 46.1449 87.6803 46.5549 88.2003H46.5599Z" fill="white"/>
<path d="M118.72 15.0801L45.95 83.9801C46.105 84.0951 46.2599 84.2201 46.4199 84.3651C47.2399 85.1101 47.7299 85.9001 48.0849 86.4801C48.1549 86.5901 48.2149 86.6951 48.2799 86.7901C48.5949 87.2751 48.675 87.7201 48.695 87.9301L49.32 88.4701L114.82 26.3001C114.82 26.3001 120.265 20.4401 118.72 15.0801ZM112.5 24.9201C110.51 27.7951 104.1 33.5851 101.56 36.1301C91.3599 45.7701 66.455 69.2551 55.875 78.9201C70.31 65.1401 94.2949 41.7201 108.685 28.4901C111.165 26.1151 113.555 23.4951 115.09 20.3901L115.16 20.4201C114.495 22.0351 113.54 23.5201 112.5 24.9201Z" fill="white"/>
<path d="M45.47 92.2749C45.47 92.2749 46.475 92.0399 47.045 91.3349C47.345 90.4649 45.485 88.4199 45.485 88.4199C45.485 88.4199 43.925 86.6649 42.75 86.6699C42.75 86.6699 41.87 87.3999 41.54 88.1399C42.12 88.2299 45.585 91.6449 45.465 92.2749H45.47Z" fill="#878787"/>
<path d="M27.2599 101.8C27.3999 102.2 27.5149 102.605 27.6149 103.005C28.3099 102.935 28.9599 103.09 29.3699 103.24C29.2449 102.32 29.0399 101.355 28.7249 100.405L27.2599 101.805V101.8Z" fill="#878787"/>
<path d="M29.52 107.335C29.54 106.955 29.56 106.505 29.555 106C29.255 105.865 28.67 105.665 28.07 105.72C28.17 106.84 28.17 107.85 28.135 108.64L29.52 107.335Z" fill="#878787"/>
<path d="M32.97 104.085C33.01 103.63 33.06 102.935 33.055 102.1C32.775 101.975 32.245 101.79 31.69 101.81C31.86 103.035 31.9 104.18 31.88 105.11L32.965 104.085H32.97Z" fill="#878787"/>
<path d="M27.6 109.145C27.7 107.655 27.72 104.865 26.86 102.185L25.545 103.44C26.395 106.115 26.39 108.84 26.29 110.38L27.6 109.145Z" fill="#878787"/>
<path d="M31.3599 105.6C31.4249 103.935 31.3399 101.265 30.4399 98.7646L29.1249 100.02C30.0149 102.53 30.1149 105.15 30.0499 106.835L31.3599 105.6Z" fill="#878787"/>
<path d="M30.835 98.3848C30.925 98.6248 31.01 98.8598 31.09 99.0998C31.795 99.0198 32.46 99.1798 32.875 99.3298C32.77 98.5498 32.605 97.7348 32.365 96.9248L30.835 98.3848Z" fill="#878787"/>
<path d="M33.05 101.555C33.035 101.04 33.005 100.48 32.94 99.8998C32.66 99.7798 31.97 99.5348 31.23 99.5948C31.395 100.175 31.52 100.75 31.615 101.315C32.17 101.285 32.69 101.42 33.045 101.555H33.05Z" fill="#878787"/>
<path d="M29.55 105.46C29.535 104.945 29.505 104.385 29.44 103.805C29.16 103.685 28.47 103.44 27.73 103.5C27.86 104.09 27.95 104.67 28.015 105.23C28.605 105.175 29.17 105.32 29.545 105.465L29.55 105.46Z" fill="#878787"/>
<path d="M25.745 110.895C25.785 110.44 25.825 109.78 25.825 108.985C25.545 108.86 25.015 108.675 24.46 108.695C24.63 109.895 24.665 111.01 24.65 111.925L25.74 110.895H25.745Z" fill="#878787"/>
<path d="M16.035 112.525C16.535 112.885 17.015 113.295 17.35 113.625C17.5 113.775 17.71 114 17.94 114.26C17.94 113.6 17.875 112.41 17.57 111.065L16.04 112.525H16.035Z" fill="#878787"/>
<path d="M22.285 114.15C22.305 113.785 22.32 113.36 22.32 112.885C21.995 112.74 21.35 112.51 20.705 112.615L20.625 112.12C21.27 112.02 21.9 112.19 22.31 112.345C22.295 111.83 22.265 111.27 22.2 110.69C21.895 110.56 21.12 110.28 20.32 110.4C20.77 112.37 20.815 114.27 20.76 115.585L22.28 114.15H22.285Z" fill="#878787"/>
<path d="M19.4799 109.23L17.9849 110.655C18.5349 112.815 18.4299 114.645 18.4199 114.825C18.8249 115.31 19.2249 115.82 19.4599 116.175C19.5549 116.32 19.6349 116.46 19.6999 116.585L20.2349 116.085C20.3249 114.57 20.3249 111.84 19.4849 109.23H19.4799Z" fill="#878787"/>
<path d="M22.1349 110.125C22.0099 109.21 21.8099 108.25 21.4949 107.305L19.8799 108.845C19.9999 109.2 20.1099 109.555 20.1999 109.91C20.9599 109.785 21.6849 109.965 22.1299 110.125H22.1349Z" fill="#878787"/>
<path d="M23.605 105.29C23.695 105.52 23.775 105.755 23.85 105.99C24.555 105.91 25.22 106.07 25.635 106.22C25.53 105.445 25.37 104.635 25.13 103.83L23.6 105.29H23.605Z" fill="#878787"/>
<path d="M24.13 112.415C24.19 110.75 24.095 108.125 23.21 105.67L21.895 106.925C22.765 109.395 22.875 111.965 22.815 113.655L24.125 112.42L24.13 112.415Z" fill="#878787"/>
<path d="M25.8149 108.44C25.7999 107.925 25.7699 107.365 25.7049 106.785C25.4249 106.665 24.7349 106.42 23.9949 106.48C24.1599 107.06 24.2849 107.635 24.3799 108.2C24.9349 108.17 25.4549 108.305 25.8099 108.44H25.8149Z" fill="#878787"/>
<path d="M38.6999 98.6848C38.7299 96.9098 38.5649 94.3048 37.6049 91.9248L36.2949 93.1748C37.2399 95.5798 37.4199 98.1348 37.3899 99.9198L38.6999 98.6848Z" fill="#878787"/>
<path d="M19.045 116.45C18.605 115.77 17.47 114.45 16.995 113.98C16.545 113.54 16.085 113.165 15.67 112.87L15.02 113.49C14.38 114.1 14.355 115.115 14.965 115.755L16.605 117.485C17.165 118.075 18.095 118.1 18.685 117.545L19.315 116.95C19.265 116.82 19.18 116.66 19.045 116.45Z" fill="#878787"/>
<path d="M42.2299 95.3597C42.3649 93.7597 42.3849 90.8648 41.2249 88.5098C41.2149 88.5048 41.2049 88.4997 41.1949 88.4897L39.95 89.6797C40.865 92.2547 40.9449 94.9498 40.8699 96.6348L42.2249 95.3597H42.2299Z" fill="#878787"/>
<path d="M45.1601 92.5946C45.1451 92.5246 45.0851 92.3296 44.8251 91.9646C44.7101 91.8046 44.5551 91.6096 44.3751 91.3946C44.0601 91.3146 43.3601 91.1896 42.6101 91.3696C42.8151 92.6596 42.8251 93.8946 42.7701 94.8496L45.1601 92.5996V92.5946Z" fill="#878787"/>
<path d="M42.71 89.625C42.475 89.41 42.235 89.22 42 89.04C42.23 89.645 42.405 90.26 42.525 90.875C43.015 90.765 43.475 90.76 43.85 90.8C43.415 90.32 42.96 89.85 42.71 89.625Z" fill="#878787"/>
<path d="M40.385 95.6748C40.105 95.5498 39.58 95.3648 39.02 95.3848C39.165 96.4048 39.215 97.3698 39.215 98.1998L40.34 97.1398C40.365 96.7348 40.385 96.2398 40.385 95.6748Z" fill="#878787"/>
<path d="M34.4899 94.8948C34.6849 95.4548 34.8399 96.0198 34.9599 96.5798C35.6499 96.5148 36.2899 96.6698 36.6949 96.8148C36.5499 95.7548 36.2999 94.6348 35.8999 93.5498L34.4899 94.8948Z" fill="#878787"/>
<path d="M36.865 100.41C36.875 100.155 36.88 99.875 36.88 99.58C36.57 99.445 35.96 99.23 35.34 99.305C35.405 100.27 35.4 101.14 35.365 101.825L36.865 100.41Z" fill="#878787"/>
<path d="M36.875 99.0396C36.86 98.5246 36.83 97.9646 36.765 97.3846C36.485 97.2646 35.8 97.0196 35.06 97.0796C35.17 97.6746 35.25 98.2546 35.3 98.8146C35.905 98.7496 36.485 98.8996 36.87 99.0446L36.875 99.0396Z" fill="#878787"/>
<path d="M40.3749 95.1348C40.3599 94.6198 40.3299 94.0598 40.2649 93.4798C39.9849 93.3598 39.2949 93.1148 38.5549 93.1748C38.7199 93.7548 38.8449 94.3298 38.9399 94.8948C39.4949 94.8648 40.0149 95.0048 40.3699 95.1398L40.3749 95.1348Z" fill="#878787"/>
<path d="M34.83 102.33C34.935 100.855 34.97 98.0048 34.085 95.2798L32.77 96.5348C33.64 99.2548 33.62 102.035 33.515 103.565L34.825 102.33H34.83Z" fill="#878787"/>
<path d="M37.9949 91.5496C38.1549 91.9246 38.2949 92.2996 38.4149 92.6796C39.1199 92.5996 39.7849 92.7596 40.1999 92.9096C40.0749 91.9846 39.8699 91.0146 39.5499 90.0596L37.9949 91.5446V91.5496Z" fill="#878787"/>
<path d="M85.005 13.0351C85.005 12.8501 84.84 12.6951 84.64 12.6951C84.49 12.6951 84.36 12.7801 84.305 12.9001C84.18 12.9351 84.075 13.0151 84.015 13.1201C77.245 13.8251 70.685 10.2851 70.615 10.2451L70.375 10.6851C70.435 10.7201 75.98 13.7151 82.19 13.7151C82.465 13.7151 82.74 13.7001 83.015 13.6901C76.905 15.4051 70.49 13.7101 70.42 13.6901L70.29 14.1701C70.335 14.1851 73.24 14.9501 77.02 14.9501C79.315 14.9501 81.925 14.6601 84.42 13.7501C84.43 13.7501 84.44 13.7551 84.45 13.7551C84.725 13.7551 84.945 13.5551 84.945 13.3101C84.945 13.2801 84.93 13.2501 84.925 13.2251C84.97 13.1701 85 13.1051 85 13.0301L85.005 13.0351Z" fill="white"/>
<path d="M89.65 18.9001C89.105 18.1301 88.485 17.3351 87.79 16.5601C87.8 18.2101 87.665 19.6951 87.49 20.8901L89.65 18.9001Z" fill="white"/>
<path d="M84.895 13.2752C85.745 13.8852 86.53 14.5652 87.25 15.2752C87.18 14.0902 87.025 12.8402 86.74 11.5752L84.895 13.2752Z" fill="white"/>
<path d="M85.0999 14.0449C86.1749 16.4049 86.7149 18.8949 86.9699 21.0399C87.1749 19.7049 87.3399 17.9599 87.2849 16.0149C86.6199 15.3249 85.8899 14.6549 85.0999 14.0449Z" fill="white"/>
<path d="M23.4799 79.9903L86.5449 21.7704C86.3199 19.3804 85.7449 16.4404 84.3999 13.7354L18.3549 74.7054C19.5699 75.3604 21.9849 76.9753 23.4799 79.9903Z" fill="white"/>
<path d="M95.2899 8.6251C93.0249 6.0101 91.8949 6.8101 91.8949 6.8101L90.4749 8.1201C91.3599 8.6301 92.4499 9.6451 93.0099 10.2501C93.5399 10.8251 94.7999 12.4101 95.2999 13.2151C95.3699 13.3251 95.4199 13.4251 95.4749 13.5251L96.8899 12.2151C96.8899 12.2151 97.5599 11.2351 95.2949 8.6201L95.2899 8.6251Z" fill="white"/>
<path d="M94.875 13.485C94.39 12.705 93.16 11.155 92.645 10.595C91.69 9.55998 90.69 8.80498 90.095 8.47998L87.165 11.185C87.545 12.78 87.725 14.35 87.78 15.815C88.63 16.72 89.38 17.655 90.025 18.565L95.1 13.88C95.045 13.765 94.975 13.64 94.88 13.485H94.875Z" fill="white"/>
<path d="M17.7599 75.2052C17.5999 75.1802 17.5049 75.1802 17.5049 75.1802L16.6349 75.9852C16.5099 76.1002 16.4699 76.2802 16.5349 76.4402C17.8949 79.6902 20.6199 81.4052 21.5599 81.9202C21.7499 82.0252 21.9899 81.9952 22.1499 81.8502L23.1899 80.8902C23.1899 80.8902 23.1949 80.8652 23.1899 80.8352C21.6399 77.3952 18.7599 75.7052 17.7649 75.2052H17.7599ZM21.5649 81.4452C21.3549 81.6402 20.1799 80.7052 18.9349 79.3602C17.6949 78.0152 16.8549 76.7702 17.0649 76.5752C17.2749 76.3802 18.4499 77.3152 19.6949 78.6602C20.9399 80.0052 21.7749 81.2502 21.5649 81.4452Z" fill="white"/>
</svg>
