<svg width="128" height="128" viewBox="0 0 128 128" fill="none" xmlns="http://www.w3.org/2000/svg">
<path d="M20.445 111.295L15.72 115.425C15.97 116.005 16.67 117.275 18.255 118.3L23.02 114.095C21.545 113.145 20.79 112 20.445 111.295ZM17.06 116.925L16.67 115.205L18.155 115.835L18.61 117.465L17.055 116.925H17.06ZM18.47 115.54L18.08 113.82L19.565 114.45L20.02 116.08L18.465 115.54H18.47ZM20.005 114.1L19.615 112.38L21.1 113.01L21.555 114.64L20 114.1H20.005Z" fill="#878787"/>
<path d="M15.325 115.775L14.37 116.61C14.72 117.3 15.495 118.465 17.045 119.375L17.87 118.65C16.36 117.645 15.635 116.45 15.325 115.78V115.775Z" fill="#878787"/>
<path d="M21.54 110.345L20.845 110.955C21.145 111.595 21.875 112.795 23.415 113.755L24.13 113.125C22.66 112.19 21.9 111.06 21.54 110.345Z" fill="#878787"/>
<path d="M39.245 99.79L40.625 98.575L37.995 95.96L36.745 97.055C37.05 97.695 37.765 98.855 39.25 99.795L39.245 99.79Z" fill="#878787"/>
<path d="M27.7499 104.915L23.0349 109.035C23.2799 109.605 23.9699 110.865 25.5349 111.885L30.3449 107.645C28.8999 106.735 28.1349 105.635 27.7549 104.91L27.7499 104.915ZM28.4499 106.585L28.9049 108.215L27.3499 107.675L26.9599 105.955L28.4449 106.585H28.4499ZM24.4799 110.39L24.0899 108.67L25.5749 109.3L26.0299 110.93L24.4749 110.39H24.4799ZM25.8799 109.105L25.4899 107.385L26.9749 108.015L27.4299 109.645L25.8749 109.105H25.8799Z" fill="#878787"/>
<path d="M22.6349 109.38L21.9299 109.995C22.2449 110.65 22.9849 111.835 24.5149 112.775L25.1399 112.225C23.6549 111.225 22.9399 110.045 22.6349 109.375V109.38Z" fill="#878787"/>
<path d="M35.08 98.5054L34.12 99.3454C34.46 100.02 35.205 101.15 36.685 102.05L37.545 101.29C36.11 100.32 35.4 99.1804 35.08 98.5054Z" fill="#878787"/>
<path d="M36.35 97.4004L35.475 98.1654C35.74 98.7604 36.435 99.9654 37.935 100.95L38.855 100.14C37.435 99.2104 36.7 98.1004 36.35 97.4004Z" fill="#878787"/>
<path d="M33.7299 99.6904L29.1599 103.685C29.5499 104.4 30.3449 105.485 31.8299 106.335L36.2949 102.395C34.8699 101.495 34.1099 100.41 33.7299 99.6904ZM34.5299 101.2L34.9849 102.83L33.4299 102.29L33.0399 100.57L34.5249 101.2H34.5299ZM30.5799 105.06L30.1899 103.34L31.6749 103.97L32.1299 105.6L30.5749 105.06H30.5799ZM32.0349 103.675L31.6449 101.955L33.1299 102.585L33.5849 104.215L32.0299 103.675H32.0349Z" fill="#878787"/>
<path d="M13.98 116.95L12.155 118.545C11.79 118.86 11.775 119.42 12.125 119.755L13.175 120.775C13.785 121.37 14.75 121.395 15.39 120.83L16.65 119.72C15.16 118.805 14.37 117.69 13.98 116.95Z" fill="#878787"/>
<path d="M42.4499 97.6152C41.8649 97.0752 41.0849 96.3452 40.7249 95.9702C40.2249 95.4502 39.1099 94.1552 38.7049 93.6802L38.3399 93.2802C38.0499 92.9652 37.5549 92.9652 37.2649 93.2802L37.2199 93.3302C36.9549 93.6152 36.9499 94.0602 37.2149 94.3502L38.2449 95.5002L41.0049 98.2402H41.0099L42.2849 99.5102C42.5599 99.7852 43.0049 99.7802 43.2749 99.5002L43.2999 99.4702C43.5899 99.1752 43.5799 98.6952 43.2849 98.4102L42.4549 97.6102L42.4499 97.6152Z" fill="#878787"/>
<path d="M28.77 104.02L28.14 104.57C28.475 105.245 29.23 106.39 30.73 107.3L31.435 106.68C29.995 105.82 29.195 104.765 28.775 104.02H28.77Z" fill="#878787"/>
<path d="M47.45 93.3303C47.45 93.2753 47.43 93.2153 47.39 93.1703L44.05 89.6853C43.965 89.5953 43.825 89.5953 43.735 89.6803C43.645 89.7653 43.645 89.9053 43.73 89.9953L47.07 93.4803C47.155 93.5703 47.295 93.5703 47.385 93.4853C47.43 93.4453 47.45 93.3853 47.455 93.3303H47.45Z" fill="white"/>
<path d="M40.77 93.4651C40.99 93.4551 41.505 93.4301 41.505 93.4301C42.045 93.4251 42.605 93.4051 43.17 93.3951C43.215 93.3001 43.305 93.2301 43.41 93.2101C43.42 92.8201 43.43 92.4451 43.45 92.1201C43.5 91.7301 43.505 91.2851 43.57 90.8901C42.305 92.0551 41.345 92.9401 40.77 93.4701V93.4651Z" fill="white"/>
<path d="M43.37 95.4103C43.385 94.9603 43.39 94.4203 43.395 93.8753C43.265 93.8403 43.17 93.7353 43.145 93.6003C42.925 93.5953 41.5 93.5603 41.5 93.5603C41.32 93.5603 40.975 93.5503 40.68 93.5503C40.48 93.7353 40.335 93.8653 40.25 93.9453C40.69 94.4503 41.175 94.9953 41.445 95.2853C41.73 95.5803 42.31 96.1303 42.83 96.6153C42.94 96.5203 43.12 96.3653 43.365 96.1503C43.365 95.9403 43.365 95.4153 43.365 95.4153L43.37 95.4103Z" fill="white"/>
<path d="M43.82 93.6202C43.795 93.7402 43.71 93.8352 43.6 93.8702C43.56 94.3952 43.52 94.9102 43.495 95.4152C43.49 95.5052 43.47 95.8152 43.455 96.0752C44.085 95.5302 45.08 94.6602 46.35 93.5552C45.545 93.6702 44.675 93.6502 43.825 93.6252L43.82 93.6202Z" fill="white"/>
<path d="M43.845 90.6353C43.79 90.6853 43.735 90.7353 43.685 90.7853C43.73 91.5803 43.695 92.4053 43.645 93.2353C43.71 93.2703 43.765 93.3253 43.8 93.3903C44.68 93.3853 45.56 93.4053 46.395 93.5153C46.435 93.4803 46.475 93.4453 46.515 93.4103L43.855 90.6353H43.845Z" fill="white"/>
<path d="M118.165 13.8252C118.165 13.8252 111.39 22.6552 102.2 33.0202C94.4749 41.7302 84.8699 51.4902 77.9049 58.3802C67.0149 69.1452 52.0799 83.0402 44.6849 89.8702L47.3649 92.6652C54.9749 85.9952 69.6599 72.9752 73.8549 68.1452C79.5949 61.5302 119.195 26.9852 118.165 13.8302V13.8252Z" fill="white"/>
<path d="M101.355 10.9902C99.4499 13.3202 96.3249 17.0902 92.9149 21.0002C87.7599 26.9102 81.9099 33.1302 79.6799 35.5252C75.0499 40.5002 60.9299 55.4902 50.3649 65.5302C45.2599 70.3802 24.6899 89.2202 24.6899 89.2202C26.1349 91.7552 27.6349 92.6202 27.6349 92.6202C27.6349 92.6202 35.9699 85.5802 45.4099 76.7202C56.1149 66.6702 68.3399 54.3852 73.2849 49.3152C80.9899 41.4202 98.6399 20.9652 104.5 14.1452C104.195 13.6252 103.015 11.7702 101.355 10.9952V10.9902ZM97.0249 19.3052L96.6349 17.5852L98.1199 18.2152L98.5749 19.8452L97.0199 19.3052H97.0249ZM99.2399 16.8352L98.8499 15.1152L100.335 15.7452L100.79 17.3752L99.2349 16.8352H99.2399ZM101.175 14.4102L100.785 12.6902L102.27 13.3202L102.725 14.9502L101.17 14.4102H101.175Z" fill="white"/>
<path d="M106.16 10.9802C105.655 9.80016 104.71 9.18516 104.04 8.88516C103.615 8.69516 103.12 8.82016 102.825 9.18016C102.555 9.51516 102.16 10.0002 101.68 10.5952C103.295 11.3952 104.43 13.0552 104.845 13.7402C105.305 13.2052 105.67 12.7752 105.94 12.4652C106.295 12.0552 106.375 11.4752 106.16 10.9802Z" fill="white"/>
<path d="M26.115 94.1603C26.115 94.1603 23.585 92.1203 23.13 90.4903L24.19 89.6753C24.19 89.6753 25.38 91.9153 27.235 93.1553C27.235 93.1553 26.555 94.0953 26.12 94.1603H26.115Z" fill="white"/>
</svg>
