<svg width="128" height="128" viewBox="0 0 128 128" fill="none" xmlns="http://www.w3.org/2000/svg">
<path d="M34.6801 87.9247C36.1651 88.5447 37.7751 89.1497 39.4401 89.6647C39.4351 86.8297 39.8951 83.8397 40.5251 81.0947C39.4751 82.3447 37.3351 84.8747 34.6851 87.9247H34.6801Z" fill="#878787"/>
<path d="M39.655 92.715C39.535 91.915 39.47 91.09 39.45 90.245C37.645 89.69 35.9 89.03 34.31 88.355C33.76 88.99 33.185 89.64 32.6 90.31C34.755 91.215 37.19 92.1 39.655 92.715Z" fill="#878787"/>
<path d="M62.09 77.94C57.225 77.94 50.955 75.855 46.72 73.985C46.365 73.83 45.945 73.92 45.695 74.215C42.89 77.5 41.68 79.77 41.305 80.175C40.56 83.215 39.97 86.64 39.99 89.835C42.995 90.725 46.135 91.29 48.93 91.085C53.805 86.96 60.125 82.745 65.31 78.585C65.59 78.36 65.42 77.905 65.06 77.92C64.03 77.965 62.765 77.945 62.095 77.945L62.09 77.94Z" fill="#878787"/>
<path d="M40 90.4102C40.025 91.2452 40.095 92.0652 40.22 92.8502C42.18 93.3102 44.145 93.5852 45.995 93.5652C46.74 92.9352 47.49 92.3002 48.25 91.6552C48.06 91.6602 47.87 91.6652 47.675 91.6652C45.205 91.6652 42.555 91.1552 40 90.4102Z" fill="#878787"/>
<path d="M32.225 90.735C29.695 93.605 26.275 96.56 23.55 99.34C23.31 99.585 23.415 99.99 23.74 100.095C27.535 101.36 32.625 102.36 36.185 101.995C36.66 101.945 37.095 101.735 37.445 101.41C38.76 100.18 39.75 98.885 41.325 97.54C40.545 96.3 40.04 94.86 39.755 93.3C37.11 92.655 34.505 91.7 32.225 90.73V90.735Z" fill="#878787"/>
<path d="M40.325 93.4399C40.595 94.8249 41.045 96.0999 41.72 97.2049C42.905 96.1949 44.1249 95.1599 45.3699 94.0999C43.7349 94.0649 42.03 93.8199 40.325 93.4399Z" fill="#878787"/>
<path d="M33.82 103.1C30.295 103.1 26.43 102.08 22.98 100.815C22.025 101.8 21.095 102.74 20.215 103.595C11.815 111.78 18.99 114.675 18.99 114.675C18.99 114.675 21.275 114.89 23.07 113.265C23.175 113.17 27.885 109.06 34.87 103.065C34.525 103.085 34.175 103.1 33.82 103.1Z" fill="white"/>
<path d="M115.21 30.7151C116.54 30.5101 117.65 30.3201 117.65 30.3201L114.99 28.7951C114.63 26.3501 113.795 22.8451 111.9 20.3251C112.98 18.0301 114.71 14.3251 114.71 14.3251L109.9 18.3801C109.325 17.9901 108.695 17.6751 107.99 17.4651C105.575 16.7451 103.43 16.6001 101.65 16.7051C100.94 15.2951 100.19 13.3101 100.19 13.3101L98.645 17.1651C97.095 17.5651 96.215 18.0551 96.215 18.0551C96.215 18.0551 92.775 20.3701 87.79 24.8751L85.055 23.2601L86.175 26.3701C83.4 28.9751 80.26 32.1801 77.025 35.9701L73.735 34.2801L75.55 37.7301C73.755 39.9151 71.945 42.2701 70.16 44.8001C69.51 45.7251 68.84 46.6551 68.17 47.5801L64.01 45.4401L66.405 49.9851C59.81 58.8451 52.64 67.3451 47.64 73.0701C53.315 75.6101 61.69 78.4301 67.015 75.9801C75.375 69.1151 83.215 62.8751 88.715 58.9251L93.24 61.6801L91.325 57.1051C91.76 56.8101 92.18 56.5351 92.57 56.2901C96.785 53.6101 100.405 50.5301 103.435 47.4801C105.1 48.3151 106.99 49.2301 106.99 49.2301L105.155 45.6801C111.93 38.3501 115.265 31.6651 115.265 31.6651C115.265 31.6651 115.255 31.3101 115.21 30.7201V30.7151ZM77.81 58.9501C78.81 58.6301 79.835 58.4301 80.865 58.2601C80.72 57.9451 80.58 57.6301 80.455 57.3051C79.365 54.4551 81.185 57.6851 81.595 58.6551C80.34 58.8301 79.085 58.9801 77.81 58.9551V58.9501ZM85.135 38.2501C84.49 37.7951 83.875 37.3051 83.275 36.7951C83.13 38.0451 82.94 39.2951 82.65 40.5201C82.605 38.9501 82.73 37.3751 82.885 35.8151C83.965 36.7301 85.025 37.6801 85.93 38.7701C85.655 38.6101 85.4 38.4251 85.135 38.2501ZM93.225 22.5101C94.27 23.4651 95.29 24.4551 96.16 25.5751C95.89 25.4051 95.645 25.2101 95.385 25.0251C94.76 24.5451 94.16 24.0301 93.58 23.5001C93.385 24.7451 93.155 25.9851 92.815 27.2001C92.83 25.6301 93.01 24.0601 93.225 22.5051V22.5101ZM92.76 51.4751C92.99 51.2551 93.24 51.0601 93.475 50.8551C94.09 50.3601 94.73 49.9051 95.385 49.4701C94.225 48.9851 93.075 48.4601 91.975 47.8451C93.5 48.2301 94.975 48.7851 96.435 49.3651C95.26 50.1501 94.05 50.9101 92.755 51.4801L92.76 51.4751ZM96.925 38.0551C97.19 37.0401 97.57 36.0651 97.98 35.1051C97.635 35.0601 97.295 35.0101 96.95 34.9401C93.96 34.3351 97.66 34.5251 98.695 34.7001C98.17 35.8551 97.625 36.9951 96.92 38.0551H96.925ZM104.435 21.8551C101.585 22.9401 104.815 21.1251 105.785 20.7201C105.96 21.9751 106.105 23.2301 106.08 24.5051C105.76 23.5051 105.56 22.4801 105.395 21.4501C105.08 21.5951 104.76 21.7351 104.435 21.8601V21.8551ZM107.11 37.4701C107.34 37.2501 107.59 37.0551 107.825 36.8501C108.44 36.3551 109.08 35.9001 109.735 35.4651C108.575 34.9801 107.425 34.4551 106.325 33.8401C107.85 34.2301 109.325 34.7801 110.785 35.3601C109.61 36.1451 108.4 36.9051 107.105 37.4751L107.11 37.4701Z" fill="white"/>
</svg>
