<svg width="128" height="128" viewBox="0 0 128 128" fill="none" xmlns="http://www.w3.org/2000/svg">
<path d="M92.1 21.645C90.33 30.46 80.535 45.875 68.79 59.16C56.495 73.07 42.565 84.99 38.735 88.195C42.635 90.145 43.715 93.465 43.995 95.5C61.9 81.055 79.975 66.845 91.87 53.585C109.1 34.38 116.27 18.52 116.27 18.52C105.515 26.095 92.1 21.65 92.1 21.65V21.645ZM68.21 71.905C61.215 78.35 53.72 84.7 45.755 89.715C60.86 78.1 75.765 65.855 87.45 50.685L87.5 50.72C81.8 58.405 75.23 65.41 68.21 71.905ZM91.1 37.685C89.885 39.585 88.5 41.95 87.24 43.8C86.255 45.19 84.09 48.425 83.07 49.71C79.88 54 75.97 58.775 72.375 62.76C63.81 72.23 54.275 81.495 43.81 88.565C54.875 79.36 65.445 69.43 75.065 58.71C76.895 56.545 79.51 53.54 81.195 51.305C82.02 50.235 83.365 48.595 84.125 47.495C85.07 46.165 87.45 42.97 88.28 41.605C88.93 40.605 90.255 38.575 90.905 37.575C91.81 36.115 93.635 32.83 94.515 31.33L94.595 31.37C93.73 32.915 91.955 36.235 91.1 37.695V37.685Z" fill="white"/>
<path d="M27.87 84.9197C28.32 84.9897 29.44 85.0897 30.33 84.4797C30.68 84.2397 30.955 83.9147 31.165 83.5097L31.105 83.4697C31.455 82.5947 31.325 81.5647 30.66 80.8097C29.72 79.7447 28.095 79.6447 27.035 80.5847C25.97 81.5247 25.87 83.1497 26.81 84.2097C27.11 84.5497 27.48 84.7847 27.875 84.9247L27.87 84.9197Z" fill="#878787"/>
<path d="M20.52 105.555C21.285 106.4 21.685 107.41 21.9 108.31C22.135 108.15 22.375 107.98 22.635 107.8C22.17 106.775 21.34 105.57 19.89 104.92C19.875 104.93 19.865 104.94 19.85 104.95C20.09 105.135 20.315 105.33 20.52 105.56V105.555Z" fill="#878787"/>
<path d="M15.6 110.275C15.265 109.69 14.635 109.305 13.74 109.13C13.74 109.13 13.74 109.14 13.74 109.145C13.26 109.435 11.285 110.765 12.55 112.195C13.17 112.9 14.535 112.585 15.88 112C15.945 111.42 15.9 110.795 15.6 110.275Z" fill="#878787"/>
<path d="M20.14 105.895C19.795 105.515 19.39 105.2 18.935 104.955C18.92 104.945 18.905 104.935 18.885 104.93C17.525 104.315 15.94 104.465 14.825 105.445C13.92 106.245 13.53 107.42 13.65 108.595C14.8 108.785 15.605 109.26 16.04 110.025C16.425 110.7 16.46 111.485 16.37 112.18C17.695 112.715 19.195 112.545 20.265 111.605C21.105 110.865 21.5 109.795 21.46 108.705C21.28 107.8 20.91 106.745 20.14 105.895Z" fill="#878787"/>
<path d="M31.61 83.75C31.365 84.23 31.03 84.615 30.61 84.9C30.21 85.175 29.775 85.325 29.365 85.405C28.94 86.25 29.055 87.21 29.76 88.005C30.635 89 32.105 89.135 33.16 88.39C33.7 87.98 34.065 87.355 34.24 86.515C34.295 85.84 34.09 85.15 33.61 84.605C33.085 84.01 32.345 83.73 31.61 83.75Z" fill="#878787"/>
<path d="M37.8749 88.9096C37.8749 88.9096 37.8699 88.9146 37.8649 88.9196C37.0449 88.5796 36.2549 88.4646 35.5799 88.5896C35.0799 88.7246 34.6649 88.9596 34.3399 89.2996C34.2799 89.3596 34.2299 89.4246 34.1799 89.4896C33.7799 90.0996 33.6799 90.9296 33.8449 91.8546C37.1599 93.3596 37.7949 95.9546 37.8749 97.4146C38.6449 97.8896 39.4249 98.1896 40.1399 98.2846C40.6699 98.3346 41.4199 98.3046 42.0149 97.8946C42.4449 97.5946 42.7399 97.1296 42.8999 96.5046C42.9099 96.4646 42.9199 96.4246 42.9299 96.3796C42.9749 96.1796 43.0049 95.9696 43.0199 95.7446C42.8099 93.8996 41.8449 90.6896 37.8699 88.9096H37.8749Z" fill="#878787"/>
<path d="M43.4001 98.1247L42.9801 97.6147C42.8001 97.8947 42.5751 98.1247 42.3051 98.3097C41.9151 98.5797 41.4801 98.7097 41.0601 98.7647L41.8051 99.7147C41.9451 99.3997 42.1401 99.0798 42.4101 98.7998C42.6851 98.5098 43.0201 98.2848 43.4001 98.1198V98.1247Z" fill="#878787"/>
<path d="M33.53 88.7448L33.84 89.0997C33.885 89.0497 33.925 88.9947 33.975 88.9447C34.305 88.5947 34.715 88.3397 35.19 88.1697L34.525 87.3647C34.3 87.9397 33.965 88.3998 33.53 88.7448Z" fill="#878787"/>
<path d="M34 92.4849C33.65 92.8349 33.25 93.2299 32.8 93.6699C34.95 94.8249 35.8051 96.4699 36.1301 97.7999L37.245 96.9749C37.285 97.0049 37.3251 97.0299 37.3651 97.0599C37.2201 95.7549 36.5501 93.7799 34.0051 92.4849H34Z" fill="#878787"/>
<path d="M47.475 102.32C47.225 102.82 46.885 103.225 46.455 103.525C46.03 103.815 45.57 103.97 45.135 104.045L45.155 104.07C44.88 104.91 45.035 105.865 45.66 106.575C46.6 107.64 48.225 107.74 49.285 106.8C50.35 105.86 50.45 104.235 49.51 103.175C48.975 102.57 48.225 102.29 47.48 102.32H47.475Z" fill="#878787"/>
<path d="M28.085 103.79C28.055 103.155 27.915 102.465 27.56 101.825C27.17 101.12 26.565 100.56 25.76 100.15C24.365 99.4695 22.675 99.6295 21.475 100.685C20.355 101.675 19.975 103.19 20.34 104.58C21.715 105.295 22.55 106.485 23.04 107.515C23.06 107.5 23.08 107.49 23.1 107.475C24.36 107.865 25.765 107.63 26.8 106.715C27.66 105.955 28.075 104.89 28.07 103.805C28.075 103.805 28.08 103.795 28.085 103.795V103.79Z" fill="#878787"/>
<path d="M44.77 103.495L44.82 103.575C45.255 103.53 45.74 103.4 46.165 103.105C46.44 102.915 46.675 102.665 46.86 102.37L46.8 102.255C47.36 101.32 47.29 100.1 46.53 99.2397C45.815 98.4297 44.71 98.1847 43.755 98.5247C43.37 98.6647 43.045 98.8747 42.78 99.1497C42.46 99.4897 42.26 99.8897 42.14 100.275C41.925 101.08 42.09 101.97 42.68 102.64C43.225 103.255 44 103.54 44.765 103.495H44.77Z" fill="#878787"/>
<path d="M32.4149 94.0445C32.4149 94.0445 32.3849 94.0745 32.3649 94.0945C31.2399 93.8945 30.0549 94.1645 29.1499 94.9645C28.2149 95.7895 27.8049 96.9795 27.8949 98.1545C28.7399 98.3395 29.4199 98.7195 29.9049 99.3045C30.4849 100.005 30.7249 100.89 30.7899 101.76C32.0449 102.14 33.4399 101.905 34.4749 100.995C35.2699 100.29 35.6849 99.3245 35.7349 98.3195C35.5249 97.0245 34.7749 95.2445 32.4149 94.0445Z" fill="#878787"/>
<path d="M29.5151 99.6246C29.0601 99.0746 28.3951 98.7346 27.5401 98.5996C27.0951 98.9946 26.6451 99.3996 26.1851 99.7996C26.9851 100.25 27.6001 100.84 28.0101 101.58C28.3451 102.18 28.5051 102.815 28.5701 103.41C28.7101 103.3 28.8501 103.19 28.9951 103.08L30.3051 102.11C30.2851 101.225 30.0901 100.305 29.5201 99.6196L29.5151 99.6246Z" fill="#878787"/>
</svg>
