<svg width="128" height="128" viewBox="0 0 128 128" fill="none" xmlns="http://www.w3.org/2000/svg">
<path d="M64.41 79.1753C63.7 78.8853 63.1 78.5153 62.595 78.0903C62.345 78.4703 61.645 79.4103 60.705 79.7403C60.89 80.9253 60.605 82.1803 59.78 83.1103C59.7453 83.1624 59.7338 83.1815 59.685 83.2303C59.305 83.7153 58.94 84.1453 58.76 84.7353C58.285 85.9653 59.88 87.0303 60.875 86.3853C61.34 86.0403 61.405 85.2653 61.05 84.7703C60.645 84.1953 59.79 84.1553 59.71 85.0153C59.655 84.0453 60.725 84.0053 61.245 84.6203C61.715 85.1853 61.73 86.1353 61.13 86.6753C60.505 87.2053 59.615 87.0403 58.975 86.6453C58.305 86.2253 58.035 85.3253 58.28 84.5953C58.36 84.3203 58.48 84.0703 58.625 83.8403C58.225 83.9653 57.8 83.9753 57.385 83.7753C56.315 83.1603 55.835 81.3753 56.94 80.5853C58.335 79.5253 59.585 80.9853 58.095 82.0353C58.39 81.7953 58.67 81.4753 58.7 81.0953C58.725 80.7253 58.435 80.3503 58.065 80.3503C57.33 80.3353 56.6 80.9453 56.56 81.6603C56.53 82.3203 56.945 83.1453 57.54 83.4403C58.15 83.7203 58.92 83.2953 59.39 82.8303C59.39 82.8303 59.395 82.8253 59.4 82.8203C60.795 81.3103 60.69 79.0553 59.555 77.3753C60.055 77.9053 60.4 78.5603 60.585 79.2553C61.405 78.9403 62.035 78.0253 62.2 77.7653C61.24 76.8253 60.675 75.7253 60.365 74.8203C59.95 74.8753 59.315 75.1053 58.755 75.9203C57.845 77.2453 56.935 76.8403 56.935 76.8403C56.935 76.8403 56.24 77.6403 56.835 78.3153C56.835 78.3153 54.275 79.6053 55.12 86.4503C55.965 93.2953 46.49 102.54 41.32 105.085C38.68 106.385 35.97 108.865 22.83 110.995L19.81 111.665C19.81 111.665 19.335 111.255 18.945 112.27C18.91 112.36 18.86 112.445 18.805 112.52C18.665 112.795 18.38 113.415 18.365 114.02C18.355 114.495 18.605 114.995 18.985 115.26V115.27L19.465 115.605C19.465 115.605 20.285 115.37 20.475 114.69C20.665 114.01 24.76 113.79 24.76 113.79C24.76 113.79 42.16 111.34 49.53 105.575C56.9 99.8103 63.67 88.1753 63.67 88.1753C63.67 88.1753 64.62 86.0103 63.675 84.7853C62.715 84.4653 61.935 83.8453 61.175 83.2053C61.805 83.5903 62.455 83.9303 63.15 84.1603C63.215 84.1803 63.285 84.2003 63.35 84.2203C63.62 84.0803 63.99 83.7753 63.685 83.2103C63.685 83.2103 64.115 83.1703 63.965 82.8553C63.965 82.8553 63.635 82.6953 63.555 82.6353C63.555 82.6353 63.955 82.8753 64.11 82.7503C64.265 82.6253 64.285 82.5153 64.285 82.5153C64.285 82.5153 64.13 82.3603 64.2 82.2153C64.27 82.0703 64.29 81.9103 64.29 81.9103L64.925 81.8203C65.075 81.8203 65.095 81.5403 65.05 81.3953L64.395 79.2003L64.41 79.1753ZM49.16 103.11L48.81 102.75C56.335 95.4553 58.72 88.4903 58.74 88.4203L59.215 88.5803C59.19 88.6503 56.78 95.7203 49.16 103.11ZM63.775 79.9403C63.19 80.2553 62.535 79.8303 62.31 79.2753C62.65 79.3353 63.035 79.5203 63.34 79.5403C63.345 79.3553 63.305 79.1753 63.235 78.9703C63.595 79.0603 63.815 79.4403 63.785 79.8103L63.775 79.9353V79.9403Z" fill="white"/>
<path d="M16.43 112.82C16.175 112.79 15.78 112.865 15.155 113.155C13.24 114.04 12.145 116.035 12.145 116.035C12.145 116.035 12.145 118.055 13.75 117.545C14.855 117.195 15.96 116.29 16.54 115.765C16.01 114.49 16.285 113.28 16.43 112.815V112.82Z" fill="white"/>
<path d="M112.74 17.5451C112.57 17.4401 112.285 17.4401 111.915 17.5451C111.415 17.6901 111.05 17.8451 110.57 18.1201C110.555 18.1801 110.54 18.2401 110.525 18.3001L109.88 19.6501C111.13 18.5151 112.1 18.1951 112.595 18.1151L112.88 17.7301C112.865 17.6851 112.825 17.6051 112.735 17.5451H112.74Z" fill="white"/>
<path d="M115.045 12.3901C115.045 12.3901 111.785 14.1701 110.74 17.4601C111.075 17.2951 111.39 17.1751 111.775 17.0651C112.305 16.9151 112.72 16.9351 113.02 17.1351C113.095 17.1851 113.155 17.2401 113.2 17.3001L115.86 13.7051C115.86 13.7051 116.74 12.3301 115.04 12.3901H115.045Z" fill="white"/>
<path d="M112.925 18.5749V18.5849C112.925 18.5849 111.385 18.5299 109.195 21.0799L107.125 25.4049C107.125 25.4049 96.69 51.0099 93.59 54.0349C90.125 57.4149 87.67 61.7099 78.645 61.0599C71.74 60.5599 71.93 62.0849 72.4 62.8299C72.005 62.4299 71.325 62.0199 70.9 63.3349C70.605 64.2399 70.49 64.6799 70.45 64.8999C70.99 65.1699 71.56 65.5349 72.105 66.0149C72.15 65.9199 72.2 65.8949 72.25 65.8499C73.12 65.4849 74.065 65.7249 74.965 65.7099C75.675 65.7099 76.435 65.8299 77.1 65.5649C77.705 65.2699 78.155 64.5449 78.055 63.8649C77.96 63.1099 77.13 62.7799 76.445 62.7799C75.605 62.8249 75.61 63.9099 75.685 64.5449C75.575 63.8949 75.55 62.7549 76.44 62.6849C76.95 62.6749 77.485 62.7849 77.865 63.1399C78.68 63.9349 78.135 65.3399 77.22 65.8099C77.09 65.8599 76.96 65.8899 76.83 65.9249C77.15 66.5299 77.45 67.1499 77.64 67.8049C78.54 68.1599 81.26 69.0699 83.605 68.2449C86.46 67.2349 96.52 62.5499 102.495 46.2849C108.47 30.0149 110.98 23.7749 110.98 23.7749C110.98 23.7749 111.34 22.1999 112.8 20.7099C113.985 19.4949 113.25 18.7849 112.94 18.5649L112.925 18.5749ZM81.485 65.2549L81.395 64.7649C81.475 64.7499 89.485 63.2399 96.265 55.2649L96.645 55.5899C89.74 63.7049 81.56 65.2399 81.48 65.2549H81.485Z" fill="white"/>
<path d="M76.81 65.9399C75.425 66.2999 73.885 65.8399 72.525 66.2449C72.54 66.2399 72.555 66.1949 72.555 66.1649L72.445 66.3349C72.995 66.8899 73.485 67.5849 73.845 68.4349C73.865 68.4249 73.88 68.4149 73.9 68.4049L74.995 69.1499C75.06 69.1949 75.145 69.1449 75.14 69.0649L75.095 68.4449C75.095 68.4449 75.545 68.5799 75.695 68.8049C75.81 68.9799 75.99 68.4949 76.065 68.2649C76.02 68.4149 75.965 68.6599 76.06 68.6599C76.195 68.6599 76.88 68.5249 77.095 68.6449C77.22 68.7149 77.275 68.3749 77.3 68.0799C77.25 67.3549 77.035 66.6249 76.81 65.9399ZM74.625 67.5749C74.615 67.7449 74.46 67.9699 74.26 67.9099C74.35 67.7499 74.26 67.6899 74.235 67.5999C74.07 67.2549 73.925 66.9749 73.94 66.5199C74.395 66.6949 74.66 67.0999 74.625 67.5749Z" fill="white"/>
<path d="M67.135 71.95C67.855 72 68.555 71.845 69.205 71.555C69.38 71.475 69.555 71.385 69.71 71.29C69.97 71.06 70.24 70.83 70.52 70.6C70.8 70.37 70.685 69.94 70.345 69.89C70.145 69.86 69.945 69.81 69.75 69.75C70.465 69.85 71.175 69.75 71.845 69.51C72.045 69.44 72.245 69.35 72.42 69.255C72.6 69.14 72.78 69.03 72.97 68.925C72.255 67.165 70.915 66.225 69.835 65.73L68.445 67.13C68.105 67.47 68.235 68.065 68.695 68.21C69.06 68.325 69.445 68.395 69.83 68.405C69.305 68.48 68.77 68.45 68.25 68.335C67.73 68.22 67.2 68.385 66.83 68.755L66.455 69.13C66.215 69.37 66.29 69.79 66.605 69.915C67.06 70.095 67.54 70.2 68.03 70.215C67.44 70.3 66.835 70.25 66.255 70.095C65.89 70 65.505 70.095 65.24 70.36L64.62 70.985C64.28 71.33 64.39 71.925 64.84 72.095C65.29 72.265 65.745 72.36 66.22 72.375C65.64 72.46 65.05 72.415 64.48 72.27C63.91 72.125 63.315 72.295 62.905 72.71L62.425 73.19C62.21 73.41 62.28 73.79 62.57 73.895C63 74.055 63.46 74.155 63.92 74.165C63.18 74.27 62.415 74.165 61.705 73.91L61.6 74.015C61.4 74.215 61.335 74.51 61.435 74.77C61.875 75.91 62.775 77.365 64.6 78.175C64.71 77.93 64.86 77.62 65.045 77.27C65.13 77.11 65.01 76.91 64.825 76.925C64.51 76.945 64.35 76.825 63.835 76.725C64.555 76.74 64.54 76.79 65.175 76.475C65.34 76.39 65.505 76.295 65.655 76.195C65.89 75.81 66.155 75.395 66.455 74.965C66.57 74.8 66.425 74.585 66.23 74.625C65.8 74.705 65.365 74.725 64.935 74.675C65.655 74.635 66.335 74.4 66.945 74.035C67.1 73.94 67.25 73.835 67.39 73.73C67.755 73.28 68.16 72.815 68.605 72.355C68.72 72.235 68.63 72.04 68.465 72.05C68.02 72.08 67.57 72.05 67.14 71.945L67.135 71.95Z" fill="#878787"/>
<path d="M20.35 110.98L25.725 105.79L105.18 23.7248C105.18 23.7248 107.345 20.6698 109.19 19.0198C110.48 17.8648 112.01 17.4848 112.265 17.4448C113.18 17.3048 112.905 18.4148 112.905 18.4148C112.905 18.4148 112.75 18.0548 112.32 18.1848C111.62 18.3948 110.705 18.9398 110.24 19.2998C109.49 19.8848 106.83 23.1248 106.83 23.1248L107.84 22.8048L107.275 23.9248L106.04 24.3648C106.04 24.3648 105.895 25.2948 105.115 25.3448L43.415 88.9698L24.35 108.56C24.35 108.56 24.33 109.745 23.33 109.675L22.31 110.53L20.345 110.98H20.35Z" fill="#878787"/>
<path d="M18.77 115.35C18.77 115.35 16.98 117.225 16.74 114.53C16.5 111.84 18.54 112.41 18.54 112.41C18.54 112.41 16.925 114.45 18.775 115.345L18.77 115.35Z" fill="#878787"/>
</svg>
