<svg width="128" height="128" viewBox="0 0 128 128" fill="none" xmlns="http://www.w3.org/2000/svg">
<g clip-path="url(#clip0_268_8644)">
<path d="M43.0091 79.3425L41.9343 78.5153C40.9407 77.7516 40.0673 76.8519 39.3336 75.8359L38.5388 74.7369L75.1968 39.1552C75.1968 39.1552 75.7842 40.2937 77.1854 41.6973C78.5866 43.1009 79.6672 43.7607 79.6672 43.7607L43.0091 79.3425Z" fill="#878787"/>
<path d="M81.635 43.7278L81.4038 43.5897C80.222 42.8922 79.1243 42.0613 78.1634 41.0847C78.0534 40.9714 77.9402 40.8547 77.8302 40.7414C76.8892 39.7519 76.088 38.6332 75.4228 37.4278L75.2917 37.1926L95.137 17.9299C95.137 17.9299 97.5604 18.4061 99.32 20.219C101.08 22.032 101.484 24.4684 101.484 24.4684L81.6382 43.7311L81.635 43.7278Z" fill="#878787"/>
<path d="M17.037 94.5076L14.1511 97.3088C14.7227 98.3979 15.4775 99.5422 16.4609 100.555C17.4442 101.568 18.5753 102.367 19.6535 102.964L22.5395 100.163C21.4679 99.5592 20.3466 98.7707 19.3535 97.7476C18.3605 96.7245 17.612 95.6 17.037 94.5076Z" fill="#878787"/>
<path d="M20.2629 91.3762L17.377 94.1775C17.9486 95.2665 18.7034 96.4109 19.6868 97.424C20.6701 98.4371 21.8012 99.2356 22.8794 99.833L25.7654 97.0317C24.6938 96.4279 23.5725 95.6394 22.5794 94.6163C21.5864 93.5932 20.8378 92.4686 20.2629 91.3762Z" fill="#878787"/>
<path d="M10.5419 100.812L7.61592 103.652C8.15966 104.632 8.85415 105.634 9.73076 106.538C10.8403 107.681 12.1053 108.524 13.2883 109.143L16.131 106.383C15.0005 105.765 13.8106 104.946 12.7594 103.863C11.831 102.907 11.1079 101.842 10.5419 100.812Z" fill="#878787"/>
<path d="M13.8112 97.6384L10.8819 100.482C11.4412 101.518 12.1643 102.583 13.0927 103.54C14.1439 104.623 15.3404 105.442 16.4709 106.053L19.3136 103.294C18.242 102.69 17.1207 101.902 16.1276 100.878C15.1346 99.8554 14.3861 98.7308 13.8112 97.6384Z" fill="#878787"/>
<path d="M9.40082 106.858C8.52422 105.955 7.82963 104.959 7.27933 103.979L5.23981 105.958C4.74659 106.437 4.56596 107.098 4.81916 107.519L4.97296 107.777C5.95995 109.427 7.28942 110.797 8.9096 111.833L9.16337 111.994C9.57653 112.26 10.2424 112.099 10.7356 111.62L12.9517 109.469C11.7688 108.844 10.5072 107.991 9.40416 106.855L9.40082 106.858Z" fill="#878787"/>
<path d="M23.4922 88.2419L20.6062 91.0432C21.1779 92.1323 21.9327 93.2766 22.916 94.2897C23.8994 95.3028 25.0304 96.1013 26.1086 96.6987L28.9946 93.8975C27.9231 93.2936 26.8017 92.5051 25.8087 91.482C24.8156 90.4589 24.0671 89.3343 23.4922 88.2419Z" fill="#878787"/>
<path d="M26.8181 85.0134L23.9321 87.8147C24.5037 88.9037 25.2585 90.0481 26.2419 91.0612C27.2252 92.0743 28.3563 92.8728 29.4345 93.4702L32.3205 90.6689C31.2489 90.0651 30.1276 89.2766 29.1345 88.2535C28.1415 87.2304 27.393 86.1058 26.8181 85.0134Z" fill="#878787"/>
<path d="M30.144 81.7854L27.258 84.5866C27.8297 85.6757 28.5845 86.8201 29.5678 87.8332C30.5512 88.8463 31.6822 89.6448 32.7604 90.2422L35.6464 87.4409C34.5749 86.8371 33.4535 86.0485 32.4605 85.0254C31.4674 84.0023 30.7189 82.8778 30.144 81.7854Z" fill="#878787"/>
<path d="M33.4666 78.5603L30.5806 81.3615C31.1522 82.4506 31.907 83.595 32.8904 84.6081C33.8737 85.6212 35.0048 86.4197 36.083 87.0171L38.969 84.2158C37.8974 83.612 36.7761 82.8234 35.783 81.8003C34.79 80.7772 34.0415 79.6527 33.4666 78.5603Z" fill="#878787"/>
<path d="M36.2194 81.3831C37.2125 82.4062 38.3339 83.1947 39.4121 83.7921L41.6649 81.6054C42.2547 81.0329 42.3784 80.2268 41.9241 79.8587L40.7007 78.8651C40.0193 78.3097 39.4111 77.6832 38.8763 76.9855L37.9195 75.7331C37.5684 75.2713 36.7557 75.3676 36.1659 75.9401L33.9097 78.13C34.4814 79.2191 35.2362 80.3634 36.2195 81.3765L36.2194 81.3831Z" fill="#878787"/>
<path d="M100.512 20.1956L105.182 19.5591L111.945 8.04964L100.236 14.4636L99.4538 19.1322L100.509 20.1989L100.512 20.1956ZM101.082 14.9886L101.115 14.9562C101.781 15.5081 102.402 16.1019 103.017 16.7089C103.952 15.7112 105.33 14.464 106.28 13.5355C107.435 12.4853 108.611 11.1956 109.774 10.2802C107.615 12.5438 105.417 14.994 103.178 17.1809L103.001 17.3458C102.339 16.5772 101.677 15.8153 101.079 14.9918L101.082 14.9886Z" fill="white"/>
<path d="M86.4285 25.1013L88.6043 23.0153L88.4041 19.4751L77.621 13.7803L82.9921 24.7282L86.4285 25.1013ZM83.8903 20.6526C82.7794 19.3814 80.3977 16.9943 79.538 15.8419C81.0371 17.2863 82.6881 18.9005 84.1836 20.3679C84.6465 20.8182 85.1095 21.2685 85.5492 21.7349C85.8489 21.4569 86.2052 21.1305 86.4814 20.8883C86.8574 20.5621 87.2367 20.2394 87.6386 19.9333L87.671 19.9667C87.0245 20.8142 86.2736 21.6143 85.5558 22.3951C84.9762 21.838 84.4333 21.2453 83.8935 20.6559L83.8903 20.6526Z" fill="white"/>
<path d="M125.593 35.8039C119.894 35.6073 110.582 36.3422 100.287 27.2094L89.2825 37.8904C89.2825 37.8904 96.2227 52.4154 90.5091 64.2394C105.018 62.163 120.304 49.3124 125.593 35.8039ZM117.788 36.7451C114.501 46.6149 104.015 55.4086 93.5791 56.3665C103.816 53.9901 113.152 46.112 117.788 36.7451Z" fill="white"/>
</g>
<defs>
<clipPath id="clip0_268_8644">
<rect width="128" height="128" fill="white"/>
</clipPath>
</defs>
</svg>
