<svg width="128" height="128" viewBox="0 0 128 128" fill="none" xmlns="http://www.w3.org/2000/svg">
<path d="M17.045 114.385C17.055 114.67 17.25 114.95 17.71 115.21C17.395 114.995 17.135 114.72 17.045 114.385Z" fill="white"/>
<path d="M114.625 13.66C114.185 13.435 113.39 13.18 112.315 14.295C112.29 14.995 112.165 15.645 112.035 16.155C112.09 16.06 112.125 16.005 112.13 16C112.13 16 112.455 15.35 113.265 14.795C113.71 14.495 114.225 14.57 114.645 14.735C114.495 14.35 114.41 13.92 114.62 13.66H114.625Z" fill="white"/>
<path d="M111.635 17.5001L111.645 17.4301C111.65 17.3901 111.655 17.3601 111.66 17.3301C111.605 17.5551 111.555 17.7751 111.505 17.9851C111.56 17.8901 111.6 17.7351 111.635 17.5001Z" fill="white"/>
<path d="M69.695 83.3151C69.415 83.3151 69.16 83.3851 69.03 83.4251C68.915 83.4601 68.79 83.4801 68.67 83.4801C68.5 83.4801 68.335 83.4401 68.18 83.3701C44.85 102.99 21.01 111.895 21.01 111.895H20.985C19.175 112.705 17.495 113.69 17.51 114.14C17.53 114.735 18.66 115.17 19.285 115.345C19.94 115.165 20.765 114.73 21.2 113.705C21.2 113.705 46.165 102.175 52.245 98.8601C56.235 96.6851 63.56 91.3451 71.01 85.0551C70.79 83.3151 70.025 83.3101 69.7 83.3101L69.695 83.3151Z" fill="white"/>
<path d="M116.1 10.3451C115.045 9.80508 113.95 10.8801 113.95 10.8801C113.95 10.8801 112.685 12.0851 112.385 13.5601C113.67 12.5401 114.665 13.1051 115.03 13.3151C115.03 13.3151 115.035 13.3151 115.04 13.3201C115.51 12.9101 115.795 12.4701 115.795 12.4701C115.795 12.4701 117.155 10.8801 116.1 10.3451Z" fill="white"/>
<path d="M115.055 15.5202C114.79 15.3352 114.04 14.8752 113.555 15.2102C112.855 15.6902 112.57 16.2502 112.565 16.2552C112.545 16.2902 112.35 16.5752 112.21 17.0302C112.185 17.1102 112.185 17.1352 112.18 17.2052C112.175 17.2702 112.17 17.3552 112.145 17.5052L112.135 17.5702C112.09 17.8802 111.98 18.5702 111.36 18.6152C110.055 24.1652 109.79 25.7102 106.675 32.1002C101.475 42.7602 92.735 56.8902 84.635 66.9602C85.6 67.2452 86.965 67.8002 87.605 68.7752C97.17 56.9002 108.345 37.9252 110.875 28.1152C113.36 18.4752 113.395 17.9302 113.395 17.9302C113.395 17.9302 116.14 16.1352 115.06 15.5202H115.055Z" fill="white"/>
<path d="M15.77 115.185C15.62 114.855 15.585 114.525 15.595 114.235C14.86 114.755 13.89 115.61 13.865 116.475C13.825 117.875 14.77 117.805 14.77 117.805C14.77 117.805 15.785 117.42 16.005 116.56C16.08 116.275 16.215 116.075 16.365 115.925C16.1 115.72 15.9 115.475 15.77 115.185Z" fill="white"/>
<path d="M73.895 76.9601C74.155 77.2551 74.415 77.6151 74.64 78.0451C75.36 78.1051 76.17 78.2651 77.065 78.5601C77.015 77.5401 76.765 76.7301 76.44 76.1001C75.16 76.2351 74.315 76.6751 73.895 76.9551V76.9601Z" fill="#878787"/>
<path d="M76.18 74.8751C76.35 75.0751 76.52 75.3001 76.675 75.5551C77.35 75.5151 78.12 75.5551 78.995 75.7301C78.875 75.0501 78.66 74.4851 78.4 74.0151C77.265 74.2001 76.53 74.6251 76.18 74.8701V74.8751Z" fill="#878787"/>
<path d="M71.94 78.83C72.315 79.255 72.685 79.81 72.955 80.525C73.53 80.605 74.165 80.74 74.855 80.94C74.835 79.97 74.64 79.18 74.36 78.55C73.37 78.5 72.565 78.635 71.945 78.83H71.94Z" fill="#878787"/>
<path d="M76.045 81.8801C75.805 81.7851 75.565 81.7001 75.335 81.6201C75.315 81.9601 75.28 82.3101 75.22 82.6851C75.475 82.4401 75.745 82.1751 76.04 81.8801H76.045Z" fill="#878787"/>
<path d="M81.145 74.0798C80.305 73.9248 79.565 73.8998 78.93 73.9548C79.195 74.4798 79.41 75.1098 79.525 75.8548C80.05 75.9898 80.61 76.1748 81.2 76.4148C81.305 75.5148 81.27 74.7448 81.145 74.0848V74.0798Z" fill="#878787"/>
<path d="M80.73 71.7898C81.06 72.2798 81.355 72.8848 81.54 73.6348C82.08 73.7548 82.655 73.9248 83.27 74.1598C83.315 73.3498 83.24 72.6498 83.095 72.0548C82.2 71.8398 81.41 71.7648 80.73 71.7898Z" fill="#878787"/>
<path d="M81.015 73.5301C80.81 72.8201 80.505 72.2601 80.175 71.8301C79.395 71.9151 78.775 72.1151 78.32 72.3251C78.215 72.4301 78.11 72.5351 78.005 72.6401C78.22 72.8651 78.44 73.1351 78.645 73.4551C79.32 73.3751 80.11 73.3801 81.015 73.5351V73.5301Z" fill="#878787"/>
<path d="M72.61 80.9951C71.97 80.9251 71.41 80.9251 70.93 80.9701C71.23 81.6051 71.45 82.3901 71.51 83.3351C71.54 83.3851 71.57 83.4401 71.595 83.4951C71.975 83.4001 72.405 83.3301 72.885 83.3001C72.92 82.3901 72.81 81.6301 72.61 80.9951Z" fill="#878787"/>
<path d="M83.22 74.6799C82.67 74.4649 82.15 74.3049 81.66 74.1899C81.755 74.7649 81.78 75.4099 81.725 76.1349C82.275 75.5949 82.78 75.1049 83.22 74.6799Z" fill="#878787"/>
<path d="M70.16 80.56C70.09 80.45 70.015 80.345 69.94 80.25C69.795 80.41 69.65 80.565 69.515 80.72C69.705 80.66 69.925 80.605 70.16 80.56Z" fill="#878787"/>
<path d="M75.345 81.0951C75.69 81.2101 76.05 81.3401 76.425 81.4951C76.555 81.3601 76.69 81.2201 76.83 81.0801C76.99 80.3551 77.065 79.6951 77.075 79.1051C76.275 78.8351 75.545 78.6751 74.89 78.6001C75.16 79.2801 75.34 80.1051 75.345 81.1001V81.0951Z" fill="#878787"/>
<path d="M82 69.215C82.845 69.19 83.855 69.36 84.975 69.93C84.55 68.795 83.86 68.11 83.35 67.73C83.13 67.79 82.595 68.02 81.635 68.895C81.75 68.985 81.875 69.095 82.005 69.215H82Z" fill="#878787"/>
<path d="M85.75 70.9899C85.805 71.3299 85.84 71.6999 85.845 72.0899C86.005 71.8999 86.17 71.6799 86.33 71.4399C86.135 71.2749 85.94 71.1249 85.75 70.9849V70.9899Z" fill="#878787"/>
<path d="M76.955 76.0698C77.29 76.7698 77.535 77.6498 77.565 78.7398C77.92 78.8698 78.285 79.0248 78.66 79.1998C78.735 79.1198 78.81 79.0448 78.885 78.9698C79.1 77.9348 79.14 77.0448 79.07 76.2798C78.28 76.1098 77.57 76.0548 76.955 76.0748V76.0698Z" fill="#878787"/>
<path d="M72.415 80.4649C72.145 79.8399 71.795 79.3599 71.455 79.0049C71.23 79.0999 71.045 79.1949 70.885 79.2849C70.685 79.4799 70.48 79.6849 70.275 79.8999C70.41 80.0749 70.545 80.2699 70.675 80.4849C71.175 80.4249 71.755 80.4099 72.415 80.4699V80.4649Z" fill="#878787"/>
<path d="M85.21 72.7802C84.65 72.5352 84.125 72.3452 83.625 72.2002C83.745 72.7702 83.8 73.4202 83.77 74.1502C84.545 73.4052 85.06 72.9252 85.21 72.7852V72.7802Z" fill="#878787"/>
<path d="M79.58 76.3999C79.625 76.9849 79.605 77.6299 79.5 78.3449C80.015 77.8249 80.515 77.3299 80.98 76.8649C80.49 76.6699 80.02 76.5149 79.58 76.3999Z" fill="#878787"/>
<path d="M73.965 83.8348C73.75 83.8198 73.545 83.8098 73.345 83.8148C73.33 83.9998 73.305 84.1948 73.28 84.3948C73.48 84.2448 73.705 84.0648 73.965 83.8398V83.8348Z" fill="#878787"/>
<path d="M72.845 83.8301C72.46 83.8551 72.11 83.9151 71.795 83.9851C71.885 84.2651 71.96 84.5901 72.005 84.9701C72.005 84.9701 72.09 85.1501 72.71 84.7801C72.775 84.4451 72.82 84.1301 72.85 83.8301H72.845Z" fill="#878787"/>
<path d="M74.495 83.3649C74.53 83.3349 74.565 83.2999 74.6 83.2699C74.745 82.6099 74.82 82.0099 74.845 81.4649C74.225 81.2749 73.655 81.1499 73.135 81.0649C73.31 81.6949 73.405 82.4349 73.38 83.2849C73.73 83.2849 74.1 83.3149 74.5 83.3649H74.495Z" fill="#878787"/>
<path d="M85.595 70.2848C85.92 70.4898 86.255 70.7298 86.59 71.0098C86.905 70.4298 87.07 69.8098 86.775 69.3448C86.3 68.5998 85.075 68.1398 84.26 67.9048C84.77 68.4398 85.29 69.2098 85.595 70.2848Z" fill="#878787"/>
<path d="M70.95 82.7048C70.85 82.0448 70.66 81.4948 70.43 81.0298C69.68 81.1498 69.165 81.3698 68.875 81.5248C68.555 81.9798 68.385 82.3598 68.495 82.5548C68.495 82.5548 69.9 81.9248 70.95 82.6998V82.7048Z" fill="#878787"/>
<path d="M77.46 80.4299C77.74 80.1399 78.02 79.8549 78.29 79.5749C78.045 79.4649 77.8 79.3649 77.565 79.2749C77.555 79.6399 77.52 80.0199 77.46 80.4299Z" fill="#878787"/>
<path d="M80.345 71.2852C81.08 71.2302 81.94 71.2752 82.925 71.4902C82.64 70.7052 82.23 70.1302 81.83 69.7202C81.315 69.7502 80.88 69.8602 80.545 69.9752C80.45 70.0752 80.355 70.1752 80.255 70.2852C80.115 70.4402 79.97 70.6002 79.82 70.7552C79.99 70.9052 80.165 71.0752 80.34 71.2802L80.345 71.2852Z" fill="#878787"/>
<path d="M81.33 69.275C81.33 69.275 81.29 69.245 81.275 69.23C81.255 69.25 81.23 69.27 81.21 69.295C81.25 69.29 81.29 69.28 81.33 69.275Z" fill="#878787"/>
<path d="M74.08 78.0149C73.845 77.6149 73.575 77.2949 73.32 77.0449C72.725 77.5799 72.36 77.8999 72.36 77.8999C72.36 77.8999 72.2 78.0449 71.945 78.2799C72.525 78.1099 73.235 77.9999 74.08 78.0149Z" fill="#878787"/>
<path d="M83.48 71.6252C84.065 71.7852 84.69 72.0002 85.355 72.2902C85.36 71.6602 85.295 71.1052 85.18 70.6152C84.175 70.0152 83.255 69.7702 82.47 69.7202C82.86 70.2002 83.23 70.8252 83.48 71.6252Z" fill="#878787"/>
<path d="M76.145 75.6048C75.97 75.3498 75.79 75.1298 75.61 74.9448C75.155 75.3698 74.725 75.7698 74.335 76.1248C74.795 75.9098 75.395 75.7048 76.15 75.5998L76.145 75.6048Z" fill="#878787"/>
<path d="M78.1 73.5349C77.95 73.3249 77.8 73.1449 77.65 72.9849C77.275 73.3549 76.9 73.7149 76.535 74.0649C76.93 73.8649 77.45 73.6599 78.105 73.5299L78.1 73.5349Z" fill="#878787"/>
<path d="M79.76 71.3549C79.67 71.2649 79.585 71.1849 79.495 71.1099C79.38 71.2349 79.26 71.3599 79.14 71.4799C79.335 71.4299 79.54 71.3849 79.76 71.3499V71.3549Z" fill="#878787"/>
<path d="M114.775 13.7501C113.835 13.1101 112.905 13.7051 112.44 14.1701C111.975 14.6351 111.93 14.8351 111.34 15.7551C111.005 16.2851 110.36 16.9551 109.84 17.4601C109.54 17.4001 109.255 17.4851 109.13 17.7001C109.055 17.8301 109.05 17.9901 109.105 18.1451C109.075 18.1701 109.055 18.1901 109.055 18.1901L22.02 108.595C22.11 108.245 22.15 107.825 22.09 107.315L21.595 107.37C21.74 108.65 21.2 109.255 20.99 109.44C20.575 109.53 20.275 109.78 20.275 110.07C20.275 110.16 20.305 110.245 20.355 110.325L20.33 110.35C20.33 110.35 19.16 110.83 19.32 111.37C19.32 111.37 16.965 111.93 16.38 113.22C15.8 114.51 16.305 115.185 16.305 115.185C16.305 115.185 17.385 116.56 18.16 115.46L17.505 114.99C17.505 114.99 16.77 114.55 17.205 113.68C17.64 112.81 19.5 112.07 19.5 112.07L20.435 111.625C20.435 111.625 20.875 111.565 20.885 110.97C20.885 110.97 21.055 110.875 21.26 110.735C21.285 110.735 21.31 110.735 21.335 110.735C21.925 110.735 22.4 110.435 22.4 110.065C22.4 109.925 22.33 109.795 22.215 109.685L109.16 19.4851C109.145 19.8201 109.23 20.1451 109.53 20.3651L109.825 19.9601C109.53 19.7401 109.67 19.2051 109.85 18.7901C110.175 18.8701 110.485 18.7901 110.62 18.5601C110.71 18.4051 110.7 18.2151 110.615 18.0301C110.775 17.9951 111.205 17.9051 111.515 17.9251C111.585 17.6901 111.975 16.4351 112.095 16.1901C112.065 15.7001 113.015 14.7251 113.685 14.6101C114.45 14.4801 115.145 14.9651 115.145 14.9651C115.145 14.9651 115.715 14.3801 114.775 13.7401V13.7501Z" fill="#878787"/>
</svg>
