<svg width="128" height="128" viewBox="0 0 128 128" fill="none" xmlns="http://www.w3.org/2000/svg">
<path d="M22.58 115.875L22.59 115.865L14.95 108.635L14.935 108.65L13.895 107.665C13.435 107.225 12.705 107.245 12.265 107.71L12.2 107.78C11.74 108.27 11.76 109.035 12.245 109.5L21.79 118.535C22.26 118.98 23.005 118.96 23.45 118.49L23.58 118.355C24.005 117.91 23.985 117.2 23.535 116.78L22.58 115.88V115.875Z" fill="#878787"/>
<path d="M47.0999 89.6901L39.3399 82.4201C38.7849 81.9701 37.9649 82.0151 37.4699 82.5451L37.3299 82.6951C36.8499 83.2051 36.8449 83.9851 37.2849 84.5101L44.6399 91.4001L44.6499 91.3901L45.2349 91.9251C45.7699 92.4101 46.5949 92.3801 47.0899 91.8551L47.2449 91.6901C47.7449 91.1601 47.7149 90.2701 47.1849 89.7701L47.1049 89.6951L47.0999 89.6901Z" fill="#878787"/>
<path d="M22.9249 115.495L44.2999 91.7699L37.6549 85.5449L15.2999 108.28L22.9249 115.495Z" fill="#878787"/>
<path d="M65.255 57.6099L40.29 82.6299L46.95 88.8649L70.105 62.3399L65.255 57.6099Z" fill="#878787"/>
<path d="M72.6 59.6497L86.325 45.1497C85.45 44.5947 83.905 43.3997 81.86 40.9697L68.075 55.2347L72.6 59.6497Z" fill="#878787"/>
<path d="M72.9 60.6449L72.245 60.0249L72.255 60.0149L66.86 54.7549C66.34 54.4549 65.665 54.5299 65.235 54.9849L65.19 55.0349C64.7 55.5499 64.715 56.3499 65.2 56.8599L65.52 57.1699L65.61 57.2549L70.435 61.9599L70.45 61.9449L71.285 62.7349C71.775 63.1999 72.645 63.1499 73.11 62.6599L73.14 62.6299C73.62 62.1249 73.605 61.3349 73.12 60.8449L72.91 60.6399L72.9 60.6449Z" fill="#878787"/>
<path d="M111.3 20.6699L103.965 13.7299C103.895 13.6599 103.89 13.5499 103.96 13.4799L104.32 13.0949C106.16 11.1499 109.23 11.0649 111.175 12.9049L111.735 13.4349C113.675 15.2699 113.755 18.3299 111.925 20.2649L111.55 20.6599C111.48 20.7299 111.37 20.7349 111.3 20.6649V20.6699Z" fill="#878787"/>
<path d="M98.565 10.1899L90.37 11.2049C91.035 13.6749 86.275 20.5199 86.275 20.5199C89.625 24.3649 86.48 32.5499 86.48 32.5499C86.48 32.5499 83.44 27.4049 81.155 31.4349C78.87 35.4649 82.57 40.2399 82.57 40.2399L82.555 40.2549C84.725 42.8499 86.295 43.9799 87.025 44.4199C90.985 46.4499 92.99 47.0349 95.805 45.3749C99.875 42.9749 94.73 40.6799 94.73 40.6799C99.515 35.8849 106.75 39.7749 106.75 39.7749C108.515 37.2599 115.365 34.8199 115.365 34.8199L116.09 26.7949L98.555 10.1999L98.565 10.1899ZM90.43 25.0349C91.01 24.3549 91.58 23.6599 92.125 22.9499C93.8 20.9299 94.87 18.5499 95.93 16.1699C97.97 15.7599 100.025 15.3949 102.095 15.2099L102.12 15.3049C100.335 15.9949 98.5 16.5349 96.65 17.0299C95.44 20.1549 93.355 22.8199 91.07 25.2349C91.335 28.2049 90.61 31.1649 89.375 33.8449L89.285 33.8049C90.365 31.0449 90.89 27.9649 90.43 25.0299V25.0349ZM84.065 37.5999C83.855 38.3499 83.71 39.1149 83.55 39.8849L83.45 39.8749C83.525 37.9349 83.5 34.6599 85.345 33.4899C86.53 32.9249 87.76 33.9549 88.11 35.0149L88.03 35.0749C87.445 34.7399 86.76 34.2799 86.13 34.3299C84.775 34.6599 84.435 36.3999 84.06 37.5949L84.065 37.5999ZM84.86 41.1199C84.8 41.1199 84.74 41.0999 84.69 41.0549C84.59 40.9599 84.585 40.8049 84.675 40.6999L105.35 18.3399C105.445 18.2399 105.6 18.2349 105.705 18.3249C105.805 18.4199 105.81 18.5749 105.72 18.6799L85.045 41.0399C84.995 41.0949 84.93 41.1199 84.86 41.1199ZM85.98 42.1799C85.92 42.1799 85.855 42.1599 85.81 42.1099C85.71 42.0149 85.705 41.8549 85.8 41.7549L106.735 19.6399C106.83 19.5399 106.99 19.5349 107.09 19.6299C107.19 19.7249 107.195 19.8849 107.1 19.9849L86.165 42.0999C86.115 42.1499 86.05 42.1799 85.985 42.1799H85.98ZM93.565 41.0899C92.515 42.9849 89.215 43.1549 87.295 43.3349L87.28 43.2349C88.04 43.0349 88.8 42.8449 89.535 42.5949C90.705 42.1549 92.43 41.7199 92.68 40.3499C92.695 39.7199 92.2 39.0599 91.83 38.4949L91.885 38.4099C92.965 38.7049 94.06 39.8749 93.56 41.0899H93.565ZM109.75 29.4599C107.435 30.6449 105.115 31.8449 103.19 33.6299C102.515 34.2149 101.845 34.8199 101.2 35.4349L101.055 35.4199C98.14 35.1699 95.15 35.8499 92.5 37.0599L92.455 36.9699C94.435 35.9049 96.6 35.1649 98.84 34.8899C99.545 34.8099 100.235 34.7649 100.965 34.7999C102.135 33.5899 103.32 32.4349 104.63 31.3649C105.94 30.3349 107.345 29.4899 108.845 28.7849C109.24 26.9249 109.685 25.0749 110.275 23.2649L110.375 23.2849C110.3 25.3549 110.045 27.4099 109.745 29.4599H109.75Z" fill="white"/>
</svg>
