<svg width="128" height="128" viewBox="0 0 128 128" fill="none" xmlns="http://www.w3.org/2000/svg">
<g clip-path="url(#clip0_268_8642)">
<path d="M35.0253 93.6738L36.0511 95.1912C36.9966 96.592 38.1093 97.8755 39.3618 99.0101L40.7183 100.241L103.711 45.6318L101.746 43.8739C101 43.2038 100.337 42.4474 99.7677 41.6237L98.0144 39.0682L35.0214 93.6772L35.0253 93.6738Z" fill="#878787"/>
<path d="M107.05 30.7178C107.645 30.7122 108.16 30.3759 108.447 29.8719L111.165 30.9706C111.134 31.5077 111.247 32.0513 111.505 32.5314C112.568 34.4984 115.251 34.6897 116.583 32.8935C117.254 31.9883 117.347 30.7353 116.808 29.7476C116.217 28.6528 115.122 28.113 114.044 28.1507C114.023 28.1418 114.002 28.1255 113.98 28.1166L110.465 26.6951C110.685 26.5113 110.915 26.3393 111.167 26.1836C113.33 24.853 116.19 25.1455 118.059 26.8633C120.644 29.2491 120.527 33.2743 117.944 35.5133C117.062 36.2778 116.011 36.7274 114.937 36.8724C114.191 36.9744 113.597 37.5378 113.506 38.2849L113.406 39.1162C113.352 39.5704 113.13 39.9904 112.787 40.2873L107.161 45.1646C106.394 45.8302 105.232 45.7474 104.567 44.9796L102.599 43.2104C101.824 42.5162 101.142 41.7288 100.564 40.8639L99.0922 38.6646C98.4266 37.8969 98.5094 36.7355 99.2771 36.07L104.931 31.1688C105.261 30.8821 105.683 30.7238 106.122 30.7219L107.054 30.7144L107.05 30.7178Z" fill="#878787"/>
<path d="M29.2067 112.806L25.7972 115.762C24.2664 114.593 22.6471 113.162 21.1659 111.454C19.6846 109.745 18.4813 107.919 17.5557 106.239L20.9652 103.283C21.9055 104.965 23.0951 106.774 24.5832 108.491C26.0713 110.208 27.6725 111.633 29.2067 112.806Z" fill="#878787"/>
<path d="M33.0178 109.502L29.6083 112.458C28.0775 111.289 26.4582 109.858 24.9769 108.15C23.4956 106.441 22.2924 104.616 21.3668 102.935L24.7763 99.9797C25.7165 101.661 26.9062 103.471 28.3943 105.187C29.8824 106.904 31.4836 108.329 33.0178 109.502Z" fill="#878787"/>
<path d="M21.5334 119.458L18.0766 122.455C16.6989 121.367 15.2736 120.065 13.9561 118.545C12.294 116.628 11.0059 114.593 10.0359 112.758L13.3943 109.847C14.3581 111.611 15.5992 113.528 17.1761 115.347C18.5686 116.953 20.0853 118.321 21.5334 119.458Z" fill="#878787"/>
<path d="M25.3957 116.11L21.935 119.11C20.4824 117.984 18.9657 116.616 17.5698 115.006C15.9896 113.183 14.7524 111.263 13.7959 109.499L17.1542 106.588C18.0944 108.269 19.2841 110.079 20.7722 111.795C22.2602 113.512 23.8614 114.937 25.3957 116.11Z" fill="#878787"/>
<path d="M13.5664 118.883C14.8804 120.399 16.3018 121.704 17.679 122.8L15.2695 124.888C14.6869 125.393 13.8216 125.406 13.2254 124.909L12.8626 124.61C10.5329 122.678 8.53627 120.375 6.9512 117.791L6.70649 117.389C6.30267 116.732 6.43407 115.874 7.01676 115.369L9.6349 113.099C10.6156 114.938 11.9082 116.962 13.5669 118.875L13.5664 118.883Z" fill="#878787"/>
<path d="M36.8328 106.195L33.4233 109.151C31.8925 107.982 30.2732 106.551 28.7919 104.843C27.3107 103.134 26.1074 101.308 25.1818 99.6283L28.5913 96.6726C29.5316 98.3538 30.7212 100.164 32.2093 101.88C33.6974 103.597 35.2986 105.022 36.8328 106.195Z" fill="#878787"/>
<path d="M32.6029 101.539C31.1114 99.8183 29.9184 98.0046 28.9928 96.3244L31.6543 94.0172C32.3511 93.4131 33.4177 93.5298 33.9628 94.2778L35.4401 96.3002C36.2648 97.4265 37.1795 98.4816 38.1774 99.4577L39.9697 101.207C40.6329 101.853 40.5971 102.925 39.9002 103.529L37.2348 105.84C35.704 104.671 34.0847 103.24 32.6035 101.531L32.6029 101.539Z" fill="#878787"/>
<path d="M100.188 25.3263L100.186 25.3312C99.9687 26.032 99.2241 26.4236 98.5234 26.2059L91.3431 23.9753C90.6423 23.7576 90.2507 23.013 90.4684 22.3123L90.47 22.3073C90.6877 21.6065 91.4322 21.2149 92.133 21.4326L99.3133 23.6632C100.014 23.8809 100.406 24.6255 100.188 25.3263Z" fill="white"/>
<path d="M114.489 30.3219L114.487 30.3267C114.212 31.0071 113.438 31.3357 112.757 31.0607L104.603 27.7648C103.923 27.4898 103.594 26.7154 103.869 26.035L103.871 26.0302C104.146 25.3499 104.92 25.0212 105.601 25.2962L113.755 28.5921C114.435 28.8671 114.764 29.6416 114.489 30.3219Z" fill="white"/>
<path d="M87.897 21.3311L87.8955 21.3361C87.6778 22.0369 86.9332 22.4285 86.2325 22.2108L79.0522 19.9802C78.3514 19.7625 77.9598 19.0179 78.1775 18.3171L78.1791 18.3122C78.3968 17.6114 79.1413 17.2198 79.8421 17.4375L87.0224 19.6681C87.7231 19.8858 88.1147 20.6304 87.897 21.3311Z" fill="white"/>
<path d="M105.827 24.8207C105.518 24.6953 105.191 24.6683 104.885 24.713L100.556 23.3701C100.299 23.289 100.038 23.2667 99.7781 23.2925C99.6891 23.2455 99.5956 23.2093 99.4982 23.1765L97.066 22.4232C98.0978 21.3701 99.6743 20.9137 101.177 21.3828L105.561 22.748C106.598 23.0695 107.445 23.7763 107.952 24.7433C108.141 25.0966 108.27 25.4677 108.343 25.846L105.829 24.832L105.827 24.8207Z" fill="white"/>
<path d="M98.3933 26.7065C98.4873 26.7354 98.575 26.749 98.67 26.7632C98.8682 26.9362 99.1024 27.0711 99.3736 27.1532L103.757 28.5184C104.183 28.6522 104.617 28.6277 105.011 28.4859L107.305 29.4141C106.271 30.5039 104.674 30.9847 103.142 30.5135L98.7585 29.1483C98.0106 28.914 97.3764 28.4846 96.8985 27.9334C96.4207 27.3822 96.0935 26.6866 95.9685 25.9537L98.4007 26.7071L98.3933 26.7065Z" fill="white"/>
<path d="M92.3183 20.9398C92.2532 20.9203 92.1909 20.9122 92.1327 20.9007C92.1258 20.8928 92.119 20.8849 92.1122 20.8771C91.8767 20.6054 91.5703 20.3952 91.2052 20.2842L86.822 18.919C86.5944 18.8474 86.3631 18.8272 86.1298 18.8364L83.329 17.9682C84.3608 16.9151 85.9373 16.4587 87.4404 16.9278L91.8236 18.293C93.3919 18.7816 94.4478 20.1349 94.6491 21.6637L92.3183 20.9398Z" fill="white"/>
<path d="M85.0023 22.3721C85.1908 22.5259 85.4079 22.6411 85.6428 22.7132L90.026 24.0784C90.2247 24.1406 90.4226 24.1621 90.6187 24.1576C90.797 24.2996 90.996 24.4099 91.2162 24.481L93.388 25.1566C92.3552 26.1209 90.8456 26.5193 89.4075 26.0696L85.0244 24.7044C84.2765 24.4701 83.6422 24.0407 83.1644 23.4895C82.6865 22.9384 82.3594 22.2428 82.2304 21.5133L85.0057 22.376L85.0023 22.3721Z" fill="white"/>
<path d="M60.2493 12.13C61.4003 9.66342 63.4845 7.62901 66.2459 6.61433C66.9893 6.34227 67.7371 6.16288 68.4905 6.06145L70.4089 2.36412L72.265 6.22343C75.1482 6.86853 77.7068 8.69834 79.2262 11.3738L83.1034 11.8054L80.4297 14.6473C81.0688 17.9618 80.0907 21.3199 77.9262 23.7549L78.8497 27.6918L75.0531 26.0249C74.5996 26.2733 74.1329 26.4985 73.636 26.681C71.5345 27.4547 69.3539 27.5245 67.3328 27.0148L64.3289 29.7223L63.9508 25.4919C62.1609 24.2784 60.7122 22.5277 59.9076 20.3427C59.2705 18.6056 59.1067 16.8098 59.3617 15.0993L56.814 12.8049L60.2493 12.13ZM74.8696 19.8949C72.0139 20.5225 75.7291 20.5842 76.6513 20.4467C76.3262 19.5149 75.9672 18.5917 75.3056 17.8206C75.2907 18.4955 75.4113 19.1357 75.5957 19.762C75.3534 19.7928 75.1066 19.8343 74.8662 19.891L74.8696 19.8949ZM63.1565 20.1052C64.1137 20.3582 65.0813 20.5675 66.0832 20.4505C65.5311 20.0603 64.9323 19.8071 64.3073 19.6111C64.4151 19.3934 64.5201 19.1645 64.6064 18.938C65.6724 16.2141 63.5525 19.2654 63.1526 20.1086L63.1565 20.1052ZM68.3177 11.6452C68.8051 11.1812 69.1723 10.6423 69.4867 10.0663C69.6791 10.2167 69.8795 10.3603 70.0916 10.4936C72.5538 12.069 69.9741 9.39555 69.2233 8.83967C68.7942 9.72882 68.3969 10.6387 68.3177 11.6452Z" fill="white"/>
</g>
<defs>
<clipPath id="clip0_268_8642">
<rect width="128" height="128" fill="white"/>
</clipPath>
</defs>
</svg>
