<svg width="128" height="128" viewBox="0 0 128 128" fill="none" xmlns="http://www.w3.org/2000/svg">
<path d="M111.656 25.1893C106.356 31.2817 54.6981 82.4149 47.7219 89.3203C46.427 86.079 45.0725 82.4134 44.8785 81.1154C52.6431 73.5915 112.546 15.4092 114.809 9.58955C114.809 9.58955 117.346 18.6528 111.656 25.1893Z" fill="white"/>
<path d="M24.3968 105.252C25.3349 104.137 27.2721 103.866 30.1383 104.425L24.2624 109.954C24.067 109.456 23.1131 106.776 24.3968 105.252Z" fill="#878787"/>
<path d="M32.7044 98.9378C31.9614 100.051 29.9043 100.333 26.7182 99.7872C28.4653 98.1083 30.3061 96.3134 32.0676 94.5844C32.7259 95.8124 33.5066 97.7391 32.7044 98.9328L32.7044 98.9378Z" fill="#878787"/>
<path d="M36.8403 92.9479C36.4155 93.4375 36.2774 94.0741 36.2844 94.724C36.3002 96.1939 37.0818 97.7406 37.1279 97.8351C37.1279 97.8351 37.1279 97.8401 37.133 97.8451L30.5937 103.996C27.3361 103.306 25.1092 103.61 24.0033 104.922C23.396 105.643 23.2108 106.555 23.2201 107.42C23.2355 108.855 23.7846 110.159 23.8255 110.244C23.8358 110.274 23.856 110.294 23.8763 110.318L22.1239 111.967C21.7378 111.406 21.3215 110.816 20.8598 110.196C20.1443 109.228 19.3685 108.227 18.5929 107.245C19.7193 106.433 22.759 103.6 26.263 100.232C29.9205 100.913 32.2321 100.578 33.1376 99.2281C34.1169 97.7625 33.1828 95.5274 32.4586 94.2101C36.2736 90.4689 39.6477 87.1124 40.7708 85.9953C41.5862 87.8866 42.688 90.3799 43.3901 91.9625L42.5931 92.7161C39.6835 91.8373 37.7442 91.9082 36.8454 92.9529L36.8403 92.9479Z" fill="#878787"/>
<path d="M37.2289 93.2835C37.95 92.4457 39.6495 92.3975 42.1574 93.1155L37.524 97.4756C37.2578 96.9034 36.2166 94.4645 37.2289 93.2835Z" fill="#878787"/>
<path d="M20.4431 110.5C20.915 111.14 21.3465 111.745 21.7427 112.321L21.7428 112.326C21.7428 112.326 21.7479 112.336 21.763 112.351C21.8291 112.45 21.9002 112.549 21.9662 112.648C22.1403 113.022 22.2026 113.701 21.1873 114.617C21.1873 114.617 19.7039 116.163 18.4276 117.442C17.1957 118.675 15.8721 118.804 14.6836 117.097C12.7233 114.288 11.5327 112.381 14.0322 109.994C16.3882 107.743 17.1256 106.57 18.0545 107.395C18.8706 108.422 19.6921 109.483 20.4431 110.5ZM16.5556 110.292L14.9527 111.894C14.7499 112.096 14.6724 112.327 14.675 112.572C14.6795 112.987 14.9195 113.454 15.1994 113.911L16.4001 115.829C16.6022 116.026 16.91 116.283 17.2791 116.194C17.5235 116.136 17.7065 115.949 17.9192 115.737L19.7292 113.868C20.2684 113.327 19.8704 112.586 19.4877 111.87L18.4771 110.426C18.1515 109.899 17.7951 109.773 17.5499 109.756C17.1946 109.735 16.8516 109.918 16.5456 110.297L16.5556 110.292Z" fill="#878787"/>
<path d="M18.05 110.701L18.0602 110.716L19.0555 112.14C19.4485 112.876 19.6127 113.264 19.3703 113.507L17.59 115.351C17.4169 115.528 17.2734 115.67 17.1686 115.691C17.0838 115.712 16.9581 115.643 16.7914 115.485L15.6415 113.642C15.1785 112.897 15.0892 112.498 15.3216 112.26L16.9393 110.638C17.1465 110.381 17.3502 110.259 17.5254 110.272C17.7505 110.284 17.933 110.512 18.05 110.701Z" fill="#878787"/>
<path d="M43.921 78.5606C43.921 78.5606 43.3798 80.7765 43.9658 81.7953C44.568 84.3189 46.8127 89.8601 47.5982 91.7668C48.2283 93.6301 48.8041 96.4991 46.8284 97.3704C43.8274 98.6877 44.7206 95.2629 44.7206 95.2629C44.7206 95.2629 44.959 93.7153 44.2166 92.5682C43.5864 91.1549 42.1311 87.8753 41.1516 85.6007C41.1516 85.6007 37.7851 77.5815 40.5922 76.8262C43.3993 76.076 43.911 78.5607 43.911 78.5607L43.921 78.5606Z" fill="#878787"/>
</svg>
