<svg width="128" height="128" viewBox="0 0 128 128" fill="none" xmlns="http://www.w3.org/2000/svg">
<path d="M83.4401 87.3949C79.9551 86.9949 76.4251 85.3549 73.6851 83.7349C72.5851 84.9149 71.4201 86.1899 70.2051 87.5549C73.0651 89.2099 76.7551 90.8749 80.2751 91.0949C81.3251 89.9099 82.3801 88.6699 83.4401 87.3899V87.3949Z" fill="#878787"/>
<path d="M88.705 80.5147C86.055 78.9897 84.34 77.1797 83.49 76.1247C83.11 75.6497 82.815 75.2247 82.58 74.8447C81.85 75.5097 80.335 76.9247 78.29 78.9747C80.905 80.4747 84.185 81.9547 87.39 82.3447C87.835 81.7397 88.275 81.1297 88.71 80.5147H88.705Z" fill="#878787"/>
<path d="M86.8799 83.0199C83.6149 82.5399 80.3449 81.0199 77.7549 79.5049C76.6849 80.5849 75.4899 81.8149 74.1899 83.1949C76.9799 84.8099 80.5549 86.4249 83.9949 86.7099C84.9649 85.5149 85.9299 84.2799 86.8799 83.0199Z" fill="#878787"/>
<path d="M82.73 73.965C82.97 74.375 83.29 74.87 83.745 75.43C84.565 76.45 86.2 78.255 88.78 79.725C89.345 79.975 91.41 81.425 92.52 79.35C93.315 77.865 92.96 76.85 92.96 76.85C92.96 76.85 92.28 76.57 92.3 76.565C91.965 76.385 91.6 76.175 91.195 75.91C89.92 75.065 87.585 73.22 85.675 70.125C85.665 70.215 81.51 69.69 82.725 73.965H82.73Z" fill="#878787"/>
<path d="M62.305 97.0498C61.625 97.9248 60.945 98.8148 60.26 99.7248C61.51 102.545 63.49 103.85 64.69 104.41C65.325 104.705 65.91 104.87 66.415 104.965C67.3 104.19 69.18 102.515 71.61 100.16C68.365 99.9298 65.035 98.5448 62.305 97.0498Z" fill="#878787"/>
<path d="M65.875 105.56C65.425 105.45 64.925 105.285 64.4 105.035C63.775 104.74 62.945 104.26 62.11 103.5C61.21 102.68 60.3 101.525 59.605 99.9351C59.045 99.7851 57.905 99.8201 56.43 101.64C54.06 104.565 57.37 107.785 57.37 107.785C57.37 107.785 59.795 110.12 61.46 110.08C62.87 110.045 66.605 108.68 65.875 105.56Z" fill="#878787"/>
<path d="M76.02 95.725C72.535 95.565 68.925 94.035 66.04 92.415C64.965 93.71 63.87 95.06 62.77 96.465C65.605 97.995 69.06 99.39 72.335 99.46C73.475 98.345 74.715 97.09 76.025 95.725H76.02Z" fill="#878787"/>
<path d="M90.215 64.5249C88.755 65.4799 86.79 67.1399 86.145 69.4049L86.165 69.3949C88.065 72.7699 90.55 74.7249 91.86 75.5949C92.475 75.9999 93.005 76.2799 93.44 76.4799C94.535 75.9349 96.465 74.5999 98.275 71.5649C98.16 71.3999 98.035 71.2299 97.905 71.0549C96.68 69.4199 94.215 66.6949 90.215 64.5249Z" fill="#878787"/>
<path d="M79.6651 91.7897C76.1201 91.4347 72.5101 89.7597 69.7201 88.1147C68.6801 89.2947 67.6101 90.5397 66.5151 91.8447C69.4951 93.4897 73.2251 95.0247 76.7051 95.0097C77.6651 93.9947 78.6601 92.9147 79.6651 91.7897Z" fill="#878787"/>
<path d="M30.6101 96.1247C30.5801 96.1247 30.5551 96.1297 30.5301 96.1347C30.5301 96.1347 30.9901 91.6997 26.1351 86.7197C21.2801 81.7397 12.2401 84.4097 12.2401 84.4097C12.2401 84.4097 10.6551 92.3547 16.4851 97.6647C19.7401 100.63 22.8901 101.365 25.0401 101.435C26.5001 101.485 27.9301 101.05 29.1301 100.215L29.9151 99.6697C30.5901 99.2047 30.7051 97.4347 30.6151 96.1197L30.6101 96.1247ZM18.6601 94.4747C20.4251 96.3847 22.8901 97.4947 25.3101 98.3747C24.6701 98.2247 24.0251 98.0697 23.3851 97.8997C21.4801 97.2847 19.6301 96.3597 18.1701 94.9597C16.0801 92.9697 14.9801 90.0147 15.4451 87.1097C21.5151 86.2097 26.1101 90.3097 27.4451 96.0297C25.6001 91.1597 21.6851 87.3947 16.2651 87.9447C16.0701 90.2997 17.0501 92.7347 18.6651 94.4697L18.6601 94.4747Z" fill="white"/>
<path d="M109.755 65.3849C107.545 64.9249 104.215 66.2699 104.215 66.2699C104.215 66.2699 107.845 63.2449 113.37 62.4699C113.37 62.4699 115.365 61.8199 112.85 61.4399C110.335 61.0599 104.71 64.3349 104.71 64.3349C104.71 64.3349 109.375 59.8249 114.65 58.6649C114.65 58.6649 116.405 57.4799 114.025 57.3399C111.645 57.1999 105.79 61.6199 105.79 61.6199C105.79 61.6199 109.885 57.4299 113.6 56.6749C113.6 56.6749 114.6 55.2599 111.95 55.7749C110.6 56.0349 110.08 56.3799 109.03 56.8549C112.56 52.8549 121.215 41.2149 115.64 28.4849C108.74 12.7299 92.0402 13.6749 92.0402 13.6749C92.0402 13.6749 76.2302 12.3299 60.5702 31.0999C44.9102 49.8649 47.5702 70.2799 47.5702 70.2799C47.5702 70.2799 48.7752 93.4949 31.3002 96.0499C31.3402 96.6249 31.3702 97.5549 31.2202 98.4199C32.4752 98.1299 40.8052 96.0249 44.4752 90.6249C48.4502 84.7749 49.8352 77.8349 50.0202 70.2049C50.2052 62.5749 51.9702 46.0549 63.1202 34.6649C71.3502 26.2549 88.2102 11.2349 105.255 23.8899C122.3 36.5499 99.2402 59.2449 99.2402 59.2449C99.2402 59.2449 103.5 52.1449 103.855 48.1699C103.855 48.1699 103.27 46.9549 102.515 48.5749C101.755 50.1949 103.12 49.5649 96.8452 59.6049C96.8452 59.6049 100.85 49.1749 99.6702 46.0999C98.2002 42.2549 97.8802 48.8099 97.8802 48.8099C97.8802 48.8099 96.7752 56.3199 94.6252 60.6899C94.6252 60.6899 96.5552 54.2899 95.8252 50.2849C95.0952 46.2799 93.8552 50.4799 93.8552 50.4799C93.8552 50.4799 94.0652 59.5049 91.5052 63.5799L93.2002 64.7149C94.7652 65.7649 96.2052 66.9899 97.4902 68.3699L99.0602 70.0599C99.0602 70.0599 100.515 70.0349 102.39 68.6749C104.265 67.3149 108.01 66.8699 108.01 66.8699L110.065 66.7549C110.065 66.7549 111.84 65.8299 109.75 65.3949L109.755 65.3849Z" fill="white"/>
</svg>
