<svg width="128" height="128" viewBox="0 0 128 128" fill="none" xmlns="http://www.w3.org/2000/svg">
<path d="M94.3499 17.58C94.2199 17.445 94.1249 17.27 94.0949 17.07C94.0149 16.56 94.3649 16.085 94.8699 16.005L100.17 15.175C100.68 15.095 101.155 15.445 101.235 15.95C101.315 16.46 100.965 16.935 100.46 17.015L95.1599 17.845C94.8499 17.895 94.5549 17.785 94.3499 17.575V17.58Z" fill="white"/>
<path d="M86.8509 22.6296C86.8209 22.5996 86.7909 22.5646 86.7659 22.5296C86.4609 22.1146 86.5459 21.5296 86.9609 21.2246L91.2759 18.0396C91.6909 17.7346 92.2809 17.8196 92.5809 18.2346C92.8859 18.6496 92.8009 19.2346 92.3859 19.5396L88.0709 22.7246C87.6909 23.0046 87.1709 22.9546 86.8509 22.6296Z" fill="white"/>
<path d="M106.425 44.4251C106.07 44.0651 106.07 43.4851 106.425 43.1201L110.165 39.2751C110.525 38.9051 111.115 38.9001 111.485 39.2551L111.5 39.2701C111.855 39.6301 111.855 40.2101 111.5 40.5751L107.76 44.4201C107.4 44.7901 106.81 44.7951 106.44 44.4401L106.425 44.4251Z" fill="white"/>
<path d="M103.915 17.4947C103.655 17.2297 103.57 16.8247 103.725 16.4697C103.93 15.9997 104.48 15.7847 104.955 15.9897L109.87 18.1347C110.335 18.3397 110.56 18.8897 110.35 19.3647C110.14 19.8397 109.595 20.0497 109.12 19.8447L104.205 17.6997C104.09 17.6497 103.995 17.5797 103.91 17.4997L103.915 17.4947Z" fill="white"/>
<path d="M106.965 17.3849C107 17.2199 107.03 17.0649 107.035 16.8999L105.04 16.0099C105.18 16.3149 105.21 16.6499 105.15 16.9849C105.075 17.3349 104.88 17.6299 104.605 17.8549L106.39 18.6499C106.665 18.2749 106.86 17.8499 106.965 17.3849ZM104.075 18.1249C103.825 18.1999 103.56 18.2099 103.295 18.1549L101.01 17.6499C100.85 17.6199 100.7 17.5599 100.57 17.4799C100.55 17.4849 100.535 17.4849 100.515 17.4949L98.3749 17.8149C98.3999 17.8699 98.4249 17.9199 98.4599 17.9649C98.5949 18.1699 98.7399 18.3549 98.9099 18.5299C99.3649 18.9949 99.9499 19.3249 100.61 19.4649L102.895 19.9699C103.785 20.1699 104.695 20.0099 105.47 19.5199C105.695 19.3749 105.9 19.1999 106.08 19.0099L104.07 18.1199L104.075 18.1249ZM106.51 14.8149C106.03 14.0449 105.265 13.5149 104.375 13.3149L102.09 12.8099C101.2 12.6099 100.285 12.7649 99.5149 13.2599C98.8599 13.6799 98.3749 14.2949 98.1299 15.0349L100.1 14.7399C100.145 14.7349 100.19 14.7299 100.24 14.7199C100.385 14.7099 100.525 14.7299 100.655 14.7699C100.965 14.5949 101.33 14.5549 101.685 14.6349L103.97 15.1399C104.2 15.1899 104.405 15.2899 104.58 15.4299C104.77 15.4299 104.975 15.4599 105.165 15.5499L107.04 16.3849C107 15.8349 106.815 15.2999 106.51 14.8149Z" fill="white"/>
<path d="M94.73 14.0099C93.83 13.8499 92.925 14.0449 92.17 14.5699L90.25 15.8999C89.505 16.4199 89.005 17.1999 88.845 18.0999C88.77 18.5149 88.77 18.9299 88.84 19.3349L90.94 17.7849C90.94 17.7849 90.955 17.7699 90.965 17.7699H90.97C91.065 17.6349 91.175 17.5199 91.315 17.4249L93.235 16.0949C93.505 15.9049 93.82 15.8099 94.14 15.8199C94.32 15.6699 94.55 15.5599 94.8 15.5249L96.775 15.2349C96.26 14.5749 95.535 14.1549 94.725 14.0049L94.73 14.0099ZM97.485 17.9549L95.38 18.2699C95.28 18.4049 95.155 18.5299 95.005 18.6349L93.08 19.9749C92.855 20.1299 92.595 20.2249 92.325 20.2449L90.445 21.6299C90.79 21.8399 91.185 21.9849 91.6 22.0649C92.495 22.2299 93.4 22.0249 94.15 21.5099L96.075 20.1699C96.85 19.6299 97.335 18.8199 97.48 17.9549H97.485Z" fill="white"/>
<path d="M113.435 27.7799C113.33 27.6749 113.25 27.5399 113.205 27.3849L111.72 22.2299C111.575 21.7349 111.865 21.2199 112.36 21.0749C112.855 20.9299 113.37 21.2149 113.515 21.7099L115 26.8649C115.145 27.3599 114.855 27.8749 114.36 28.0199C114.02 28.1199 113.665 28.0149 113.435 27.7749V27.7799Z" fill="white"/>
<path d="M111.72 37.2551C111.49 37.0201 111.39 36.6751 111.49 36.3401L113.005 31.1951C113.15 30.7001 113.67 30.4201 114.165 30.5651C114.66 30.7101 114.94 31.2301 114.795 31.7251L113.28 36.8701C113.135 37.3651 112.615 37.6451 112.12 37.5001C111.96 37.4551 111.825 37.3701 111.72 37.2601V37.2551Z" fill="white"/>
<path d="M76.6449 39.2452C80.1399 35.6452 82.6999 33.0252 83.4999 32.2452C87.0699 28.7452 83.6799 25.5702 83.6799 25.5702C83.6799 25.5702 80.5699 22.1152 76.9999 25.6152C76.1999 26.3952 73.5299 28.9052 69.8599 32.3252L76.6449 39.2502V39.2452Z" fill="white"/>
<path d="M97.1351 60.1652C100.63 56.5652 103.19 53.9452 103.99 53.1652C107.56 49.6652 104.205 46.4852 104.205 46.4852C104.205 46.4852 101.06 43.0302 97.4901 46.5302C96.6901 47.3102 94.0201 49.8202 90.3501 53.2402L97.1351 60.1652Z" fill="white"/>
<path d="M114.16 33.8899L114.805 31.7949L114.16 33.8899Z" fill="white"/>
<path d="M114.985 26.8498C114.795 26.7248 114.58 26.6498 114.335 26.6248C113.86 26.5798 113.415 26.7548 113.105 27.0598L112.57 25.1698C113.115 24.8698 113.735 24.7198 114.385 24.7598L114.985 26.8498Z" fill="white"/>
<path d="M111.925 33.2147C111.785 33.1147 111.655 33.0097 111.54 32.8897C111.475 32.8247 111.405 32.7497 111.345 32.6747C110.765 31.9747 110.49 31.0847 110.58 30.1747L110.795 27.8497C110.885 26.8497 111.405 25.9847 112.16 25.4297L112.75 27.5147C112.75 27.5147 112.755 27.5497 112.765 27.5697C112.705 27.7097 112.665 27.8647 112.65 28.0247L112.44 30.3547C112.41 30.6297 112.46 30.8947 112.575 31.1347L111.925 33.2197V33.2147Z" fill="white"/>
<path d="M116.155 33.1196C115.715 33.4846 115.205 33.7096 114.665 33.8246L115.265 31.8796C115.335 31.6846 115.33 31.4796 115.305 31.2796C115.42 31.0896 115.495 30.8746 115.515 30.6446L115.735 28.3146C115.765 27.9596 115.675 27.6146 115.48 27.3246C115.51 27.1396 115.495 26.9446 115.44 26.7496L114.89 24.8296C115.64 24.9846 116.32 25.3846 116.81 25.9896C117.395 26.6946 117.67 27.5746 117.58 28.4846L117.365 30.8246C117.285 31.7246 116.845 32.5446 116.15 33.1246L116.155 33.1196Z" fill="white"/>
<path d="M113.51 21.6997C113.51 21.7097 113.52 21.7147 113.52 21.7197L114.13 23.8497L113.52 21.7247C113.52 21.7147 113.51 21.7097 113.51 21.6997Z" fill="white"/>
<path d="M109.02 19.8151L107.125 18.9701C107.205 18.3551 107.455 17.7601 107.87 17.2651L109.72 18.0901C109.635 18.1351 109.545 18.1951 109.475 18.2651C109.03 18.6651 108.87 19.2751 109.025 19.8151H109.02Z" fill="white"/>
<path d="M111.91 24.5497C111.075 24.5097 110.26 24.1697 109.64 23.5397L109.535 23.4347L107.97 21.6897C107.405 21.0597 107.11 20.2647 107.1 19.4697L108.91 20.2797C109.035 20.3397 109.175 20.3747 109.31 20.3847C109.325 20.4097 109.335 20.4247 109.355 20.4447L110.915 22.1797C111.03 22.3147 111.17 22.4147 111.315 22.4947L111.905 24.5497H111.91Z" fill="white"/>
<path d="M114.52 23.5099L113.97 21.5899C113.9 21.3599 113.775 21.1549 113.6 20.9849C113.57 20.6749 113.45 20.3649 113.22 20.1049L111.655 18.3749L111.605 18.3199C111.34 18.0449 110.975 17.8799 110.59 17.8549C110.49 17.8449 110.39 17.8549 110.305 17.8699C110.235 17.8099 110.15 17.7649 110.055 17.7249L108.195 16.8949L108.22 16.8699C109.61 15.6099 111.785 15.7249 113.035 17.1249L114.6 18.8699C115.805 20.2099 115.74 22.2299 114.515 23.5099H114.52Z" fill="white"/>
<path d="M108.04 40.8L107.935 40.92C107.485 40.03 107.415 38.95 107.86 37.965L108.825 35.83C109.195 34.995 109.87 34.365 110.725 34.035C111.06 33.915 111.4 33.855 111.74 33.835L111.1 35.925C110.85 36.08 110.65 36.315 110.52 36.6L109.56 38.725C109.47 38.915 109.425 39.12 109.43 39.325L108.045 40.8H108.04Z" fill="white"/>
<path d="M112.175 42.5548C111.5 42.8098 110.785 42.8448 110.125 42.6598L111.63 41.0648L111.855 40.8148C111.99 40.6698 112.09 40.5048 112.155 40.3348C112.24 40.2348 112.31 40.1198 112.37 39.9948L113.335 37.8598C113.39 37.7398 113.405 37.6098 113.425 37.4848C113.545 37.3398 113.635 37.1748 113.685 36.9948L114.355 34.8398C114.68 35.1748 114.95 35.5648 115.115 36.0148C115.44 36.8698 115.415 37.7998 115.035 38.6248L114.075 40.7648C113.695 41.5898 113.025 42.2248 112.17 42.5498L112.175 42.5548Z" fill="white"/>
<path d="M84.315 24.94C85.075 25.705 85.605 26.545 85.86 27.415C85.9 27.56 85.935 27.695 85.96 27.835L89.76 24.11C89.76 24.11 90.6505 23.0511 90.1255 21.6211L89.069 22.3855C88.969 22.4555 88.8572 22.5287 88.76 22.61C88.7 22.855 88.565 23.09 88.365 23.285C87.78 23.86 86.835 23.855 86.26 23.27C85.685 22.685 85.695 21.735 86.28 21.16C86.475 20.97 86.705 20.85 86.95 20.79C87.1546 20.6245 87.3467 20.4841 87.5617 20.3291L88.3693 19.705C86.8843 18.98 85.49 19.705 85.49 19.705L81.8 23.32C82.56 23.55 83.395 24.01 84.315 24.935V24.94Z" fill="white"/>
<path d="M84.9651 27.6801C84.7501 26.9501 84.3401 26.3151 83.6501 25.6001C82.6351 24.5851 81.7851 24.2151 81.0051 24.1001L80.8101 24.2951L84.8951 28.8801L85.1201 28.6601C85.1051 28.3701 85.0651 28.0351 84.9601 27.6851L84.9651 27.6801Z" fill="white"/>
<path d="M104.795 45.87C105.585 46.645 106.085 47.465 106.345 48.345C106.375 48.445 106.395 48.54 106.415 48.64L109.44 45.675C109.44 45.675 110.365 44.625 109.71 43.14L109.555 43.305L108.64 44.265C108.57 44.345 108.475 44.42 108.385 44.47C108.325 44.565 108.26 44.65 108.18 44.735C107.62 45.28 106.725 45.27 106.18 44.715C105.635 44.16 105.645 43.265 106.2 42.715C106.295 42.625 106.4 42.55 106.51 42.49C106.54 42.445 106.565 42.4 106.605 42.36L107.325 41.6L107.74 41.155C106.335 40.52 105.16 41.28 105.16 41.28L102.17 44.21C102.96 44.425 103.83 44.89 104.8 45.865L104.795 45.87Z" fill="white"/>
<path d="M105.45 48.6098C105.235 47.8798 104.81 47.2448 104.135 46.5298C103.065 45.4498 102.17 45.1098 101.355 45.0098L100.71 45.6398L104.805 50.2198L105.6 49.4398C105.58 49.1848 105.54 48.9048 105.45 48.6048V48.6098Z" fill="white"/>
<path d="M27.025 72.1348L24.51 74.5048L33.54 83.7248L35.965 81.2548L27.025 72.1348Z" fill="#878787"/>
<path d="M37.41 79.7844L28.53 70.7144L27.705 71.4944L36.62 80.5894L37.41 79.7844Z" fill="#878787"/>
<path d="M18.37 80.2945L27.625 89.7395L28.42 88.9345L19.195 79.5195L18.37 80.2945Z" fill="#878787"/>
<path d="M23.01 75.9195L32.095 85.1945L32.885 84.3895L23.83 75.1445L23.01 75.9195Z" fill="#878787"/>
<path d="M19.875 78.8796L29.075 88.2696L31.44 85.8596L22.33 76.5596L19.875 78.8796Z" fill="#878787"/>
<path d="M29.205 70.0744L38.065 79.1195L40.63 76.5045L31.87 67.5645L29.205 70.0744Z" fill="#878787"/>
<path d="M39.0249 60.9343L47.4049 69.4893C48.3149 68.5493 49.2949 67.5293 50.3349 66.4543L42.1199 58.0693C41.0249 59.0843 39.9849 60.0443 39.0249 60.9343Z" fill="#878787"/>
<path d="M42.8049 57.4345L50.9849 65.7795C51.2499 65.5045 51.5199 65.2245 51.7899 64.9445L43.6549 56.6445C43.3699 56.9095 43.0849 57.1745 42.8049 57.4345Z" fill="#878787"/>
<path d="M26.975 90.4047L17.695 80.9297L14.195 84.2297C14.195 84.2297 6.98496 90.3147 12.435 95.3697C17.375 100.92 23.605 93.8347 23.605 93.8347L26.975 90.4047Z" fill="#878787"/>
<path d="M34.0649 65.5247L42.7149 74.3497C43.4049 73.6347 44.2899 72.7197 45.3249 71.6447L36.8249 62.9697C35.7299 63.9847 34.7949 64.8497 34.0649 65.5247Z" fill="#878787"/>
<path d="M37.51 62.3345L45.97 70.9695C46.225 70.7045 46.485 70.4344 46.755 70.1544L38.34 61.5645C38.055 61.8295 37.78 62.0845 37.51 62.3345Z" fill="#878787"/>
<path d="M32.5499 66.9297L41.2799 75.8397C41.4499 75.6597 41.7149 75.3847 42.0649 75.0247L33.3799 66.1597C33.0099 66.4997 32.7299 66.7597 32.5499 66.9297Z" fill="#878787"/>
<path d="M57.905 100.7L49.02 91.6348L48.2 92.4098L57.11 101.505L57.905 100.7Z" fill="#878787"/>
<path d="M47.52 93.0498L45.005 95.4198L54.035 104.64L56.46 102.17L47.52 93.0498Z" fill="#878787"/>
<path d="M40.365 99.795L49.565 109.185L51.935 106.775L42.825 97.48L40.365 99.795Z" fill="#878787"/>
<path d="M43.5 96.8401L52.585 106.11L53.38 105.305L44.325 96.0601L43.5 96.8401Z" fill="#878787"/>
<path d="M38.865 101.21L48.12 110.66L48.915 109.85L39.685 100.435L38.865 101.21Z" fill="#878787"/>
<path d="M49.7 90.995L58.555 100.035L61.125 97.425L52.365 88.48L49.7 90.995Z" fill="#878787"/>
<path d="M54.5599 86.4398L63.2099 95.2648C63.8999 94.5498 64.7849 93.6348 65.8199 92.5598L57.3199 83.8848C56.2249 84.8998 55.2899 85.7648 54.5599 86.4398Z" fill="#878787"/>
<path d="M58.005 83.2549L66.465 91.8899C66.72 91.6249 66.98 91.3549 67.25 91.0749L58.835 82.4849C58.55 82.7499 58.275 83.0049 58.005 83.2549Z" fill="#878787"/>
<path d="M47.465 111.325L38.185 101.85L34.685 105.15C34.685 105.15 27.475 111.235 32.925 116.29C37.865 121.84 44.095 114.755 44.095 114.755L47.465 111.325Z" fill="#878787"/>
<path d="M63.2949 78.3549L71.4749 86.6999C71.7399 86.4249 72.0099 86.1449 72.2799 85.8649L64.1449 77.5649C63.8599 77.8299 63.5749 78.0949 63.2949 78.3549Z" fill="#878787"/>
<path d="M53.0449 87.8447L61.7749 96.7547C61.9449 96.5747 62.2099 96.2997 62.5599 95.9397L53.8749 87.0747C53.5049 87.4147 53.2249 87.6747 53.0449 87.8447Z" fill="#878787"/>
<path d="M59.5199 81.8499L67.8999 90.4049C68.8099 89.4649 69.7899 88.4449 70.8299 87.3699L62.6149 78.9849C61.5199 79.9999 60.4799 80.9599 59.5199 81.8499Z" fill="#878787"/>
<path d="M68.4949 33.5947C61.6098 40.0047 51.9498 48.9647 44.3398 56.0147L52.4348 64.2797C59.6398 56.8147 68.7948 47.3397 75.3448 40.5897L68.4949 33.5947Z" fill="#878787"/>
<path d="M88.9851 54.5098C82.1001 60.9198 72.4401 69.8798 64.8301 76.9298L72.9251 85.1948C80.1301 77.7298 89.2851 68.2548 95.8351 61.5048L88.9851 54.5098Z" fill="#878787"/>
</svg>
