<svg width="128" height="128" viewBox="0 0 128 128" fill="none" xmlns="http://www.w3.org/2000/svg">
<path d="M38.8601 84.2656C35.0451 86.5406 24.8451 93.0456 19.2501 100.696C12.2751 110.226 8.50006 113.376 8.50006 113.376C15.8351 118.046 21.8901 114.686 21.8901 114.686C21.9201 112.216 21.3501 111.051 22.6201 108.626C22.9401 108.021 24.2551 106.646 24.6401 106.031C25.0351 105.401 25.4901 104.056 25.9301 103.441C26.3001 102.921 27.3301 102.266 27.7301 101.761C28.2651 101.081 28.2951 100.371 28.8651 99.7206C29.3501 99.1656 30.1651 98.8406 30.6651 98.3056C31.2551 97.6756 31.5251 96.7406 32.1201 96.1506C32.6601 95.6206 33.5301 95.4306 34.0601 94.9356C37.4051 91.8206 40.5101 89.4656 41.9751 88.3956L38.8601 84.2656ZM17.2951 112.731C16.9251 113.101 16.3301 113.106 15.9551 112.736C15.5851 112.366 15.5801 111.771 15.9501 111.396C16.3201 111.026 16.9151 111.021 17.2901 111.391C17.6601 111.761 17.6651 112.356 17.2951 112.731ZM22.0951 104.406C21.7251 104.776 21.1301 104.781 20.7551 104.411C20.3851 104.041 20.3801 103.446 20.7501 103.071C21.1201 102.696 21.7151 102.696 22.0901 103.066C22.4601 103.436 22.4651 104.031 22.0951 104.406ZM28.3301 97.1056C27.9601 97.4756 27.3651 97.4806 26.9901 97.1106C26.6201 96.7406 26.6151 96.1456 26.9851 95.7706C27.3551 95.4006 27.9501 95.3956 28.3251 95.7656C28.6951 96.1356 28.7001 96.7306 28.3301 97.1056ZM34.6301 91.2056C34.2601 90.8356 34.2551 90.2406 34.6251 89.8656C34.9951 89.4906 35.5901 89.4906 35.9651 89.8606C36.3351 90.2306 36.3401 90.8256 35.9701 91.2006C35.6001 91.5706 35.0051 91.5756 34.6301 91.2056Z" fill="#878787"/>
<path d="M105.705 16.9259C89.9201 43.2709 63.2601 65.9209 55.2901 72.4759C54.0351 73.5109 49.9701 76.7509 48.1601 77.9559L40.3651 83.4009C40.3651 83.4009 40.1401 83.5259 39.7351 83.7609L42.7951 87.8159C42.8401 87.7859 43.3951 88.4159 43.3951 88.4159L48.1201 84.6259L70.8851 67.4159C106.95 40.8459 119.36 13.6209 119.36 13.6209C109.29 9.81087 105.72 16.9359 105.72 16.9359L105.705 16.9259ZM84.8051 53.6459C74.6451 63.0009 62.4351 71.5909 51.4801 80.0209L49.0601 81.8559C48.5451 82.3509 47.6151 82.6309 47.6101 83.4459C47.6101 83.6959 47.7551 83.9109 47.8501 84.1459C47.8701 84.1759 47.8151 84.2009 47.8001 84.1709C47.0201 82.9209 48.1751 82.4809 49.0051 81.7909L51.4051 79.9359C65.6301 68.9059 80.5451 57.6259 92.9251 44.5109C101.31 35.7959 109.46 26.7409 114.88 15.8459C114.255 17.5659 113.125 19.5459 112.195 21.2959C105.125 33.6409 95.2651 44.1209 84.8001 53.6509L84.8051 53.6459Z" fill="white"/>
</svg>
