<svg width="128" height="128" viewBox="0 0 128 128" fill="none" xmlns="http://www.w3.org/2000/svg">
<path d="M34.4249 93.7203L33.9599 94.1953L33.3999 95.7453C33.7499 96.2703 34.5399 97.5703 34.7649 98.9203L35.2149 98.2753L37.3949 96.8453C36.5199 95.4653 35.2699 94.3653 34.4199 93.7153L34.4249 93.7203Z" fill="#878787"/>
<path d="M29.1399 100.365L26.4299 101.93L25.1399 104.225C25.4899 104.77 26.0799 105.805 26.3399 106.92L26.3899 106.83L28.7349 105.53L30.1449 103.245C30.1749 102.185 29.6449 101.015 29.2099 100.235L29.1449 100.365H29.1399Z" fill="#878787"/>
<path d="M21.02 108.495L18.925 109.64L18.17 110.42L17.855 110.74C18.565 111.225 19.735 112.155 20.36 113.31L21.66 112.49L22.26 111.445C22.22 110.275 21.57 109.01 21.135 108.3L21.015 108.49L21.02 108.495Z" fill="#878787"/>
<path d="M17.43 111.055C15.86 111.185 15.065 111.14 13.8 112.515C12.31 114.135 12.675 115.6 12.975 116.38C13.265 117.165 14.135 118.04 14.915 118.355C15.69 118.67 17.075 118.925 18.415 117.77C19.935 116.46 20.1 115.83 20.14 114.015C19.66 112.67 18.155 111.54 17.435 111.06L17.43 111.055Z" fill="#878787"/>
<path d="M22.7399 105.725L21.4399 107.83C21.8099 108.405 22.4549 109.535 22.6849 110.725L22.8749 110.395L25.0099 109.2L25.9549 107.585C25.8349 106.47 25.2249 105.31 24.8249 104.655L22.7399 105.725Z" fill="#878787"/>
<path d="M33.14 96.465L30.465 97.785L29.48 99.7C29.89 100.38 30.46 101.505 30.61 102.64L33.26 101.07L34.325 99.545C34.3 98.355 33.62 97.05 33.185 96.335L33.14 96.46V96.465Z" fill="#878787"/>
<path d="M38.8401 85.8652C38.3901 85.9352 37.6951 86.0852 36.8201 86.2052C35.5251 86.3802 33.1101 88.6852 33.1101 88.6852C28.7751 87.3252 25.5601 88.9152 25.5601 88.9152L29.6251 90.3202C31.9901 91.4052 33.3101 92.2702 34.0151 92.8102C34.6851 93.2552 36.5901 94.6352 37.8201 96.5802L37.8701 96.5502C37.8701 96.5502 40.0501 98.9702 40.7251 104.21C40.7251 104.21 41.6001 106.24 42.7401 104.265C42.7401 104.265 43.3301 103.215 42.0401 98.8502L43.5851 97.4502C43.5851 97.4502 45.4201 95.7302 45.6601 93.5702C45.1201 86.8502 40.4301 85.9752 38.8501 85.8752L38.8401 85.8652Z" fill="#878787"/>
<path d="M114.96 17.405C111.65 14.675 108.165 15.92 108.165 15.92L40.0701 85.055C42.1551 85.51 45.4451 87 46.4201 91.825L116.34 24.125C116.34 24.125 117.645 20.76 114.96 17.405ZM46.1001 82.695L59.2801 68.655C60.0851 67.845 61.2651 67.65 62.2551 68.06L61.8601 68.455C61.6501 68.39 61.4351 68.35 61.2151 68.35C60.6451 68.35 60.0751 68.565 59.6401 69L46.4601 83.04C46.0651 83.435 45.5701 84.075 45.6001 84.765L45.1751 85.19C44.9601 84.41 45.2651 83.53 46.1001 82.695ZM63.1401 72.485L49.1701 85.84C48.5351 86.475 47.8651 86.8 47.2251 86.8C46.9901 86.8 46.7601 86.75 46.5401 86.665L46.9401 86.265C47.7501 86.43 48.4851 85.825 48.8251 85.49L62.7951 72.135C63.4101 71.52 63.5751 70.625 63.3051 69.85L63.6901 69.465C64.1351 70.46 63.9601 71.675 63.1451 72.495L63.1401 72.485ZM66.6551 65.875C81.0601 50.265 95.9851 35.125 111.37 20.485C96.9551 36.09 82.0501 51.235 66.6551 65.875Z" fill="white"/>
</svg>
