<svg width="128" height="128" viewBox="0 0 128 128" fill="none" xmlns="http://www.w3.org/2000/svg">
<path d="M114.455 14.1001L35.055 89.1051C35.57 89.9151 36.125 90.7451 36.605 91.3501C37.315 92.2901 38.16 93.0351 39.09 93.7401L108.98 27.7201C108.98 27.7201 114.67 22.0551 114.455 14.1001Z" fill="white"/>
<path d="M16.595 106.57C16.195 107.475 15.825 108.58 15.665 109.805C17.625 110.745 19.825 111.145 21.935 110.485C21.935 110.485 22.02 110.78 22.07 110.96C22.12 110.515 22.215 110.095 22.38 109.72C22.38 109.72 22.38 109.72 22.38 109.715C20.71 109.425 19.08 108.835 17.765 107.75C17.335 107.39 16.945 107 16.585 106.57H16.595Z" fill="#878787"/>
<path d="M15.645 109.995C15.525 111.1 15.58 112.295 15.935 113.525C18.055 113.74 20.195 113.04 22.035 111.915C22.03 111.64 22.035 111.365 22.055 111.1C19.83 111.62 17.595 111.08 15.645 109.995Z" fill="#878787"/>
<path d="M22.45 109.6C22.6 109.325 22.87 108.95 23.245 108.495C21.055 107.585 19.5 105.73 18.535 103.61L18.055 104.065C18.055 104.065 17.48 104.785 16.885 105.965C18.14 107.905 20.225 109.055 22.45 109.6Z" fill="#878787"/>
<path d="M16.105 114.045C16.415 114.915 16.885 115.795 17.555 116.67C19.54 116.025 21.315 114.84 22.3 112.945C22.185 112.715 22.085 112.61 22.08 112.605L22.09 112.595C22.09 112.595 22.08 112.595 22.075 112.59C22.055 112.39 22.045 112.19 22.035 111.99C20.44 113.115 18.595 113.965 16.63 114.04C16.455 114.045 16.28 114.045 16.105 114.04V114.045Z" fill="#878787"/>
<path d="M31.525 91.3403L29.57 93.1853C30.655 95.1303 32.27 96.7753 34.43 97.4503C34.985 96.9353 35.335 96.6203 35.385 96.5753C32.935 95.9803 31.84 94.0403 31.48 91.3903C32.14 92.5503 32.485 93.8553 33.3 94.7903C34.09 95.6953 35.235 96.2503 36.37 96.6853C36.215 95.7953 36.35 95.1103 36.78 94.6353C37.24 94.1253 37.925 94.0003 38.405 93.9803C36.54 93.2453 35.125 91.5253 34.48 89.5953L32.96 89.4103C32.96 89.4103 30.23 87.2353 32.29 85.1953C32.29 85.1953 34.615 85.8303 34.47 83.1353C34.325 80.4403 31.345 81.9603 31.345 81.9603C31.345 81.9603 30.385 82.7703 30.57 83.9853C30.57 83.9853 28.28 85.4253 29.645 88.6503C29.645 88.6503 29.975 90.1153 31.52 91.3453L31.525 91.3403Z" fill="#878787"/>
<path d="M21.415 103.86C20.915 103.33 20.485 102.76 20.115 102.115L18.645 103.505C19.74 105.56 21.41 107.305 23.675 107.995C24.14 107.46 24.705 106.855 25.335 106.205C23.875 105.72 22.49 104.975 21.42 103.86H21.415Z" fill="#878787"/>
<path d="M36.385 96.7353C36.385 96.7353 36.385 96.7303 36.385 96.7253C36.295 96.7153 36.2 96.7103 36.115 96.6953C36.2 96.7103 36.295 96.7203 36.39 96.7353H36.385Z" fill="#878787"/>
<path d="M22.56 113.695C21.395 115.345 19.62 116.345 17.695 116.85C17.825 117.01 17.95 117.17 18.095 117.33C18.095 117.33 19.425 119.265 22.58 116.18C22.745 115.07 22.69 114.26 22.565 113.7L22.56 113.695Z" fill="#878787"/>
<path d="M38.745 94.5104C38.425 94.4904 37.62 94.4854 37.165 94.9854C36.825 95.3604 36.755 95.9704 36.935 96.7804C36.965 96.7804 36.995 96.7804 37.025 96.7804C37.795 97.3154 39.65 98.9154 40.08 102.215C40.375 104.47 39.085 107.63 36.22 109.735C33.765 111.535 30.23 112.845 27.64 112.985C25.135 113.115 23.675 112.98 22.825 112.8C23.08 113.35 23.335 114.32 23.155 115.88C23.805 115.86 24.845 115.845 26.495 115.84C32.495 115.815 38.575 112.665 40.39 110.46C42.855 107.47 43.075 105.205 42.765 102.07C42.51 99.5204 39.76 95.8004 38.745 94.5054V94.5104Z" fill="#878787"/>
<path d="M22.3 100.055L20.585 101.675C21.5 103.79 23.35 105.225 25.445 106.09C25.88 105.64 26.345 105.17 26.825 104.695C24.755 103.805 23.255 102.065 22.3 100.06V100.055Z" fill="#878787"/>
<path d="M32.245 99.4803C32.875 98.8903 33.445 98.3603 33.925 97.9153C31.88 97.0203 30.395 95.2903 29.445 93.3003L28.295 94.3903C28.84 96.5753 30.375 98.2803 32.245 99.4753V99.4803Z" fill="#878787"/>
<path d="M25.1 99.8905C24.755 99.3655 24.46 98.8205 24.225 98.2305L22.42 99.9355C23.51 101.89 25.135 103.54 27.305 104.21C27.74 103.78 28.18 103.35 28.625 102.92C27.24 102.185 25.975 101.205 25.1 99.8955V99.8905Z" fill="#878787"/>
<path d="M28.72 96.6305C28.35 96.0705 28.045 95.4855 27.805 94.8555L26.055 96.5105C27.15 98.4455 28.765 100.07 30.92 100.73C31.335 100.335 31.74 99.9555 32.125 99.5955C30.785 98.8655 29.575 97.9055 28.72 96.6355V96.6305Z" fill="#878787"/>
<path d="M28.735 102.81C29.3 102.265 29.865 101.72 30.415 101.2C28.365 100.32 26.88 98.6054 25.92 96.6304L24.705 97.7754C25.29 99.9454 26.845 101.63 28.73 102.81H28.735Z" fill="#878787"/>
</svg>
