<svg width="128" height="128" viewBox="0 0 128 128" fill="none" xmlns="http://www.w3.org/2000/svg">
<path d="M45.3217 85.4493C44.9817 86.5793 44.8017 87.7443 44.9217 88.8993C45.0467 89.7393 45.2467 90.6743 45.2267 91.5593C46.2767 90.9543 47.2067 89.6343 47.2067 89.6343C47.2067 89.6343 47.5867 89.0643 47.8217 87.9743L45.3217 85.4443V85.4493Z" fill="#878787"/>
<path d="M45.34 85.4599L42.7 82.7899C40.035 82.4049 38.715 83.1799 38.715 83.1799C38.715 83.1799 37.03 84.2399 36.655 85.4849C36.655 85.4849 38.125 85.4099 38.65 85.3999C39.62 85.3299 40.66 85.5899 41.585 85.7349C42.705 85.8649 43.835 85.7049 44.935 85.3999C44.55 85.6249 42.245 86.5049 41.495 86.4199C39.78 86.0049 38.315 85.9599 36.62 85.9299C36.15 85.9699 35.825 86.1149 35.825 86.1149C35.825 86.1149 34.14 87.1749 33.765 88.4199C33.765 88.4199 34.985 88.4249 35.335 88.4199C36.305 88.3499 37.345 88.6099 38.27 88.7549C39.28 88.8749 40.3 88.7549 41.3 88.5099C40.985 88.6649 40.675 88.7999 40.545 88.8549C39.69 89.0949 39.07 89.5399 38.175 89.4449C36.62 89.0699 35.185 88.9299 33.67 88.8849C33.295 88.9999 33.1 89.1099 33.1 89.1099C33.1 89.1099 31.485 90.1249 31.13 91.3149C31.13 91.3149 32.435 91.2499 32.915 91.2399C33.885 91.1699 34.925 91.4299 35.85 91.5749C36.78 91.6849 37.725 91.5949 38.65 91.3899C38.34 91.6049 36.425 92.3349 35.76 92.2649C34.13 91.8699 32.625 91.7399 31.02 91.7049C30.805 91.7849 30.695 91.8499 30.695 91.8499C30.695 91.8499 29.08 92.8649 28.725 94.0549C28.725 94.0549 29.795 94.1199 30.01 94.1149C30.98 94.0449 32.02 94.3049 32.945 94.4499C33.7 94.5399 34.46 94.4949 35.21 94.3649C35.04 94.5149 33.44 95.1999 32.855 95.1349C31.46 94.7999 30.16 94.6549 28.815 94.5949C28.455 94.7049 28.27 94.8099 28.27 94.8099C28.27 94.8099 26.69 95.7999 26.345 96.9649C26.345 96.9649 26.955 97.0549 27.72 97.1849C27.735 97.1849 29.775 97.2549 30.71 97.3449C31.185 97.3749 31.655 97.3349 32.125 97.2749C32.01 97.5099 31.045 98.0549 30.66 98.0349C29.175 97.7649 27.81 97.6999 26.39 97.7299C26.365 97.7449 26.35 97.7499 26.35 97.7499C26.35 97.7499 24.97 98.7099 24.705 99.7749C24.705 99.7749 25.09 99.8149 25.62 99.8749C26.49 99.7199 27.445 99.7749 28.29 99.7649C28.775 99.7399 29.25 99.6599 29.72 99.5449C29.51 99.7499 28.565 100.445 28.315 100.455C27.115 100.37 26.01 100.405 24.895 100.515C24.56 100.665 24.39 100.8 24.39 100.8C24.39 100.8 23.295 101.77 23.175 102.715C23.175 102.715 23.265 102.715 23.41 102.715C24.51 102.335 25.7 102.19 26.845 102.26C26.94 102.26 27.035 102.24 27.13 102.23C27.07 102.28 27.01 102.33 26.95 102.385C26.8 102.535 26.1 102.92 25.875 102.92C24.99 102.91 24.16 102.975 23.285 103.07C23.115 103.23 22.84 103.515 22.635 103.845L26.04 107.38C26.04 107.38 26.05 107.355 26.06 107.34C25.99 106.6 25.885 105.865 25.7 105.075C25.685 104.93 25.7 104.79 25.695 104.65C25.915 104.62 26.15 104.565 26.375 104.485C26.375 104.655 26.37 104.825 26.385 104.995C26.54 105.695 26.615 106.43 26.6 107.16C27.34 106.935 28.015 106.18 28.015 106.18C28.015 106.18 28.15 106.015 28.28 105.68C28.25 104.82 28.15 103.92 28.185 103.13C28.22 102.34 28.505 101.95 28.73 101.87C28.69 102.23 28.67 102.59 28.695 102.95C28.745 103.22 28.775 103.5 28.8 103.78C28.97 104.625 29.12 105.7 29.12 105.7C29.73 105.4 30.275 104.665 30.53 104.285C30.605 103.12 30.44 101.68 30.475 100.785C30.51 99.8899 31.225 99.0449 31.465 98.9349C31.4 99.1499 31.31 99.5849 31.31 99.5849L31.245 99.8799C31.245 99.8799 31.17 100.475 31.17 100.775C31.265 101.685 31.23 102.625 31.045 103.54C31.06 103.86 31.065 104.07 31.065 104.07C32.045 103.695 33.005 102.33 33.005 102.33C33.005 102.33 33.155 102.09 33.315 101.64C33.31 100.68 33.26 99.7599 33.085 98.7299C33.065 98.1549 33.77 96.9199 33.99 96.8449C33.835 97.4499 33.745 98.0649 33.78 98.6899C33.935 99.6649 33.925 100.695 33.725 101.68C33.735 101.97 33.74 102.165 33.74 102.165C34.83 101.75 35.895 100.24 35.895 100.24C35.895 100.24 36 100.075 36.135 99.7599C36.045 99.1499 35.94 98.5299 35.78 97.8949C35.63 96.5899 36.76 93.9949 36.925 93.9399C36.525 95.1949 36.31 96.5099 36.47 97.7999C36.495 97.9399 36.52 98.0849 36.545 98.2299C36.55 98.1949 36.555 98.1649 36.56 98.1299C36.565 98.2199 36.57 98.3149 36.575 98.3999C36.655 98.8249 36.73 99.2649 36.775 99.6999C37.835 99.2049 38.83 97.7949 38.83 97.7949C38.83 97.7949 38.93 97.6399 39.055 97.3449C38.975 96.5799 38.865 95.8099 38.68 95.0049C38.55 93.6899 39.92 90.7049 40.115 90.4399C39.555 91.8749 39.205 93.4099 39.365 94.9199C39.47 95.6399 39.64 96.4299 39.67 97.1999C40.66 96.6399 41.545 95.3899 41.545 95.3899C41.545 95.3899 41.77 95.0399 41.975 94.3799C41.845 93.8399 41.7 93.2949 41.515 92.7399C41.27 91.5149 41.92 89.6299 42.43 88.3149C42.06 89.7199 41.9 91.1899 42.19 92.5899C42.34 93.1949 42.54 93.8499 42.66 94.5049C43.685 93.8849 44.58 92.6149 44.58 92.6149C44.58 92.6149 44.765 92.3349 44.96 91.7899C44.88 90.9899 44.765 90.1849 44.575 89.3449C44.44 88.0049 44.745 86.6699 45.33 85.4749L45.34 85.4599Z" fill="#878787"/>
<path d="M26.735 110.685C26.105 108.885 25.8 108.045 25.66 107.685L21.93 103.915C21.575 103.77 20.74 103.46 18.945 102.805C14.41 101.155 13.595 105.445 13.595 105.445C15.045 106.825 14.365 108.655 14.365 108.655C16.735 110.04 16.05 113.455 16.05 113.455C16.05 113.455 19.47 112.81 20.83 115.195C20.83 115.195 22.67 114.535 24.04 116.005C24.04 116.005 28.335 115.235 26.735 110.68V110.685ZM16.665 107.425C17.11 106.175 16.225 105.345 16.225 105.345C18.46 105.03 20.485 106.45 20.485 106.45C18.36 105.94 16.665 107.43 16.665 107.43V107.425ZM19.225 111.65C19.225 111.65 18.405 111.49 17.7 111.865C17.7 111.865 17.98 111.1 17.755 110.37C17.755 110.37 19.455 108.695 21.04 108.575C21.04 108.575 21.135 109.72 19.23 111.65H19.225ZM24.055 113.265C24.055 113.265 23.23 112.37 21.98 112.8C21.98 112.8 23.49 111.12 23 108.99C23 108.99 24.395 111.03 24.055 113.26V113.265Z" fill="#878787"/>
<path d="M65.6 84.4099C65.6 84.4099 62.42 81.0299 59.625 84.3149C56.83 87.6049 60.995 88.1349 60.995 88.1349L61.74 89.2199C61.74 89.2199 58.805 91.9549 56.37 88.2299C53.935 84.5049 54.52 85.2249 54.52 85.2249C53.685 84.2699 52.65 83.3499 52.635 83.3349L52.245 82.9949L52.6 82.6199C52.6 82.6199 53.64 81.4949 53.58 80.0799C53.545 79.2149 53.11 78.3999 52.285 77.6499C49.62 75.2249 47.735 77.0199 47.655 77.0949L47.325 77.4199L46.975 77.1199C46.08 76.3449 45.105 75.6649 44.51 75.2649C44.15 75.0449 43.375 74.5499 41.775 73.4749C38.08 70.9999 40.85 68.0999 40.85 68.0999L41.93 68.8549C41.93 68.8549 42.405 73.0199 45.725 70.2649C49.045 67.5049 45.705 64.2949 45.705 64.2949C45.705 64.2949 43.225 60.2799 37.45 64.6649C31.675 69.0499 36.28 75.5999 36.28 75.5999L41.75 81.1299L48.715 88.1699L54.19 93.7049C54.19 93.7049 60.685 98.3849 65.135 92.6599C69.585 86.9349 65.6 84.4099 65.6 84.4099ZM50.605 81.5549C50 82.1549 49.025 82.1449 48.425 81.5449C47.825 80.9449 47.835 79.9649 48.435 79.3699C49.04 78.7699 50.015 78.7799 50.615 79.3799C51.215 79.9849 51.205 80.9599 50.605 81.5549Z" fill="#878787"/>
<path d="M67.57 53.6147C56.98 63.9047 47.99 72.3397 45.47 74.6947C45.995 75.0547 46.66 75.5397 47.325 76.0897C48.155 75.5147 50.32 74.4947 52.965 76.9047C54 77.8447 54.545 78.8997 54.585 80.0497C54.635 81.3247 54.035 82.3697 53.65 82.9097C54.03 83.2647 54.65 83.8647 55.215 84.4997C57.64 81.9647 66.155 73.1047 76.52 62.6697C99.79 39.2597 114.195 23.2547 116.85 13.8447C107.42 16.3997 91.25 30.6247 67.57 53.6147ZM81.4 49.3747C76.7 53.8247 67.22 63.3347 62.5 67.5197C74.515 55.5097 87.16 41.9947 99.76 30.6797L99.82 30.7397C93.93 37.1997 87.715 43.3297 81.4 49.3697V49.3747Z" fill="white"/>
</svg>
