<svg width="128" height="128" viewBox="0 0 128 128" fill="none" xmlns="http://www.w3.org/2000/svg">
<path d="M19.48 104.95C18.815 104.79 18.15 104.96 17.72 105.125C16.715 106.2 16.685 107.875 17.7 108.97C18.76 110.12 20.55 110.19 21.7 109.13C21.905 108.94 22.065 108.715 22.2 108.485C22.28 106.64 20.54 105.21 19.485 104.955L19.48 104.95Z" fill="#878787"/>
<path d="M44.11 76.3351L40.705 79.4801C45.46 81.2651 46.68 84.9751 46.985 86.9851L50.935 83.3351C50.225 81.6001 48.395 78.3801 44.11 76.3301V76.3351Z" fill="#878787"/>
<path d="M40.295 79.8601L40.25 79.9001C39.005 79.9551 37.575 80.8751 35.265 83.6301C32.015 87.5051 29.03 89.3901 29.03 89.3901C29.03 89.3901 13.395 97.6101 17.71 104.055C17.815 104.215 17.92 104.36 18.025 104.505C18.475 104.39 19.03 104.325 19.595 104.46C20.835 104.76 22.8 106.365 22.695 108.5C24.415 109.09 25.54 108.545 25.54 108.545C32.655 105.82 34.735 98.8201 38.655 95.1151C42.575 91.4051 44.745 90.8601 46.285 87.9751C46.39 87.7801 46.465 87.5801 46.52 87.3751L46.535 87.3901L46.545 87.3801C46.365 85.5701 45.38 81.6251 40.29 79.8501L40.295 79.8601Z" fill="#878787"/>
<path d="M104.145 34.865C87.7415 18.5951 72.4001 18.23 72.4001 18.23C81.1001 22.67 85.35 27.41 85.35 27.41C101.515 45.045 98.13 58.155 98.13 58.155C98.13 58.155 97.48 67.685 85.1651 75.255C72.8501 82.825 52.2401 69.95 52.2401 69.95C51.5501 73.315 48.23 76.03 47.05 76.91C49.055 78.355 50.32 80 51.105 81.38L53.3301 79.325C61.8101 85.805 66.68 86.995 66.68 86.995C94.2201 97.275 108.275 75.53 108.275 75.53C108.275 75.53 121.685 54.03 104.145 34.86V34.865ZM104.475 72.31C99.195 81.295 88.5651 85.645 78.5501 86.405C85.1801 85.535 91.795 83.31 97.17 79.285C109.92 69.57 111.25 50.2 101.77 37.73C99 34.02 95.6501 30.775 92.18 27.715C97.465 31.905 102.575 36.68 105.6 42.805C110.29 51.98 109.84 63.515 104.48 72.31H104.475Z" fill="white"/>
</svg>
