<svg width="128" height="128" viewBox="0 0 128 128" fill="none" xmlns="http://www.w3.org/2000/svg">
<g clip-path="url(#clip0_268_8645)">
<path d="M95.2959 30.9572C92.7343 24.3134 87.088 28.3931 87.088 28.3931C87.088 28.3931 92.3363 30.7276 91.007 33.7255C90.2696 35.3865 89.0373 35.3992 87.5651 35.4732C87.0421 35.5013 86.6466 35.9325 86.6288 36.4555C86.616 36.8714 86.5395 37.3868 86.3251 37.9481C85.922 39.0197 85.0877 39.752 83.9472 40.9333C84.1616 42.1069 86.2639 44.5665 88.0729 45.1405C89.5195 43.7857 90.0451 43.153 90.9687 42.7244C91.4101 42.5228 92.0633 42.3799 92.6067 42.3365C93.0303 42.3008 93.3747 41.9921 93.4844 41.5813C93.7141 40.719 94.2805 39.4432 95.5128 38.8335C97.1074 38.0451 99.8247 39.1243 101.935 43.2449C104.453 38.5528 101.363 36.1672 99.7201 35.3865C103.966 33.922 107.009 30.9649 111.097 26.0049C115.069 21.1853 116.526 18.8406 125.298 1.7512C113.408 12.4671 105.438 20.8103 95.2908 30.9572L95.2959 30.9572ZM98.8092 34.0521L98.7046 34.1771C97.8142 34.2103 96.9339 34.4629 96.1022 34.7793C93.6145 35.7003 91.65 38.4354 92.2572 41.1246C90.6013 40.1117 89.0143 38.8207 88.1749 37.027L88.2362 36.9913C88.7209 37.7261 89.2567 38.4303 89.9175 38.9891C90.4584 39.4534 91.0529 39.8489 91.6678 40.2189C91.5326 38.5222 92.3975 36.8714 93.5457 35.6722C94.6555 34.4654 96.2272 33.8378 97.7989 33.5316C97.9724 33.501 98.1535 33.4729 98.3372 33.4576C105.93 24.8389 114.067 14.9777 121.68 6.6244C115.034 14.5772 105.4 26.2524 98.8041 34.0572L98.8092 34.0521Z" fill="white"/>
<path d="M9.28786 123.058L9.27511 123.071C9.10926 123.237 8.86943 123.282 8.69594 123.18C8.12187 122.841 7.54269 122.415 7.01455 121.887C6.48641 121.359 6.05777 120.772 5.72098 120.195C5.62148 120.024 5.6674 119.784 5.83325 119.619L5.846 119.606C6.06798 119.384 6.40476 119.389 6.54509 119.616C6.86912 120.139 7.26714 120.67 7.75191 121.155C8.23668 121.639 8.75717 122.032 9.28276 122.359C9.50984 122.499 9.51239 122.833 9.29041 123.055L9.28786 123.058Z" fill="#878787"/>
<path d="M3.36069 120.81C3.95262 120.438 4.72314 120.249 5.32017 120.361C5.33293 120.4 5.34824 120.43 5.36865 120.466C5.75392 121.122 6.20041 121.706 6.69794 122.203C7.19547 122.701 7.76953 123.142 8.4227 123.53C8.45842 123.551 8.49414 123.566 8.53241 123.579C8.64977 124.201 8.44056 125.007 8.03743 125.61C7.892 125.826 7.61135 125.918 7.36131 125.837C6.13663 125.428 5.39162 125.898 4.92215 126.138C4.74866 126.224 4.92215 126.138 4.74866 126.224C4.54199 125.936 3.72554 126.207 3.2076 125.689C2.68966 125.171 2.96267 124.357 2.67436 124.145L2.7611 123.972C2.99328 123.515 3.50101 122.543 3.12085 121.555C3.01369 121.28 3.11065 120.968 3.36069 120.81Z" fill="#878787"/>
<path d="M86.4162 44.8828L32.2522 99.0468C32.2522 99.0468 31.5046 98.8095 30.7953 98.1002C30.086 97.3909 29.859 96.6535 29.859 96.6535L84.023 42.4895C84.023 42.4895 84.347 43.0636 85.0946 43.8112C85.8421 44.5587 86.4162 44.8828 86.4162 44.8828Z" fill="#878787"/>
<path d="M19.476 105.645L18.5141 106.469C18.1416 106.79 17.7768 107.125 17.4272 107.469C17.3175 107.706 17.2053 107.946 17.1007 108.188C16.524 109.536 16.0571 110.941 15.8607 112.393C15.6923 113.618 15.705 114.922 16.1872 116.072L18.9759 113.682C18.6136 112.993 18.4197 112.238 18.3585 111.462C18.1927 109.469 18.7183 107.505 19.4735 105.642L19.476 105.645Z" fill="#878787"/>
<path d="M12.932 115.327C12.7815 116.442 12.7815 117.616 13.1438 118.687L15.907 116.317C15.6365 115.71 15.486 115.059 15.4298 114.396C15.2538 112.286 15.8508 110.204 16.6826 108.244C16.5218 108.421 16.3637 108.594 16.208 108.775L14.1439 111.186C13.5801 112.51 13.1259 113.898 12.9295 115.33L12.932 115.327Z" fill="#878787"/>
<path d="M27.6325 98.6562L25.446 100.531C25.0811 101.529 24.7954 102.555 24.655 103.603C24.4841 104.861 24.507 106.201 25.025 107.372L27.5509 104.422C27.3264 103.866 27.2013 103.272 27.1529 102.672C27.0381 101.312 27.2498 99.9625 27.6351 98.6536L27.6325 98.6562Z" fill="#878787"/>
<path d="M13.4028 112.049L10.8462 115.034C10.4559 116.077 10.1497 117.154 9.99916 118.259C9.86394 119.256 9.84863 120.308 10.1089 121.287L12.8491 118.94C12.6603 118.425 12.5455 117.881 12.4995 117.33C12.349 115.531 12.7649 113.753 13.4028 112.054L13.4028 112.049Z" fill="#878787"/>
<path d="M24.2221 105.604C24.092 104.045 24.3854 102.501 24.8829 101.014L22.7525 102.838C22.2728 104.027 21.8952 105.262 21.7242 106.535C21.538 107.905 21.5763 109.372 22.2447 110.612C22.3085 110.538 22.3749 110.467 22.4412 110.39L24.7732 107.67C24.4594 107.025 24.2859 106.321 24.2272 105.604L24.2221 105.604Z" fill="#878787"/>
<path d="M9.56799 120.256C9.44297 118.748 9.71342 117.253 10.1778 115.809L7.04975 119.458C7.04975 119.458 7.27938 120.198 7.98612 120.904C8.69286 121.611 9.44297 121.851 9.44297 121.851L9.80527 121.54C9.68026 121.124 9.60116 120.693 9.56544 120.254L9.56799 120.256Z" fill="#878787"/>
<path d="M28.1685 98.197C27.9057 99.0058 27.6965 99.8325 27.5817 100.677C27.426 101.818 27.4311 103.022 27.8215 104.111L31.595 99.71C31.595 99.71 30.8908 99.5161 30.1433 98.7686C29.3957 98.021 29.2018 97.3168 29.2018 97.3168L28.171 98.1996L28.1685 98.197Z" fill="#878787"/>
<path d="M21.9538 110.842C21.5583 110.13 21.3593 109.339 21.2929 108.533C21.1475 106.764 21.5455 105.014 22.163 103.34L20.0989 105.109C20.0785 105.16 20.053 105.206 20.0325 105.257C19.4559 106.604 18.989 108.01 18.7926 109.461C18.6114 110.796 18.6471 112.219 19.262 113.436L20.132 112.689C20.7878 112.125 21.4103 111.523 21.992 110.885C21.9793 110.872 21.964 110.857 21.9512 110.839L21.9538 110.842Z" fill="#878787"/>
</g>
<defs>
<clipPath id="clip0_268_8645">
<rect width="128" height="128" fill="white"/>
</clipPath>
</defs>
</svg>
