<svg width="128" height="128" viewBox="0 0 128 128" fill="none" xmlns="http://www.w3.org/2000/svg">
<g clip-path="url(#clip0_268_8649)">
<g clip-path="url(#clip1_268_8649)">
<path d="M38.7968 78.3063C41.2071 79.174 43.3667 79.4633 45.5424 79.7171C46.5965 79.8393 47.2328 79.3186 47.8916 78.6598C59.4996 67.0326 71.114 55.4117 82.7252 43.7941C91.0809 35.4384 98.9031 28.1047 101.301 25.8744C99.067 28.275 91.7397 36.0972 83.3808 44.4497C71.7632 56.0673 60.1392 67.6785 48.5151 79.2833C47.8563 79.9421 47.3357 80.5784 47.4578 81.6325C47.7085 83.8114 47.9945 85.9678 48.8686 88.3781C49.6978 87.549 50.3566 86.9416 50.9575 86.2828C63.3561 72.6116 75.6711 58.8697 88.1596 45.2821C97.9358 34.6446 111.996 19.9032 121.139 6.13885C121.052 6.19348 120.959 6.24811 120.869 6.30596C120.927 6.21598 120.985 6.12599 121.036 6.03601C107.275 15.1823 92.5335 29.2423 81.8929 39.0153C68.3052 51.5038 54.5633 63.8188 40.8921 76.2174C40.2301 76.8151 39.6227 77.4804 38.7968 78.3063Z" fill="white"/>
<path d="M40.8376 80.1993C42.438 80.3986 43.9742 80.6364 45.52 80.7553C46.3556 80.8196 46.4487 81.3049 46.5291 81.938C46.7155 83.4163 46.9244 84.8914 47.1301 86.389C44.3952 85.7816 42.1295 83.5673 40.8408 80.2026L40.8376 80.1993Z" fill="white"/>
<path d="M39.8961 87.9026C38.7745 86.781 37.6465 85.6659 36.5313 84.5378C33.1473 81.1088 32.6395 75.8833 35.3037 71.8565C35.7183 71.2298 36.165 70.5774 36.9138 70.3107C37.489 70.1082 38.1703 70.0054 38.5849 70.5613C39.022 71.1462 38.3631 71.4708 38.0707 71.8533C37.5661 72.5121 36.9877 73.1227 36.541 73.8201C35.0627 76.1275 35.5865 78.059 38.0868 79.1131C39.0059 79.4987 39.5201 80.0258 39.9186 80.8999C41.1141 83.4966 42.8334 85.6851 45.443 86.9771C46.8185 87.6584 47.8436 88.4136 48.4928 89.9626C49.2834 91.8394 51.0381 92.2315 52.8796 91.322C53.5448 90.991 54.1393 90.4993 54.7275 90.0333C55.3477 89.5416 55.6851 88.5743 56.6814 88.7607C57.0735 88.8314 57.1153 89.3424 57.096 89.7216C57.0445 90.7371 56.7682 91.4956 55.7366 92.103C50.9674 94.9182 46.2657 94.4136 42.3996 90.5154C41.548 89.6573 40.6931 88.8089 39.8382 87.954C39.8543 87.938 39.8704 87.9219 39.8832 87.909L39.8961 87.9026Z" fill="#878787"/>
<path d="M16.2269 121.194C14.1252 123.09 11.5927 123.797 8.80323 122.749C5.86267 121.647 4.16582 119.397 4.03727 116.248C3.91194 113.179 5.45131 110.964 8.09942 109.46C8.87715 109.017 9.5456 109.268 10.2558 109.534C13.8488 110.891 16.2269 113.455 17.7278 116.936C18.5248 118.787 17.3582 119.902 16.2302 121.197L16.2269 121.194ZM14.2119 112.925C12.4797 111.212 9.89911 111.234 8.18941 112.976C6.56648 114.631 6.56648 117.492 8.18619 119.105C9.73843 120.651 12.8107 120.599 14.3533 118.999C15.9763 117.318 15.912 114.606 14.2119 112.925Z" fill="#878787"/>
<path d="M38.7456 94.7028C37.8939 91.8586 36.8752 89.5351 35.1366 87.6101C34.722 87.1505 34.6256 86.7199 35.098 86.241C35.5768 85.7622 36.046 85.5244 36.6599 86.0418C38.4017 87.5008 39.8897 89.188 41.2491 90.9974C41.6669 91.5501 41.5094 91.9454 41.0852 92.3632C40.391 93.0509 39.7033 93.7451 38.7424 94.706L38.7456 94.7028Z" fill="#878787"/>
<path d="M34.5613 98.373C34.1692 96.1813 33.7482 94.147 33.1601 91.8813C35.1269 92.5819 37.7075 92.0388 38.1574 94.192C38.6234 96.432 35.8146 96.9076 34.5645 98.3698L34.5613 98.373Z" fill="#878787"/>
<path d="M16.1305 107.291C16.0855 107.31 16.0437 107.333 16.0019 107.355C15.9152 107.404 15.838 107.461 15.7641 107.529C15.4106 107.857 15.1792 108.365 14.8996 108.779C14.4594 109.438 15.0121 109.791 15.1953 109.93C15.3785 110.068 16.3972 110.759 16.5354 110.884C16.6575 111.025 17.326 111.887 17.4899 112.224C17.6538 112.562 17.9816 112.96 18.6404 112.52C19.055 112.24 19.566 112.012 19.8906 111.655C19.958 111.588 20.0191 111.508 20.0641 111.418C20.0866 111.376 20.1091 111.334 20.1284 111.289C20.138 111.26 20.1509 111.228 20.1605 111.199C20.1669 111.18 20.1734 111.16 20.1798 111.141C20.408 110.373 20.093 109.223 19.296 108.329C19.2928 108.326 19.2896 108.316 19.2896 108.31C19.2575 108.278 19.2285 108.249 19.1996 108.22C19.1675 108.188 19.1385 108.159 19.1096 108.13C19.1064 108.127 19.0968 108.123 19.0903 108.123C18.1969 107.326 17.0464 107.012 16.2783 107.24C16.259 107.246 16.2398 107.253 16.2205 107.259C16.1916 107.269 16.1594 107.275 16.1305 107.291Z" fill="#878787"/>
<path d="M30.7112 102.172C30.3898 100.558 30.0813 99.4849 29.9977 98.3923C29.9334 97.5567 28.7219 96.3772 29.9141 95.9627C31.1032 95.5513 32.8161 95.7924 33.7063 96.7854C34.4326 97.5953 34.1145 98.9032 33.115 99.7806C32.3887 100.417 31.7363 101.14 30.7079 102.168L30.7112 102.172Z" fill="#878787"/>
<path d="M33.5425 95.6962C31.2126 95.4102 29.2554 94.9635 26.813 95.1885C28.5548 93.4723 29.3808 90.9046 31.8875 91.618C33.3883 92.0454 32.7584 94.2115 33.5425 95.6962Z" fill="#878787"/>
<path d="M30.8397 90.885C32.0256 89.7506 32.6523 87.4528 34.2784 87.7806C35.9014 88.1051 36.287 90.3226 37.3347 92.0966C34.9565 91.7238 32.9929 91.0714 30.8397 90.885Z" fill="#878787"/>
<path d="M23.4739 99.2281C24.2806 98.2736 24.8848 97.6052 25.4343 96.8949C26.0771 96.0658 26.9062 95.5259 27.9346 95.6287C29.1429 95.7508 28.8923 96.972 29.2265 97.7305C29.7439 98.9164 29.7857 99.7294 27.9989 99.4338C26.633 99.2056 25.2093 99.2924 23.4771 99.2249L23.4739 99.2281Z" fill="#878787"/>
<path d="M27.1118 104.858C26.7744 103.499 26.6779 102.413 26.2344 101.494C25.5371 100.057 26.093 99.7132 27.3689 99.9478C28.333 100.121 29.7117 99.5911 30.1198 100.918C30.4766 102.079 29.5607 102.847 28.693 103.509C28.227 103.865 27.7963 104.27 27.1118 104.858Z" fill="#878787"/>
<path d="M20.6073 102.75C21.34 101.889 21.8285 101.259 22.3684 100.687C23.0176 99.9991 23.9367 99.4914 24.7626 99.906C25.6625 100.356 25.6946 101.532 25.9067 102.458C26.0642 103.149 25.5211 103.081 25.0583 103.049C23.7246 102.949 22.3909 102.869 20.6073 102.75Z" fill="#878787"/>
<path d="M23.5543 107.15C23.1687 106.95 22.6802 103.647 22.963 103.614C24.0717 103.476 25.4343 103.258 26.196 103.955C27.2437 104.919 24.5216 107.654 23.5543 107.156L23.5543 107.15Z" fill="#878787"/>
<path d="M11.5863 109.444C15.16 109.502 17.6152 111.912 17.8627 115.656C16.3201 113.028 14.4529 110.743 11.5863 109.444Z" fill="#878787"/>
<path d="M17.9142 106.793C17.8114 106.754 17.8242 106.6 17.9367 106.584C18.8847 106.472 20.1317 106.51 20.9994 106.51C21.6164 106.51 22.9951 106.533 22.9565 107.619C22.9276 108.458 20.5687 109.73 20.5687 109.73C20.5687 109.73 20.3823 107.699 17.9142 106.793Z" fill="#878787"/>
<path d="M18.3255 105.713C19.3893 104.553 19.9227 103.178 21.295 103.412C22.5773 103.634 22.227 105.07 22.6769 106.305C21.2468 106.109 20.0352 105.945 18.3223 105.71L18.3255 105.713Z" fill="#878787"/>
<path d="M13.8327 113.4C12.3844 111.952 10.0362 111.952 8.58792 113.4C7.13961 114.849 7.13961 117.197 8.58792 118.645C10.0362 120.093 12.3844 120.093 13.8327 118.645C15.281 117.197 15.281 114.849 13.8327 113.4Z" fill="#878787"/>
</g>
</g>
<defs>
<clipPath id="clip0_268_8649">
<rect width="128" height="128" fill="white"/>
</clipPath>
<clipPath id="clip1_268_8649">
<rect width="29.0419" height="162.635" fill="white" transform="translate(16.5001 131.5) rotate(-135)"/>
</clipPath>
</defs>
</svg>
