<svg width="128" height="128" viewBox="0 0 128 128" fill="none" xmlns="http://www.w3.org/2000/svg">
<path d="M101.675 29.7652L102.04 29.3752C102.07 29.4002 102.1 29.4252 102.13 29.4452C102.665 29.8402 103.415 29.7402 103.84 29.2302C115.405 15.4102 115.33 11.4702 115.33 11.4702C109.78 13.0352 98.71 23.4902 98.2 24.2752C97.69 25.0602 98.335 25.9752 98.335 25.9752L98 26.3352C95.435 23.6652 92.415 21.8402 92.415 21.8402L94.44 19.6652C94.66 19.4302 94.65 19.0552 94.41 18.8352L87.005 11.9402L87.555 18.3952L82.495 18.3552L82.835 23.0852L76.415 23.3152L83.82 30.2102C84.14 30.5102 84.645 30.4902 84.945 30.1702L87.65 27.2652C89.3 30.3102 91.245 32.4102 91.245 32.4102L89.845 33.9152C91.485 35.7902 93.36 37.5102 94.54 38.4702L95.87 37.0452C100.16 39.5352 104.05 42.0252 107.075 44.6802C111.785 48.8152 115.55 55.2302 115.55 55.2302C116.405 43.3302 101.69 29.7702 101.69 29.7702L101.675 29.7652ZM94.575 33.5402L94.475 30.7802L97.235 30.6802L97.335 33.4402L94.575 33.5402ZM108.04 42.8002C105.81 40.4402 103.43 38.2052 100.965 36.1002C100.965 36.1002 100.98 36.0852 100.995 36.0652C100.28 36.1152 99.56 36.1652 98.845 36.2002C98.075 36.2452 97.305 36.2902 96.53 36.3152C97.995 36.1102 99.46 35.9202 100.93 35.7502C100.585 34.6302 100.225 33.5102 99.9 32.3852C99.635 31.3902 99.165 30.0152 98.8 29.0002C96.495 28.4502 94.135 27.8002 91.87 27.1352C91.895 28.7502 91.895 30.3652 91.875 31.9802C91.74 30.3452 91.625 28.7102 91.535 27.0752L91.51 27.1002L84.11 19.8402L91.88 26.7052L91.83 26.7602C94.17 27.3002 96.57 27.9502 98.915 28.4752L111.78 15.0552L99.31 28.8402L99.84 30.4552C100.37 32.2002 100.81 33.9702 101.265 35.7352C101.29 35.7052 101.31 35.6802 101.31 35.6802C103.735 37.8752 106.055 40.1702 108.23 42.6102C110.36 45.0552 112.525 47.6002 113.78 50.6202C112.445 47.6402 110.22 45.1702 108.03 42.7952L108.04 42.8002Z" fill="white"/>
<path d="M33.055 99.8603C33.33 100.12 33.405 100.51 33.395 100.86C33.55 101.115 33.72 101.38 33.74 101.445C33.915 101.935 33.965 101.975 33.99 102.475C34.005 102.85 33.96 103.33 33.96 103.655L93.79 39.2703C92.57 38.2703 90.73 36.5803 89.095 34.7153L28.93 99.3203C28.93 99.3203 28.04 101.29 29.93 103.18C30.605 103.855 31.26 104.14 31.82 104.235C31.94 103.895 32.035 103.42 32.07 103.22C32.11 103.01 32.07 102.185 31.935 102.025C31.715 101.98 31.5 101.88 31.325 101.715C30.81 101.24 30.785 100.435 31.26 99.9253C31.735 99.4153 32.54 99.3853 33.05 99.8603H33.055ZM87.89 39.0303C88.325 38.5653 89.05 38.5403 89.515 38.9703C89.98 39.4053 90.005 40.1303 89.575 40.5953C89.145 41.0603 88.415 41.0853 87.95 40.6553C87.485 40.2203 87.46 39.4953 87.89 39.0303ZM83.33 44.0053C83.765 43.5403 84.49 43.5153 84.955 43.9453C85.42 44.3803 85.445 45.1053 85.015 45.5703C84.585 46.0353 83.855 46.0603 83.39 45.6303C82.925 45.1953 82.9 44.4703 83.33 44.0053ZM79.035 48.5453C79.47 48.0803 80.195 48.0553 80.66 48.4853C81.125 48.9203 81.15 49.6453 80.72 50.1103C80.29 50.5753 79.56 50.6003 79.095 50.1703C78.63 49.7353 78.605 49.0103 79.035 48.5453ZM74.51 53.4053C74.945 52.9403 75.67 52.9153 76.135 53.3453C76.6 53.7803 76.625 54.5053 76.195 54.9703C75.76 55.4353 75.035 55.4603 74.57 55.0303C74.105 54.6003 74.08 53.8703 74.51 53.4053ZM69.785 58.4803C70.22 58.0153 70.945 57.9903 71.41 58.4203C71.875 58.8553 71.9 59.5803 71.47 60.0453C71.04 60.5103 70.31 60.5353 69.845 60.1053C69.38 59.6703 69.355 58.9453 69.785 58.4803ZM64.92 63.7053C65.355 63.2403 66.08 63.2153 66.545 63.6453C67.01 64.0803 67.035 64.8053 66.605 65.2703C66.17 65.7353 65.445 65.7603 64.98 65.3303C64.515 64.8953 64.49 64.1703 64.92 63.7053ZM60.34 68.6253C60.775 68.1603 61.5 68.1353 61.965 68.5653C62.43 69.0003 62.455 69.7253 62.025 70.1903C61.595 70.6553 60.865 70.6803 60.4 70.2503C59.935 69.8153 59.91 69.0903 60.34 68.6253ZM55.21 74.1353C55.645 73.6703 56.37 73.6453 56.835 74.0753C57.3 74.5103 57.325 75.2353 56.895 75.7003C56.46 76.1653 55.735 76.1903 55.27 75.7603C54.805 75.3253 54.78 74.6003 55.21 74.1353Z" fill="#878787"/>
<path d="M32.835 100.6C33.315 101.09 35.315 103.07 30.64 109.985C26.075 116.735 21.57 117.36 21.57 117.36C21.57 117.36 17.54 118.515 15.45 114.745C13.36 110.975 18.105 107.905 18.105 107.905C18.105 107.905 20.18 106.7 22.355 106.44C24.88 106.14 28.725 102.07 28.725 102.07C28.725 102.07 28.805 102.54 29.275 102.975C29.275 102.975 26.68 106.605 23.535 107.455C20.39 108.305 19.255 108.535 17.45 110.41C16.575 111.315 16.48 112.375 16.615 113.225C16.8 114.39 17.545 115.415 18.645 115.83C19.3 116.075 20.165 116.19 21.245 115.895C23.96 115.155 25.27 114.005 27.835 111.315C30.4 108.625 33.385 103.37 31.96 101.58C31.675 101.225 31.33 101.51 31.26 100.835C31.155 99.8055 32.145 99.9005 32.835 100.605V100.6Z" fill="#878787"/>
</svg>
