<svg width="128" height="128" viewBox="0 0 128 128" fill="none" xmlns="http://www.w3.org/2000/svg">
<path d="M89.365 31.085L89.495 31.23L89.36 31.09L89.365 31.085Z" fill="white"/>
<path d="M107.935 33.8847C104.845 36.2997 102.085 39.1397 99.795 42.3397C99.275 42.2147 97.29 41.6047 97.845 39.5647L97.7924 39.4796L97.6518 39.3038L97.5 39.1097L89.505 31.2397L89.495 31.2297L89.365 31.0847L89.11 30.7997C87.08 31.3297 86.48 29.3497 86.36 28.8347C89.545 26.5447 92.42 23.8197 94.84 20.7197C97.105 21.1797 96.46 23.4997 96.46 23.4997L96.48 23.5247C96.48 23.5247 96.47 23.5347 96.465 23.5397L96.7183 23.8512L97.0874 24.2986L104.41 31.5597L105.12 32.2697C105.12 32.2697 105.14 32.2547 105.15 32.2447L105.16 32.2547C105.16 32.2547 107.485 31.6147 107.935 33.8847Z" fill="white"/>
<path d="M98.3847 25.5999C99.5747 24.0899 100.755 23.8349 101.7 24.0149C101.5 24.2149 101.52 24.5399 101.76 24.9899C101.945 25.3399 102.255 25.7399 102.63 26.1149C103.08 26.5649 103.85 27.1849 104.38 27.1849C104.495 27.1849 104.595 27.1499 104.685 27.0799C104.825 28.0099 104.535 29.1549 103.07 30.2999C102.322 29.768 98.4369 25.8294 98.3847 25.5999Z" fill="white"/>
<path d="M119.26 44.4252L121.7 41.9952L119.76 40.0502L120.215 39.6002L113.54 32.9052L113.135 33.3152L110.88 31.0552C106.616 35.3107 103.695 38.5819 97.78 44.4852L99.765 46.4752L99.355 46.8802L106.025 53.5702L106.385 53.2102L108.37 55.2002L110.815 52.7602L110.86 52.8052C111.155 53.1052 111.64 53.1102 111.94 52.8102L119.345 45.4252C119.6 45.1752 119.6 44.7652 119.345 44.5102L119.265 44.4252H119.26ZM114.745 42.2852C114.745 42.2852 112.165 39.6902 111.21 38.7352L108.205 41.7302L106.84 43.1202L105.525 44.4352L104.41 44.4602C104.41 44.4602 109.875 39.0102 110.945 37.9402L111.215 37.6752L111.48 37.9402C112.06 38.5302 114.41 40.8852 114.41 40.8852L115.8 42.2702L114.745 42.2852Z" fill="white"/>
<path d="M104.57 26.4749C104.57 26.3949 104.35 25.8299 103.62 25.0949C102.94 24.4149 102.405 24.1749 102.24 24.1699C102.24 24.3349 102.48 24.8749 103.16 25.5549C103.89 26.2899 104.46 26.5049 104.575 26.4749H104.57Z" fill="white"/>
<path d="M96.905 18.495L94.65 16.23L95.055 15.825L88.385 9.13502L87.935 9.59002L85.995 7.64502L83.555 10.075C83.255 9.78002 82.775 9.78002 82.475 10.075L75.15 17.375C74.85 17.675 74.85 18.16 75.15 18.46L75.195 18.505L72.755 20.94L74.735 22.925L74.37 23.285L81.045 29.98L81.45 29.575L83.43 31.56C87.8643 27.1432 92.4716 22.9109 96.905 18.495ZM89.43 18.37C89.43 18.37 86.85 15.775 85.895 14.82L82.89 17.82L81.525 19.205L80.21 20.52L79.09 20.545C79.09 20.545 84.56 15.095 85.63 14.025L85.895 13.76L86.16 14.03C86.745 14.615 89.095 16.97 89.095 16.97L90.48 18.36L89.43 18.37Z" fill="white"/>
<path d="M94.385 39.595H94.39L89.195 34.38H89.19L88.15 33.345C88.15 33.345 86.83 33.25 86.765 34.725L87.815 35.78L92.985 40.965L94.035 42.015C95.51 41.955 95.42 40.635 95.42 40.635L94.38 39.595H94.385Z" fill="white"/>
<path d="M89.49 31.9851C89.49 31.9851 88.065 31.8151 88.12 33.3501L95.415 40.6701C96.955 40.7301 96.785 39.3051 96.785 39.3051L89.49 31.9851Z" fill="white"/>
<path d="M92.625 41.3153L87.455 36.1303L87.445 36.1403L86.71 35.4053L86.39 35.7353C86.05 36.0853 86.055 36.6453 86.4 36.9903L86.485 37.0753L84.83 38.7253L90.025 43.9353L91.68 42.2853L91.83 42.4403C92.135 42.7503 92.635 42.7553 92.95 42.4503L93.35 42.0653L92.61 41.3253L92.62 41.3153H92.625Z" fill="white"/>
<path d="M34.729 89.4017L20.5424 103.549L25.005 108.024L39.1917 93.8769L34.729 89.4017Z" fill="#878787"/>
<path d="M62.72 61.4849L61.96 62.2399C63.475 63.7949 65.315 65.2399 67.305 65.8649L69.64 63.5399C69.605 63.5399 69.57 63.5399 69.535 63.5399C67.205 63.5399 64.775 62.5949 62.72 61.4849Z" fill="#878787"/>
<path d="M14.86 107.09L13.06 108.885C13.06 108.885 11.185 111.43 13.91 114.64C17.115 117.38 19.66 115.51 19.66 115.51L21.46 113.715L14.86 107.09Z" fill="#878787"/>
<path d="M65.745 67.4251L66.885 66.2851C64.895 65.6001 63.08 64.1601 61.58 62.6201L60.745 63.4501C62.125 64.9951 63.845 66.5401 65.74 67.4201L65.745 67.4251Z" fill="#878787"/>
<path d="M17.235 105.245L16.97 104.975C16.97 104.975 15.335 104.825 15.21 106.73L16.26 107.785L20.76 112.305L21.81 113.355C23.655 113.24 23.58 111.71 23.57 111.61L17.225 105.25L17.235 105.245Z" fill="#878787"/>
<path d="M60.375 63.8252L38.95 85.1902L43.425 89.6802L65.345 67.8252C63.445 66.9052 61.745 65.3602 60.375 63.8252Z" fill="#878787"/>
<path d="M83.645 38.9551C83.52 38.8551 83.34 38.8551 83.225 38.9701L82.785 39.4101C82.45 39.7401 82.45 40.2801 82.785 40.6151L83.22 41.0501L63.115 61.0951C65.28 62.2401 67.835 63.1801 70.195 62.9901L87.695 45.5401L88.195 46.0401C88.495 46.3401 88.975 46.3401 89.275 46.0401L89.705 45.6151C89.86 45.4601 89.865 45.2101 89.725 45.0451L83.655 38.9551H83.645Z" fill="#878787"/>
<path d="M19.115 102.84C19.115 102.84 17.345 102.545 17.34 104.61L23.945 111.23C26.01 111.23 25.72 109.46 25.72 109.46L19.115 102.84Z" fill="#878787"/>
<path d="M43.07 90.0298L38.595 85.5448L38.585 85.5548L37.17 84.1348L36.425 84.2048L33.74 86.8848L33.625 87.5848L35.09 89.0498L35.085 89.0548L39.545 93.5298H39.55L41.015 94.9948L41.715 94.8848L44.405 92.2048L44.47 91.4598L43.06 90.0448L43.07 90.0298Z" fill="#878787"/>
</svg>
