<svg width="128" height="128" viewBox="0 0 128 128" fill="none" xmlns="http://www.w3.org/2000/svg">
<path d="M83.475 16.5301L81.47 13.9601L82.68 12.4101C82.945 12.0751 82.885 11.5851 82.545 11.3251L73.82 4.51514L74.015 10.5551C67.17 10.0451 69.585 16.2301 69.585 16.2301L63.975 17.8101L72.595 24.5401C72.835 24.7251 73.175 24.6851 73.36 24.4451L74.45 23.0451C76.04 22.4101 77.41 22.6101 78.425 22.9951L83.475 16.5251V16.5301ZM71.61 17.4851C70.24 17.8501 68.86 18.1851 67.465 18.4651C68.68 17.9601 69.91 17.5001 71.15 17.0701C69.29 13.4101 71.61 11.3451 75.36 11.6751C75.365 10.3501 75.4 9.03014 75.485 7.70514C75.685 9.21514 75.82 10.7301 75.92 12.2501C74.005 12.1101 70.815 12.4651 71.175 15.0651C71.24 15.8501 71.58 16.6501 71.905 17.4001L71.61 17.4801V17.4851Z" fill="white"/>
<path d="M100.49 25.335L90.36 17.43C90.035 17.175 89.635 17.04 89.225 17.04L83.95 17.055L79.08 23.295C79.83 23.69 80.26 24.115 80.26 24.115C85.045 27.85 82.245 31.74 82.245 31.74L78.88 35.815L84.525 40.22L87.555 36.225C87.555 36.225 91.62 32.68 94.085 34.455C96.55 36.23 95.545 40.805 95.545 40.805C105.235 42.025 117.37 53.16 117.37 53.16C116.34 45.06 107.995 33.78 104.265 29.08C103.16 27.685 101.89 26.435 100.49 25.34V25.335ZM85.97 32.85C84.935 32.38 84.765 31.015 85.655 30.305C86.075 29.97 86.675 29.9 87.16 30.12C88.195 30.59 88.365 31.955 87.475 32.665C87.055 33 86.455 33.07 85.97 32.85ZM97.225 34.705C95.855 34 95.63 32.175 96.79 31.16C97.43 30.595 98.395 30.475 99.155 30.87C100.525 31.575 100.75 33.4 99.59 34.415C98.95 34.98 97.985 35.1 97.225 34.705ZM101.305 37.5C100.27 37.03 100.1 35.665 100.99 34.955C101.41 34.62 102.01 34.55 102.495 34.77C103.53 35.24 103.7 36.605 102.81 37.315C102.39 37.65 101.79 37.72 101.305 37.5ZM104.01 39.66C103.61 39.35 103.54 38.77 103.85 38.37C104.16 37.97 104.74 37.9 105.14 38.21C105.54 38.52 105.61 39.1 105.3 39.5C104.99 39.9 104.41 39.97 104.01 39.66ZM113.48 47.08C107.09 37.17 101.875 27.285 91.705 20.72C91.54 20.595 90.56 19.94 90.56 19.94C95.81 22.905 100.71 26.885 104.425 31.575C107.245 35.095 109.36 39.035 111.53 43.015C112.25 44.335 113.255 46.24 113.785 47.65L113.485 47.08H113.48Z" fill="white"/>
<path d="M22.825 103.99C22.585 103.805 22.24 103.845 22.05 104.08C20.56 105.915 19.48 107.255 18.995 107.88C16.495 111.12 18.355 114.065 19.575 115.445C20.025 115.955 20.555 116.4 21.135 116.76C23.885 118.465 25.825 117.865 27.41 116.81C28.01 116.415 28.845 115.61 29.27 115.03L31.77 111.66C31.95 111.42 31.905 111.08 31.665 110.895L22.82 103.995L22.825 103.99Z" fill="#878787"/>
<path d="M44.855 93.1105L36.86 86.8705C36.625 86.6855 36.28 86.7255 36.09 86.9555C35.295 87.9205 34.505 88.8805 33.72 89.8355C33.52 90.0755 33.565 90.4305 33.81 90.6205L41.95 96.9755C42.195 97.1655 42.55 97.1205 42.735 96.8705L44.955 93.8755C45.135 93.6355 45.09 93.2955 44.85 93.1105H44.855Z" fill="#878787"/>
<path d="M34.965 106.445L26.325 99.7002C26.09 99.5152 25.745 99.5552 25.555 99.7902C24.71 100.825 23.92 101.79 23.195 102.675C23 102.915 23.04 103.265 23.285 103.46L32.065 110.31C32.31 110.5 32.665 110.455 32.85 110.205L35.07 107.21C35.25 106.97 35.205 106.63 34.965 106.445Z" fill="#878787"/>
<path d="M38.26 102L29.83 95.4205C29.595 95.2355 29.25 95.2755 29.06 95.5105C28.24 96.5055 27.45 97.4705 26.695 98.3955C26.5 98.6355 26.54 98.9905 26.785 99.1805L35.36 105.87C35.605 106.06 35.96 106.015 36.145 105.765L38.365 102.77C38.545 102.53 38.5 102.19 38.26 102.005V102Z" fill="#878787"/>
<path d="M67.075 64.5052C66.38 64.1902 64.855 63.4252 63.105 62.0602C61.91 61.1302 60.615 59.9202 59.405 58.3852L59.445 58.3502C55.03 58.3252 55.865 62.6652 55.915 62.9102C58.81 66.6552 62.095 68.2902 63.56 68.8702C67.51 68.7702 67.405 65.9802 67.07 64.5052H67.075ZM57.535 61.7752C57.31 61.6002 57.345 61.1702 57.62 60.8202C57.895 60.4702 58.3 60.3302 58.525 60.5052C58.75 60.6802 58.715 61.1102 58.44 61.4602C58.165 61.8102 57.76 61.9502 57.53 61.7752H57.535ZM60.885 64.7852C60.54 64.5152 60.48 64.0152 60.75 63.6702C61.02 63.3252 61.52 63.2652 61.865 63.5352C62.21 63.8052 62.27 64.3052 62 64.6502C61.73 64.9952 61.23 65.0552 60.885 64.7852ZM64.46 67.1802C64.235 67.0052 64.275 66.5802 64.55 66.2302C64.825 65.8802 65.23 65.7352 65.45 65.9102C65.67 66.0852 65.635 66.5102 65.36 66.8602C65.085 67.2102 64.68 67.3552 64.46 67.1802Z" fill="#878787"/>
<path d="M63.09 69.4402C62.14 69.0502 60.655 68.3152 59.005 67.0302C57.86 66.1352 56.645 64.9602 55.475 63.4702C54.095 65.1402 49.64 70.5252 44.29 77.0202C44.09 77.2602 44.13 77.6202 44.375 77.8102L51.85 83.6452C52.095 83.8352 52.45 83.7902 52.635 83.5402L63.09 69.4452V69.4402Z" fill="#878787"/>
<path d="M60.275 58.3354C62.685 61.2454 65.42 62.8904 66.81 63.5954L83.55 42.4354C83.875 42.0254 83.81 41.4254 83.395 41.0954L78.175 36.9354C77.76 36.6054 77.155 36.6754 76.825 37.0954L60.27 58.3354H60.275Z" fill="#878787"/>
<path d="M48.155 88.6656L40.38 82.6006C40.145 82.4156 39.805 82.4506 39.615 82.6856C38.83 83.6406 38.035 84.6006 37.245 85.5656C37.045 85.8056 37.085 86.1606 37.33 86.3556L45.25 92.5406C45.495 92.7306 45.85 92.6856 46.035 92.4356L48.255 89.4406C48.435 89.2006 48.39 88.8606 48.15 88.6756L48.155 88.6656Z" fill="#878787"/>
<path d="M41.56 97.5555L33.345 91.1454C33.11 90.9604 32.765 91.0005 32.575 91.2305C31.77 92.2105 30.98 93.1705 30.205 94.1105C30.005 94.3505 30.05 94.7054 30.295 94.8954L38.655 101.42C38.9 101.61 39.255 101.565 39.44 101.315L41.66 98.3205C41.84 98.0805 41.795 97.7405 41.555 97.5555H41.56Z" fill="#878787"/>
<path d="M51.45 84.2205L43.9 78.3305C43.665 78.1455 43.325 78.1805 43.135 78.4105C42.355 79.3555 41.565 80.3155 40.765 81.2855C40.565 81.5255 40.605 81.8855 40.85 82.0755L48.55 88.0855C48.795 88.2755 49.15 88.2305 49.335 87.9805L51.555 84.9855C51.735 84.7455 51.69 84.4055 51.45 84.2205Z" fill="#878787"/>
</svg>
