<svg width="128" height="128" viewBox="0 0 128 128" fill="none" xmlns="http://www.w3.org/2000/svg">
<path d="M98.085 27.5852C86.2 38.7452 68.055 58.5352 37.13 89.5052C37.375 89.8902 38.7 91.8552 40.615 93.2252C40.71 93.2952 40.81 93.3552 40.905 93.4152C48.45 86.0102 113.545 21.9402 116.725 13.0352C116.725 13.0352 111.665 14.8402 98.085 27.5852Z" fill="white"/>
<path d="M20.12 107.625C19.71 108.35 18.475 107.345 17.695 107.315C16.98 107.29 14.18 108.195 15.55 111.6C16.92 115.005 19.66 114.99 19.66 114.99C19.66 114.99 21.66 114.285 22.08 112.135C22.2 111.505 22.295 111.125 22.395 110.905C21.215 110.12 20.505 108.94 20.125 107.625H20.12Z" fill="#878787"/>
<path d="M24.31 102.645C23.94 102.94 23.2 103.055 22.645 103.135C21.95 103.235 20.11 103.015 20.135 105.34C20.27 106.34 20.475 107.355 20.875 108.285C21.245 109.15 21.89 110.03 22.69 110.64C22.91 110.635 23.23 110.845 23.79 110.955C24.265 111.05 26.72 110.535 26.815 107.26C26.82 107.04 26.855 106.865 26.905 106.725C25.655 105.685 24.765 104.22 24.31 102.645Z" fill="#878787"/>
<path d="M29.61 88.9747C29.56 91.8597 31.19 94.4648 32.95 96.6198C35.22 99.2248 38.27 101.09 41.63 101.905C41.805 101.61 43.51 98.4398 40.205 94.1498C40.15 94.1098 40.09 94.0798 40.035 94.0398C38.17 92.7098 36.865 90.9098 36.41 90.2298C36.4 90.2398 36.39 90.2498 36.38 90.2598C36.38 90.2598 32.9 87.6098 30.1 88.0698H29.65C29.625 88.3698 29.605 88.6747 29.61 88.9747Z" fill="#878787"/>
<path d="M28.2749 98.1602C27.2749 98.4252 25.9149 98.4852 24.9949 99.5102C24.1549 100.445 24.4599 101.36 24.5249 102C24.5499 102.075 24.5649 102.15 24.5899 102.22C25.1249 103.76 25.9649 105.235 27.1199 106.395C27.4199 106.145 27.8849 106.235 28.2949 106.275C28.9449 106.345 31.1849 105.125 30.9599 102.825C29.7849 101.375 28.8949 99.6352 28.2749 98.1602Z" fill="#878787"/>
<path d="M44.465 103.005C43.85 102.54 43.05 102.26 42.455 102.105C37.705 101.64 33.235 98.7148 30.92 94.5398C29.645 92.6648 29.135 90.2898 29.47 88.0598H29.46C29.46 88.0598 27.005 83.8348 24.23 86.5698C21.455 89.3048 25.225 92.3098 25.88 91.5898C26.845 90.5298 27.8 91.1248 27.8 91.1248C27.8 91.1248 28.085 92.8098 28.75 94.5848C29.725 96.2048 31.91 99.5748 34.225 101.485C35.57 102.205 38.81 103.9 39.995 104.22C39.995 104.22 41.84 105.27 40.98 106.165C40.34 106.83 42.445 107.78 43.5 107.505C46.445 106.73 45.745 103.985 44.455 103.005H44.465Z" fill="#878787"/>
<path d="M31.23 102.345C31.71 101.92 32.71 101.5 33.255 101.295C31.575 99.7251 30.05 97.5751 29.035 95.9951C29.085 96.6551 29.055 97.4551 28.715 97.8801C29.305 99.2851 30.145 100.95 31.23 102.345Z" fill="#878787"/>
</svg>
