<svg width="128" height="128" viewBox="0 0 128 128" fill="none" xmlns="http://www.w3.org/2000/svg">
<g clip-path="url(#clip0_268_8646)">
<path d="M96.9724 28.2984C94.7267 22.4718 89.7748 26.0527 89.7748 26.0527C89.7748 26.0527 94.3762 28.1015 93.2099 30.7257C92.5628 32.1811 91.4834 32.1914 90.1917 32.2604C89.7339 32.2834 89.386 32.662 89.3707 33.1224C89.3579 33.4881 89.2914 33.9383 89.1072 34.4294C88.7517 35.3681 88.0227 36.0101 87.0226 37.046C87.2119 38.0742 89.0535 40.233 90.6393 40.7343C91.908 39.5475 92.3684 38.9899 93.1792 38.619C93.5654 38.4426 94.1409 38.3172 94.6141 38.2789C94.985 38.2507 95.2894 37.977 95.384 37.6164C95.5835 36.8593 96.0797 35.7441 97.1642 35.207C98.5633 34.5138 100.945 35.4627 102.794 39.0769C105.004 34.964 102.293 32.8717 100.853 32.1837C104.574 30.8971 107.244 28.3087 110.828 23.9579C114.312 19.7324 115.585 17.676 123.279 2.69256C112.856 12.0873 105.866 19.3999 96.9698 28.2959L96.9724 28.2984ZM100.052 31.0097L99.9599 31.1171C99.1772 31.1478 98.4073 31.3652 97.6809 31.6466C95.4991 32.4523 93.7777 34.854 94.3097 37.2071C92.8595 36.3196 91.4655 35.1865 90.7314 33.6135L90.7851 33.5802C91.2097 34.2248 91.6804 34.8387 92.261 35.3323C92.7342 35.739 93.2559 36.0868 93.7956 36.4117C93.6754 34.9256 94.4351 33.4754 95.4428 32.4267C96.4173 31.3703 97.7934 30.8178 99.1721 30.5493C99.323 30.5211 99.4841 30.4981 99.6427 30.4828C106.298 22.9271 113.434 14.2818 120.107 6.95893C114.281 13.9314 105.835 24.1676 100.052 31.0097Z" fill="white"/>
<path d="M30.4263 99.6066C32.6516 105.377 37.5522 101.832 37.5522 101.832C37.5522 101.832 32.9943 99.8061 34.1504 97.2023C34.7899 95.7597 35.8616 95.752 37.1379 95.683C37.5906 95.66 37.9359 95.284 37.9513 94.8287C37.964 94.468 38.028 94.0204 38.2147 93.5319C38.537 92.6725 39.1815 92.0637 40.0589 91.166C40.1637 91.0611 40.1202 90.8897 39.9821 90.8335C38.4833 90.2503 37.3195 89.0456 36.7926 87.5876C36.7414 87.4495 36.5701 87.4009 36.4626 87.5032C35.3781 88.5315 34.9305 89.0353 34.1811 89.3806C33.8 89.5571 33.2322 89.6799 32.759 89.7183C32.3907 89.749 32.0914 90.0175 31.9968 90.3731C31.7998 91.1225 31.3062 92.23 30.2345 92.7595C28.8481 93.4449 26.4924 92.5062 24.6585 88.9279C22.4716 93.0024 25.1573 95.0742 26.582 95.752C22.8962 97.0233 20.2515 99.5913 16.7013 103.899C13.2509 108.086 11.9873 110.122 4.37026 124.957C14.6934 115.652 21.6148 108.408 30.4263 99.5964L30.4263 99.6066ZM27.3749 96.9184L27.467 96.811C28.2394 96.7803 29.0042 96.5629 29.7255 96.2866C31.8868 95.486 33.5903 93.1124 33.0659 90.7772C34.5034 91.6571 35.8846 92.7774 36.611 94.3376L36.5573 94.3708C36.1352 93.734 35.6723 93.1227 35.0968 92.6341C34.6287 92.2326 34.1146 91.8873 33.5775 91.565C33.6951 93.0383 32.9431 94.4706 31.9456 95.5142C30.9788 96.5629 29.618 97.1051 28.2496 97.3737C28.0987 97.4018 27.9401 97.4223 27.7841 97.4402C21.1902 104.924 14.1256 113.488 7.51377 120.739C13.2841 113.833 21.6506 103.696 27.3749 96.9184Z" fill="white"/>
<path d="M66.9317 64.4065L66.9189 64.4193C66.7527 64.5855 66.5123 64.6316 66.3383 64.5293C65.7628 64.1891 65.1822 63.7619 64.6528 63.2325C64.1233 62.703 63.6936 62.1147 63.356 61.5367C63.2562 61.3653 63.3023 61.1249 63.4685 60.9586L63.4813 60.9458C63.7038 60.7233 64.0415 60.7284 64.1821 60.9561C64.507 61.4804 64.906 62.0124 65.392 62.4984C65.8779 62.9844 66.3997 63.3783 66.9266 63.7057C67.1543 63.8463 67.1568 64.1814 66.9343 64.4039L66.9317 64.4065Z" fill="#878787"/>
<path d="M63.5829 67.8054L63.5701 67.8182C63.4038 67.9845 63.1634 68.0305 62.9895 67.9282C62.414 67.588 61.8333 67.1609 61.3039 66.6314C60.7744 66.1019 60.3447 65.5137 60.0071 64.9356C59.9073 64.7642 59.9534 64.5238 60.1196 64.3575L60.1324 64.3448C60.3549 64.1222 60.6926 64.1273 60.8333 64.355C61.1581 64.8793 61.5571 65.4113 62.0431 65.8973C62.5291 66.3833 63.0508 66.7772 63.5777 67.1046C63.8054 67.2453 63.8079 67.5803 63.5854 67.8029L63.5829 67.8054Z" fill="#878787"/>
<path d="M65.8438 66.7569C65.2095 67.3913 65.8259 66.7748 65.8259 66.7748C65.5957 67.005 64.8412 67.4936 64.6033 67.3529C63.8129 66.8848 63.0098 66.2965 62.2834 65.5701C61.557 64.8437 60.9636 64.0304 60.4981 63.2374C60.3599 63.0021 60.8485 62.2476 61.0787 62.0174C61.0787 62.0174 60.3216 62.7745 61.0966 61.9995C61.8716 61.2245 62.465 61.1017 62.6594 61.4138C63.107 62.1376 63.6544 62.864 64.3245 63.5342C64.9946 64.2043 65.7134 64.744 66.4347 65.1941C66.7467 65.3885 66.4858 66.1201 65.8489 66.7569L65.8438 66.7569Z" fill="#878787"/>
<path d="M77.1445 46.955L76.1802 47.7812C75.8067 48.1035 75.441 48.4385 75.0906 48.7838C74.9806 49.0217 74.868 49.2621 74.7632 49.5051C74.1851 50.8556 73.717 52.265 73.5201 53.7203C73.3513 54.9481 73.3641 56.2551 73.8475 57.4086L76.6431 55.012C76.2799 54.3214 76.0855 53.5643 76.0241 52.7867C75.8579 50.7891 76.3848 48.8196 77.1419 46.9525L77.1445 46.955Z" fill="#878787"/>
<path d="M70.5815 56.659C70.4306 57.7767 70.4306 58.9533 70.7938 60.0276L73.5639 57.6514C73.2927 57.0426 73.1418 56.3904 73.0856 55.7254C72.9091 53.6101 73.5076 51.523 74.3414 49.5586C74.1803 49.7351 74.0217 49.909 73.8657 50.0906L71.7964 52.5077C71.2312 53.8352 70.7759 55.2266 70.5789 56.6615L70.5815 56.659Z" fill="#878787"/>
<path d="M85.3189 39.9466L83.1269 41.8266C82.7611 42.8267 82.4747 43.8549 82.334 44.9062C82.1626 46.1671 82.1856 47.51 82.7049 48.684L85.2371 45.7272C85.012 45.1696 84.8866 44.5736 84.838 43.9726C84.7229 42.6093 84.9352 41.2562 85.3215 39.9441L85.3189 39.9466Z" fill="#878787"/>
<path d="M71.0565 53.3748L68.4937 56.3674C68.1023 57.4136 67.7954 58.493 67.6445 59.6005C67.5089 60.6006 67.4936 61.6544 67.7545 62.6365L70.5015 60.2834C70.3122 59.7667 70.1971 59.2219 70.1511 58.6694C70.0002 56.8662 70.4171 55.0834 71.0565 53.38L71.0565 53.3748Z" fill="#878787"/>
<path d="M81.9013 46.9138C81.7708 45.351 82.065 43.8036 82.5637 42.3124L80.428 44.1412C79.9471 45.3331 79.5686 46.5711 79.3972 47.8474C79.2105 49.221 79.2489 50.6917 79.919 51.9347C79.9829 51.8606 80.0494 51.789 80.1159 51.7122L82.4538 48.9856C82.1391 48.3385 81.9652 47.6326 81.9064 46.9138L81.9013 46.9138Z" fill="#878787"/>
<path d="M67.2151 61.6006C67.0898 60.089 67.3609 58.5901 67.8264 57.1424L64.6906 60.8C64.6906 60.8 64.9208 61.5418 65.6293 62.2503C66.3378 62.9588 67.0898 63.1992 67.0898 63.1992L67.453 62.8872C67.3277 62.4703 67.2484 62.038 67.2126 61.5981L67.2151 61.6006Z" fill="#878787"/>
<path d="M85.8556 39.4861C85.5921 40.2969 85.3824 41.1257 85.2673 41.9723C85.1112 43.1156 85.1164 44.3229 85.5077 45.415L89.2906 41.0029C89.2906 41.0029 88.7075 40.6704 87.958 39.9209C87.2086 39.1715 86.8915 38.6037 86.8915 38.6037L85.8581 39.4887L85.8556 39.4861Z" fill="#878787"/>
<path d="M79.6277 52.1653C79.2312 51.4517 79.0317 50.6587 78.9652 49.8505C78.8194 48.078 79.2185 46.3233 79.8374 44.6454L77.7682 46.418C77.7477 46.4691 77.7222 46.5152 77.7017 46.5663C77.1236 47.9168 76.6556 49.3261 76.4586 50.7815C76.277 52.1192 76.3128 53.5465 76.9292 54.7665L77.8014 54.0171C78.4588 53.4518 79.0829 52.8482 79.6661 52.2088C79.6533 52.196 79.6379 52.1806 79.6251 52.1627L79.6277 52.1653Z" fill="#878787"/>
<path d="M50.0631 73.7451L49.0989 74.5712C48.7254 74.8935 48.3597 75.2286 48.0093 75.5739C47.8993 75.8117 47.7867 76.0522 47.6819 76.2952C47.1038 77.6457 46.6357 79.055 46.4388 80.5104C46.27 81.7381 46.2828 83.0451 46.7662 84.1987L49.5618 81.802C49.1986 81.1114 49.0042 80.3543 48.9428 79.5768C48.7766 77.5792 49.3035 75.6097 50.0606 73.7425L50.0631 73.7451Z" fill="#878787"/>
<path d="M43.5019 83.4519C43.351 84.5697 43.351 85.7463 43.7142 86.8205L46.4843 84.4444C46.2132 83.8356 46.0622 83.1834 46.006 82.5184C45.8295 80.4031 46.428 78.3159 47.2618 76.3516C47.1007 76.528 46.9421 76.702 46.7861 76.8836L44.7169 79.3007C44.1516 80.6282 43.6963 82.0196 43.4994 83.4545L43.5019 83.4519Z" fill="#878787"/>
<path d="M58.2397 66.7391L56.0477 68.6191C55.6819 69.6192 55.3954 70.6474 55.2548 71.6986C55.0834 72.9596 55.1064 74.3024 55.6256 75.4765L58.1578 72.5197C57.9327 71.9621 57.8074 71.3661 57.7588 70.7651C57.6437 69.4018 57.856 68.0487 58.2422 66.7366L58.2397 66.7391Z" fill="#878787"/>
<path d="M43.9746 80.1649L41.4117 83.1575C41.0204 84.2036 40.7135 85.283 40.5626 86.3905C40.427 87.3906 40.4117 88.4444 40.6726 89.4266L43.4196 87.0734C43.2303 86.5568 43.1152 86.012 43.0692 85.4595C42.9183 83.6562 43.3352 81.8735 43.9746 80.17L43.9746 80.1649Z" fill="#878787"/>
<path d="M54.8199 73.7039C54.6894 72.1411 54.9835 70.5936 55.4823 69.1025L53.3466 70.9313C52.8657 72.1232 52.4872 73.3611 52.3158 74.6375C52.1291 76.011 52.1674 77.4817 52.8376 78.7248C52.9015 78.6506 52.968 78.579 53.0345 78.5023L55.3723 75.7757C55.0577 75.1286 54.8838 74.4226 54.825 73.7039L54.8199 73.7039Z" fill="#878787"/>
<path d="M40.1307 88.3931C40.0053 86.8815 40.2765 85.3826 40.742 83.9349L37.6061 87.5925C37.6061 87.5925 37.8363 88.3343 38.5449 89.0428C39.2534 89.7513 40.0053 89.9917 40.0053 89.9917L40.3685 89.6797C40.2432 89.2627 40.1639 88.8305 40.1281 88.3905L40.1307 88.3931Z" fill="#878787"/>
<path d="M58.7773 66.2786C58.5139 67.0894 58.3041 67.9181 58.189 68.7648C58.033 69.9081 58.0381 71.1154 58.4294 72.2075L62.2124 67.7954C62.2124 67.7954 61.6292 67.4629 60.8798 66.7134C60.1304 65.964 59.8132 65.3962 59.8132 65.3962L58.7799 66.2812L58.7773 66.2786Z" fill="#878787"/>
<path d="M52.5433 78.9578C52.1469 78.2441 51.9474 77.4512 51.8809 76.643C51.7351 74.8704 52.1341 73.1158 52.7531 71.4379L50.6838 73.2104C50.6634 73.2616 50.6378 73.3076 50.6173 73.3588C50.0393 74.7093 49.5712 76.1186 49.3743 77.574C49.1927 78.9117 49.2285 80.339 49.8449 81.559L50.7171 80.8096C51.3744 80.2443 51.9985 79.6407 52.5817 79.0012C52.5689 78.9884 52.5536 78.9731 52.5408 78.9552L52.5433 78.9578Z" fill="#878787"/>
</g>
<defs>
<clipPath id="clip0_268_8646">
<rect width="128" height="128" fill="white"/>
</clipPath>
</defs>
</svg>
