<svg width="128" height="128" viewBox="0 0 128 128" fill="none" xmlns="http://www.w3.org/2000/svg">
<path d="M21.5451 104.415C21.4701 104.425 21.4001 104.445 21.3301 104.47C20.8851 104.655 19.2151 105.4 20.1601 105.92C20.1601 105.92 22.8801 105.69 25.0701 106.53C25.3001 106.62 25.5501 106.62 25.7701 106.5C26.0151 106.37 26.3401 106.12 26.6601 105.66C26.9801 105.2 26.7401 104.515 26.1851 104.37C25.4401 104.175 24.0701 104.085 21.5501 104.41L21.5451 104.415Z" fill="#878787"/>
<path d="M24.1552 102.145C24.0852 102.16 24.0202 102.18 23.9552 102.21C23.5302 102.405 21.9002 103.21 22.7652 103.645C22.7652 103.645 25.3102 103.27 27.3102 103.915C27.5402 103.99 27.7852 103.98 27.9952 103.86C28.2052 103.74 28.4852 103.525 28.7752 103.16C29.1902 102.64 28.8702 101.86 28.2102 101.785C27.4702 101.7 26.2302 101.75 24.1552 102.15V102.145Z" fill="#878787"/>
<path d="M26.58 99.6554C26.51 99.6704 26.445 99.6904 26.38 99.7204C25.955 99.9154 24.325 100.72 25.19 101.155C25.19 101.155 27.735 100.78 29.735 101.425C29.965 101.5 30.215 101.49 30.42 101.37C30.625 101.25 30.91 101.035 31.2 100.67C31.615 100.15 31.295 99.3704 30.635 99.2954C29.895 99.2104 28.655 99.2604 26.58 99.6604V99.6554Z" fill="#878787"/>
<path d="M28.9301 97.1906C28.8601 97.2056 28.7951 97.2255 28.7301 97.2555C28.3051 97.4506 26.6751 98.2556 27.5401 98.6906C27.5401 98.6906 30.0851 98.3156 32.0851 98.9606C32.3151 99.0356 32.5601 99.0256 32.7701 98.9056C32.9801 98.7856 33.2601 98.5706 33.5501 98.2056C33.9651 97.6856 33.6451 96.9056 32.9851 96.8306C32.2451 96.7456 31.0051 96.7956 28.9301 97.1956V97.1906Z" fill="#878787"/>
<path d="M31.36 94.5201C31.29 94.5351 31.225 94.5551 31.16 94.5851C30.735 94.7801 29.105 95.5851 29.97 96.0201C29.97 96.0201 32.515 95.6451 34.515 96.2901C34.745 96.3651 34.995 96.3551 35.2 96.2351C35.405 96.1151 35.69 95.9001 35.98 95.5351C36.395 95.0151 36.075 94.2351 35.415 94.1601C34.675 94.0751 33.435 94.1251 31.36 94.5251V94.5201Z" fill="#878787"/>
<path d="M35.4 91.7803C35.04 91.8353 34.65 91.9003 34.225 91.9853C34.155 92.0003 34.09 92.0203 34.025 92.0503C33.6 92.2453 31.97 93.0503 32.835 93.4853C32.835 93.4853 35.64 93.0703 37.675 93.8603C37.675 93.8603 37.77 93.8403 37.925 93.7703L36.12 92.0203C35.93 91.8353 35.66 91.7503 35.4 91.7903V91.7803Z" fill="#878787"/>
<path d="M23.465 108.985C23.81 108.78 24.28 108.355 24.685 107.475C24.685 107.475 24.595 106.575 21.165 106.755L23.46 108.985H23.465Z" fill="#878787"/>
<path d="M47.2862 97.8012C45.5762 96.6562 44.4712 96.6162 44.4712 96.6162L41.2712 93.3612L41.6162 93.0062C40.7962 91.4462 41.7212 88.1012 42.1962 86.6212C39.3012 88.2762 36.4212 87.7862 35.5962 87.5962L35.4062 87.7862L32.2462 84.5962C32.2462 84.5962 32.0962 84.0512 32.0012 83.7562C31.8412 83.2512 31.7062 82.7212 30.9662 81.6562C29.7862 79.9812 28.3712 80.1012 27.7612 80.4512C26.9662 80.9062 26.9162 81.6312 26.9062 82.2062C26.8962 82.7862 27.3062 83.7012 28.0612 84.3612C29.5612 85.6762 30.8212 85.7462 30.8212 85.7462L33.6462 88.6662H33.6512L40.8062 95.6112L43.2662 97.8862C43.2662 97.8862 43.6762 99.3862 45.0662 100.821C46.4512 102.246 47.5612 102.036 48.0662 101.796C48.5912 101.566 48.8862 101.046 48.9312 100.511C48.9762 99.9762 48.9962 98.9412 47.2912 97.7912L47.2862 97.8012ZM30.5062 84.1212C30.1162 84.4362 29.1812 84.1712 28.6062 83.4562C28.0312 82.7412 28.0362 81.8462 28.4262 81.5362C28.8162 81.2212 29.5962 81.5462 30.1712 82.2612C30.7462 82.9762 30.8962 83.8062 30.5062 84.1212ZM39.8512 90.3662C39.2912 90.9262 38.5812 91.1162 38.2612 90.7962C37.9412 90.4762 38.1312 89.7612 38.6912 89.2062C39.2512 88.6462 39.9612 88.4562 40.2812 88.7762C40.6012 89.0962 40.4112 89.8112 39.8512 90.3662ZM47.7412 100.666C47.4112 101.041 46.5862 100.846 45.9012 100.236C45.2162 99.6262 44.9312 98.8312 45.2612 98.4562C45.5912 98.0812 46.4162 98.2762 47.1012 98.8862C47.7862 99.4962 48.0712 100.291 47.7412 100.666Z" fill="#878787"/>
<path d="M18.71 105.426L23.635 110.351L26.64 110.861C26.76 110.861 26.79 111.031 26.675 111.071L22.755 112.391L16.98 106.616L17.755 102.316C17.81 102.176 18.015 102.201 18.03 102.351L18.705 105.431L18.71 105.426Z" fill="#878787"/>
<path d="M16.6899 107.16L22.0949 112.56C22.0949 112.56 19.2799 113.11 18.7299 114.775C18.1599 116.5 13.8449 111.67 14.2749 110.955C14.7049 110.24 16.0099 110.955 16.6899 107.16Z" fill="#878787"/>
<path d="M108.58 16.2401L36.5601 86.5501C37.6851 86.7451 40.4501 86.9751 43.0451 85.2101L43.6851 84.7751L43.4201 85.5051C42.9151 86.8951 41.8901 90.4751 42.5151 92.0051L112.265 19.7401C116.575 14.9651 116.99 11.4051 116.99 11.4051C114.755 11.0151 108.58 16.2351 108.58 16.2351V16.2401ZM47.0051 85.1951C46.5251 84.2251 46.1001 83.4201 46.4951 81.9801C45.0401 82.3201 44.6901 82.4651 43.2701 81.8451C44.6551 82.0151 44.8251 82.0901 46.3301 81.4051L108.48 19.9151L47.1151 82.0901C46.8601 82.5651 46.5301 83.3351 47.0101 85.1951H47.0051Z" fill="white"/>
</svg>
