<svg width="128" height="128" viewBox="0 0 128 128" fill="none" xmlns="http://www.w3.org/2000/svg">
<path d="M31.1009 99.6297C30.5309 98.7997 30.3409 97.6797 30.5159 96.3047C30.1559 96.5397 29.7809 96.7847 29.4009 97.0497C29.1959 98.3847 29.3559 99.4497 29.8759 100.215C30.3059 100.85 30.9059 101.14 31.3159 101.27C31.6159 101.065 31.9259 100.86 32.2509 100.65C31.8609 100.445 31.4359 100.13 31.0959 99.6297H31.1009Z" fill="black"/>
<path d="M24.9757 104.755C24.2907 104.165 23.8407 103.28 23.6257 102.115C23.2207 102.585 22.8357 103.075 22.4707 103.58C22.8007 104.615 23.3007 105.36 23.9657 105.8C24.5907 106.215 25.2407 106.26 25.6757 106.225C25.8757 105.985 26.1007 105.725 26.3557 105.445C25.9257 105.35 25.4357 105.15 24.9757 104.755Z" fill="black"/>
<path d="M33.8701 94.3496C33.5501 94.5146 33.1651 94.7246 32.7201 94.9746C32.4701 96.3996 32.6151 97.5296 33.1601 98.3296C33.5401 98.8896 34.0551 99.1796 34.4551 99.3346C34.7301 99.1796 35.0101 99.0246 35.3001 98.8696L33.8701 94.3496Z" fill="black"/>
<path d="M25.3064 104.375C25.8064 104.805 26.3564 104.96 26.7764 105.005C27.0814 104.69 27.4214 104.36 27.8014 104.015C27.3764 103.86 26.9014 103.59 26.4914 103.11C25.8764 102.395 25.5714 101.39 25.5564 100.125C25.0464 100.6 24.5414 101.105 24.0664 101.63C24.2314 102.875 24.6464 103.8 25.3114 104.375H25.3064Z" fill="black"/>
<path d="M32.7511 98.6147C32.1811 97.7847 31.9911 96.6647 32.1661 95.2847C31.8261 95.4847 31.4561 95.7047 31.0761 95.9447C30.8211 97.3897 30.9611 98.5297 31.5111 99.3347C31.8811 99.8797 32.3711 100.17 32.7661 100.325C33.1311 100.095 33.5161 99.8697 33.9161 99.6347C33.5261 99.4297 33.0961 99.1147 32.7511 98.6097V98.6147Z" fill="black"/>
<path d="M29.4705 100.5C28.9355 99.7197 28.7405 98.6897 28.8605 97.4297C28.4855 97.6997 28.1055 97.9847 27.7205 98.2797C27.5055 99.6397 27.6605 100.715 28.1905 101.49C28.6055 102.095 29.1705 102.385 29.5805 102.525C29.9705 102.225 30.3805 101.92 30.8255 101.605C30.3855 101.41 29.8755 101.075 29.4755 100.49L29.4705 100.5Z" fill="black"/>
<path d="M31.685 86.93C32.355 87.21 32.955 87.28 33.465 87.12C33.56 87.09 33.645 87.055 33.725 87.015C33.725 87.005 33.725 87 33.725 87C33.725 87 34.19 86.93 34.37 85.755C34.465 85.125 33.985 84.04 34.32 83.075C34.575 82.34 35.505 81.725 36.38 81.15C36.38 81.15 33.66 80.28 30.945 84.765C30.945 84.765 30 85.86 31.69 86.93H31.685Z" fill="black"/>
<path d="M36.1147 91.0452C35.8847 90.8402 35.1947 90.2002 34.7047 89.4252C34.3297 88.8252 34.0297 88.0102 33.8647 87.4902C33.7847 87.5252 33.7047 87.5602 33.6197 87.5902C33.3847 87.6652 33.1397 87.7002 32.8797 87.7002C32.5797 87.7002 32.2597 87.6502 31.9297 87.5502C32.4147 88.9202 33.6697 92.1702 34.2647 93.7052H34.2797L34.3497 93.9152C34.4997 94.3002 34.5897 94.5352 34.5897 94.5352C34.5897 94.5352 34.5747 94.5402 34.5497 94.5552L36.4047 100.41C36.6997 101.255 37.1247 102.425 37.6547 103.725C37.7597 103.615 37.8797 103.505 38.0297 103.405C38.3947 103.165 38.8297 103.025 39.3297 102.99C39.0447 102.125 38.2097 99.3102 38.8647 97.9802C39.5497 95.6352 41.0647 93.5902 42.8297 91.9002C40.5697 92.8402 37.6947 93.0952 36.1197 91.0502L36.1147 91.0452Z" fill="black"/>
<path d="M27.7801 101.785C27.2501 101.005 27.0501 99.9796 27.1701 98.7246C26.7951 99.0296 26.4251 99.3446 26.0551 99.6746C25.9951 101.035 26.2651 102.075 26.8651 102.785C27.2951 103.29 27.8251 103.53 28.2351 103.64C28.5151 103.4 28.8101 103.15 29.1201 102.895C28.6851 102.7 28.1801 102.365 27.7801 101.785Z" fill="black"/>
<path d="M23.7002 106.22C23.0152 105.77 22.4902 105.05 22.1202 104.075C21.6052 104.845 21.1552 105.65 20.7852 106.49C22.3402 107.21 23.7502 107.575 24.5752 107.745C24.7252 107.5 24.9502 107.15 25.2702 106.725C24.8102 106.7 24.2502 106.575 23.7002 106.215V106.22Z" fill="black"/>
<path d="M41.1062 106.89C41.9212 105.45 40.4162 104.03 39.7312 103.485C39.1662 103.47 38.6862 103.57 38.3112 103.815C38.1112 103.945 37.9662 104.105 37.8562 104.255C37.7112 104.54 35.7012 108.725 43.0562 110.525C43.0562 110.525 40.0662 108.715 41.1012 106.885L41.1062 106.89Z" fill="black"/>
<path d="M20.441 106.885C20.171 106.97 19.676 107.17 19.296 107.56C18.281 108.595 17.581 110.37 15.906 107.895C15.906 107.895 15.371 110.205 16.006 111.58C16.831 113.36 18.421 114.275 20.101 114.11C22.076 113.91 25.031 112.82 24.336 108.22C23.446 108.03 22.016 107.645 20.436 106.89L20.441 106.885ZM21.891 111.615C21.316 112.1 20.466 112.03 19.986 111.465C19.511 110.9 19.586 110.05 20.161 109.565C20.736 109.08 21.586 109.15 22.061 109.715C22.536 110.28 22.461 111.13 21.886 111.615H21.891Z" fill="black"/>
<path d="M91.9959 46.5064C91.9959 46.5064 95.6509 47.8214 92.0909 52.0614C89.1659 55.5364 72.7409 70.8564 58.6859 79.5164C45.3809 87.7164 38.0109 90.3564 37.3809 90.5764C39.3459 92.4564 42.4609 91.6714 44.6659 90.4864C44.7659 90.4314 44.8759 90.3914 45.0009 90.4414C45.2559 90.5414 45.2759 90.8864 45.0759 91.0314C45.0459 91.0614 44.9509 91.1414 44.9209 91.1664C42.9959 92.8414 41.2609 94.8264 40.1809 97.1614C40.2459 97.0864 40.3109 97.0164 40.3909 96.9614C42.3259 95.6314 54.6409 89.6564 59.5009 86.7664C62.7709 84.8264 78.1259 75.0264 91.3459 61.4764C97.7909 54.8714 102.941 47.0714 107.611 39.2914C112.771 30.6914 115.096 13.6914 115.096 13.6914C115.096 13.6914 101.776 39.9864 91.9909 46.5064H91.9959ZM49.2609 89.4314C48.8209 89.8014 48.1759 89.7464 47.8109 89.3164C47.4459 88.8864 47.5059 88.2364 47.9459 87.8664C48.3859 87.4964 49.0309 87.5514 49.3959 87.9814C49.7609 88.4114 49.7009 89.0614 49.2609 89.4314ZM53.8909 87.1664C53.5109 87.4864 52.9459 87.4414 52.6259 87.0664C52.3109 86.6914 52.3609 86.1264 52.7409 85.8064C53.1209 85.4864 53.6859 85.5314 54.0059 85.9064C54.3259 86.2814 54.2709 86.8464 53.8909 87.1664ZM98.9559 45.6714C98.9559 45.6714 98.2309 46.3964 97.9709 46.6514C98.0909 47.2164 97.9759 47.7814 97.8259 48.2764C96.4759 52.0014 93.6809 54.9464 91.0459 57.8114C88.0259 61.0764 84.8309 64.1814 81.5259 67.1564C74.7859 72.9814 67.3409 77.8614 59.8909 82.7114C63.5309 80.1714 67.1509 77.6064 70.7209 74.9714C77.9909 69.8464 84.4709 63.8164 90.5209 57.3214C92.8059 54.9514 95.0309 52.4664 96.6509 49.5814C97.0859 48.7364 97.6459 47.7064 97.4959 46.7564C96.5809 46.5564 95.6359 46.3864 94.6959 46.4914C95.6209 46.1714 96.6359 46.1914 97.6059 46.3114L98.6259 45.3364C104.001 40.0264 107.941 33.3064 110.481 26.2164C108.081 33.3964 104.251 40.2214 98.9609 45.6714H98.9559Z" fill="black"/>
</svg>
