<svg width="128" height="128" viewBox="0 0 128 128" fill="none" xmlns="http://www.w3.org/2000/svg">
<g clip-path="url(#clip0_268_12827)">
<path d="M24.1376 110.156C23.9973 111.095 23.6262 111.454 23.28 111.837C20.3391 115.146 17.4544 118.511 13.9396 121.246C12.9853 121.988 11.9936 122.693 11.0268 123.423C10.5091 123.816 10.0101 123.828 9.13066 122.874C7.77093 121.402 6.31452 120.008 4.8737 118.605C4.21255 117.962 4.14705 117.579 4.40902 117.073C7.86761 110.477 15.343 109.62 24.1376 110.156Z" fill="black"/>
<path d="M13.5351 106.844C14.8449 105.753 16.1485 104.655 17.4708 103.576C18.2505 102.94 19.0801 102.359 19.8535 101.723C20.2808 101.371 20.6987 101.283 21.4721 102.082C22.916 103.569 24.4036 105.013 25.8632 106.485C26.175 106.797 26.6428 107.159 26.4651 107.511C26.3247 107.789 26.2156 108.179 25.6573 107.957C23.3776 107.05 21.2226 106.585 19.1705 106.504C17.212 106.429 15.4905 106.791 13.5351 106.838L13.5351 106.844Z" fill="black"/>
<path d="M9.66933 110.864C12.8784 107.424 17.5065 106.271 23.8654 107.945C24.3644 108.076 25.2345 108.036 25.3998 108.843C25.5152 109.414 25.0568 109.854 24.221 109.692C21.0836 109.08 18.255 109.158 15.5729 109.539C13.5146 109.832 11.6029 110.372 9.66933 110.864Z" fill="black"/>
<path d="M27.4692 105.591L79.6509 53.4096C79.9117 53.1489 79.9276 52.742 79.6864 52.5009L75.1457 47.9601C74.9045 47.719 74.4977 47.7349 74.2369 47.9957L22.0552 100.177C21.7944 100.438 21.7785 100.845 22.0196 101.086L26.5604 105.627C26.8015 105.868 27.2084 105.852 27.4692 105.591Z" fill="black"/>
<path d="M96.2885 24.0804L76.248 44.1209L75.3686 46.5222C75.2875 46.7406 75.3405 46.9869 75.5058 47.1522L80.3896 52.036C80.5486 52.1951 80.7857 52.2512 81.0009 52.1795L83.4864 51.3593L103.527 31.3188C104.787 30.0589 104.787 28.0193 103.527 26.7593L100.845 24.0773C99.5849 22.8173 97.5453 22.8173 96.2854 24.0773L96.2885 24.0804Z" fill="black"/>
<path d="M103.92 25.9861L109.602 23.485C110.135 23.3259 110.572 22.9704 110.831 22.487L116.762 11.422C116.952 11.0634 116.535 10.6517 116.182 10.842L105.158 16.8204C104.681 17.0793 104.325 17.5159 104.166 18.0429L101.655 23.7407L103.92 25.9861ZM105.834 18.3454L105.863 18.3174C106.499 18.8351 107.094 19.3933 107.687 19.9609C108.498 19.0627 111.177 16.4711 112.003 15.6384C113.014 14.6966 114.03 13.5365 115.056 12.7163C113.182 14.7527 109.808 18.4328 107.855 20.3975L107.703 20.5441C107.063 19.8237 106.418 19.1157 105.831 18.3486L105.834 18.3454Z" fill="black"/>
<path d="M109.134 56.4116C109.215 56.3305 109.53 56.0155 109.611 55.9344C125.532 40.3256 124.537 29.0579 124.537 29.0579L118.487 30.3303C118.487 30.3303 114.782 36.1559 109.689 37.3753C104.038 38.7288 99.6973 36.5395 99.6973 36.5395L89.7456 46.4911C89.7456 46.4911 92.7177 50.6171 90.2353 55.8752C87.7684 61.1052 82.9095 63.625 82.9095 63.625L81.634 70.1025C81.634 70.1025 93.5254 72.3323 109.134 56.4116ZM105.532 51.5309C109.331 47.8384 112.805 43.8153 115.487 39.2434C116.448 37.7652 117.28 36.2089 118.041 34.6122C117.446 36.2807 116.706 37.8993 115.867 39.4679C113.173 44.0648 109.652 48.1472 105.85 51.8428C100.873 56.8077 95.0567 61.4513 88.1052 63.176C94.7386 60.7278 100.614 56.58 105.535 51.534L105.532 51.5309Z" fill="black"/>
<path d="M57.5457 46.0142L64.0231 44.7386C64.0231 44.7386 66.5461 39.8829 71.773 37.4129C77.031 34.9305 81.157 37.9025 81.157 37.9025L91.1087 27.9509C91.1087 27.9509 88.9194 23.6097 90.2729 17.9587C91.4923 12.866 97.3179 9.16101 97.3179 9.16101L98.5903 3.11082C98.5903 3.11082 87.3226 2.11597 71.7169 18.0398C71.6358 18.1209 71.3208 18.4359 71.2397 18.517C55.3158 34.1227 57.5457 46.0142 57.5457 46.0142ZM64.4816 39.5461C66.2031 32.5977 70.8468 26.7814 75.8148 21.8009C79.5104 17.9993 83.5927 14.4721 88.1896 11.7838C89.7583 10.9449 91.3769 10.2058 93.0453 9.6101C91.4455 10.3679 89.8893 11.2068 88.4141 12.1643C83.8422 14.8463 79.8191 18.3205 76.1266 22.119C71.0775 27.0371 66.9297 32.9127 64.4847 39.5492L64.4816 39.5461Z" fill="black"/>
</g>
<defs>
<clipPath id="clip0_268_12827">
<rect width="128" height="128" fill="white"/>
</clipPath>
</defs>
</svg>
