<svg width="128" height="128" viewBox="0 0 128 128" fill="none" xmlns="http://www.w3.org/2000/svg">
<g clip-path="url(#clip0_268_12823)">
<g clip-path="url(#clip1_268_12823)">
<path d="M40.5031 80.5725C40.5031 80.5725 41.1978 82.168 43.4832 84.4534C45.7686 86.7388 47.7457 87.7656 47.7457 87.7656L56.2552 78.0508C56.6633 77.5778 57.1965 77.23 57.7866 77.0479L62.9036 75.4632C64.0209 75.1155 64.889 74.1918 65.1607 73.0578L67.2133 64.4688C67.4844 63.3541 68.3284 62.4359 69.4222 62.0746L76.2603 59.8351C77.3151 59.4942 78.1429 58.6293 78.4412 57.5614L80.4756 50.2609C80.8011 49.0917 81.7647 48.1744 82.9466 47.9011C84.49 47.5538 86.6985 47.0697 88.5248 46.7083C89.6909 46.4786 90.6622 45.6186 91.0394 44.4812C91.6875 42.5258 92.4137 40.2327 92.9054 38.6655C93.2634 37.5287 94.2258 36.6498 95.3875 36.4059L100.912 35.2388C102.108 34.989 103.095 34.0661 103.426 32.8824L105.046 27.137C105.165 26.7022 105.385 26.2881 105.674 25.9339C105.674 25.9339 115.188 16.6985 116.784 12.6726C109.499 17.7705 103.071 20.4992 103.071 20.4992C102.359 20.8767 101.798 21.5031 101.51 22.2546L99.0411 28.6358C98.6334 29.6833 97.7122 30.4747 96.6228 30.7018L90.9824 31.8919C89.7724 32.147 88.7794 33.0843 88.4626 34.282L86.8555 40.228C86.5232 41.4597 85.4915 42.4079 84.2441 42.6355L78.7779 43.6236C77.5113 43.8518 76.4642 44.834 76.1504 46.0842L74.356 53.2189C74.0537 54.4113 73.0938 55.3619 71.897 55.6501L64.5824 57.3833C63.4775 57.6445 62.5647 58.4739 62.199 59.5535L59.5243 67.4016C59.1593 68.462 58.2705 69.2859 57.1891 69.5607L51.5552 70.9947C51.0338 71.1267 50.5464 71.3916 50.1417 71.7591L40.5081 80.5676L40.5031 80.5725Z" fill="black"/>
<path d="M26.6856 108.765C27.3216 108.427 28.016 108.018 28.7428 107.552L23.8039 95.6937C23.1726 96.3746 22.6021 97.0567 22.0912 97.7289L26.6856 108.765Z" fill="black"/>
<path d="M21.5777 98.4282C18.9063 102.129 17.9961 105.186 17.9961 105.186L23.1691 110.359C23.1691 110.359 24.3242 109.973 26.0284 109.112L21.5777 98.4282Z" fill="black"/>
<path d="M34.9998 88.1808C34.9998 88.1808 29.7142 89.7447 24.6342 94.8248C24.5398 94.9192 24.4503 95.0087 24.3608 95.0981L29.3679 107.124C30.7133 106.212 32.1458 105.09 33.5227 103.713C38.3442 98.8917 40.1667 93.3476 40.1667 93.3476C40.1667 93.3476 38.7062 92.265 37.3913 90.95C36.0763 89.635 34.9936 88.1746 34.9936 88.1746L34.9998 88.1808Z" fill="black"/>
<path d="M21.1372 117.055L13.3273 117.297C12.1453 117.338 11.004 116.197 11.0385 115.009L11.2798 107.237C11.3079 106.341 12.0261 105.747 12.9559 105.871L17.1485 106.157L22.2844 111.293L22.5018 115.417C22.6016 116.322 22.0163 117.019 21.131 117.049L21.1372 117.055Z" fill="black"/>
<path d="M42.7621 85.5436C30.6359 73.4173 31.0348 58.4669 30.3401 57.7722C26.4882 53.9203 22.2929 74.1806 38.209 90.0967C54.1251 106.013 74.6025 102.035 70.5335 97.9656C69.3612 96.7933 54.8884 97.6699 42.7621 85.5436Z" fill="black"/>
</g>
</g>
<defs>
<clipPath id="clip0_268_12823">
<rect width="128" height="128" fill="white"/>
</clipPath>
<clipPath id="clip1_268_12823">
<rect width="148.057" height="59.614" fill="white" transform="translate(-9.3418 95.543) rotate(-45)"/>
</clipPath>
</defs>
</svg>
