<svg width="128" height="128" viewBox="0 0 128 128" fill="none" xmlns="http://www.w3.org/2000/svg">
<g clip-path="url(#clip0_268_12826)">
<path d="M23.8863 103.381C22.5817 107.469 20.9768 111.161 18.5555 114.464C17.8008 115.493 17.0685 115.642 16.036 114.542C15.0484 113.493 14.0636 112.407 12.9779 111.467C11.7153 110.373 12.3578 109.613 13.2023 108.931C14.6781 107.736 16.3166 106.759 18.0084 105.887C19.8209 104.95 21.6306 103.993 23.8863 103.381Z" fill="black"/>
<path d="M22.4611 79.4487C22.203 81.7999 22.6996 84.0191 23.8639 86.0813C25.2219 88.4886 39.1184 102.385 41.5256 103.743C43.5878 104.907 45.8099 105.401 48.1583 105.146C51.0397 104.829 53.2141 102.621 53.5339 99.759C53.6462 98.777 53.5816 97.809 52.5014 97.3349C51.2866 96.8046 50.1868 97.0627 49.2833 98.0111C48.4613 98.8724 48.8092 99.7141 49.3366 100.606C49.7435 101.294 50.8349 101.959 50.4421 102.643C49.9483 103.507 48.6941 103.488 47.6897 103.572C44.6315 103.824 42.2691 102.511 40.2911 100.292C39.2783 99.0435 38.2458 97.809 37.247 96.5521C38.1701 95.528 38.9697 94.2458 38.8266 93.6931C38.3468 91.8217 36.1219 89.855 36.6887 90.4161C37.2554 90.9772 35.7151 89.1451 33.911 88.5756C33.2489 88.3679 32.6878 88.6373 32.2108 89.0638C31.7759 89.4537 31.3495 89.8521 30.9286 90.2562C29.7138 89.2882 28.5213 88.2922 27.3149 87.3158C25.0928 85.335 23.7826 82.9754 24.0351 79.9173C24.1164 78.9156 24.0996 77.6587 24.9637 77.1649C25.6511 76.7749 26.3189 77.8635 27.0007 78.2703C27.8901 78.8006 28.7346 79.1457 29.5959 78.3236C30.5414 77.4174 30.8024 76.3204 30.2721 75.1055C29.8007 74.0225 28.8328 73.9636 27.848 74.073C24.9862 74.3929 22.7781 76.5673 22.4611 79.4487Z" fill="black"/>
<path d="M5.03839 117.998C4.47445 119.572 4.16582 121.239 3.71972 122.858C3.58505 123.346 3.59066 123.66 3.80109 123.786C3.92734 123.997 4.24158 124.003 4.72976 123.868C6.34864 123.422 8.0124 123.116 9.58919 122.549C12.5352 121.494 13.1019 121.971 10.7704 119.067C10.3748 118.571 9.01684 117.213 8.52304 116.82C5.61916 114.488 6.09893 115.052 5.04119 118.001L5.03839 117.998Z" fill="black"/>
<path d="M25.925 96.3695C25.824 98.3222 25.392 100.224 24.9178 102.292C24.9066 102.343 24.8898 102.382 24.9795 102.354C27.0501 101.877 28.9496 101.448 30.9023 101.347C31.831 101.299 32.2631 100.536 32.5913 99.8822C32.8943 99.2762 32.538 99.1275 31.8955 98.4625C31.4719 98.022 30.9107 97.4721 30.3552 96.9222C29.8053 96.3667 29.2582 95.8083 28.8149 95.3819C28.1499 94.7394 27.9956 94.3831 27.3952 94.6861C26.7387 95.0171 25.9784 95.4464 25.9307 96.3751L25.925 96.3695Z" fill="black"/>
<path d="M20.8983 112.491C22.13 109.671 23.4879 106.916 24.3661 103.962C24.4811 103.572 24.6775 103.252 25.1152 103.134C26.8884 102.651 28.6616 102.18 30.8584 102.121C27.7469 106.057 24.4839 109.399 20.8927 112.491L20.8983 112.491Z" fill="black"/>
<path d="M14.8216 106.414C17.6413 105.182 20.3965 103.825 23.3509 102.946C23.7409 102.831 24.0607 102.635 24.1785 102.197C24.6611 100.424 25.1325 98.6509 25.1914 96.454C21.255 99.5655 17.9135 102.829 14.8216 106.42L14.8216 106.414Z" fill="black"/>
<path d="M10.0035 113.88C9.32458 113.369 9.00473 112.904 9.69492 112.309C10.3627 111.736 10.7779 110.126 11.9984 111.116C13.6313 112.441 15.1183 113.978 16.4819 115.583C17.3376 116.59 16.1901 117.171 15.5307 117.684C14.9359 118.145 14.2626 118.689 13.6621 117.55C13.3563 116.975 12.798 116.534 12.3519 116.032C12.3266 116.057 10.8424 114.511 10.0035 113.88Z" fill="black"/>
<path d="M6.9768 115.207C8.00087 115.833 8.98567 116.531 9.85823 117.365C9.92276 117.429 9.98449 117.491 10.049 117.555C10.1135 117.62 10.1753 117.682 10.2398 117.746C11.0759 118.622 11.7717 119.604 12.3974 120.628C12.9333 121.506 13.3289 121.172 13.7974 120.658C14.5072 119.887 14.28 119.115 13.7721 118.355C12.9192 117.087 10.512 114.68 9.24379 113.827C8.48906 113.319 7.7147 113.094 6.94033 113.801C6.4297 114.273 6.09302 114.666 6.97119 115.201L6.9768 115.207Z" fill="black"/>
<path d="M31.7708 95.7161C32.4021 96.3473 33.0109 97.0067 33.6759 97.5987C34.0603 97.9438 34.2903 98.2131 33.92 98.7069C33.4851 99.2877 33.1653 98.9173 32.8482 98.6003C31.4594 97.2227 30.0762 95.8451 28.7014 94.4535C28.4012 94.1533 27.9523 93.811 28.5359 93.3733C28.9567 93.0591 29.2934 93.1264 29.6694 93.5585C30.3287 94.3132 31.075 94.9922 31.7849 95.702C31.7793 95.7076 31.7764 95.7104 31.7708 95.7161Z" fill="black"/>
<path d="M112.755 10.2917C106.046 16.7924 34.3951 87.3832 33.8143 87.9415C35.5595 87.7507 39.8073 91.3813 39.2601 93.7465C39.8914 93.0984 109.596 22.3505 117.205 14.7415C124.814 7.13248 124.129 4.1809 123.652 3.70956C123.273 3.3364 119.519 3.72919 112.752 10.2889L112.755 10.2917ZM77.1059 50.6934L40.6798 87.1419L40.259 86.7211C61.453 65.7346 92.1275 34.4317 113.344 14.0569C103.157 24.8615 87.7226 40.0038 77.1059 50.6934Z" fill="black"/>
</g>
<defs>
<clipPath id="clip0_268_12826">
<rect width="128" height="128" fill="white"/>
</clipPath>
</defs>
</svg>
