<svg width="128" height="128" viewBox="0 0 128 128" fill="none" xmlns="http://www.w3.org/2000/svg">
<path d="M118.072 12.4399C110.527 12.6249 102.557 22.0249 102.557 22.0249L46.0366 78.1699C40.4766 75.7599 42.1816 81.3799 42.1816 81.3799C42.1816 81.3799 42.0366 82.1049 40.0466 83.5599C38.0616 85.0149 35.2066 81.5749 35.2066 81.5749C35.6616 81.8299 36.1266 81.4099 36.4666 80.9599C36.8166 80.4949 36.9116 79.4299 36.6866 78.8949C36.2366 77.8449 34.0716 75.1449 31.6166 77.0599C28.6366 79.3899 31.8916 84.8699 33.8766 87.6749C33.9566 87.7649 34.0466 87.8799 34.1466 88.0049C34.9216 88.9999 37.0516 91.7199 40.7466 94.9799C40.7716 94.9599 40.7866 94.9499 40.7866 94.9499C45.2216 99.2799 48.9016 99.6249 50.6566 99.2549C51.4816 99.0799 52.2466 98.6699 52.7616 97.9999C53.3566 97.2299 53.6216 95.3499 52.0516 94.0199C48.8016 91.2699 47.6916 94.5549 47.6916 94.5549C45.9016 92.8949 45.8416 92.5899 45.9016 91.0999C45.9616 89.6099 48.5966 87.8799 48.5966 87.8799C53.7616 88.5099 51.4516 83.7799 51.4516 83.7799C51.4516 83.7799 98.9916 36.3699 108.992 27.1899C118.992 18.0099 118.062 12.4399 118.062 12.4399H118.072ZM43.4166 87.9149C42.4516 88.8399 40.7716 88.6549 40.7716 88.6549C40.7716 88.6549 40.6516 86.9699 41.6116 86.0399C42.5766 85.1149 44.2566 85.2999 44.2566 85.2999C44.2566 85.2999 44.3766 86.9849 43.4166 87.9149ZM45.1716 82.0249C44.5616 82.0649 43.6966 81.4949 43.4716 80.6699C43.0416 79.1049 44.9116 78.4749 45.3266 79.4549C46.2016 81.5299 48.9716 80.2299 48.9716 80.2299C48.9716 80.2299 47.1616 81.8949 45.1766 82.0249H45.1716ZM48.8566 86.2699C48.0416 86.0099 47.5066 85.1199 47.5716 84.5149C47.7766 82.5349 49.5116 80.7949 49.5116 80.7949C49.5116 80.7949 48.1066 83.5099 50.1466 84.4649C51.1116 84.9149 50.4066 86.7649 48.8566 86.2699ZM53.0916 76.6049C52.9666 76.7149 52.8466 76.8299 52.7216 76.9449C51.5366 78.1249 50.3966 79.3699 49.5116 80.7949C50.1766 79.7049 50.9866 78.7149 51.8516 77.7749C50.9366 78.6599 50.0116 79.5449 48.9666 80.2249C50.4616 79.1849 51.6966 77.7799 53.0216 76.5349C72.0816 57.5849 92.0516 36.6699 111.632 18.5349C93.0466 37.9299 72.3016 57.7599 53.0866 76.6049H53.0916Z" fill="black"/>
<path d="M17.5566 109.085L20.6666 112.32C21.3966 111.66 22.1116 111.025 22.7966 110.41L19.5566 107.04C18.6416 107.98 17.9416 108.695 17.5566 109.09V109.085Z" fill="black"/>
<path d="M17.0659 109.295C16.1659 108.52 15.1209 108.31 14.3409 108.19C11.9009 107.81 10.3459 109.755 10.3459 109.755C10.3459 109.755 9.14087 111.11 10.7209 113.525C12.3009 115.94 14.1359 114.68 14.1359 114.68L14.7459 115.315C13.4609 117.43 15.8059 118.825 16.7509 119.145C17.3059 119.335 18.0259 119.6 18.8559 119.305C19.4409 119.095 20.0859 118.55 20.7159 117.755C22.1159 115.995 20.6109 113.185 20.3459 112.715L17.0609 109.3L17.0659 109.295ZM13.6009 113.29C12.9109 113.345 11.9309 112.715 11.6909 111.785C11.2309 110.015 13.3759 109.26 13.8259 110.365C14.7759 112.705 17.9559 111.17 17.9559 111.17C17.9559 111.17 15.8609 113.1 13.6009 113.29ZM17.7059 118.04C16.7859 117.765 16.1909 116.765 16.2759 116.075C16.5509 113.82 18.5609 111.805 18.5609 111.805C18.5609 111.805 16.9059 114.92 19.2059 115.965C20.2909 116.455 19.4559 118.57 17.7009 118.045L17.7059 118.04Z" fill="black"/>
<path d="M23.1712 110.07C32.8713 101.41 38.0713 97.13 39.9613 95.615C37.5463 93.47 35.8062 91.57 34.6712 90.23C32.0812 93.96 24.1263 102.325 19.9062 106.675L23.1712 110.07Z" fill="black"/>
</svg>
