<svg width="128" height="128" viewBox="0 0 128 128" fill="none" xmlns="http://www.w3.org/2000/svg">
<path d="M43.3714 85.0398C43.3714 85.0398 46.1214 87.4898 45.1114 88.8898L43.7964 90.2348C43.7964 90.2348 43.1064 90.6348 42.6864 90.3748C42.6864 90.3748 44.2614 89.2798 41.5814 86.8648C39.1114 84.2298 38.4364 86.1348 38.4364 86.1348C38.1714 85.7198 38.3014 84.8398 38.3014 84.8398L39.6164 83.4948C40.9964 82.4598 43.3764 85.0348 43.3764 85.0348L43.3714 85.0398Z" fill="black"/>
<path d="M30.9355 94.4096C32.2005 94.7596 33.4255 95.0596 34.7105 94.7696C35.0555 94.7046 35.3955 94.7096 35.7305 94.7546L35.2105 94.2446C34.0855 94.2896 32.7505 93.9246 31.9955 93.3296L30.9405 94.4046L30.9355 94.4096Z" fill="black"/>
<path d="M33.415 96.2646C32.3 96.5196 30.73 96.2096 29.77 95.5996L28.75 96.6396C29.835 96.9196 30.895 97.1096 32.005 96.8596C33.215 96.6396 34.415 97.1646 35.285 97.9946L36.29 96.9696C35.425 96.4296 34.42 96.0696 33.415 96.2646Z" fill="black"/>
<path d="M34.8102 95.2598C33.6052 95.5398 31.8352 95.1448 30.9202 94.4248L29.8652 95.4998C31.0202 95.8098 32.1402 96.0348 33.3152 95.7748C34.4652 95.5648 35.6102 96.0298 36.4702 96.7898L37.1202 96.1248L36.3302 95.3498C35.8352 95.2098 35.3252 95.1648 34.8102 95.2648V95.2598Z" fill="black"/>
<path d="M34.7409 93.7895L33.1109 92.1895L32.0059 93.3145C32.9259 93.5695 33.8259 93.7945 34.7409 93.7895Z" fill="black"/>
<path d="M28.616 96.7798L27.541 97.8748C28.406 98.0598 29.266 98.1448 30.156 97.9448C31.556 97.6848 32.946 98.4348 33.826 99.4898L35.136 98.1548C34.236 97.5598 33.181 97.1448 32.111 97.3498C31.056 97.5898 29.586 97.3248 28.616 96.7798Z" fill="black"/>
<path d="M30.2557 98.4346C29.3807 98.6346 28.2307 98.4846 27.3057 98.1196L26.4607 98.9796C27.1857 99.1046 27.9107 99.1396 28.6607 98.9696C30.1607 98.6946 31.6557 99.5646 32.5157 100.74L32.4807 100.775C31.4607 99.9296 30.1157 99.1946 28.7607 99.4546C28.0007 99.6296 27.0207 99.5396 26.1707 99.2696L26.1607 99.2796C26.1607 99.2796 25.8957 99.5346 25.4007 100.06C25.9807 100.125 26.5657 100.125 27.1657 99.9896C28.6657 99.7146 30.1607 100.585 31.0207 101.76L30.9857 101.795C29.9657 100.95 28.6207 100.215 27.2657 100.475C26.6257 100.625 25.8307 100.58 25.0857 100.4C24.8657 100.64 24.6107 100.925 24.3307 101.25C24.6657 101.25 25.0057 101.215 25.3457 101.135C26.8457 100.86 28.3407 101.73 29.2007 102.905L29.1657 102.94C28.1457 102.095 26.8007 101.36 25.4457 101.62C25.0007 101.72 24.4857 101.73 23.9657 101.67C23.7657 101.905 23.5507 102.16 23.3257 102.435C23.3807 102.425 23.4307 102.42 23.4857 102.41C24.9857 102.135 26.4807 103.005 27.3407 104.18L27.3057 104.215C26.2857 103.37 24.9407 102.635 23.5857 102.895C23.3657 102.945 23.1257 102.965 22.8807 102.975C22.7607 103.125 22.6357 103.28 22.5057 103.44C23.6907 103.555 24.7957 104.29 25.4857 105.235L25.4507 105.27C24.5307 104.51 23.3457 103.845 22.1257 103.91C21.9657 104.115 21.7957 104.33 21.6257 104.55C22.4207 104.865 23.1307 105.43 23.6257 106.11L23.5907 106.145C22.9507 105.615 22.1757 105.125 21.3557 104.905C21.2307 105.065 21.1107 105.225 20.9857 105.395C20.9157 105.49 20.8457 105.57 20.7757 105.66C21.2857 105.98 21.7407 106.4 22.0857 106.87L22.0507 106.905C21.6057 106.535 21.0957 106.195 20.5507 105.94C20.3257 106.22 20.1107 106.485 19.9007 106.73C20.2457 107 20.5607 107.315 20.8107 107.66L20.7757 107.695C20.4507 107.425 20.0857 107.17 19.7007 106.95C19.4457 107.235 19.2007 107.495 18.9707 107.725L21.8557 110.555C22.4257 109.955 23.1657 109.27 24.1507 108.5C28.3457 105.2 30.1707 103.195 30.1707 103.195L33.7407 99.5496C32.7557 98.7896 31.5107 98.1696 30.2507 98.4096L30.2557 98.4346Z" fill="black"/>
<path d="M21.5209 110.945L18.6109 108.095C16.9109 109.655 15.9959 109.65 15.9959 109.65L14.9509 109.67L14.4009 110.235L12.8809 114.745L14.9959 116.815L19.4759 115.2L20.0259 114.635V113.59C20.0259 113.59 20.0009 112.675 21.5259 110.945H21.5209ZM15.5159 115.425L14.3509 114.28L15.5959 111.175L18.6259 114.145L15.5159 115.425ZM19.3059 113.45C18.5159 112.705 16.9509 111.175 16.1909 110.4L16.2259 110.365C17.2959 110.76 18.1209 111.525 18.7909 112.415C19.0059 112.715 19.2009 113.035 19.3359 113.415L19.3009 113.45H19.3059Z" fill="black"/>
<path d="M27.3418 83.1147L27.3618 84.3197L28.5968 84.3097L28.5768 82.9897L27.3418 83.1147Z" fill="black"/>
<path d="M44.6758 100.1L44.6958 101.305L45.9308 101.3L45.9108 99.9746L44.6758 100.1Z" fill="black"/>
<path d="M47.5905 99.2148L48.0605 98.7398L47.2055 97.9048L46.7155 98.4048L44.3205 98.1848L42.1305 96.8048C42.3255 96.8248 46.9705 97.3298 46.8205 92.2998C46.8205 92.2998 46.6155 90.8848 45.5155 89.1948L45.4955 89.2198L45.4705 89.2448L44.1555 90.5898L44.0955 90.6548C44.5105 91.3798 45.3105 93.1698 43.7705 94.2498C41.8055 95.6348 39.8655 93.7448 39.3905 93.3048C38.9155 92.8648 38.0855 91.2148 38.9255 89.7098C37.4405 90.5798 35.8505 89.8348 35.3255 89.3198C34.8005 88.8048 32.9505 86.9548 34.2955 84.9598C35.3455 83.3948 37.1555 84.1598 37.8855 84.5598L37.9455 84.4948L39.2605 83.1498L39.2855 83.1248L39.3105 83.1048C37.6005 82.0398 36.1805 81.8648 36.1805 81.8648C31.1555 81.8148 31.7455 86.4448 31.7705 86.6448L30.3505 84.4848L30.0805 82.0948L30.5705 81.5948L29.7155 80.7598L29.2455 81.2348L26.5655 81.5098L25.9205 80.8748L25.1055 81.7048L25.7505 82.3398L25.7755 84.9348L25.2255 85.4998L26.0805 86.3348L26.5105 85.8948L28.1805 86.1898L42.6555 100.375L42.9805 102.04L42.5505 102.48L43.4055 103.315L43.9555 102.75L46.5505 102.725L47.1955 103.36L48.0105 102.53L47.3655 101.895L47.5855 99.2098L47.5905 99.2148ZM26.8705 84.8198L26.8405 82.6598L29.0705 82.4298L29.1055 84.8048L26.8705 84.8148V84.8198ZM44.2055 101.81L44.1755 99.6498L46.4055 99.4198L46.4405 101.795L44.2055 101.805V101.81Z" fill="black"/>
<path d="M42.6402 90.0446L42.6102 89.7746C42.6102 89.7746 42.5852 89.5446 42.5652 89.2696C42.5452 89.0446 42.5352 88.3996 41.2502 87.2446L41.2352 87.2296L41.2202 87.2146C40.2102 86.1396 39.6352 85.9746 39.3802 85.9746C39.0602 85.9746 38.5952 86.0696 38.5752 86.1196L38.0652 86.4846L35.9902 88.5446C36.1002 88.6646 36.2302 88.7896 36.3702 88.8796C36.6802 89.0896 38.2452 89.2596 40.0902 88.5846C39.0352 90.3096 39.5302 91.8646 40.0202 92.4796C40.1352 92.6196 40.2802 92.7496 40.4152 92.8596L42.6802 90.4046C42.7052 90.3196 42.6452 90.0396 42.6452 90.0396L42.6402 90.0446Z" fill="black"/>
<path d="M105.061 19.9698L41.5312 83.0448C42.6063 83.5298 43.5363 84.4898 43.7213 84.6898C43.9913 84.9348 45.3413 86.1998 45.7313 87.5148L109.316 23.5248C109.316 23.5248 114.056 18.0498 115.536 12.8848C110.401 14.4598 105.066 19.9748 105.066 19.9748L105.061 19.9698ZM46.0813 82.9198C64.1763 64.6498 89.1363 38.5998 107.511 21.1398L107.566 21.1948C90.2913 39.4848 64.1563 65.1198 46.0813 82.9198Z" fill="black"/>
</svg>
