<svg width="128" height="128" viewBox="0 0 128 128" fill="none" xmlns="http://www.w3.org/2000/svg">
<path d="M117.328 23.1799C118.258 19.3949 113.733 14.6799 113.733 14.6799C113.733 14.6799 108.858 10.2949 105.113 11.7199C112.358 15.7249 115.753 20.1649 117.328 23.1799Z" fill="black"/>
<path d="M116.074 25.2299L116.574 24.7199C116.754 24.4899 116.904 24.2499 117.029 23.9999C115.589 21.0399 112.199 16.2549 104.449 12.0449C104.264 12.1549 104.084 12.2799 103.909 12.4249L103.279 13.0849C111.169 17.3649 114.609 22.1749 116.079 25.2249L116.074 25.2299Z" fill="black"/>
<path d="M24.8893 115.035L24.0043 114.175L17.2393 107.605L17.2343 107.61L16.3493 106.75C15.5143 105.94 14.1843 105.96 13.3793 106.79L12.9043 107.28C11.9193 108.295 11.9393 109.925 12.9593 110.91L17.0993 114.93L20.8393 118.555C21.8543 119.54 23.4743 119.52 24.4643 118.5L24.9393 118.01C25.7493 117.175 25.7293 115.845 24.8943 115.035H24.8893Z" fill="black"/>
<path d="M115.6 25.71C114.2 22.75 110.805 17.84 102.84 13.54L73.005 44.665C73.005 44.665 70.48 47.155 68.65 52.135C66.82 57.11 63.555 60.7 63.555 60.7L58.915 65.995L51.775 73.72C51.775 73.72 51.645 73.88 51.375 74.2L56.385 79.065C56.695 78.785 56.85 78.65 56.85 78.65L65 70.635L69.52 66.49C69.52 66.49 73.005 63.115 77.935 61.14C82.855 59.16 85.265 56.57 85.265 56.57L115.605 25.715L115.6 25.71Z" fill="black"/>
<path d="M40.4746 85.865L45.0446 90.3C45.4146 89.91 45.5646 89.75 45.9146 89.385L41.3596 84.96C41.0046 85.325 40.8496 85.48 40.4746 85.86V85.865Z" fill="black"/>
<path d="M25.6033 100.295C24.1733 101.635 22.6783 103.02 21.1133 104.465L27.0283 110.21C28.4233 108.6 29.7683 107.065 31.0633 105.6L25.6033 100.3V100.295Z" fill="black"/>
<path d="M32.6999 103.75L27.3999 98.605C26.9549 99.025 26.5049 99.45 26.0449 99.88L31.4649 105.14C31.8799 104.67 32.2949 104.205 32.6999 103.745V103.75Z" fill="black"/>
<path d="M37.3685 98.5552L32.4535 93.7852C31.9335 94.2902 31.3985 94.8001 30.8535 95.3251L35.8785 100.205C36.3835 99.6452 36.8835 99.0951 37.3685 98.5602V98.5552Z" fill="black"/>
<path d="M44.0343 82.21C43.3993 82.875 42.5043 83.795 41.7793 84.535L46.3343 88.955C47.0543 88.21 47.9493 87.29 48.5943 86.635L44.0343 82.21Z" fill="black"/>
<path d="M48.9702 76.9551C48.3052 77.6851 46.6802 79.4001 45.7852 80.3551L50.3952 84.8301C51.3202 83.9051 52.9852 82.2351 53.6952 81.5451L48.9702 76.9551Z" fill="black"/>
<path d="M33.099 103.3C33.909 102.39 34.704 101.5 35.469 100.65L30.414 95.7402C29.584 96.5302 28.719 97.3552 27.834 98.1902L33.094 103.3H33.099Z" fill="black"/>
<path d="M45.3742 80.7949C44.9542 81.2399 44.9242 81.2849 44.4492 81.7749L49.0142 86.2049C49.4942 85.7199 49.5342 85.6899 49.9692 85.2549L45.3742 80.7949Z" fill="black"/>
<path d="M55.9339 79.4702L50.9789 74.6602C50.5189 75.1902 50.2739 75.5202 49.3789 76.5102L54.1339 81.1252C55.0989 80.2002 55.4189 79.9452 55.9339 79.4702Z" fill="black"/>
<path d="M40.0486 86.2949C38.8736 87.4799 40.4336 85.8299 39.0586 87.1849L43.7636 91.7549C45.0786 90.3399 43.4736 91.9499 44.6236 90.7399L40.0436 86.2949H40.0486Z" fill="black"/>
<path d="M20.6693 104.875C20.6693 104.875 20.1993 104.5 19.5143 105.205C19.0543 105.68 18.1743 106.605 17.6543 107.16L24.4343 113.74C24.9693 113.205 25.8743 112.295 26.3393 111.82C27.0243 111.115 26.6393 110.665 26.6393 110.665L20.6743 104.875H20.6693Z" fill="black"/>
<path d="M32.8848 93.365L37.7748 98.11C38.7298 97.065 42.4748 93.145 43.3598 92.195L38.6348 87.605C37.7098 88.515 33.9098 92.38 32.8898 93.365H32.8848Z" fill="black"/>
</svg>
