<svg width="128" height="128" viewBox="0 0 128 128" fill="none" xmlns="http://www.w3.org/2000/svg">
<path d="M30.0715 101.32L28.2865 102.675C28.3915 103.49 28.4465 104.885 28.0215 106.6C28.3715 106.715 28.7365 106.85 29.1065 107.005L30.3215 106.085C30.8065 103.86 30.4165 102.21 30.0715 101.315V101.32Z" fill="black"/>
<path d="M27.5409 106.46C27.8859 105.025 27.8909 103.825 27.8209 103.035L23.8809 106.035C24.8359 105.985 26.0959 106.06 27.5459 106.46H27.5409Z" fill="black"/>
<path d="M32.1855 104.68L36.2205 101.625C36.0555 99.6697 35.3655 98.3547 34.8755 97.6597L32.4305 99.5197C32.6655 100.245 33.0755 102.135 32.1855 104.68Z" fill="black"/>
<path d="M27.4112 106.945C25.5812 106.44 24.0562 106.485 23.1162 106.61L19.8712 109.08C19.9312 109.435 19.8312 109.915 19.3112 110.41C19.5612 110.465 19.6762 110.6 19.7312 110.71C19.8362 110.915 19.8012 111.185 19.6312 111.53C19.5412 111.71 19.3762 111.9 19.1712 112.085C19.2562 112.12 19.3312 112.175 19.3862 112.255C19.7012 112.685 19.6462 112.86 19.3262 113.155C19.2662 113.21 19.1912 113.28 19.1062 113.365C18.9612 113.52 18.8762 113.64 18.8262 113.73C19.0112 113.82 19.2512 113.99 19.4662 114.3L26.6762 108.845C26.9912 108.185 27.2362 107.55 27.4062 106.945H27.4112Z" fill="black"/>
<path d="M27.8961 107.09C27.7911 107.455 27.6511 107.835 27.4961 108.225L28.6411 107.36C28.3861 107.26 28.1361 107.17 27.8911 107.09H27.8961Z" fill="black"/>
<path d="M31.4252 105.255C32.5452 102.69 32.2352 100.695 32.0052 99.8447L30.4902 100.995C30.8502 101.855 31.2752 103.45 30.9152 105.635L31.4202 105.25L31.4252 105.255Z" fill="black"/>
<path d="M37.5458 95.5698C37.5458 95.5698 36.9008 93.8948 37.4308 92.1048C37.9008 90.5198 36.1208 91.1898 35.4108 92.1448C34.7008 93.0948 33.9708 95.0398 35.2558 97.3198C35.7658 98.0248 36.5908 99.2198 36.8008 101.2C36.8658 102.135 36.8658 102.62 36.8258 103.695C36.7808 104.835 37.5008 104.68 37.5008 104.68C37.5008 104.68 39.1808 104.35 39.5508 101.62C39.9208 98.8898 37.5508 95.5698 37.5508 95.5698H37.5458Z" fill="black"/>
<path d="M18.4759 114.125L18.2809 114.09L18.2709 113.89C18.2709 113.805 18.2959 113.5 18.7559 113.02C18.8509 112.92 18.9309 112.845 18.9959 112.785C19.0309 112.755 19.0659 112.72 19.0909 112.695C19.0759 112.67 19.0459 112.625 18.9909 112.55C18.9409 112.525 18.6209 112.55 17.8859 113.02L17.6859 113.15L17.5159 112.975L17.3809 112.78L17.5809 112.625C17.6059 112.605 17.6659 112.565 17.7509 112.51C18.0559 112.315 18.9859 111.72 19.1959 111.31C19.3359 111.025 19.2959 110.94 19.2959 110.94C19.2909 110.93 19.2559 110.91 19.1909 110.9C19.0509 110.905 18.5309 111.165 17.9859 111.515C17.5809 111.81 17.2859 111.995 17.2609 112.01L16.9809 111.595C17.1609 111.465 17.4309 111.275 17.7259 111.085C18.0959 110.815 18.5559 110.46 18.9659 110.075C19.4059 109.66 19.4309 109.33 19.3809 109.13C19.2159 109.1 18.8809 109.205 18.2109 109.715C16.8109 110.78 13.6409 113.195 13.6409 113.195C13.6409 113.195 12.7309 113.81 13.3909 114.885C13.3909 114.885 12.9009 115.385 12.2859 116.04C12.0159 116.325 11.4459 116.25 11.2409 116.585C11.0109 116.955 10.9659 117.62 11.1659 118.01C11.3759 118.425 11.8409 118.095 12.1559 118.135C12.3359 118.16 12.5809 118.325 12.7959 118.39C13.0359 118.465 13.5159 118.38 13.5159 118.38C13.5159 118.38 13.0359 118.07 13.0259 117.755C13.0209 117.505 13.3559 116.895 13.3559 116.895L14.2509 116.115L15.3009 115.355L16.0709 115.065L16.6859 114.44L15.9709 115.395L15.2259 116.07C15.2259 116.07 15.0059 116.84 14.5909 117.095C14.1759 117.35 13.6859 116.965 13.6859 116.965C13.6859 116.965 13.6459 118.92 14.9809 118.065L16.0509 117.31L17.0609 115.77L17.5059 114.58L17.5359 115.37C17.5359 115.37 18.5209 115.55 18.8809 115.26C19.0409 115.135 19.1409 114.96 19.2059 114.81C18.9159 114.235 18.5159 114.145 18.5009 114.145L18.4759 114.125ZM15.3509 113.705C15.1459 113.955 14.8659 114.12 14.5859 114.265C14.5109 114.47 14.4159 114.67 14.2659 114.86C14.1759 114.56 14.1809 114.285 14.1959 114.005C14.4359 113.79 14.7159 113.605 14.9959 113.46C15.0009 113.46 15.0059 113.455 14.9959 113.46C15.0909 113.31 15.2109 113.065 15.3609 112.91C15.4109 113.195 15.4359 113.435 15.3459 113.705H15.3509Z" fill="black"/>
<path d="M115.856 14.215C113.131 18.985 110.321 23.885 106.961 28.485C86.7206 56.205 57.8706 79.295 57.8706 79.295L47.5606 87.855L38.3906 94.9C38.6106 95.335 39.3356 96.805 40.1106 98.585L46.0406 94.16C58.0756 85.065 67.0156 77.35 77.7556 67.37C86.5606 59.195 97.2306 47.93 103.941 39.815C108.081 34.805 112.111 28.87 114.061 25.93C119.326 17.995 115.851 14.21 115.851 14.21L115.856 14.215Z" fill="black"/>
</svg>
