<svg width="128" height="128" viewBox="0 0 128 128" fill="none" xmlns="http://www.w3.org/2000/svg">
<path d="M83.0921 36.61L43.4121 74.615L53.5371 85.505L53.6371 85.42L54.7271 85.525C54.9821 85.55 55.2371 85.47 55.4271 85.3C57.2071 83.715 66.7021 75.24 77.3621 64.985C94.5021 48.505 115.812 25.52 115.772 10C115.772 10 87.7021 36.855 83.0921 36.61ZM54.5821 80.465C70.0021 65.82 86.7471 51.18 99.3871 34.05C100.892 32 101.587 30.97 102.887 28.8C100.302 30.895 98.9571 31.67 96.1821 33.5C92.9521 35.515 89.4421 37.67 85.9121 38.835C93.4171 35.445 100.042 30.41 106.312 25.14C103.177 31.13 98.9171 36.425 94.5671 41.555C82.9271 55.175 67.7571 68.41 54.5771 80.465H54.5821Z" fill="black"/>
<path d="M32.7207 83.445C33.6707 84.625 37.3107 89.51 37.1807 94.93C37.5007 94.575 37.8257 94.22 38.1407 93.86C38.5857 88.615 35.1357 83.705 33.9807 82.23L32.7207 83.45V83.445Z" fill="black"/>
<path d="M42.6868 75.3099L42.5618 75.4299L42.4068 75.2699C42.0818 74.9299 41.5418 74.9199 41.2068 75.2449L34.3418 81.8799C35.4568 83.2999 38.8168 88.0299 38.6768 93.2449C40.3818 91.2649 41.9618 89.2149 43.2318 87.1999C43.2318 87.1999 43.8618 86.0099 45.5618 86.6199C47.2618 87.2299 50.9968 87.4149 52.1968 86.6749L52.7818 86.1649L42.6868 75.3099Z" fill="black"/>
<path d="M32.3613 83.795L12.7613 102.735C11.7913 103.65 11.7413 105.18 12.6513 106.155L15.4313 109.145C16.2963 110.075 16.7763 111.295 16.7713 112.565V114.875C16.7713 116.73 18.4013 118.16 20.2413 117.915L20.6463 117.86C22.0663 117.67 23.0563 116.36 22.8563 114.945C22.8563 114.945 22.3763 114.115 22.1263 112.505C21.8763 110.895 22.0963 109.565 22.0963 109.565C22.0963 109.565 22.5413 108.73 24.1213 107.305C25.3263 106.22 31.2413 101.345 36.6513 95.505C37.0763 90.07 33.3513 85.03 32.3563 83.79L32.3613 83.795ZM19.8163 106.055C19.0263 107.125 17.4413 107.07 16.7313 105.945C16.3363 105.32 16.3663 104.48 16.8063 103.885C17.5963 102.815 19.1813 102.87 19.8913 103.995C20.2863 104.62 20.2563 105.46 19.8163 106.055Z" fill="black"/>
</svg>
