<svg width="128" height="128" viewBox="0 0 128 128" fill="none" xmlns="http://www.w3.org/2000/svg">
<path d="M100.089 53.7849C98.5979 55.2913 95.1145 58.206 95.1145 58.206C95.1145 58.206 93.0903 59.7477 91.8585 59.7908C91.8585 59.7908 90.003 57.1115 94.6084 53.1337C95.3577 52.7336 96.0795 52.2511 96.7581 51.6862C102.187 47.171 102.929 39.0821 98.4136 33.6529C93.8984 28.2237 85.8095 27.4823 80.3803 31.9975C78.156 33.8451 76.7359 36.2969 76.124 38.9174C71.4793 35.3083 64.783 35.2652 60.0796 39.1802C56.0312 42.5499 54.5915 47.9085 55.9959 52.6669C51.5709 50.4191 46.0436 50.8585 41.9913 54.2282C37.1152 58.2844 36.0364 65.2161 39.1355 70.5198C36.1149 70.4256 33.0512 71.375 30.5523 73.4541C25.1231 77.9693 24.3817 86.0582 28.8969 91.4874C33.4121 96.9166 41.501 97.658 46.9302 93.1428C47.5108 92.6603 48.0247 92.1307 48.4993 91.5737H48.5072C48.5072 91.5737 53.2499 86.2151 56.4627 89.5063C56.4627 89.5063 55.6232 92.2602 49.6369 96.3988C46.4947 98.572 49.9312 98.8898 53.8736 98.2543C57.4356 97.6815 61.4015 96.2458 61.4015 96.2458C61.4015 96.2458 70.6477 93.0761 82.1926 83.5201C91.9016 75.4861 92.6235 73.5874 95.9893 68.9624C99.1785 64.5845 100.869 60.3086 101.713 57.0056C102.529 53.8163 101.481 52.3806 100.089 53.7849ZM94.9929 36.497C97.9428 40.0432 97.4603 45.3116 93.9141 48.2655C90.3678 51.2155 85.0994 50.733 82.1455 47.1867C79.1956 43.6405 79.6781 38.3721 83.2243 35.4182C86.7706 32.4682 92.039 32.9507 94.9929 36.497ZM84.2521 31.5189C86.3979 30.8245 88.7359 30.8363 90.8346 31.5032C88.6771 31.0834 86.4293 31.26 84.4169 32.0014C78.1756 34.3041 75.2531 42.5578 79.5408 47.9438C74.3548 42.7304 77.5637 33.6333 84.2482 31.5228L84.2521 31.5189ZM74.6921 43.6797C77.6421 47.2259 77.1596 52.4943 73.6134 55.4482C70.0671 58.3982 64.7987 57.9157 61.8448 54.3694C58.8949 50.8232 59.3774 45.5548 62.9236 42.6009C66.4699 39.6509 71.7382 40.1334 74.6921 43.6797ZM64.3045 38.1367C66.4502 37.4424 68.7883 37.4541 70.887 38.121C68.7294 37.7013 66.4816 37.8778 64.4692 38.6192C58.228 40.9219 55.3054 49.1756 59.5931 54.5617C54.4071 49.3482 57.616 40.2511 64.3005 38.1406L64.3045 38.1367ZM46.432 53.5221C48.5778 52.8278 50.9158 52.8395 53.0145 53.5064C50.8569 53.0867 48.6092 53.2632 46.5967 54.0046C40.3555 56.3073 37.433 64.561 41.7206 69.947C36.5346 64.7336 39.7435 55.6365 46.4281 53.526L46.432 53.5221ZM34.8478 72.6263C36.9936 71.932 39.3316 71.9438 41.4304 72.6107C39.2728 72.1909 37.025 72.3674 35.0126 73.1089C28.7713 75.4116 25.8488 83.6652 30.1365 89.0513C24.9505 83.8378 28.1594 74.7408 34.8439 72.6303L34.8478 72.6263ZM44.0861 89.7221C40.5399 92.6721 35.2715 92.1896 32.3176 88.6433C29.3676 85.0971 29.8501 79.8287 33.3964 76.8748C36.9426 73.9248 42.211 74.4073 45.1649 77.9536C48.1149 81.4998 47.6324 86.7682 44.0861 89.7221ZM43.7605 69.4135C40.8105 65.8673 41.2931 60.5989 44.8393 57.645C48.3856 54.695 53.6539 55.1775 56.6078 58.7238C59.5578 62.27 59.0753 67.5384 55.5291 70.4923C51.9828 73.4423 46.7144 72.9598 43.7605 69.4135ZM63.6964 92.4563C62.5235 93.0173 60.766 92.7819 60.2169 91.6051C59.1694 89.3651 61.2721 87.4821 62.2018 88.7688C64.1711 91.4913 73.4172 85.8463 73.4172 85.8463C73.4172 85.8463 67.5212 90.6204 63.6964 92.4563ZM75.8455 78.2321C63.8612 86.725 57.6748 86.2621 54.1482 80.3308C54.1482 80.3308 52.7242 78.2752 56.5647 75.1566C57.1923 74.7957 57.8004 74.3916 58.377 73.913C62.4254 70.5433 63.8651 65.1847 62.4607 60.4263C66.8857 62.6741 72.413 62.2347 76.4653 58.865C76.9478 58.4649 77.3754 58.0294 77.7833 57.5744C79.5329 56.1112 83.1694 53.6947 84.9896 57.0644C87.4414 61.5953 87.8297 69.7391 75.8494 78.2321H75.8455ZM93.2393 67.8758C90.7601 71.2847 85.0406 76.1726 85.0406 76.1726C85.0406 76.1726 92.2076 68.1661 89.8892 65.73C88.7948 64.5806 91.0072 62.8702 93.0197 64.3099C94.0749 65.067 93.9965 66.8323 93.2393 67.8758Z" fill="black"/>
</svg>
