<svg width="128" height="128" viewBox="0 0 128 128" fill="none" xmlns="http://www.w3.org/2000/svg">
<path d="M37.8006 78.5103C37.7156 78.6003 37.6306 78.6953 37.5456 78.7903C37.5456 78.7903 20.6006 99.5702 9.59064 107.74C9.01064 108.17 8.84064 108.95 9.17064 109.59C10.1506 111.465 12.4606 115.09 16.2106 116.425C16.6556 116.585 17.1506 116.44 17.4356 116.065C19.2356 113.69 26.8556 104.2 45.8206 86.8802C43.9606 81.7702 39.8756 79.4153 37.8056 78.5153L37.8006 78.5103ZM18.3956 109.32C18.1156 109.59 17.7506 109.735 17.3606 109.735C17.3506 109.735 17.3406 109.735 17.3306 109.735C16.9306 109.725 16.5606 109.565 16.2806 109.275C16.0056 108.985 15.8556 108.61 15.8656 108.21C15.8756 107.81 16.0356 107.44 16.3256 107.16C16.6156 106.885 17.0156 106.74 17.3906 106.745C17.7906 106.755 18.1606 106.915 18.4406 107.205C18.7156 107.495 18.8656 107.87 18.8556 108.27C18.8456 108.67 18.6856 109.04 18.3956 109.32ZM29.2506 98.0602C28.9706 98.3302 28.6056 98.4752 28.2156 98.4752C28.2056 98.4752 28.1956 98.4752 28.1856 98.4752C27.7856 98.4652 27.4156 98.3052 27.1356 98.0152C26.8606 97.7252 26.7106 97.3502 26.7206 96.9502C26.7306 96.5502 26.8906 96.1803 27.1806 95.9003C27.7756 95.3303 28.7256 95.3453 29.2956 95.9403C29.8656 96.5353 29.8456 97.4853 29.2556 98.0553L29.2506 98.0602ZM39.6506 87.1653C39.3706 87.4353 39.0056 87.5803 38.6156 87.5803C38.6056 87.5803 38.5956 87.5803 38.5856 87.5803C38.1856 87.5703 37.8156 87.4103 37.5356 87.1203C37.2606 86.8303 37.1106 86.4553 37.1206 86.0553C37.1306 85.6553 37.2906 85.2852 37.5806 85.0052C37.8606 84.7352 38.2256 84.5902 38.6156 84.5902C38.6256 84.5902 38.6356 84.5902 38.6456 84.5902C39.0456 84.6002 39.4156 84.7603 39.6956 85.0503C39.9706 85.3403 40.1206 85.7152 40.1106 86.1152C40.1006 86.5152 39.9406 86.8853 39.6506 87.1653Z" fill="black"/>
<path d="M117.45 27.3451L117.46 27.3351L112.05 22.5101L112.025 22.5401L101.825 13.4801C100.29 12.1201 97.9555 12.2101 96.5355 13.6851L93.6055 16.7301C93.0055 17.3551 93.5655 18.6001 94.4255 18.6901L97.0805 18.4251C97.7455 18.4951 98.5055 18.9451 98.6305 19.4801C98.7555 20.0301 98.2255 20.6751 97.6105 20.9751L92.6005 23.7851C92.6005 23.7851 82.9155 30.7751 71.5105 41.6901C61.0855 51.6651 49.5455 65.7701 38.4805 77.7701C40.7005 78.7951 44.5155 81.1701 46.4855 85.9551C48.8755 84.2951 61.9305 75.4201 78.1505 68.0051C96.1205 59.7851 119 28.7351 119 28.7351L117.45 27.3451ZM79.5605 60.5451C73.5405 63.8301 67.9355 67.2301 61.8955 70.4801C58.8955 72.1101 55.7855 73.6101 53.0505 75.6651C55.7655 73.5851 58.8655 72.0501 61.8505 70.3951C67.8405 67.0951 72.7805 63.6751 78.7405 60.3501C81.6805 58.6151 85.6905 55.4951 88.3555 53.3601C97.3305 46.0501 104.29 37.8701 110.96 28.7101L111.485 29.1551C102.49 41.2101 92.4805 52.7351 79.5605 60.5451Z" fill="black"/>
</svg>
