<svg width="128" height="128" viewBox="0 0 128 128" fill="none" xmlns="http://www.w3.org/2000/svg">
<path d="M12.3503 109.92C8.2903 114.46 12.0303 117.705 12.0303 117.705C12.0303 117.705 15.2703 121.44 19.8153 117.385L26.4753 110.725L19.0153 103.265L12.3553 109.925L12.3503 109.92Z" fill="black"/>
<path d="M115.886 25.3701C115.886 25.3701 113.126 21.5501 110.456 19.2851C108.191 16.6101 104.366 13.8501 104.366 13.8501C97.2809 9.44506 92.8559 15.2551 92.8559 15.2551C92.8559 15.2551 92.3659 15.7451 91.5209 16.5901L90.2159 15.2851L85.6959 19.8051L87.0009 21.1101C85.7109 22.4001 84.2859 23.8251 82.8059 25.3051L81.5009 24.0001L76.9809 28.5201L78.2859 29.8251C76.8409 31.2701 75.4159 32.6951 74.0909 34.0201L72.7859 32.7151L68.2659 37.2351L69.5709 38.5401C68.0359 40.0751 66.9759 41.1351 66.6959 41.4201C65.6709 42.4451 64.6659 45.9351 64.0809 48.3101C63.6059 50.2201 62.9009 52.0551 61.9759 53.7951C59.7859 57.9151 57.0009 62.1151 53.9609 66.2001L52.7059 67.8551C51.8459 68.9701 50.9709 70.0801 50.0859 71.1751L41.0709 81.5051C37.0359 85.8101 39.1759 83.4901 37.5859 85.2101L44.3659 91.9601C46.0259 90.3401 50.1409 86.9101 51.0959 86.0551L53.8409 83.6251C59.7609 78.4901 66.3609 73.3651 72.8909 69.4901C75.9759 67.6601 79.2959 66.2601 82.7559 65.3201C84.9509 64.7251 87.4759 63.8951 88.3209 63.0451C88.5909 62.7751 89.5809 61.7901 91.0159 60.3501L91.6609 60.9951L96.1809 56.4751L95.5359 55.8301C96.8609 54.5051 98.2809 53.0851 99.7309 51.6351L100.376 52.2801L104.896 47.7601L104.251 47.1151C105.856 45.5101 107.401 43.9651 108.781 42.5851L109.426 43.2301L113.946 38.7101L113.301 38.0651C114.051 37.3151 114.486 36.8801 114.486 36.8801C114.486 36.8801 120.296 32.4651 115.886 25.3701ZM104.796 35.9701C105.251 36.1501 105.696 36.3501 106.141 36.5601C105.951 35.2101 105.811 33.8551 105.816 32.4851C106.376 34.1801 106.696 35.9351 106.991 37.6951C105.576 37.0901 100.361 34.2051 104.796 35.9701ZM97.4609 41.5651C98.0259 43.2601 98.3459 45.0151 98.6359 46.7701C97.2209 46.1651 92.0109 43.2801 96.4409 45.0501C96.8959 45.2301 97.3459 45.4301 97.7909 45.6351C97.6009 44.2851 97.4559 42.9351 97.4609 41.5651ZM97.5559 24.0901C96.4409 24.3401 95.3109 24.4401 94.1759 24.4901C94.2859 24.8351 94.3859 25.1801 94.4659 25.5351C95.2459 28.9001 93.5709 24.9651 93.2709 23.8551C94.7059 23.8301 96.1359 23.8401 97.5559 24.0901ZM76.1459 42.4301C76.9259 45.8001 75.2559 41.8651 74.9559 40.7501C76.3859 40.7301 77.8209 40.7401 79.2409 40.9901C78.1209 41.2401 76.9909 41.3351 75.8559 41.3901C75.9659 41.7351 76.0659 42.0801 76.1459 42.4301ZM83.9809 32.3451C85.4159 32.3201 86.8459 32.3301 88.2659 32.5801C87.1459 32.8301 86.0209 32.9301 84.8859 32.9851C84.9909 33.3251 85.0909 33.6751 85.1759 34.0251C85.9509 37.3951 84.2809 33.4601 83.9809 32.3451ZM87.3659 53.4001C87.8209 53.5801 88.2659 53.7801 88.7109 53.9901C88.5209 52.6401 88.3809 51.2851 88.3809 49.9151C88.9459 51.6101 89.2659 53.3651 89.5609 55.1251C88.1409 54.5201 82.9309 51.6301 87.3659 53.4001Z" fill="black"/>
<path d="M89.1245 15.3999L83.2695 12.6299L85.8395 18.6849L89.1245 15.3999Z" fill="black"/>
<path d="M80.3949 24.13L74.5449 21.355L77.1149 27.41L80.3949 24.13Z" fill="black"/>
<path d="M71.7046 32.8248L65.8496 30.0498L68.4196 36.1048L71.7046 32.8248Z" fill="black"/>
<path d="M113.765 40.0347L116.54 45.8847L110.48 43.3147L113.765 40.0347Z" fill="black"/>
<path d="M105.034 48.7598L107.809 54.6148L101.754 52.0448L105.034 48.7598Z" fill="black"/>
<path d="M96.3405 57.4551L99.1155 63.3101L93.0605 60.7351L96.3405 57.4551Z" fill="black"/>
<path d="M29.5561 100.02C27.8661 98.785 26.3561 97.51 25.2161 96.48C24.9711 96.715 24.7311 96.945 24.4961 97.17C25.9911 98.5 28.0561 100.21 30.3061 101.685C30.0411 101.13 29.7911 100.57 29.5561 100.02Z" fill="black"/>
<path d="M30.727 102.55C28.167 100.955 25.792 99.0001 24.132 97.5151C23.962 97.6801 23.792 97.8351 23.627 97.9901C25.162 99.9001 28.167 103.385 31.512 105.915C31.737 105.665 31.967 105.415 32.202 105.155C31.672 104.325 31.182 103.445 30.727 102.55Z" fill="black"/>
<path d="M31.5469 103.04C31.8669 103.635 32.2019 104.215 32.5519 104.77C32.7919 104.505 33.0369 104.24 33.2919 103.97C32.7069 103.685 32.1269 103.375 31.5469 103.04Z" fill="black"/>
<path d="M25.5762 96.135C26.5512 97.01 27.7912 98.07 29.1862 99.125C28.4312 97.25 27.8562 95.515 27.4762 94.27C26.8262 94.915 26.1912 95.54 25.5762 96.135Z" fill="black"/>
<path d="M30.3457 100.585C30.5857 101.12 30.8407 101.66 31.1107 102.195C31.9407 102.71 32.7957 103.18 33.6457 103.585C33.8457 103.37 34.0457 103.16 34.2507 102.945C32.9157 102.275 31.5957 101.45 30.3507 100.585H30.3457Z" fill="black"/>
<path d="M21.5269 99.9049C21.1019 100.275 20.7719 100.545 20.5469 100.705C22.4219 102.81 25.7519 106.24 29.2619 108.45C29.3119 108.39 29.3669 108.33 29.4169 108.27C26.1669 105.765 23.2169 102.165 21.5219 99.8999L21.5269 99.9049Z" fill="black"/>
<path d="M42.6862 95.0849C42.8712 94.9499 43.0512 94.8249 43.2262 94.7099C44.5812 93.8099 44.2362 93.3049 44.0762 93.0299L36.4812 85.3899C36.4812 85.3899 35.9162 85.1099 35.5212 85.6049C35.2712 85.9199 34.9962 86.2549 34.7012 86.5999C36.3062 88.7449 39.3312 92.4949 42.6812 95.0849H42.6862Z" fill="black"/>
<path d="M35.4355 90.8649C36.7055 92.8249 38.3705 95.1249 40.2355 97.0699C40.4805 96.8549 40.7255 96.6449 40.9655 96.4399C38.8905 94.7549 36.9605 92.6799 35.4405 90.8599L35.4355 90.8649Z" fill="black"/>
<path d="M22.0054 99.48C21.9704 99.51 21.9354 99.545 21.9004 99.575C23.5804 101.815 26.5204 105.42 29.7504 107.9C30.0454 107.565 30.3654 107.205 30.7104 106.815C27.1954 104.66 23.8804 101.445 22.0054 99.48Z" fill="black"/>
<path d="M23.262 98.335C22.947 98.625 22.652 98.9 22.377 99.15C24.242 101.11 27.557 104.315 31.047 106.44C31.087 106.39 31.132 106.345 31.177 106.295C27.822 103.745 24.817 100.265 23.262 98.335Z" fill="black"/>
<path d="M34.3713 86.9849C34.1413 87.2499 33.9013 87.5249 33.6562 87.7999C35.1762 89.8449 38.0862 93.4849 41.3512 96.1149C41.6662 95.8599 41.9713 95.6149 42.2713 95.3899C38.9663 92.7999 35.9913 89.1399 34.3713 86.9849Z" fill="black"/>
<path d="M33.2505 88.25C33.1905 88.32 33.1255 88.39 33.0605 88.46C34.1505 91.11 36.1105 95.35 38.6355 98.53C39.0455 98.14 39.4555 97.765 39.8555 97.405C36.9055 94.32 34.4605 90.365 33.2505 88.255V88.25Z" fill="black"/>
<path d="M20.1111 100.97C19.1961 101.525 19.2511 102.04 19.2511 102.04C19.2511 102.04 19.1211 102.125 19.9861 102.89C20.8461 103.655 27.2961 110.19 27.2961 110.19C27.2961 110.19 27.5811 110.38 27.8361 110.105C27.8861 110.05 28.2861 109.585 28.9311 108.84C25.3561 106.57 21.9861 103.08 20.1111 100.975V100.97Z" fill="black"/>
<path d="M32.691 88.8649C32.321 89.2699 31.936 89.6849 31.541 90.0999C32.176 91.6949 33.221 94.1249 34.586 96.5699C35.591 97.5649 36.671 98.5249 37.776 99.3499C37.941 99.1899 38.106 99.0299 38.271 98.8699C35.771 95.7249 33.811 91.5599 32.691 88.8599V88.8649Z" fill="black"/>
<path d="M28.467 93.2749C28.267 93.4749 28.072 93.6699 27.877 93.8699C28.297 95.2749 29.002 97.4199 29.962 99.6999C31.422 100.76 33.007 101.78 34.607 102.57C34.722 102.45 34.837 102.33 34.947 102.21C32.097 99.2299 29.712 95.4299 28.467 93.2749Z" fill="black"/>
<path d="M35.8409 101.29C32.9859 98.2797 30.6059 94.4697 29.3859 92.3447C29.2009 92.5297 29.0209 92.7197 28.8359 92.9047C30.0459 95.0097 32.4359 98.8497 35.3009 101.85C35.4809 101.665 35.6609 101.475 35.8459 101.29H35.8409Z" fill="black"/>
<path d="M34.1861 96.8749C32.4561 95.1549 30.9361 93.3349 29.8161 91.8999C29.7911 91.9249 29.7711 91.9499 29.7461 91.9699C30.9311 94.0399 33.3161 97.8999 36.1911 100.93C36.3111 100.81 36.4311 100.685 36.5511 100.565C35.6861 99.4049 34.8961 98.1399 34.1861 96.8749Z" fill="black"/>
<path d="M35.4902 98.1147C35.9352 98.8347 36.4102 99.5397 36.9052 100.21C37.0752 100.04 37.2452 99.8748 37.4152 99.7048C36.7602 99.2148 36.1202 98.6747 35.4952 98.1147H35.4902Z" fill="black"/>
<path d="M30.166 91.54C31.011 92.625 32.096 93.945 33.326 95.27C32.401 93.46 31.666 91.76 31.161 90.5C30.836 90.845 30.501 91.19 30.166 91.54Z" fill="black"/>
</svg>
