<svg width="128" height="128" viewBox="0 0 128 128" fill="none" xmlns="http://www.w3.org/2000/svg">
<path d="M46.8239 89.1049L40.9389 83.4648L19.6289 104.33L26.8889 111.29L46.8239 89.1049Z" fill="black"/>
<path d="M44.1445 80.36L49.7895 85.77L91.0345 39.175L88.9395 37.165L44.1445 80.36Z" fill="black"/>
<path d="M41.3843 83.0302L41.3593 83.0552L47.2193 88.6702L47.2443 88.6452C51.3893 89.6302 49.3843 86.2352 49.3843 86.2352L49.4043 86.2102L43.7243 80.7652L43.6993 80.7902C43.6993 80.7902 40.2193 78.9352 41.3793 83.0352L41.3843 83.0302Z" fill="black"/>
<path d="M16.15 107.245C14.31 107.725 9.37503 109.52 13.1 114.28L13.08 114.315L17.185 118.25L17.22 118.23C22.14 121.75 23.72 116.745 24.125 114.885L16.15 107.245Z" fill="black"/>
<path d="M12.7843 114.84L11.5293 117.05L14.5243 119.915L16.6743 118.57L12.7843 114.84Z" fill="black"/>
<path d="M16.7845 107.045L24.2995 114.245C27.8595 114.815 26.6195 111.96 26.5145 111.73L19.1995 104.72C18.9645 104.625 16.0645 103.51 16.7845 107.04V107.045Z" fill="black"/>
<path d="M90.4132 37.0901C89.6782 36.3851 89.0232 35.5751 88.4782 34.6851C85.0082 29.0351 86.7832 21.6201 92.4282 18.1501C98.0732 14.6801 105.493 16.4551 108.963 22.1001C110.643 24.8351 111.158 28.0651 110.413 31.1851C109.668 34.3051 107.748 36.9501 105.013 38.6351C102.278 40.3151 99.0482 40.8301 95.9282 40.0851C93.8232 39.5801 91.9382 38.5501 90.4182 37.0901H90.4132ZM106.433 20.3451C102.863 16.9251 97.2932 16.1901 92.8882 18.8951C87.6532 22.1101 86.0082 28.9901 89.2232 34.2251C90.7832 36.7601 93.2332 38.5401 96.1282 39.2351C99.0232 39.9251 102.018 39.4501 104.553 37.8901C107.088 36.3301 108.868 33.8801 109.563 30.9851C110.253 28.0901 109.778 25.0951 108.218 22.5601C107.708 21.7301 107.108 20.9901 106.433 20.3451Z" fill="black"/>
<path d="M93.7383 37.8799L94.5333 45.8049L99.1983 39.2749L93.7383 37.8799Z" fill="black"/>
<path d="M97.3383 18.0999L91.4883 10.1699L92.5483 20.2449L97.3383 18.0999Z" fill="black"/>
<path d="M106.445 21.4502L109.99 12.2002L102.01 18.5302L106.445 21.4502Z" fill="black"/>
<path d="M110.339 31.1496L117.684 27.5096L108.604 25.1396L110.339 31.1496Z" fill="black"/>
<path d="M88.5141 22.1948L80.2441 23.3198L88.3041 27.6948L88.5141 22.1948Z" fill="black"/>
<path d="M88.8684 29.98L82.9434 36.48L92.8234 34.28L88.8684 29.98Z" fill="black"/>
<path d="M110.6 44.2699L102.455 38.8149L107.17 34.6299L110.6 44.2699Z" fill="black"/>
<path d="M108.595 22.3301C105.245 16.8801 98.1151 15.1751 92.6651 18.5201C87.2151 21.8701 85.5101 29.0001 88.8551 34.4501C92.2051 39.9001 99.3351 41.6051 104.785 38.2601C110.235 34.9151 111.94 27.7801 108.595 22.3301ZM90.4801 21.5351C92.1651 21.9001 93.845 22.2901 95.465 22.8901C94.16 22.8101 92.8751 22.6001 91.5951 22.3551C91.8301 22.7851 92.0601 23.2151 92.2751 23.6551C92.5801 24.2801 92.8651 24.9151 93.0951 25.5851C92.0701 24.3401 91.2601 22.9451 90.4801 21.5351ZM102.555 24.3351C103.65 24.0251 104.78 23.9601 105.91 23.9351C105.56 25.0801 105.185 26.2201 104.61 27.2801C104.69 26.3401 104.89 25.4301 105.135 24.5301C104.27 24.5451 103.41 24.5151 102.555 24.3351ZM97.2751 33.0801C97.5701 33.7101 97.805 34.3551 98.02 35.0101C98.17 35.4651 98.3 35.9251 98.43 36.3901C99.1851 35.3151 99.9701 34.2701 100.86 33.2951C100.105 34.8601 99.16 36.3151 98.195 37.7501C97.78 36.2151 97.4001 34.6701 97.2751 33.0801Z" fill="black"/>
</svg>
