<svg width="128" height="128" viewBox="0 0 128 128" fill="none" xmlns="http://www.w3.org/2000/svg">
<path d="M37.4152 86.4248C37.0552 87.2548 36.8752 87.9348 36.9402 88.4148C37.4902 92.3698 33.3452 93.0298 33.3452 93.0298C33.3452 93.0298 30.3302 93.4298 30.6702 96.6748C31.0052 99.9198 26.9252 100.765 26.9252 100.765C26.9252 100.765 25.2002 101.305 24.4202 102.23C24.0202 102.705 23.6252 103.74 23.9752 104.685C25.2352 108.09 21.9602 110.065 21.9602 110.065C21.9602 110.065 19.1852 111.655 18.5602 115.285C17.9352 118.915 16.2152 118.38 16.2152 118.38C8.68516 117.7 8.97016 113.4 8.97016 113.4C13.4302 99.6998 27.6802 82.1398 28.2652 81.4248L37.4052 86.4248H37.4152ZM12.3352 111.505C11.5852 112.265 11.5902 113.495 12.3552 114.245C13.1152 114.995 14.3452 114.985 15.0952 114.225C15.8452 113.465 15.8352 112.235 15.0752 111.485C14.3152 110.735 13.0852 110.745 12.3352 111.505Z" fill="black"/>
<path d="M114.986 23.9701C110.406 19.4601 103.036 19.5201 98.5258 24.1001C94.0158 28.6801 94.0758 36.0501 98.6558 40.5601C103.236 45.0701 110.606 45.0101 115.116 40.4301C119.626 35.8501 119.566 28.4801 114.986 23.9701ZM112.306 25.7651C115.221 28.0601 116.141 31.5151 115.221 34.6051L114.421 34.1551C115.121 31.2801 114.286 28.2551 112.306 25.7651ZM114.116 35.1551L114.871 35.5751C114.636 36.1101 114.346 36.6301 113.996 37.1251L113.326 36.7501C113.651 36.2301 113.911 35.6951 114.116 35.1551ZM110.226 40.3101C111.146 39.4701 112.026 38.5951 112.751 37.6001L113.351 37.9351C112.966 38.3651 112.536 38.7751 112.051 39.1501C111.471 39.5901 110.871 39.9851 110.226 40.3101Z" fill="black"/>
<path d="M118.976 25.385C119.316 26.135 117.796 26.58 117.796 26.58C117.746 26.505 117.691 26.435 117.636 26.36C114.831 20.87 107.691 18.355 101.951 20.87C95.6108 23.4 92.6958 31.46 95.6608 37.52C95.6858 37.63 95.7108 37.74 95.7358 37.85C96.1008 39.615 95.0808 39.715 94.3658 39.59C93.9858 39.525 93.2358 38.685 92.9958 38.385C91.1358 36.08 88.0658 36.275 88.0658 36.275C83.1008 35.355 52.5208 66.405 52.5208 66.405C52.5208 66.405 41.2308 79.04 37.8658 85.485L28.9258 80.595C65.8608 33.575 81.9008 23.645 81.9008 23.645C81.9008 23.645 93.2858 14.375 102.046 12.585C110.801 10.795 118.636 24.63 118.976 25.385Z" fill="black"/>
</svg>
