<svg width="128" height="128" viewBox="0 0 128 128" fill="none" xmlns="http://www.w3.org/2000/svg">
<path d="M47.1582 73.2549L54.9532 81.2649C61.5882 75.4199 110.513 31.9099 114.738 15.3149C98.0332 19.0849 53.1832 66.7849 47.1582 73.2549ZM78.8032 51.4249C73.4982 56.3899 62.7932 66.9399 57.4732 71.6399C71.0682 58.2899 85.4282 43.3099 99.5982 30.6649L99.6582 30.7249C92.9582 37.8799 85.9282 44.6999 78.8032 51.4249Z" fill="black"/>
<path d="M24.2683 97.7348C23.9183 98.1548 23.5783 98.5598 23.2533 98.9548C22.9733 99.2948 23.2033 99.8098 23.6433 99.8298L32.7683 100.255C33.4483 100.285 34.1133 100.07 34.6383 99.6448C35.1633 99.2198 35.7383 98.7498 36.2933 98.2948C36.6733 97.9848 36.4683 97.3648 35.9783 97.3448L26.1933 96.8898C25.4533 96.8548 24.7433 97.1698 24.2683 97.7398V97.7348Z" fill="black"/>
<path d="M21.1991 102.805L29.3141 103.185C29.8591 103.21 30.3991 103.04 30.8291 102.7C31.2591 102.36 31.6841 102.02 32.1241 101.67C32.5091 101.36 32.3091 100.735 31.8141 100.71L23.2941 100.315C22.5891 100.28 21.9041 100.585 21.4541 101.135C21.2241 101.415 21.0041 101.685 20.7991 101.935C20.5191 102.275 20.7541 102.785 21.1941 102.81L21.1991 102.805Z" fill="black"/>
<path d="M27.1397 94.3247C26.7947 94.7297 26.4597 95.1297 26.1247 95.5197C25.8397 95.8597 26.0647 96.3797 26.5097 96.3997L36.6097 96.8697C37.4647 96.9097 38.3047 96.6297 38.9597 96.0797C39.4047 95.7047 39.8497 95.3297 40.2897 94.9597C40.6597 94.6447 40.4497 94.0397 39.9647 94.0147L29.0247 93.5047C28.3047 93.4697 27.6097 93.7747 27.1397 94.3247Z" fill="black"/>
<path d="M19.5749 103.45C19.5499 103.48 19.5299 103.505 19.5049 103.535C19.3349 103.745 19.3499 104.05 19.5399 104.245L21.1699 105.92C21.2649 106.02 21.3949 106.075 21.5299 106.08L26.0299 106.29C26.1549 106.295 26.2799 106.26 26.3799 106.18C26.9949 105.7 27.6849 105.17 28.4249 104.59C28.8149 104.285 28.6149 103.655 28.1199 103.63L20.0149 103.255C19.8449 103.245 19.6799 103.32 19.5699 103.455L19.5749 103.45Z" fill="black"/>
<path d="M45.3184 79.0398L43.6034 77.2798C43.3234 77.4648 43.0284 77.6798 42.7134 77.9198C42.2984 78.2398 42.5034 78.9098 43.0284 78.9348L45.3184 79.0398Z" fill="black"/>
<path d="M24.1493 106.7L23.1843 106.655C22.6993 106.63 22.4343 107.215 22.7743 107.565L23.2093 108.015C23.3993 108.21 23.7043 108.235 23.9193 108.07C24.0743 107.95 24.2493 107.815 24.4493 107.665C24.8493 107.36 24.6493 106.725 24.1493 106.7Z" fill="black"/>
<path d="M29.9049 91.1098C29.6049 91.4548 29.3099 91.7948 29.0149 92.1348C28.7199 92.4748 28.9499 92.9998 29.3999 93.0198L40.6249 93.5398C41.4299 93.5748 42.2149 93.2998 42.8199 92.7698C43.2099 92.4248 43.5949 92.0848 43.9699 91.7498C44.3449 91.4148 44.1149 90.8348 43.6349 90.8148L31.8799 90.2698C31.1299 90.2348 30.3999 90.5448 29.9049 91.1148V91.1098Z" fill="black"/>
<path d="M32.9534 87.655C32.5884 88.065 32.2184 88.475 31.8534 88.89C31.5534 89.225 31.7784 89.76 32.2284 89.78L44.2634 90.34C45.0284 90.375 45.7734 90.095 46.3284 89.57C46.8334 89.09 47.3134 88.625 47.7584 88.175C48.0884 87.845 47.8634 87.285 47.3984 87.26L35.2384 86.695C34.3734 86.655 33.5284 87.005 32.9484 87.65L32.9534 87.655Z" fill="black"/>
<path d="M58.6789 87.0499L54.2239 81.9498L46.4589 73.9648L41.4839 69.3698C42.0639 67.9498 41.8489 66.3248 40.7789 65.2248C39.3039 63.7048 36.7889 63.7598 35.1589 65.3498C33.5289 66.9348 33.4039 69.4498 34.8789 70.9648C35.9439 72.0598 37.5389 72.3198 38.9589 71.7948L42.1089 75.0298L42.1189 75.0198L52.9989 86.2048L52.9889 86.2148L56.1839 89.4998C55.6239 90.9098 55.8439 92.5149 56.9089 93.6049C58.3839 95.1249 60.8989 95.0699 62.5289 93.4799C64.1589 91.8949 64.2839 89.3798 62.8089 87.8648C61.7339 86.7598 60.1189 86.4998 58.6839 87.0448L58.6789 87.0499Z" fill="black"/>
<path d="M23.1391 108.66L18.8941 104.295L18.8891 104.305C17.7741 103.585 14.3491 105.845 14.0291 107.61C13.6891 109.525 12.2441 115.01 12.2441 115.01C12.2441 115.01 17.7691 113.72 19.6941 113.43C21.4691 113.16 23.8241 109.8 23.1291 108.665C23.1291 108.665 23.1341 108.665 23.1391 108.66ZM14.7541 112.68L14.3791 112.74C14.7541 111.245 15.1591 109.76 15.7341 108.315C15.5941 109.61 15.3341 110.88 15.0391 112.135C15.6341 112.045 16.2291 111.965 16.8291 111.905C17.5541 111.83 18.2741 111.775 19.0041 111.76C17.6141 112.18 16.1841 112.45 14.7541 112.68Z" fill="black"/>
<path d="M50.5334 84.3999L49.7934 83.6399C49.7034 83.5499 49.5834 83.4949 49.4584 83.4899L38.4984 82.9799C37.7584 82.9449 37.0484 83.2349 36.5384 83.7699C36.0284 84.3049 35.5434 84.8249 35.0384 85.3699C34.7484 85.6799 34.9584 86.1899 35.3834 86.2099L47.9284 86.7949C48.6584 86.8299 49.3634 86.5199 49.8384 85.9649C50.1134 85.6449 50.3584 85.3399 50.5734 85.0549C50.7234 84.8549 50.7084 84.5799 50.5334 84.3999Z" fill="black"/>
<path d="M40.8448 79.5097C40.2048 80.0897 39.5248 80.7447 38.8098 81.4497C38.4248 81.8297 38.6798 82.4897 39.2198 82.5147L47.5798 82.9047C48.1448 82.9297 48.4498 82.2547 48.0548 81.8497L46.0048 79.7447C45.8948 79.6297 45.7448 79.5647 45.5898 79.5547L41.2948 79.3547C41.1298 79.3447 40.9698 79.3997 40.8498 79.5147L40.8448 79.5097Z" fill="black"/>
</svg>
