<svg width="128" height="128" viewBox="0 0 128 128" fill="none" xmlns="http://www.w3.org/2000/svg">
<g clip-path="url(#clip0_268_12865)">
<path d="M10.6574 118.052L13.0278 120.423C13.0278 120.423 11.8778 122.026 10.2134 122.106C7.33506 122.192 5.78249 120.352 6.1882 117.506C6.39585 116.219 7.68647 115.081 7.68647 115.081L10.6574 118.052Z" fill="black"/>
<path d="M23.0483 100.83L27.3035 105.085C26.377 105.628 25.5592 106.044 24.5881 105.073C23.9971 104.482 23.1665 104.124 22.3103 103.964C21.7896 103.865 21.6107 103.693 21.9653 103.204C22.4637 102.52 22.716 101.705 23.0451 100.833L23.0483 100.83Z" fill="black"/>
<path d="M19.7677 105.843C20.2117 105.303 20.5631 104.907 20.8762 104.485C21.0423 104.262 21.2116 104.143 21.4928 104.175C22.7419 104.306 23.7705 104.9 24.7129 105.683C24.8215 105.773 24.9046 105.881 24.8439 106.044C24.7097 106.389 23.2722 107.047 22.9431 106.865C22.0039 106.348 20.988 106.06 19.7677 105.843Z" fill="black"/>
<path d="M22.8254 107.494C22.4867 108.012 21.95 108.312 21.5124 108.718C21.3175 108.9 21.1258 108.964 20.8511 108.823C20.0045 108.392 19.1005 108.107 18.1325 107.951C19.2506 106.053 20.8096 105.925 22.8317 107.494L22.8254 107.494Z" fill="black"/>
<path d="M16.4305 109.711C17.341 108.322 19.2449 108.117 20.5164 109.21C20.6953 109.363 20.7368 109.468 20.5803 109.612C20.0372 110.104 19.6666 110.89 18.6475 110.369C17.9767 110.024 17.1812 109.925 16.4273 109.714L16.4305 109.711Z" fill="black"/>
<path d="M14.8495 111.331C15.8143 109.951 16.8557 109.893 18.9706 111.063C18.8524 111.456 18.4594 111.618 18.2294 111.912C17.8109 112.452 17.3924 112.494 16.7855 112.117C16.2072 111.756 15.5076 111.587 14.8495 111.331Z" fill="black"/>
<path d="M12.8863 113.407C14.2823 111.685 14.5666 111.586 16.1543 112.312C16.461 112.452 17.167 112.532 16.9146 112.963C16.6207 113.462 16.1959 114.231 15.3844 113.963C14.6145 113.704 13.8574 113.458 12.8863 113.407Z" fill="black"/>
<path d="M15.1595 114.497C14.1947 116.842 12.6805 115.474 11.2972 115.069C12.179 113.676 13.6037 113.478 15.1595 114.497Z" fill="black"/>
<path d="M13.3765 116.535C11.9357 118.532 11.8654 118.308 10.0988 116.573C9.98061 116.423 9.85921 116.295 10.0094 116.126C10.2521 115.858 10.5237 115.657 10.9198 115.65C11.4917 115.641 12.5011 115.986 13.3733 116.538L13.3765 116.535Z" fill="black"/>
<path d="M6.74071 121.292C6.92919 121.48 7.12726 121.665 7.30935 121.86C7.4531 122.017 7.84284 122.049 7.51061 122.464C7.29337 122.739 7.00586 122.905 6.73752 122.815C6.02512 122.576 5.53635 122.093 5.32231 121.362C5.23925 121.081 5.42773 120.809 5.69608 120.598C6.05068 120.32 6.11457 120.614 6.24874 120.761C6.41167 120.937 6.5682 121.125 6.72474 121.308C6.73113 121.301 6.73432 121.298 6.74071 121.292Z" fill="black"/>
<path d="M6.99279 97.4568C1.35115 103.558 6.38262 115.605 6.38262 115.605L7.67324 114.289L9.23539 115.851C9.23539 115.851 6.64778 106.37 11.1106 101.958C14.8866 98.2267 19.0939 97.1501 19.0939 97.1501L15.5575 93.6137C15.5575 93.6137 11.6122 92.4605 6.99279 97.4568ZM11.8837 95.8691C8.11729 98.4216 5.52967 102.83 5.89705 107.453C4.79811 102.099 8.57731 96.639 13.5641 94.8404C12.9763 95.1407 12.414 95.4858 11.8837 95.8691Z" fill="black"/>
<path d="M16.1035 93.0674L35.0666 112.03C35.0666 112.03 43.5578 101.91 34.8877 93.2463C25.403 83.7615 16.1035 93.0674 16.1035 93.0674ZM32.8336 94.2909C29.3515 91.0708 23.8121 90.1699 19.723 92.7575C24.3008 89.1061 31.2714 90.9526 34.2807 95.7317C33.8367 95.211 33.3511 94.7254 32.8336 94.2845V94.2909Z" fill="black"/>
<path d="M37.0157 94.505C37.0157 94.505 36.3001 93.4827 35.4695 92.6585C34.6389 91.8343 33.623 91.1123 33.623 91.1123C33.623 91.1123 123.337 2.90649 124.279 3.8489C125.222 4.7913 37.0157 94.505 37.0157 94.505Z" fill="black"/>
</g>
<defs>
<clipPath id="clip0_268_12865">
<rect width="128" height="128" fill="white"/>
</clipPath>
</defs>
</svg>
