<svg width="128" height="128" viewBox="0 0 128 128" fill="none" xmlns="http://www.w3.org/2000/svg">
<path d="M49.1204 83.4557C49.3254 82.5557 42.7054 88.5357 43.1154 87.7057C42.4054 88.1257 48.4853 81.7295 47.6953 81.9645C44.7453 82.8645 41.5854 82.1507 38.9104 80.6807C38.9054 80.6907 36.8954 84.0457 38.5004 86.8107C38.5004 86.8107 38.5004 86.8157 38.4904 86.8307C40.2154 89.0457 43.2154 92.1007 46.4754 93.7157C48.8554 94.4157 50.6204 92.8707 50.9304 92.5707C49.1804 89.9107 48.3754 86.6007 49.1204 83.4607V83.4557Z" fill="black"/>
<path d="M101.535 46.24L60.6352 88.59C52.2802 89.335 53.2552 81.46 53.2552 81.46C53.2552 81.46 98.3452 34.345 105.595 27.24C112.845 20.135 113.415 15.395 113.415 15.395C113.415 15.395 108.5 15.32 101.655 22.815C94.8202 30.295 48.6752 77.4251 48.6752 77.4251C48.6752 77.4251 41.4602 78.255 41.9102 69.88L82.8202 27.52C82.8202 27.52 85.5302 24.385 84.7452 21.94C82.3752 20.945 78.9652 23.91 78.9652 23.91L35.8702 68.5351C35.8702 68.5351 33.8852 71.915 35.5002 75.7C36.4152 77.845 38.3552 79.705 38.9952 80.285C42.7402 82.105 47.4602 82.335 50.8702 79.705L51.9302 78.935C49.4802 82.25 48.8352 86.635 50.4552 90.47C50.7352 91.185 51.0852 91.87 51.4802 92.535C52.1602 93.245 54.4852 95.55 56.7102 96.135C59.1602 96.775 62.1852 94.6 62.1852 94.6L105.295 49.965C105.295 49.965 107.9 46.47 107.175 44.425C105.07 43.495 101.545 46.25 101.545 46.25L101.535 46.24ZM95.2552 33.42C100.21 28.265 105.25 22.78 110.58 18.2C101.365 28.67 90.2402 39.1601 80.4102 49.1151L80.3552 49.065C84.0602 45.15 91.5252 37.31 95.2502 33.425L95.2552 33.42Z" fill="black"/>
<path d="M33.3366 98.9806C32.4366 97.9606 31.3016 97.2406 30.1616 96.7256C29.5866 97.1756 28.9966 97.6256 28.4316 98.0506C29.6866 98.5906 30.9566 99.3806 31.9666 100.521C32.4916 101.116 32.9066 101.776 33.2216 102.491C33.6166 101.901 34.0366 101.286 34.4516 100.691C34.1666 100.071 33.8016 99.4956 33.3416 98.9706L33.3366 98.9806Z" fill="black"/>
<path d="M31.5905 100.855C30.5705 99.7003 29.2455 98.9253 27.9555 98.4053C27.0855 99.0553 26.3255 99.6053 25.8555 99.9453C27.4305 100.55 29.1605 101.525 30.4105 103.095C30.8905 103.695 31.2555 104.355 31.5355 105.055C31.8355 104.585 32.3205 103.84 32.8855 102.99C32.5805 102.205 32.1555 101.49 31.5905 100.85V100.855Z" fill="black"/>
<path d="M30.0208 103.41C28.7558 101.82 26.9258 100.865 25.3258 100.295C24.8458 100.255 19.9458 99.9554 18.3008 103.97C16.5808 108.18 17.5108 114.435 17.5108 114.435C17.5108 114.435 23.1308 115.145 27.3008 113.28C31.2358 111.515 31.2158 106.165 31.2058 105.615C30.9408 104.81 30.5508 104.07 30.0208 103.405V103.41ZM19.5258 112.22L19.3308 112.2L19.3108 112C19.0058 108.97 19.5008 105.725 21.2308 103.175C19.9108 105.81 19.5308 108.825 19.7908 111.74C22.7808 111.975 25.9358 111.445 28.4858 109.795C26.0258 111.84 22.6608 112.495 19.5258 112.225V112.22Z" fill="black"/>
<path d="M37.9113 87.7056C36.8213 89.3506 34.4763 92.8056 33.1413 94.1906C32.5963 94.7556 31.6513 95.5506 30.6113 96.3756C31.7213 96.9056 32.8213 97.6406 33.7113 98.6506C34.1413 99.1356 34.4913 99.6656 34.7763 100.231C35.5163 99.1906 36.2113 98.2756 36.6863 97.7806C37.8763 96.5506 41.5313 93.9906 43.2063 92.8456C41.1063 91.2906 39.2313 89.3606 37.9113 87.7056Z" fill="black"/>
</svg>
