<svg width="128" height="128" viewBox="0 0 128 128" fill="none" xmlns="http://www.w3.org/2000/svg">
<path d="M25.5107 91.9948L11.5457 108.27C10.7207 109.23 10.8307 110.675 11.7907 111.5L15.9857 115.1L16.2707 119.27C16.4007 120.535 17.8007 122.06 19.0507 121.815C20.8557 121.46 22.2107 119.69 21.9557 117.975C21.7007 116.26 20.7607 115.895 20.6557 114.635C20.5507 113.375 21.4457 111.795 21.4457 111.795C21.4457 111.795 23.4607 109.79 26.3107 106.76C28.3007 104.645 32.5957 99.7048 33.6657 96.7448C33.9107 96.0598 34.2057 95.4498 34.5207 94.9098C32.8157 94.6648 28.7807 93.9197 25.5057 91.9897L25.5107 91.9948ZM19.6907 119.325C19.3557 119.72 18.7607 119.765 18.3707 119.425C17.9757 119.09 17.9307 118.495 18.2707 118.105C18.6057 117.71 19.2007 117.665 19.5907 118.005C19.9857 118.34 20.0307 118.935 19.6907 119.325Z" fill="black"/>
<path d="M27.9798 89.1147L25.8398 91.6097C29.1798 93.5497 33.3098 94.2497 34.8098 94.4497C35.5748 93.2747 36.4048 92.4797 36.9548 92.0297C35.2298 91.7797 31.2298 91.0297 27.9798 89.1147Z" fill="black"/>
<path d="M33.5164 82.6697L28.3164 88.7297C31.8664 90.7947 37.5864 91.5697 37.5864 91.5697C41.0714 91.8047 42.5864 91.4197 43.2114 91.1297C43.4314 91.0297 43.4664 90.7347 43.2864 90.5797L34.1464 82.6197C33.9614 82.4597 33.6764 82.4797 33.5164 82.6647V82.6697Z" fill="black"/>
<path d="M120.41 23.7548C120.41 23.7548 107.605 48.6298 77.98 65.5298L49.575 84.9348C49.335 82.0498 50.865 79.2898 52.51 77.0198C58.025 69.7098 66.51 65.7548 74.23 61.2598C89.37 51.6198 101.845 38.2998 112.675 24.0448L112.065 23.5248C108.565 28.2398 104.83 32.7848 100.94 37.1748C91.62 47.5748 81.23 56.9748 68.825 63.5898C62.74 66.9998 56.68 71.3198 52.44 76.9698C50.81 79.2598 49.3 82.0498 49.57 84.9398L43.34 89.1948L34.875 81.9348L99.9 6.15479L115.155 19.2448V19.2498L115.825 19.8198L116.03 19.9948L118.155 21.8198L120.415 23.7548H120.41Z" fill="black"/>
</svg>
