<svg width="128" height="128" viewBox="0 0 128 128" fill="none" xmlns="http://www.w3.org/2000/svg">
<g clip-path="url(#clip0_268_12824)">
<path d="M83.5673 46.5072L7.66961 123.109C6.8303 123.956 5.4608 123.96 4.61789 123.117C3.77499 122.274 3.77857 120.904 4.62507 120.065L81.2273 44.1672L83.5673 46.5072Z" fill="black"/>
<path d="M108.238 21.4768C108.238 21.4768 126.202 3.70027 125.352 2.85017C124.62 2.11869 106.357 19.5951 106.357 19.5951L107.825 19.9851L108.236 21.475L108.238 21.4768Z" fill="black"/>
<path d="M81.5519 43.5682C81.1459 43.1622 81.1455 42.5044 81.551 42.0989C81.9565 41.6934 82.6143 41.6939 83.0202 42.0998L85.6334 44.713C86.0394 45.119 86.0398 45.7768 85.6343 46.1823C85.2289 46.5877 84.571 46.5873 84.1651 46.1814L81.5519 43.5682Z" fill="black"/>
<path d="M86.3508 44.3339L107.734 21.9797L107.323 20.4898L105.853 20.098L83.3224 41.3055L86.3508 44.3339Z" fill="black"/>
<path d="M101.701 35.0942C100.804 34.715 100.083 35.45 100.223 36.55C100.277 36.9741 99.5441 35.0798 98.3651 35.3782C97.1933 35.6765 97.4701 37.0927 97.4701 37.0927L93.9367 37.1431L106.988 23.6709C106.988 23.6709 106.868 30.2794 107.452 33.5989C108.877 41.7242 104.136 46.9219 104.125 46.6882C103.85 40.6764 102.01 36.5715 102.01 36.5715C102.01 36.5715 102.734 35.5273 101.701 35.0906L101.701 35.0942ZM101.108 33.5953C101.35 33.3527 101.35 32.9573 101.108 32.7146C100.865 32.472 100.47 32.472 100.227 32.7146C99.9844 32.9573 99.9844 33.3527 100.227 33.5953C100.47 33.8379 100.865 33.8379 101.108 33.5953Z" fill="black"/>
<path d="M97.6836 4.37402C101.14 10.0875 100.453 13.3764 100.453 13.3764C100.453 13.3764 99.3514 13.4214 99.2148 14.6147C99.0657 15.9034 100.27 16.3131 100.27 16.3131C100.27 16.3131 97.7016 17.5982 99.0082 19.6848C100.317 21.7732 102.29 20.1664 102.29 20.1664L104.132 20.9087L91.4705 32.7939C91.4705 32.7939 91.3663 31.5538 90.4551 31.3004C89.3516 30.9948 88.7549 31.9581 88.7549 31.9581L80.8003 32.296C80.8003 32.296 93.868 21.4748 97.6836 4.37402ZM98.0125 16.5108C98.1581 16.3652 98.1581 16.128 98.0125 15.9824C97.8669 15.8369 97.6297 15.8369 97.4841 15.9824C97.3385 16.128 97.3385 16.3652 97.4841 16.5108C97.6297 16.6564 97.8669 16.6564 98.0125 16.5108ZM100.401 22.6125C100.644 22.3698 100.644 21.9744 100.401 21.7318C100.158 21.4892 99.763 21.4892 99.5204 21.7318C99.2778 21.9744 99.2778 22.3698 99.5204 22.6125C99.763 22.8551 100.158 22.8551 100.401 22.6125ZM97.3619 21.1226C97.6045 20.8799 97.6045 20.4845 97.3619 20.2419C97.1193 19.9993 96.7239 19.9993 96.4812 20.2419C96.2386 20.4845 96.2386 20.8799 96.4812 21.1226C96.7239 21.3652 97.1193 21.3652 97.3619 21.1226ZM88.8393 30.7558C88.9921 30.603 88.9939 30.3532 88.8411 30.2004C88.6884 30.0477 88.4386 30.0459 88.284 30.2004C88.1294 30.355 88.1312 30.6012 88.2858 30.7558C88.4404 30.9104 88.6866 30.9086 88.8393 30.7558Z" fill="black"/>
</g>
<defs>
<clipPath id="clip0_268_12824">
<rect width="128" height="128" fill="white"/>
</clipPath>
</defs>
</svg>
