<svg width="128" height="128" viewBox="0 0 128 128" fill="none" xmlns="http://www.w3.org/2000/svg">
<path d="M48.2159 88.1604C48.2159 88.1604 48.3859 87.1254 46.2509 84.8704C44.6659 83.2004 43.9959 84.1104 43.9959 84.1104C43.9959 84.1104 42.5959 82.5704 41.7059 83.4154C40.9559 84.1304 42.0759 85.8204 42.0759 85.8204C42.0759 85.8204 42.1659 85.9704 42.4459 86.3104C42.4759 86.2704 42.5059 86.2454 42.5309 86.2254C42.8459 85.9704 43.1709 85.8754 43.4909 85.8954C43.3009 85.4904 43.2259 85.1404 43.2959 84.8604C43.3059 84.8254 43.3159 84.8054 43.3309 84.7754C43.2909 84.7354 43.2609 84.6804 43.2209 84.6404C42.8709 84.2854 42.4659 83.7604 41.9409 83.7304C41.7359 83.7404 41.6409 84.0004 41.6059 84.2154C41.6059 83.9854 41.6459 83.6854 41.9109 83.6054C42.5409 83.5154 43.0459 83.9854 43.5259 84.3104C43.5659 84.3454 43.6109 84.3754 43.6559 84.4054C43.6809 84.3954 43.7059 84.3854 43.7309 84.3804C44.2559 84.2904 44.7659 84.5204 45.2109 84.7654C46.5059 85.6754 47.4509 87.1654 47.8409 88.7004C48.8559 89.5254 50.1209 90.4904 50.1709 91.9054C50.1659 92.1054 50.0859 92.3154 49.9209 92.4254C50.6609 91.3854 48.5959 89.7004 47.6709 89.0354C47.4459 88.9154 47.2009 88.7904 46.9559 88.6904C47.1609 88.9704 47.3409 89.2304 47.4659 89.4404C47.7859 89.9754 47.8959 90.4554 47.7859 90.8754C47.7309 91.0854 47.6309 91.2404 47.5359 91.3454C48.2909 92.0704 49.9259 93.3754 50.6059 91.8104C51.2959 90.2254 48.2209 88.1504 48.2209 88.1504L48.2159 88.1604Z" fill="black"/>
<path d="M46.5615 88.2003C46.8515 88.2653 47.1115 88.3703 47.3665 88.4953C46.9665 87.4253 46.2165 86.5303 45.5015 85.6503C45.0815 85.2303 44.4615 84.8303 43.8515 84.8503C43.8515 84.8503 43.7965 84.8953 43.7765 85.0053C43.7515 85.1503 43.7765 85.4703 44.1515 86.0703C44.5765 86.2653 45.0065 86.5953 45.4165 86.9403C45.7065 87.1803 46.1465 87.6803 46.5565 88.2003H46.5615Z" fill="black"/>
<path d="M118.721 15.0801L45.9512 83.9801C46.1062 84.0951 46.2612 84.2201 46.4212 84.3651C47.2412 85.1101 47.7312 85.9001 48.0862 86.4801C48.1562 86.5901 48.2162 86.6951 48.2812 86.7901C48.5962 87.2751 48.6762 87.7201 48.6962 87.9301L49.3212 88.4701L114.821 26.3001C114.821 26.3001 120.266 20.4401 118.721 15.0801ZM112.501 24.9201C110.511 27.7951 104.101 33.5851 101.561 36.1301C91.3612 45.7701 66.4562 69.2551 55.8762 78.9201C70.3112 65.1401 94.2962 41.7201 108.686 28.4901C111.166 26.1151 113.556 23.4951 115.091 20.3901L115.161 20.4201C114.496 22.0351 113.541 23.5201 112.501 24.9201Z" fill="black"/>
<path d="M45.471 92.2749C45.471 92.2749 46.476 92.0399 47.046 91.3349C47.346 90.4649 45.486 88.4199 45.486 88.4199C45.486 88.4199 43.926 86.6649 42.751 86.6699C42.751 86.6699 41.871 87.3999 41.541 88.1399C42.121 88.2299 45.586 91.6449 45.466 92.2749H45.471Z" fill="black"/>
<path d="M27.2598 101.8C27.3998 102.2 27.5148 102.605 27.6148 103.005C28.3098 102.935 28.9598 103.09 29.3698 103.24C29.2448 102.32 29.0398 101.355 28.7248 100.405L27.2598 101.805V101.8Z" fill="black"/>
<path d="M29.5203 107.335C29.5403 106.955 29.5603 106.505 29.5553 106C29.2553 105.865 28.6703 105.665 28.0703 105.72C28.1703 106.84 28.1703 107.85 28.1353 108.64L29.5203 107.335Z" fill="black"/>
<path d="M32.9695 104.085C33.0095 103.63 33.0595 102.935 33.0545 102.1C32.7745 101.975 32.2445 101.79 31.6895 101.81C31.8595 103.035 31.8995 104.18 31.8795 105.11L32.9645 104.085H32.9695Z" fill="black"/>
<path d="M27.5999 109.145C27.6999 107.655 27.7199 104.865 26.8599 102.185L25.5449 103.44C26.3949 106.115 26.3899 108.84 26.2899 110.38L27.5999 109.145Z" fill="black"/>
<path d="M31.36 105.6C31.425 103.935 31.34 101.265 30.44 98.7646L29.125 100.02C30.015 102.53 30.115 105.15 30.05 106.835L31.36 105.6Z" fill="black"/>
<path d="M30.8359 98.3848C30.9259 98.6248 31.0109 98.8598 31.0909 99.0998C31.7959 99.0198 32.4609 99.1798 32.8759 99.3298C32.7709 98.5498 32.6059 97.7348 32.3659 96.9248L30.8359 98.3848Z" fill="black"/>
<path d="M33.0505 101.555C33.0355 101.04 33.0055 100.48 32.9405 99.8998C32.6605 99.7798 31.9705 99.5348 31.2305 99.5948C31.3955 100.175 31.5205 100.75 31.6155 101.315C32.1705 101.285 32.6905 101.42 33.0455 101.555H33.0505Z" fill="black"/>
<path d="M29.5505 105.46C29.5355 104.945 29.5055 104.385 29.4405 103.805C29.1605 103.685 28.4705 103.44 27.7305 103.5C27.8605 104.09 27.9505 104.67 28.0155 105.23C28.6055 105.175 29.1705 105.32 29.5455 105.465L29.5505 105.46Z" fill="black"/>
<path d="M25.7459 110.895C25.7859 110.44 25.8259 109.78 25.8259 108.985C25.5459 108.86 25.0159 108.675 24.4609 108.695C24.6309 109.895 24.6659 111.01 24.6509 111.925L25.7409 110.895H25.7459Z" fill="black"/>
<path d="M16.0352 112.525C16.5352 112.885 17.0152 113.295 17.3502 113.625C17.5002 113.775 17.7102 114 17.9402 114.26C17.9402 113.6 17.8752 112.41 17.5702 111.065L16.0402 112.525H16.0352Z" fill="black"/>
<path d="M22.2853 114.15C22.3053 113.785 22.3203 113.36 22.3203 112.885C21.9953 112.74 21.3503 112.51 20.7053 112.615L20.6253 112.12C21.2703 112.02 21.9003 112.19 22.3103 112.345C22.2953 111.83 22.2653 111.27 22.2003 110.69C21.8953 110.56 21.1203 110.28 20.3203 110.4C20.7703 112.37 20.8153 114.27 20.7603 115.585L22.2803 114.15H22.2853Z" fill="black"/>
<path d="M19.4794 109.23L17.9844 110.655C18.5344 112.815 18.4294 114.645 18.4194 114.825C18.8244 115.31 19.2244 115.82 19.4594 116.175C19.5544 116.32 19.6344 116.46 19.6994 116.585L20.2344 116.085C20.3244 114.57 20.3244 111.84 19.4844 109.23H19.4794Z" fill="black"/>
<path d="M22.1359 110.125C22.0109 109.21 21.8109 108.25 21.4959 107.305L19.8809 108.845C20.0009 109.2 20.1109 109.555 20.2009 109.91C20.9609 109.785 21.6859 109.965 22.1309 110.125H22.1359Z" fill="black"/>
<path d="M23.6046 105.29C23.6946 105.52 23.7746 105.755 23.8496 105.99C24.5546 105.91 25.2196 106.07 25.6346 106.22C25.5296 105.445 25.3696 104.635 25.1296 103.83L23.5996 105.29H23.6046Z" fill="black"/>
<path d="M24.1295 112.415C24.1895 110.75 24.0945 108.125 23.2095 105.67L21.8945 106.925C22.7645 109.395 22.8745 111.965 22.8145 113.655L24.1245 112.42L24.1295 112.415Z" fill="black"/>
<path d="M25.8141 108.44C25.7991 107.925 25.7691 107.365 25.7041 106.785C25.4241 106.665 24.7341 106.42 23.9941 106.48C24.1591 107.06 24.2841 107.635 24.3791 108.2C24.9341 108.17 25.4541 108.305 25.8091 108.44H25.8141Z" fill="black"/>
<path d="M38.6999 98.6848C38.7299 96.9098 38.5649 94.3048 37.6049 91.9248L36.2949 93.1748C37.2399 95.5798 37.4199 98.1348 37.3899 99.9198L38.6999 98.6848Z" fill="black"/>
<path d="M19.0452 116.45C18.6052 115.77 17.4702 114.45 16.9952 113.98C16.5452 113.54 16.0852 113.165 15.6702 112.87L15.0202 113.49C14.3802 114.1 14.3552 115.115 14.9652 115.755L16.6052 117.485C17.1652 118.075 18.0952 118.1 18.6852 117.545L19.3152 116.95C19.2652 116.82 19.1802 116.66 19.0452 116.45Z" fill="black"/>
<path d="M42.2292 95.3597C42.3642 93.7597 42.3842 90.8648 41.2242 88.5098C41.2142 88.5048 41.2042 88.4997 41.1942 88.4897L39.9492 89.6797C40.8642 92.2547 40.9442 94.9498 40.8692 96.6348L42.2242 95.3597H42.2292Z" fill="black"/>
<path d="M45.1594 92.5946C45.1444 92.5246 45.0844 92.3296 44.8244 91.9646C44.7094 91.8046 44.5544 91.6096 44.3744 91.3946C44.0594 91.3146 43.3594 91.1896 42.6094 91.3696C42.8144 92.6596 42.8244 93.8946 42.7694 94.8496L45.1594 92.5996V92.5946Z" fill="black"/>
<path d="M42.71 89.625C42.475 89.41 42.235 89.22 42 89.04C42.23 89.645 42.405 90.26 42.525 90.875C43.015 90.765 43.475 90.76 43.85 90.8C43.415 90.32 42.96 89.85 42.71 89.625Z" fill="black"/>
<path d="M40.3845 95.6748C40.1045 95.5498 39.5795 95.3648 39.0195 95.3848C39.1645 96.4048 39.2145 97.3698 39.2145 98.1998L40.3395 97.1398C40.3645 96.7348 40.3845 96.2398 40.3845 95.6748Z" fill="black"/>
<path d="M34.4902 94.8948C34.6852 95.4548 34.8402 96.0198 34.9602 96.5798C35.6502 96.5148 36.2902 96.6698 36.6952 96.8148C36.5502 95.7548 36.3002 94.6348 35.9002 93.5498L34.4902 94.8948Z" fill="black"/>
<path d="M36.8648 100.41C36.8748 100.155 36.8798 99.875 36.8798 99.58C36.5698 99.445 35.9598 99.23 35.3398 99.305C35.4048 100.27 35.3998 101.14 35.3648 101.825L36.8648 100.41Z" fill="black"/>
<path d="M36.8755 99.0396C36.8605 98.5246 36.8305 97.9646 36.7655 97.3846C36.4855 97.2646 35.8005 97.0196 35.0605 97.0796C35.1705 97.6746 35.2505 98.2546 35.3005 98.8146C35.9055 98.7496 36.4855 98.8996 36.8705 99.0446L36.8755 99.0396Z" fill="black"/>
<path d="M40.3747 95.1348C40.3597 94.6198 40.3297 94.0598 40.2647 93.4798C39.9847 93.3598 39.2947 93.1148 38.5547 93.1748C38.7197 93.7548 38.8447 94.3298 38.9397 94.8948C39.4947 94.8648 40.0147 95.0048 40.3697 95.1398L40.3747 95.1348Z" fill="black"/>
<path d="M34.8295 102.33C34.9345 100.855 34.9695 98.0048 34.0845 95.2798L32.7695 96.5348C33.6395 99.2548 33.6195 102.035 33.5145 103.565L34.8245 102.33H34.8295Z" fill="black"/>
<path d="M37.9961 91.5496C38.1561 91.9246 38.2961 92.2996 38.4161 92.6796C39.1211 92.5996 39.7861 92.7596 40.2011 92.9096C40.0761 91.9846 39.8711 91.0146 39.5511 90.0596L37.9961 91.5446V91.5496Z" fill="black"/>
<path d="M85.0041 13.0351C85.0041 12.8501 84.8391 12.6951 84.6391 12.6951C84.4891 12.6951 84.3591 12.7801 84.3041 12.9001C84.1791 12.9351 84.0741 13.0151 84.0141 13.1201C77.2441 13.8251 70.6841 10.2851 70.6141 10.2451L70.3741 10.6851C70.4341 10.7201 75.9791 13.7151 82.1891 13.7151C82.4641 13.7151 82.7391 13.7001 83.0141 13.6901C76.9041 15.4051 70.4891 13.7101 70.4191 13.6901L70.2891 14.1701C70.3341 14.1851 73.2391 14.9501 77.0191 14.9501C79.3141 14.9501 81.9241 14.6601 84.4191 13.7501C84.4291 13.7501 84.4391 13.7551 84.4491 13.7551C84.7241 13.7551 84.9441 13.5551 84.9441 13.3101C84.9441 13.2801 84.9291 13.2501 84.9241 13.2251C84.9691 13.1701 84.9991 13.1051 84.9991 13.0301L85.0041 13.0351Z" fill="black"/>
<path d="M89.6502 18.9001C89.1052 18.1301 88.4852 17.3351 87.7902 16.5601C87.8002 18.2101 87.6652 19.6951 87.4902 20.8901L89.6502 18.9001Z" fill="black"/>
<path d="M84.8945 13.2752C85.7445 13.8852 86.5295 14.5652 87.2495 15.2752C87.1795 14.0902 87.0245 12.8402 86.7395 11.5752L84.8945 13.2752Z" fill="black"/>
<path d="M85.0996 14.0449C86.1746 16.4049 86.7146 18.8949 86.9696 21.0399C87.1746 19.7049 87.3396 17.9599 87.2846 16.0149C86.6196 15.3249 85.8896 14.6549 85.0996 14.0449Z" fill="black"/>
<path d="M23.4805 79.9903L86.5455 21.7704C86.3205 19.3804 85.7455 16.4404 84.4005 13.7354L18.3555 74.7054C19.5705 75.3604 21.9855 76.9753 23.4805 79.9903Z" fill="black"/>
<path d="M95.2896 8.6251C93.0246 6.0101 91.8946 6.8101 91.8946 6.8101L90.4746 8.1201C91.3596 8.6301 92.4496 9.6451 93.0096 10.2501C93.5396 10.8251 94.7996 12.4101 95.2996 13.2151C95.3696 13.3251 95.4196 13.4251 95.4746 13.5251L96.8896 12.2151C96.8896 12.2151 97.5596 11.2351 95.2946 8.6201L95.2896 8.6251Z" fill="black"/>
<path d="M94.8741 13.485C94.3891 12.705 93.1591 11.155 92.6441 10.595C91.6891 9.55998 90.6891 8.80498 90.0941 8.47998L87.1641 11.185C87.5441 12.78 87.7241 14.35 87.7791 15.815C88.6291 16.72 89.3791 17.655 90.0241 18.565L95.0991 13.88C95.0441 13.765 94.9741 13.64 94.8791 13.485H94.8741Z" fill="black"/>
<path d="M17.7597 75.2052C17.5997 75.1802 17.5047 75.1802 17.5047 75.1802L16.6347 75.9852C16.5097 76.1002 16.4697 76.2802 16.5347 76.4402C17.8947 79.6902 20.6197 81.4052 21.5597 81.9202C21.7497 82.0252 21.9897 81.9952 22.1497 81.8502L23.1897 80.8902C23.1897 80.8902 23.1947 80.8652 23.1897 80.8352C21.6397 77.3952 18.7597 75.7052 17.7647 75.2052H17.7597ZM21.5647 81.4452C21.3547 81.6402 20.1797 80.7052 18.9347 79.3602C17.6947 78.0152 16.8547 76.7702 17.0647 76.5752C17.2747 76.3802 18.4497 77.3152 19.6947 78.6602C20.9397 80.0052 21.7747 81.2502 21.5647 81.4452Z" fill="black"/>
</svg>
