<svg width="128" height="128" viewBox="0 0 128 128" fill="none" xmlns="http://www.w3.org/2000/svg">
<path d="M20.4437 111.295L15.7188 115.425C15.9688 116.005 16.6687 117.275 18.2537 118.3L23.0188 114.095C21.5438 113.145 20.7888 112 20.4437 111.295ZM17.0587 116.925L16.6687 115.205L18.1538 115.835L18.6088 117.465L17.0538 116.925H17.0587ZM18.4687 115.54L18.0787 113.82L19.5638 114.45L20.0188 116.08L18.4638 115.54H18.4687ZM20.0037 114.1L19.6137 112.38L21.0988 113.01L21.5538 114.64L19.9988 114.1H20.0037Z" fill="black"/>
<path d="M15.3241 115.775L14.3691 116.61C14.7191 117.3 15.4941 118.465 17.0441 119.375L17.8691 118.65C16.3591 117.645 15.6341 116.45 15.3241 115.78V115.775Z" fill="black"/>
<path d="M21.5388 110.345L20.8438 110.955C21.1438 111.595 21.8738 112.795 23.4138 113.755L24.1287 113.125C22.6587 112.19 21.8988 111.06 21.5388 110.345Z" fill="black"/>
<path d="M39.2441 99.79L40.6241 98.575L37.9941 95.96L36.7441 97.055C37.0491 97.695 37.7641 98.855 39.2491 99.795L39.2441 99.79Z" fill="black"/>
<path d="M27.7502 104.915L23.0352 109.035C23.2802 109.605 23.9702 110.865 25.5352 111.885L30.3452 107.645C28.9002 106.735 28.1352 105.635 27.7552 104.91L27.7502 104.915ZM28.4502 106.585L28.9052 108.215L27.3502 107.675L26.9602 105.955L28.4452 106.585H28.4502ZM24.4802 110.39L24.0902 108.67L25.5752 109.3L26.0302 110.93L24.4752 110.39H24.4802ZM25.8802 109.105L25.4902 107.385L26.9752 108.015L27.4302 109.645L25.8752 109.105H25.8802Z" fill="black"/>
<path d="M22.6347 109.38L21.9297 109.995C22.2447 110.65 22.9847 111.835 24.5147 112.775L25.1397 112.225C23.6547 111.225 22.9397 110.045 22.6347 109.375V109.38Z" fill="black"/>
<path d="M35.0791 98.5054L34.1191 99.3454C34.4591 100.02 35.2041 101.15 36.6841 102.05L37.5441 101.29C36.1091 100.32 35.3991 99.1804 35.0791 98.5054Z" fill="black"/>
<path d="M36.3496 97.4004L35.4746 98.1654C35.7396 98.7604 36.4346 99.9654 37.9346 100.95L38.8546 100.14C37.4346 99.2104 36.6996 98.1004 36.3496 97.4004Z" fill="black"/>
<path d="M33.7302 99.6904L29.1602 103.685C29.5502 104.4 30.3452 105.485 31.8302 106.335L36.2952 102.395C34.8702 101.495 34.1102 100.41 33.7302 99.6904ZM34.5302 101.2L34.9852 102.83L33.4302 102.29L33.0402 100.57L34.5252 101.2H34.5302ZM30.5802 105.06L30.1902 103.34L31.6752 103.97L32.1302 105.6L30.5752 105.06H30.5802ZM32.0352 103.675L31.6452 101.955L33.1302 102.585L33.5852 104.215L32.0302 103.675H32.0352Z" fill="black"/>
<path d="M13.9795 116.95L12.1545 118.545C11.7895 118.86 11.7745 119.42 12.1245 119.755L13.1745 120.775C13.7845 121.37 14.7495 121.395 15.3895 120.83L16.6495 119.72C15.1595 118.805 14.3695 117.69 13.9795 116.95Z" fill="black"/>
<path d="M42.4488 97.6152C41.8638 97.0752 41.0838 96.3452 40.7238 95.9702C40.2238 95.4502 39.1088 94.1552 38.7038 93.6802L38.3388 93.2802C38.0488 92.9652 37.5538 92.9652 37.2638 93.2802L37.2188 93.3302C36.9538 93.6152 36.9488 94.0602 37.2138 94.3502L38.2438 95.5002L41.0038 98.2402H41.0088L42.2838 99.5102C42.5588 99.7852 43.0038 99.7802 43.2738 99.5002L43.2988 99.4702C43.5888 99.1752 43.5788 98.6952 43.2838 98.4102L42.4538 97.6102L42.4488 97.6152Z" fill="black"/>
<path d="M28.7687 104.02L28.1387 104.57C28.4737 105.245 29.2287 106.39 30.7287 107.3L31.4337 106.68C29.9937 105.82 29.1937 104.765 28.7737 104.02H28.7687Z" fill="black"/>
<path d="M47.4492 93.3303C47.4492 93.2753 47.4292 93.2153 47.3892 93.1703L44.0492 89.6853C43.9642 89.5953 43.8242 89.5953 43.7342 89.6803C43.6442 89.7653 43.6442 89.9053 43.7292 89.9953L47.0692 93.4803C47.1542 93.5703 47.2942 93.5703 47.3842 93.4853C47.4292 93.4453 47.4492 93.3853 47.4542 93.3303H47.4492Z" fill="black"/>
<path d="M40.7695 93.4651C40.9895 93.4551 41.5045 93.4301 41.5045 93.4301C42.0445 93.4251 42.6045 93.4051 43.1695 93.3951C43.2145 93.3001 43.3045 93.2301 43.4095 93.2101C43.4195 92.8201 43.4295 92.4451 43.4495 92.1201C43.4995 91.7301 43.5045 91.2851 43.5695 90.8901C42.3045 92.0551 41.3445 92.9401 40.7695 93.4701V93.4651Z" fill="black"/>
<path d="M43.37 95.4103C43.385 94.9603 43.39 94.4203 43.395 93.8753C43.265 93.8403 43.17 93.7353 43.145 93.6003C42.925 93.5953 41.5 93.5603 41.5 93.5603C41.32 93.5603 40.975 93.5503 40.68 93.5503C40.48 93.7353 40.335 93.8653 40.25 93.9453C40.69 94.4503 41.175 94.9953 41.445 95.2853C41.73 95.5803 42.31 96.1303 42.83 96.6153C42.94 96.5203 43.12 96.3653 43.365 96.1503C43.365 95.9403 43.365 95.4153 43.365 95.4153L43.37 95.4103Z" fill="black"/>
<path d="M43.8201 93.6202C43.7951 93.7402 43.7101 93.8352 43.6001 93.8702C43.5601 94.3952 43.5201 94.9102 43.4951 95.4152C43.4901 95.5052 43.4701 95.8152 43.4551 96.0752C44.0851 95.5302 45.0801 94.6602 46.3501 93.5552C45.5451 93.6702 44.6751 93.6502 43.8251 93.6252L43.8201 93.6202Z" fill="black"/>
<path d="M43.8445 90.6353C43.7895 90.6853 43.7345 90.7353 43.6845 90.7853C43.7295 91.5803 43.6945 92.4053 43.6445 93.2353C43.7095 93.2703 43.7645 93.3253 43.7995 93.3903C44.6795 93.3853 45.5595 93.4053 46.3945 93.5153C46.4345 93.4803 46.4745 93.4453 46.5145 93.4103L43.8545 90.6353H43.8445Z" fill="black"/>
<path d="M118.166 13.8252C118.166 13.8252 111.391 22.6552 102.201 33.0202C94.4755 41.7302 84.8705 51.4902 77.9055 58.3802C67.0155 69.1452 52.0805 83.0402 44.6855 89.8702L47.3655 92.6652C54.9755 85.9952 69.6605 72.9752 73.8555 68.1452C79.5956 61.5302 119.196 26.9852 118.166 13.8302V13.8252Z" fill="black"/>
<path d="M101.354 10.9902C99.4495 13.3202 96.3245 17.0902 92.9145 21.0002C87.7595 26.9102 81.9095 33.1302 79.6795 35.5252C75.0494 40.5002 60.9295 55.4902 50.3645 65.5302C45.2595 70.3802 24.6895 89.2202 24.6895 89.2202C26.1345 91.7552 27.6345 92.6202 27.6345 92.6202C27.6345 92.6202 35.9695 85.5802 45.4095 76.7202C56.1145 66.6702 68.3395 54.3852 73.2845 49.3152C80.9895 41.4202 98.6395 20.9652 104.499 14.1452C104.194 13.6252 103.014 11.7702 101.354 10.9952V10.9902ZM97.0245 19.3052L96.6345 17.5852L98.1195 18.2152L98.5744 19.8452L97.0194 19.3052H97.0245ZM99.2394 16.8352L98.8494 15.1152L100.334 15.7452L100.789 17.3752L99.2345 16.8352H99.2394ZM101.174 14.4102L100.784 12.6902L102.269 13.3202L102.724 14.9502L101.169 14.4102H101.174Z" fill="black"/>
<path d="M106.16 10.9802C105.655 9.80016 104.71 9.18516 104.04 8.88516C103.615 8.69516 103.12 8.82016 102.825 9.18016C102.555 9.51516 102.16 10.0002 101.68 10.5952C103.295 11.3952 104.43 13.0552 104.845 13.7402C105.305 13.2052 105.67 12.7752 105.94 12.4652C106.295 12.0552 106.375 11.4752 106.16 10.9802Z" fill="black"/>
<path d="M26.1139 94.1603C26.1139 94.1603 23.5839 92.1203 23.1289 90.4903L24.1889 89.6753C24.1889 89.6753 25.3789 91.9153 27.2339 93.1553C27.2339 93.1553 26.5539 94.0953 26.1189 94.1603H26.1139Z" fill="black"/>
</svg>
