<svg width="128" height="128" viewBox="0 0 128 128" fill="none" xmlns="http://www.w3.org/2000/svg">
<path d="M34.6797 87.9247C36.1647 88.5447 37.7747 89.1497 39.4397 89.6647C39.4347 86.8297 39.8947 83.8397 40.5247 81.0947C39.4747 82.3447 37.3347 84.8747 34.6847 87.9247H34.6797Z" fill="black"/>
<path d="M39.6546 92.715C39.5346 91.915 39.4696 91.09 39.4496 90.245C37.6446 89.69 35.8996 89.03 34.3096 88.355C33.7596 88.99 33.1846 89.64 32.5996 90.31C34.7546 91.215 37.1896 92.1 39.6546 92.715Z" fill="black"/>
<path d="M62.0888 77.94C57.2238 77.94 50.9538 75.855 46.7188 73.985C46.3638 73.83 45.9438 73.92 45.6938 74.215C42.8888 77.5 41.6788 79.77 41.3038 80.175C40.5588 83.215 39.9688 86.64 39.9888 89.835C42.9938 90.725 46.1338 91.29 48.9288 91.085C53.8038 86.96 60.1238 82.745 65.3088 78.585C65.5888 78.36 65.4188 77.905 65.0588 77.92C64.0288 77.965 62.7638 77.945 62.0938 77.945L62.0888 77.94Z" fill="black"/>
<path d="M40 90.4102C40.025 91.2452 40.095 92.0652 40.22 92.8502C42.18 93.3102 44.145 93.5852 45.995 93.5652C46.74 92.9352 47.49 92.3002 48.25 91.6552C48.06 91.6602 47.87 91.6652 47.675 91.6652C45.205 91.6652 42.555 91.1552 40 90.4102Z" fill="black"/>
<path d="M32.224 90.735C29.694 93.605 26.274 96.56 23.549 99.34C23.309 99.585 23.414 99.99 23.739 100.095C27.534 101.36 32.624 102.36 36.184 101.995C36.659 101.945 37.094 101.735 37.444 101.41C38.759 100.18 39.749 98.885 41.324 97.54C40.544 96.3 40.039 94.86 39.754 93.3C37.109 92.655 34.504 91.7 32.224 90.73V90.735Z" fill="black"/>
<path d="M40.3242 93.4399C40.5942 94.8249 41.0442 96.0999 41.7192 97.2049C42.9042 96.1949 44.1242 95.1599 45.3692 94.0999C43.7342 94.0649 42.0292 93.8199 40.3242 93.4399Z" fill="black"/>
<path d="M33.8195 103.1C30.2945 103.1 26.4295 102.08 22.9795 100.815C22.0245 101.8 21.0945 102.74 20.2145 103.595C11.8145 111.78 18.9895 114.675 18.9895 114.675C18.9895 114.675 21.2745 114.89 23.0695 113.265C23.1745 113.17 27.8845 109.06 34.8695 103.065C34.5245 103.085 34.1745 103.1 33.8195 103.1Z" fill="black"/>
<path d="M115.209 30.7151C116.539 30.5101 117.649 30.3201 117.649 30.3201L114.989 28.7951C114.629 26.3501 113.794 22.8451 111.899 20.3251C112.979 18.0301 114.709 14.3251 114.709 14.3251L109.899 18.3801C109.324 17.9901 108.694 17.6751 107.989 17.4651C105.574 16.7451 103.429 16.6001 101.649 16.7051C100.939 15.2951 100.189 13.3101 100.189 13.3101L98.6437 17.1651C97.0937 17.5651 96.2137 18.0551 96.2137 18.0551C96.2137 18.0551 92.7737 20.3701 87.7887 24.8751L85.0537 23.2601L86.1737 26.3701C83.3987 28.9751 80.2587 32.1801 77.0237 35.9701L73.7337 34.2801L75.5487 37.7301C73.7537 39.9151 71.9437 42.2701 70.1587 44.8001C69.5087 45.7251 68.8387 46.6551 68.1687 47.5801L64.0087 45.4401L66.4037 49.9851C59.8087 58.8451 52.6387 67.3451 47.6387 73.0701C53.3137 75.6101 61.6887 78.4301 67.0137 75.9801C75.3737 69.1151 83.2137 62.8751 88.7137 58.9251L93.2387 61.6801L91.3237 57.1051C91.7587 56.8101 92.1787 56.5351 92.5687 56.2901C96.7837 53.6101 100.404 50.5301 103.434 47.4801C105.099 48.3151 106.989 49.2301 106.989 49.2301L105.154 45.6801C111.929 38.3501 115.264 31.6651 115.264 31.6651C115.264 31.6651 115.254 31.3101 115.209 30.7201V30.7151ZM77.8087 58.9501C78.8087 58.6301 79.8337 58.4301 80.8637 58.2601C80.7187 57.9451 80.5787 57.6301 80.4537 57.3051C79.3637 54.4551 81.1837 57.6851 81.5937 58.6551C80.3387 58.8301 79.0837 58.9801 77.8087 58.9551V58.9501ZM85.1337 38.2501C84.4887 37.7951 83.8737 37.3051 83.2737 36.7951C83.1287 38.0451 82.9387 39.2951 82.6487 40.5201C82.6037 38.9501 82.7287 37.3751 82.8837 35.8151C83.9637 36.7301 85.0237 37.6801 85.9287 38.7701C85.6537 38.6101 85.3987 38.4251 85.1337 38.2501ZM93.2237 22.5101C94.2687 23.4651 95.2887 24.4551 96.1587 25.5751C95.8887 25.4051 95.6437 25.2101 95.3837 25.0251C94.7587 24.5451 94.1587 24.0301 93.5787 23.5001C93.3837 24.7451 93.1537 25.9851 92.8137 27.2001C92.8287 25.6301 93.0087 24.0601 93.2237 22.5051V22.5101ZM92.7587 51.4751C92.9887 51.2551 93.2387 51.0601 93.4737 50.8551C94.0887 50.3601 94.7287 49.9051 95.3837 49.4701C94.2237 48.9851 93.0737 48.4601 91.9737 47.8451C93.4987 48.2301 94.9737 48.7851 96.4337 49.3651C95.2587 50.1501 94.0487 50.9101 92.7537 51.4801L92.7587 51.4751ZM96.9237 38.0551C97.1887 37.0401 97.5687 36.0651 97.9787 35.1051C97.6337 35.0601 97.2937 35.0101 96.9487 34.9401C93.9587 34.3351 97.6587 34.5251 98.6937 34.7001C98.1687 35.8551 97.6237 36.9951 96.9187 38.0551H96.9237ZM104.434 21.8551C101.584 22.9401 104.814 21.1251 105.784 20.7201C105.959 21.9751 106.104 23.2301 106.079 24.5051C105.759 23.5051 105.559 22.4801 105.394 21.4501C105.079 21.5951 104.759 21.7351 104.434 21.8601V21.8551ZM107.109 37.4701C107.339 37.2501 107.589 37.0551 107.824 36.8501C108.439 36.3551 109.079 35.9001 109.734 35.4651C108.574 34.9801 107.424 34.4551 106.324 33.8401C107.849 34.2301 109.324 34.7801 110.784 35.3601C109.609 36.1451 108.399 36.9051 107.104 37.4751L107.109 37.4701Z" fill="black"/>
</svg>
