<svg width="128" height="128" viewBox="0 0 128 128" fill="none" xmlns="http://www.w3.org/2000/svg">
<path d="M92.0994 21.645C90.3294 30.46 80.5344 45.875 68.7894 59.16C56.4944 73.07 42.5644 84.99 38.7344 88.195C42.6344 90.145 43.7144 93.465 43.9944 95.5C61.8994 81.055 79.9744 66.845 91.8694 53.585C109.099 34.38 116.269 18.52 116.269 18.52C105.514 26.095 92.0994 21.65 92.0994 21.65V21.645ZM68.2094 71.905C61.2144 78.35 53.7194 84.7 45.7544 89.715C60.8594 78.1 75.7644 65.855 87.4494 50.685L87.4994 50.72C81.7994 58.405 75.2294 65.41 68.2094 71.905ZM91.0994 37.685C89.8844 39.585 88.4994 41.95 87.2394 43.8C86.2544 45.19 84.0894 48.425 83.0694 49.71C79.8794 54 75.9694 58.775 72.3744 62.76C63.8094 72.23 54.2744 81.495 43.8094 88.565C54.8744 79.36 65.4444 69.43 75.0644 58.71C76.8944 56.545 79.5094 53.54 81.1944 51.305C82.0194 50.235 83.3644 48.595 84.1244 47.495C85.0694 46.165 87.4494 42.97 88.2794 41.605C88.9294 40.605 90.2544 38.575 90.9044 37.575C91.8094 36.115 93.6344 32.83 94.5144 31.33L94.5944 31.37C93.7294 32.915 91.9544 36.235 91.0994 37.695V37.685Z" fill="black"/>
<path d="M27.8684 84.9197C28.3184 84.9897 29.4384 85.0897 30.3284 84.4797C30.6784 84.2397 30.9534 83.9147 31.1634 83.5097L31.1034 83.4697C31.4534 82.5947 31.3234 81.5647 30.6584 80.8097C29.7184 79.7447 28.0934 79.6447 27.0334 80.5847C25.9684 81.5247 25.8684 83.1497 26.8084 84.2097C27.1084 84.5497 27.4784 84.7847 27.8734 84.9247L27.8684 84.9197Z" fill="black"/>
<path d="M20.5196 105.555C21.2846 106.4 21.6846 107.41 21.8996 108.31C22.1346 108.15 22.3746 107.98 22.6346 107.8C22.1696 106.775 21.3396 105.57 19.8896 104.92C19.8746 104.93 19.8646 104.94 19.8496 104.95C20.0896 105.135 20.3146 105.33 20.5196 105.56V105.555Z" fill="black"/>
<path d="M15.5993 110.275C15.2643 109.69 14.6343 109.305 13.7393 109.13C13.7393 109.13 13.7393 109.14 13.7393 109.145C13.2593 109.435 11.2843 110.765 12.5493 112.195C13.1693 112.9 14.5343 112.585 15.8793 112C15.9443 111.42 15.8993 110.795 15.5993 110.275Z" fill="black"/>
<path d="M20.1401 105.895C19.7951 105.515 19.3901 105.2 18.9351 104.955C18.9201 104.945 18.9051 104.935 18.8851 104.93C17.5251 104.315 15.9401 104.465 14.8251 105.445C13.9201 106.245 13.5301 107.42 13.6501 108.595C14.8001 108.785 15.6051 109.26 16.0401 110.025C16.4251 110.7 16.4601 111.485 16.3701 112.18C17.6951 112.715 19.1951 112.545 20.2651 111.605C21.1051 110.865 21.5001 109.795 21.4601 108.705C21.2801 107.8 20.9101 106.745 20.1401 105.895Z" fill="black"/>
<path d="M31.6101 83.75C31.3651 84.23 31.0301 84.615 30.6101 84.9C30.2101 85.175 29.7751 85.325 29.3651 85.405C28.9401 86.25 29.0551 87.21 29.7601 88.005C30.6351 89 32.1051 89.135 33.1601 88.39C33.7001 87.98 34.0651 87.355 34.2401 86.515C34.2951 85.84 34.0901 85.15 33.6101 84.605C33.0851 84.01 32.3451 83.73 31.6101 83.75Z" fill="black"/>
<path d="M37.8736 88.9096C37.8736 88.9096 37.8686 88.9146 37.8636 88.9196C37.0436 88.5796 36.2536 88.4646 35.5786 88.5896C35.0786 88.7246 34.6636 88.9596 34.3386 89.2996C34.2786 89.3596 34.2286 89.4246 34.1786 89.4896C33.7786 90.0996 33.6786 90.9296 33.8436 91.8546C37.1586 93.3596 37.7936 95.9546 37.8736 97.4146C38.6436 97.8896 39.4236 98.1896 40.1386 98.2846C40.6686 98.3346 41.4186 98.3046 42.0136 97.8946C42.4436 97.5946 42.7386 97.1296 42.8986 96.5046C42.9086 96.4646 42.9186 96.4246 42.9286 96.3796C42.9736 96.1796 43.0036 95.9696 43.0186 95.7446C42.8086 93.8996 41.8436 90.6896 37.8686 88.9096H37.8736Z" fill="black"/>
<path d="M43.3986 98.1247L42.9786 97.6147C42.7986 97.8947 42.5736 98.1247 42.3036 98.3097C41.9136 98.5797 41.4786 98.7097 41.0586 98.7647L41.8036 99.7147C41.9436 99.3997 42.1386 99.0798 42.4086 98.7998C42.6836 98.5098 43.0186 98.2848 43.3986 98.1198V98.1247Z" fill="black"/>
<path d="M33.5293 88.7448L33.8393 89.0997C33.8843 89.0497 33.9243 88.9947 33.9743 88.9447C34.3043 88.5947 34.7143 88.3397 35.1893 88.1697L34.5243 87.3647C34.2993 87.9397 33.9643 88.3998 33.5293 88.7448Z" fill="black"/>
<path d="M33.9988 92.4849C33.6488 92.8349 33.2488 93.2299 32.7988 93.6699C34.9488 94.8249 35.8038 96.4699 36.1288 97.7999L37.2438 96.9749C37.2838 97.0049 37.3238 97.0299 37.3638 97.0599C37.2188 95.7549 36.5488 93.7799 34.0038 92.4849H33.9988Z" fill="black"/>
<path d="M47.4741 102.32C47.2241 102.82 46.8841 103.225 46.4541 103.525C46.0291 103.815 45.5691 103.97 45.1341 104.045L45.1541 104.07C44.8791 104.91 45.0341 105.865 45.6591 106.575C46.5991 107.64 48.2241 107.74 49.2841 106.8C50.3491 105.86 50.4491 104.235 49.5091 103.175C48.9741 102.57 48.2241 102.29 47.4791 102.32H47.4741Z" fill="black"/>
<path d="M28.0843 103.79C28.0543 103.155 27.9143 102.465 27.5593 101.825C27.1693 101.12 26.5643 100.56 25.7593 100.15C24.3643 99.4695 22.6743 99.6295 21.4743 100.685C20.3543 101.675 19.9743 103.19 20.3393 104.58C21.7143 105.295 22.5493 106.485 23.0393 107.515C23.0593 107.5 23.0793 107.49 23.0993 107.475C24.3593 107.865 25.7643 107.63 26.7993 106.715C27.6593 105.955 28.0743 104.89 28.0693 103.805C28.0743 103.805 28.0793 103.795 28.0843 103.795V103.79Z" fill="black"/>
<path d="M44.7691 103.495L44.8191 103.575C45.2541 103.53 45.7391 103.4 46.1641 103.105C46.4391 102.915 46.6741 102.665 46.8591 102.37L46.7991 102.255C47.3591 101.32 47.2891 100.1 46.5291 99.2397C45.8141 98.4297 44.7091 98.1847 43.7541 98.5247C43.3691 98.6647 43.0441 98.8747 42.7791 99.1497C42.4591 99.4897 42.2591 99.8897 42.1391 100.275C41.9241 101.08 42.0891 101.97 42.6791 102.64C43.2241 103.255 43.9991 103.54 44.7641 103.495H44.7691Z" fill="black"/>
<path d="M32.4149 94.0445C32.4149 94.0445 32.3849 94.0745 32.3649 94.0945C31.2399 93.8945 30.0549 94.1645 29.1499 94.9645C28.2149 95.7895 27.8049 96.9795 27.8949 98.1545C28.7399 98.3395 29.4199 98.7195 29.9049 99.3045C30.4849 100.005 30.7249 100.89 30.7899 101.76C32.0449 102.14 33.4399 101.905 34.4749 100.995C35.2699 100.29 35.6849 99.3245 35.7349 98.3195C35.5249 97.0245 34.7749 95.2445 32.4149 94.0445Z" fill="black"/>
<path d="M29.5136 99.6246C29.0586 99.0746 28.3936 98.7346 27.5386 98.5996C27.0936 98.9946 26.6436 99.3996 26.1836 99.7996C26.9836 100.25 27.5986 100.84 28.0086 101.58C28.3436 102.18 28.5036 102.815 28.5686 103.41C28.7086 103.3 28.8486 103.19 28.9936 103.08L30.3036 102.11C30.2836 101.225 30.0886 100.305 29.5186 99.6196L29.5136 99.6246Z" fill="black"/>
</svg>
