<svg width="128" height="128" viewBox="0 0 128 128" fill="none" xmlns="http://www.w3.org/2000/svg">
<path d="M64.4086 79.1753C63.6986 78.8853 63.0986 78.5153 62.5936 78.0903C62.3436 78.4703 61.6436 79.4103 60.7036 79.7403C60.8886 80.9253 60.6036 82.1803 59.7786 83.1103C59.7438 83.1624 59.7324 83.1815 59.6836 83.2303C59.3036 83.7153 58.9386 84.1453 58.7586 84.7353C58.2836 85.9653 59.8786 87.0303 60.8736 86.3853C61.3386 86.0403 61.4036 85.2653 61.0486 84.7703C60.6436 84.1953 59.7886 84.1553 59.7086 85.0153C59.6536 84.0453 60.7236 84.0053 61.2436 84.6203C61.7136 85.1853 61.7286 86.1353 61.1286 86.6753C60.5036 87.2053 59.6136 87.0403 58.9736 86.6453C58.3036 86.2253 58.0336 85.3253 58.2786 84.5953C58.3586 84.3203 58.4786 84.0703 58.6236 83.8403C58.2236 83.9653 57.7986 83.9753 57.3836 83.7753C56.3136 83.1603 55.8336 81.3753 56.9386 80.5853C58.3336 79.5253 59.5836 80.9853 58.0936 82.0353C58.3886 81.7953 58.6686 81.4753 58.6986 81.0953C58.7236 80.7253 58.4336 80.3503 58.0636 80.3503C57.3286 80.3353 56.5986 80.9453 56.5586 81.6603C56.5286 82.3203 56.9436 83.1453 57.5386 83.4403C58.1486 83.7203 58.9186 83.2953 59.3886 82.8303C59.3886 82.8303 59.3936 82.8253 59.3986 82.8203C60.7936 81.3103 60.6886 79.0553 59.5536 77.3753C60.0536 77.9053 60.3986 78.5603 60.5836 79.2553C61.4036 78.9403 62.0336 78.0253 62.1986 77.7653C61.2386 76.8253 60.6736 75.7253 60.3636 74.8203C59.9486 74.8753 59.3136 75.1053 58.7536 75.9203C57.8436 77.2453 56.9336 76.8403 56.9336 76.8403C56.9336 76.8403 56.2386 77.6403 56.8336 78.3153C56.8336 78.3153 54.2736 79.6053 55.1186 86.4503C55.9636 93.2953 46.4886 102.54 41.3186 105.085C38.6786 106.385 35.9686 108.865 22.8286 110.995L19.8086 111.665C19.8086 111.665 19.3336 111.255 18.9436 112.27C18.9086 112.36 18.8586 112.445 18.8036 112.52C18.6636 112.795 18.3786 113.415 18.3636 114.02C18.3536 114.495 18.6036 114.995 18.9836 115.26V115.27L19.4636 115.605C19.4636 115.605 20.2836 115.37 20.4736 114.69C20.6636 114.01 24.7586 113.79 24.7586 113.79C24.7586 113.79 42.1586 111.34 49.5286 105.575C56.8986 99.8103 63.6686 88.1753 63.6686 88.1753C63.6686 88.1753 64.6186 86.0103 63.6736 84.7853C62.7136 84.4653 61.9336 83.8453 61.1736 83.2053C61.8036 83.5903 62.4536 83.9303 63.1486 84.1603C63.2136 84.1803 63.2836 84.2003 63.3486 84.2203C63.6186 84.0803 63.9886 83.7753 63.6836 83.2103C63.6836 83.2103 64.1136 83.1703 63.9636 82.8553C63.9636 82.8553 63.6336 82.6953 63.5536 82.6353C63.5536 82.6353 63.9536 82.8753 64.1086 82.7503C64.2636 82.6253 64.2836 82.5153 64.2836 82.5153C64.2836 82.5153 64.1286 82.3603 64.1986 82.2153C64.2686 82.0703 64.2886 81.9103 64.2886 81.9103L64.9236 81.8203C65.0736 81.8203 65.0936 81.5403 65.0486 81.3953L64.3936 79.2003L64.4086 79.1753ZM49.1586 103.11L48.8086 102.75C56.3336 95.4553 58.7186 88.4903 58.7386 88.4203L59.2136 88.5803C59.1886 88.6503 56.7786 95.7203 49.1586 103.11ZM63.7736 79.9403C63.1886 80.2553 62.5336 79.8303 62.3086 79.2753C62.6486 79.3353 63.0336 79.5203 63.3386 79.5403C63.3436 79.3553 63.3036 79.1753 63.2336 78.9703C63.5936 79.0603 63.8136 79.4403 63.7836 79.8103L63.7736 79.9353V79.9403Z" fill="black"/>
<path d="M16.4295 112.82C16.1745 112.79 15.7795 112.865 15.1545 113.155C13.2395 114.04 12.1445 116.035 12.1445 116.035C12.1445 116.035 12.1445 118.055 13.7495 117.545C14.8545 117.195 15.9595 116.29 16.5395 115.765C16.0095 114.49 16.2845 113.28 16.4295 112.815V112.82Z" fill="black"/>
<path d="M112.739 17.5451C112.569 17.4401 112.284 17.4401 111.914 17.5451C111.414 17.6901 111.049 17.8451 110.569 18.1201C110.554 18.1801 110.539 18.2401 110.524 18.3001L109.879 19.6501C111.129 18.5151 112.099 18.1951 112.594 18.1151L112.879 17.7301C112.864 17.6851 112.824 17.6051 112.734 17.5451H112.739Z" fill="black"/>
<path d="M115.045 12.3901C115.045 12.3901 111.785 14.1701 110.74 17.4601C111.075 17.2951 111.39 17.1751 111.775 17.0651C112.305 16.9151 112.72 16.9351 113.02 17.1351C113.095 17.1851 113.155 17.2401 113.2 17.3001L115.86 13.7051C115.86 13.7051 116.74 12.3301 115.04 12.3901H115.045Z" fill="black"/>
<path d="M112.924 18.5749V18.5849C112.924 18.5849 111.384 18.5299 109.194 21.0799L107.124 25.4049C107.124 25.4049 96.6892 51.0099 93.5892 54.0349C90.1242 57.4149 87.6692 61.7099 78.6442 61.0599C71.7392 60.5599 71.9292 62.0849 72.3992 62.8299C72.0042 62.4299 71.3242 62.0199 70.8992 63.3349C70.6042 64.2399 70.4892 64.6799 70.4492 64.8999C70.9892 65.1699 71.5592 65.5349 72.1042 66.0149C72.1492 65.9199 72.1992 65.8949 72.2492 65.8499C73.1192 65.4849 74.0642 65.7249 74.9642 65.7099C75.6742 65.7099 76.4342 65.8299 77.0992 65.5649C77.7042 65.2699 78.1542 64.5449 78.0542 63.8649C77.9592 63.1099 77.1292 62.7799 76.4442 62.7799C75.6042 62.8249 75.6092 63.9099 75.6842 64.5449C75.5742 63.8949 75.5492 62.7549 76.4392 62.6849C76.9492 62.6749 77.4842 62.7849 77.8642 63.1399C78.6792 63.9349 78.1342 65.3399 77.2192 65.8099C77.0892 65.8599 76.9592 65.8899 76.8292 65.9249C77.1492 66.5299 77.4492 67.1499 77.6392 67.8049C78.5392 68.1599 81.2592 69.0699 83.6042 68.2449C86.4592 67.2349 96.5192 62.5499 102.494 46.2849C108.469 30.0149 110.979 23.7749 110.979 23.7749C110.979 23.7749 111.339 22.1999 112.799 20.7099C113.984 19.4949 113.249 18.7849 112.939 18.5649L112.924 18.5749ZM81.4842 65.2549L81.3942 64.7649C81.4742 64.7499 89.4842 63.2399 96.2642 55.2649L96.6442 55.5899C89.7392 63.7049 81.5592 65.2399 81.4792 65.2549H81.4842Z" fill="black"/>
<path d="M76.8103 65.9399C75.4253 66.2999 73.8853 65.8399 72.5253 66.2449C72.5403 66.2399 72.5553 66.1949 72.5553 66.1649L72.4453 66.3349C72.9953 66.8899 73.4853 67.5849 73.8453 68.4349C73.8653 68.4249 73.8803 68.4149 73.9003 68.4049L74.9953 69.1499C75.0603 69.1949 75.1453 69.1449 75.1403 69.0649L75.0953 68.4449C75.0953 68.4449 75.5453 68.5799 75.6953 68.8049C75.8103 68.9799 75.9903 68.4949 76.0653 68.2649C76.0203 68.4149 75.9653 68.6599 76.0603 68.6599C76.1953 68.6599 76.8803 68.5249 77.0953 68.6449C77.2203 68.7149 77.2753 68.3749 77.3003 68.0799C77.2503 67.3549 77.0353 66.6249 76.8103 65.9399ZM74.6253 67.5749C74.6153 67.7449 74.4603 67.9699 74.2603 67.9099C74.3503 67.7499 74.2603 67.6899 74.2353 67.5999C74.0703 67.2549 73.9253 66.9749 73.9403 66.5199C74.3953 66.6949 74.6603 67.0999 74.6253 67.5749Z" fill="black"/>
<path d="M67.135 71.95C67.855 72 68.555 71.845 69.205 71.555C69.38 71.475 69.555 71.385 69.71 71.29C69.97 71.06 70.24 70.83 70.52 70.6C70.8 70.37 70.685 69.94 70.345 69.89C70.145 69.86 69.945 69.81 69.75 69.75C70.465 69.85 71.175 69.75 71.845 69.51C72.045 69.44 72.245 69.35 72.42 69.255C72.6 69.14 72.78 69.03 72.97 68.925C72.255 67.165 70.915 66.225 69.835 65.73L68.445 67.13C68.105 67.47 68.235 68.065 68.695 68.21C69.06 68.325 69.445 68.395 69.83 68.405C69.305 68.48 68.77 68.45 68.25 68.335C67.73 68.22 67.2 68.385 66.83 68.755L66.455 69.13C66.215 69.37 66.29 69.79 66.605 69.915C67.06 70.095 67.54 70.2 68.03 70.215C67.44 70.3 66.835 70.25 66.255 70.095C65.89 70 65.505 70.095 65.24 70.36L64.62 70.985C64.28 71.33 64.39 71.925 64.84 72.095C65.29 72.265 65.745 72.36 66.22 72.375C65.64 72.46 65.05 72.415 64.48 72.27C63.91 72.125 63.315 72.295 62.905 72.71L62.425 73.19C62.21 73.41 62.28 73.79 62.57 73.895C63 74.055 63.46 74.155 63.92 74.165C63.18 74.27 62.415 74.165 61.705 73.91L61.6 74.015C61.4 74.215 61.335 74.51 61.435 74.77C61.875 75.91 62.775 77.365 64.6 78.175C64.71 77.93 64.86 77.62 65.045 77.27C65.13 77.11 65.01 76.91 64.825 76.925C64.51 76.945 64.35 76.825 63.835 76.725C64.555 76.74 64.54 76.79 65.175 76.475C65.34 76.39 65.505 76.295 65.655 76.195C65.89 75.81 66.155 75.395 66.455 74.965C66.57 74.8 66.425 74.585 66.23 74.625C65.8 74.705 65.365 74.725 64.935 74.675C65.655 74.635 66.335 74.4 66.945 74.035C67.1 73.94 67.25 73.835 67.39 73.73C67.755 73.28 68.16 72.815 68.605 72.355C68.72 72.235 68.63 72.04 68.465 72.05C68.02 72.08 67.57 72.05 67.14 71.945L67.135 71.95Z" fill="black"/>
<path d="M20.3507 110.98L25.7257 105.79L105.181 23.7248C105.181 23.7248 107.346 20.6698 109.191 19.0198C110.481 17.8648 112.011 17.4848 112.266 17.4448C113.181 17.3048 112.906 18.4148 112.906 18.4148C112.906 18.4148 112.751 18.0548 112.321 18.1848C111.621 18.3948 110.706 18.9398 110.241 19.2998C109.491 19.8848 106.831 23.1248 106.831 23.1248L107.841 22.8048L107.276 23.9248L106.041 24.3648C106.041 24.3648 105.896 25.2948 105.116 25.3448L43.4157 88.9698L24.3507 108.56C24.3507 108.56 24.3307 109.745 23.3307 109.675L22.3107 110.53L20.3457 110.98H20.3507Z" fill="black"/>
<path d="M18.7703 115.35C18.7703 115.35 16.9803 117.225 16.7403 114.53C16.5003 111.84 18.5403 112.41 18.5403 112.41C18.5403 112.41 16.9253 114.45 18.7753 115.345L18.7703 115.35Z" fill="black"/>
</svg>
