<svg width="128" height="128" viewBox="0 0 128 128" fill="none" xmlns="http://www.w3.org/2000/svg">
<g clip-path="url(#clip0_268_12820)">
<path d="M43.0099 79.3425L41.9351 78.5153C40.9415 77.7516 40.0681 76.8519 39.3344 75.8359L38.5395 74.7369L75.1976 39.1552C75.1976 39.1552 75.785 40.2937 77.1862 41.6973C78.5874 43.1009 79.668 43.7607 79.668 43.7607L43.0099 79.3425Z" fill="black"/>
<path d="M81.6358 43.7278L81.4047 43.5897C80.2228 42.8922 79.1251 42.0613 78.1642 41.0847C78.0542 40.9714 77.941 40.8547 77.831 40.7414C76.89 39.7519 76.0889 38.6332 75.4237 37.4278L75.2925 37.1926L95.1379 17.9299C95.1379 17.9299 97.5612 18.4061 99.3209 20.219C101.081 22.032 101.484 24.4684 101.484 24.4684L81.639 43.7311L81.6358 43.7278Z" fill="black"/>
<path d="M17.0386 94.5076L14.1526 97.3088C14.7243 98.3979 15.479 99.5422 16.4624 100.555C17.4457 101.568 18.5768 102.367 19.655 102.964L22.541 100.163C21.4695 99.5592 20.3481 98.7707 19.355 97.7476C18.362 96.7245 17.6135 95.6 17.0386 94.5076Z" fill="black"/>
<path d="M20.2632 91.3762L17.3772 94.1775C17.9489 95.2665 18.7036 96.4109 19.687 97.424C20.6703 98.4371 21.8014 99.2356 22.8796 99.833L25.7656 97.0317C24.6941 96.4279 23.5727 95.6394 22.5797 94.6163C21.5866 93.5932 20.8381 92.4686 20.2632 91.3762Z" fill="black"/>
<path d="M10.5418 100.812L7.6158 103.652C8.15954 104.632 8.85403 105.634 9.73063 106.538C10.8401 107.681 12.1052 108.524 13.2882 109.143L16.1309 106.383C15.0004 105.765 13.8105 104.946 12.7592 103.863C11.8309 102.907 11.1078 101.842 10.5418 100.812Z" fill="black"/>
<path d="M13.812 97.6384L10.8827 100.482C11.442 101.518 12.1651 102.583 13.0935 103.54C14.1448 104.623 15.3412 105.442 16.4718 106.053L19.3145 103.294C18.2429 102.69 17.1215 101.902 16.1285 100.878C15.1354 99.8554 14.3869 98.7308 13.812 97.6384Z" fill="black"/>
<path d="M9.40223 106.858C8.52562 105.955 7.83103 104.959 7.28073 103.979L5.24121 105.958C4.74799 106.437 4.56737 107.098 4.82056 107.519L4.97436 107.777C5.96136 109.427 7.29082 110.797 8.911 111.833L9.16478 111.994C9.57793 112.26 10.2438 112.099 10.737 111.62L12.9531 109.469C11.7702 108.844 10.5086 107.991 9.40556 106.855L9.40223 106.858Z" fill="black"/>
<path d="M23.4937 88.2419L20.6077 91.0432C21.1793 92.1323 21.9341 93.2766 22.9175 94.2897C23.9008 95.3028 25.0319 96.1013 26.1101 96.6987L28.9961 93.8975C27.9245 93.2936 26.8032 92.5051 25.8101 91.482C24.8171 90.4589 24.0686 89.3343 23.4937 88.2419Z" fill="black"/>
<path d="M26.8179 85.0134L23.9319 87.8147C24.5036 88.9037 25.2583 90.0481 26.2417 91.0612C27.225 92.0743 28.3561 92.8728 29.4343 93.4702L32.3203 90.6689C31.2488 90.0651 30.1274 89.2766 29.1343 88.2535C28.1413 87.2304 27.3928 86.1058 26.8179 85.0134Z" fill="black"/>
<path d="M30.144 81.7854L27.2581 84.5866C27.8297 85.6757 28.5845 86.8201 29.5679 87.8332C30.5512 88.8463 31.6823 89.6448 32.7605 90.2422L35.6465 87.4409C34.5749 86.8371 33.4536 86.0485 32.4605 85.0254C31.4675 84.0023 30.719 82.8778 30.144 81.7854Z" fill="black"/>
<path d="M33.4683 78.5603L30.5823 81.3615C31.154 82.4506 31.9087 83.595 32.8921 84.6081C33.8754 85.6212 35.0065 86.4197 36.0847 87.0171L38.9707 84.2158C37.8991 83.612 36.7778 82.8234 35.7847 81.8003C34.7917 80.7772 34.0432 79.6527 33.4683 78.5603Z" fill="black"/>
<path d="M36.2202 81.3831C37.2133 82.4062 38.3347 83.1947 39.4129 83.7921L41.6657 81.6054C42.2555 81.0329 42.3792 80.2268 41.9249 79.8587L40.7015 78.8651C40.02 78.3097 39.4119 77.6832 38.8771 76.9855L37.9203 75.7331C37.5692 75.2713 36.7565 75.3676 36.1667 75.9401L33.9105 78.13C34.4822 79.2191 35.237 80.3634 36.2203 81.3765L36.2202 81.3831Z" fill="black"/>
<path d="M100.513 20.1956L105.183 19.5591L111.947 8.04964L100.238 14.4636L99.4553 19.1322L100.51 20.1989L100.513 20.1956ZM101.084 14.9886L101.117 14.9562C101.782 15.5081 102.404 16.1019 103.019 16.7089C103.953 15.7112 105.332 14.464 106.282 13.5355C107.437 12.4853 108.612 11.1956 109.775 10.2802C107.617 12.5438 105.419 14.994 103.179 17.1809L103.003 17.3458C102.341 16.5772 101.679 15.8153 101.08 14.9918L101.084 14.9886Z" fill="black"/>
<path d="M86.4294 25.1013L88.6052 23.0153L88.4051 19.4751L77.622 13.7803L82.993 24.7282L86.4294 25.1013ZM83.8912 20.6526C82.7803 19.3814 80.3986 16.9943 79.5389 15.8419C81.038 17.2863 82.689 18.9005 84.1845 20.3679C84.6474 20.8182 85.1104 21.2685 85.5501 21.7349C85.8499 21.4569 86.2061 21.1305 86.4824 20.8883C86.8584 20.5621 87.2376 20.2394 87.6395 19.9333L87.6719 19.9667C87.0254 20.8142 86.2745 21.6143 85.5567 22.3951C84.9771 21.838 84.4342 21.2453 83.8945 20.6559L83.8912 20.6526Z" fill="black"/>
<path d="M125.594 35.8039C119.895 35.6073 110.583 36.3422 100.288 27.2094L89.2837 37.8904C89.2837 37.8904 96.2239 52.4154 90.5104 64.2394C105.019 62.163 120.305 49.3124 125.594 35.8039ZM117.789 36.7451C114.502 46.6149 104.016 55.4086 93.5803 56.3665C103.817 53.9901 113.153 46.112 117.789 36.7451Z" fill="black"/>
</g>
<defs>
<clipPath id="clip0_268_12820">
<rect width="128" height="128" fill="white"/>
</clipPath>
</defs>
</svg>
