<svg width="128" height="128" viewBox="0 0 128 128" fill="none" xmlns="http://www.w3.org/2000/svg">
<path d="M17.0449 114.385C17.0549 114.67 17.2499 114.95 17.7099 115.21C17.3949 114.995 17.1349 114.72 17.0449 114.385Z" fill="black"/>
<path d="M114.625 13.66C114.185 13.435 113.39 13.18 112.315 14.295C112.29 14.995 112.165 15.645 112.035 16.155C112.09 16.06 112.125 16.005 112.13 16C112.13 16 112.455 15.35 113.265 14.795C113.71 14.495 114.225 14.57 114.645 14.735C114.495 14.35 114.41 13.92 114.62 13.66H114.625Z" fill="black"/>
<path d="M111.634 17.5001L111.644 17.4301C111.649 17.3901 111.654 17.3601 111.659 17.3301C111.604 17.5551 111.554 17.7751 111.504 17.9851C111.559 17.8901 111.599 17.7351 111.634 17.5001Z" fill="black"/>
<path d="M69.6949 83.3151C69.4149 83.3151 69.1599 83.3851 69.0299 83.4251C68.9149 83.4601 68.7899 83.4801 68.6699 83.4801C68.4999 83.4801 68.3349 83.4401 68.1799 83.3701C44.8499 102.99 21.0099 111.895 21.0099 111.895H20.9849C19.1749 112.705 17.4949 113.69 17.5099 114.14C17.5299 114.735 18.6599 115.17 19.2849 115.345C19.9399 115.165 20.7649 114.73 21.1999 113.705C21.1999 113.705 46.1649 102.175 52.2449 98.8601C56.2349 96.6851 63.5599 91.3451 71.0099 85.0551C70.7899 83.3151 70.0249 83.3101 69.6999 83.3101L69.6949 83.3151Z" fill="black"/>
<path d="M116.1 10.3451C115.045 9.80508 113.95 10.8801 113.95 10.8801C113.95 10.8801 112.685 12.0851 112.385 13.5601C113.67 12.5401 114.665 13.1051 115.03 13.3151C115.03 13.3151 115.035 13.3151 115.04 13.3201C115.51 12.9101 115.795 12.4701 115.795 12.4701C115.795 12.4701 117.155 10.8801 116.1 10.3451Z" fill="black"/>
<path d="M115.055 15.5202C114.79 15.3352 114.04 14.8752 113.555 15.2102C112.855 15.6902 112.57 16.2502 112.565 16.2552C112.545 16.2902 112.35 16.5752 112.21 17.0302C112.185 17.1102 112.185 17.1352 112.18 17.2052C112.175 17.2702 112.17 17.3552 112.145 17.5052L112.135 17.5702C112.09 17.8802 111.98 18.5702 111.36 18.6152C110.055 24.1652 109.79 25.7102 106.675 32.1002C101.475 42.7602 92.7348 56.8902 84.6348 66.9602C85.5998 67.2452 86.9648 67.8002 87.6048 68.7752C97.1698 56.9002 108.345 37.9252 110.875 28.1152C113.36 18.4752 113.395 17.9302 113.395 17.9302C113.395 17.9302 116.14 16.1352 115.06 15.5202H115.055Z" fill="black"/>
<path d="M15.7695 115.185C15.6195 114.855 15.5845 114.525 15.5945 114.235C14.8595 114.755 13.8895 115.61 13.8645 116.475C13.8245 117.875 14.7695 117.805 14.7695 117.805C14.7695 117.805 15.7845 117.42 16.0045 116.56C16.0795 116.275 16.2145 116.075 16.3645 115.925C16.0995 115.72 15.8995 115.475 15.7695 115.185Z" fill="black"/>
<path d="M73.8945 76.9601C74.1545 77.2551 74.4145 77.6151 74.6395 78.0451C75.3595 78.1051 76.1695 78.2651 77.0645 78.5601C77.0145 77.5401 76.7645 76.7301 76.4395 76.1001C75.1595 76.2351 74.3145 76.6751 73.8945 76.9551V76.9601Z" fill="black"/>
<path d="M76.1797 74.8751C76.3497 75.0751 76.5197 75.3001 76.6747 75.5551C77.3497 75.5151 78.1197 75.5551 78.9947 75.7301C78.8747 75.0501 78.6597 74.4851 78.3997 74.0151C77.2647 74.2001 76.5297 74.6251 76.1797 74.8701V74.8751Z" fill="black"/>
<path d="M71.9395 78.83C72.3145 79.255 72.6845 79.81 72.9545 80.525C73.5295 80.605 74.1645 80.74 74.8545 80.94C74.8345 79.97 74.6395 79.18 74.3595 78.55C73.3695 78.5 72.5645 78.635 71.9445 78.83H71.9395Z" fill="black"/>
<path d="M76.0437 81.8801C75.8037 81.7851 75.5637 81.7001 75.3337 81.6201C75.3137 81.9601 75.2787 82.3101 75.2188 82.6851C75.4737 82.4401 75.7437 82.1751 76.0387 81.8801H76.0437Z" fill="black"/>
<path d="M81.1447 74.0798C80.3047 73.9248 79.5647 73.8998 78.9297 73.9548C79.1947 74.4798 79.4097 75.1098 79.5247 75.8548C80.0497 75.9898 80.6097 76.1748 81.1997 76.4148C81.3047 75.5148 81.2697 74.7448 81.1447 74.0848V74.0798Z" fill="black"/>
<path d="M80.7285 71.7898C81.0585 72.2798 81.3535 72.8848 81.5385 73.6348C82.0785 73.7548 82.6535 73.9248 83.2685 74.1598C83.3135 73.3498 83.2385 72.6498 83.0935 72.0548C82.1985 71.8398 81.4085 71.7648 80.7285 71.7898Z" fill="black"/>
<path d="M81.0139 73.5301C80.8089 72.8201 80.5039 72.2601 80.1739 71.8301C79.3939 71.9151 78.7739 72.1151 78.3189 72.3251C78.2139 72.4301 78.1089 72.5351 78.0039 72.6401C78.2189 72.8651 78.4389 73.1351 78.6439 73.4551C79.3189 73.3751 80.1089 73.3801 81.0139 73.5351V73.5301Z" fill="black"/>
<path d="M72.6097 80.9951C71.9697 80.9251 71.4097 80.9251 70.9297 80.9701C71.2297 81.6051 71.4497 82.3901 71.5097 83.3351C71.5397 83.3851 71.5697 83.4401 71.5947 83.4951C71.9747 83.4001 72.4047 83.3301 72.8847 83.3001C72.9197 82.3901 72.8097 81.6301 72.6097 80.9951Z" fill="black"/>
<path d="M83.2202 74.6799C82.6702 74.4649 82.1502 74.3049 81.6602 74.1899C81.7552 74.7649 81.7802 75.4099 81.7252 76.1349C82.2752 75.5949 82.7802 75.1049 83.2202 74.6799Z" fill="black"/>
<path d="M70.1587 80.56C70.0887 80.45 70.0137 80.345 69.9387 80.25C69.7937 80.41 69.6487 80.565 69.5137 80.72C69.7037 80.66 69.9237 80.605 70.1587 80.56Z" fill="black"/>
<path d="M75.3437 81.0951C75.6887 81.2101 76.0487 81.3401 76.4237 81.4951C76.5537 81.3601 76.6887 81.2201 76.8287 81.0801C76.9887 80.3551 77.0637 79.6951 77.0737 79.1051C76.2737 78.8351 75.5437 78.6751 74.8887 78.6001C75.1587 79.2801 75.3387 80.1051 75.3437 81.1001V81.0951Z" fill="black"/>
<path d="M81.9998 69.215C82.8448 69.19 83.8548 69.36 84.9748 69.93C84.5498 68.795 83.8598 68.11 83.3498 67.73C83.1298 67.79 82.5948 68.02 81.6348 68.895C81.7498 68.985 81.8748 69.095 82.0048 69.215H81.9998Z" fill="black"/>
<path d="M85.75 70.9899C85.805 71.3299 85.84 71.6999 85.845 72.0899C86.005 71.8999 86.17 71.6799 86.33 71.4399C86.135 71.2749 85.94 71.1249 85.75 70.9849V70.9899Z" fill="black"/>
<path d="M76.9551 76.0698C77.2901 76.7698 77.5351 77.6498 77.5651 78.7398C77.9201 78.8698 78.2851 79.0248 78.6601 79.1998C78.7351 79.1198 78.8101 79.0448 78.8851 78.9698C79.1001 77.9348 79.1401 77.0448 79.0701 76.2798C78.2801 76.1098 77.5701 76.0548 76.9551 76.0748V76.0698Z" fill="black"/>
<path d="M72.4134 80.4649C72.1434 79.8399 71.7934 79.3599 71.4534 79.0049C71.2284 79.0999 71.0434 79.1949 70.8834 79.2849C70.6834 79.4799 70.4784 79.6849 70.2734 79.8999C70.4084 80.0749 70.5434 80.2699 70.6734 80.4849C71.1734 80.4249 71.7534 80.4099 72.4134 80.4699V80.4649Z" fill="black"/>
<path d="M85.21 72.7802C84.65 72.5352 84.125 72.3452 83.625 72.2002C83.745 72.7702 83.8 73.4202 83.77 74.1502C84.545 73.4052 85.06 72.9252 85.21 72.7852V72.7802Z" fill="black"/>
<path d="M79.58 76.3999C79.625 76.9849 79.605 77.6299 79.5 78.3449C80.015 77.8249 80.515 77.3299 80.98 76.8649C80.49 76.6699 80.02 76.5149 79.58 76.3999Z" fill="black"/>
<path d="M73.9643 83.8348C73.7493 83.8198 73.5443 83.8098 73.3443 83.8148C73.3293 83.9998 73.3043 84.1948 73.2793 84.3948C73.4793 84.2448 73.7043 84.0648 73.9643 83.8398V83.8348Z" fill="black"/>
<path d="M72.8449 83.8301C72.4599 83.8551 72.1099 83.9151 71.7949 83.9851C71.8849 84.2651 71.9599 84.5901 72.0049 84.9701C72.0049 84.9701 72.0899 85.1501 72.7099 84.7801C72.7749 84.4451 72.8199 84.1301 72.8499 83.8301H72.8449Z" fill="black"/>
<path d="M74.4948 83.3649C74.5298 83.3349 74.5648 83.2999 74.5998 83.2699C74.7448 82.6099 74.8198 82.0099 74.8448 81.4649C74.2248 81.2749 73.6548 81.1499 73.1348 81.0649C73.3098 81.6949 73.4048 82.4349 73.3798 83.2849C73.7298 83.2849 74.0998 83.3149 74.4998 83.3649H74.4948Z" fill="black"/>
<path d="M85.5948 70.2848C85.9198 70.4898 86.2548 70.7298 86.5898 71.0098C86.9048 70.4298 87.0698 69.8098 86.7748 69.3448C86.2998 68.5998 85.0748 68.1398 84.2598 67.9048C84.7698 68.4398 85.2898 69.2098 85.5948 70.2848Z" fill="black"/>
<path d="M70.9494 82.7048C70.8494 82.0448 70.6594 81.4948 70.4294 81.0298C69.6794 81.1498 69.1644 81.3698 68.8744 81.5248C68.5544 81.9798 68.3844 82.3598 68.4944 82.5548C68.4944 82.5548 69.8994 81.9248 70.9494 82.6998V82.7048Z" fill="black"/>
<path d="M77.459 80.4299C77.739 80.1399 78.019 79.8549 78.289 79.5749C78.044 79.4649 77.799 79.3649 77.564 79.2749C77.554 79.6399 77.519 80.0199 77.459 80.4299Z" fill="black"/>
<path d="M80.3453 71.2852C81.0803 71.2302 81.9403 71.2752 82.9253 71.4902C82.6403 70.7052 82.2303 70.1302 81.8303 69.7202C81.3153 69.7502 80.8803 69.8602 80.5453 69.9752C80.4503 70.0752 80.3553 70.1752 80.2553 70.2852C80.1153 70.4402 79.9703 70.6002 79.8203 70.7552C79.9903 70.9052 80.1653 71.0752 80.3403 71.2802L80.3453 71.2852Z" fill="black"/>
<path d="M81.329 69.275C81.329 69.275 81.289 69.245 81.274 69.23C81.254 69.25 81.229 69.27 81.209 69.295C81.249 69.29 81.289 69.28 81.329 69.275Z" fill="black"/>
<path d="M74.0803 78.0149C73.8453 77.6149 73.5753 77.2949 73.3203 77.0449C72.7253 77.5799 72.3603 77.8999 72.3603 77.8999C72.3603 77.8999 72.2003 78.0449 71.9453 78.2799C72.5253 78.1099 73.2353 77.9999 74.0803 78.0149Z" fill="black"/>
<path d="M83.4788 71.6252C84.0638 71.7852 84.6888 72.0002 85.3538 72.2902C85.3588 71.6602 85.2937 71.1052 85.1787 70.6152C84.1737 70.0152 83.2537 69.7702 82.4688 69.7202C82.8587 70.2002 83.2288 70.8252 83.4788 71.6252Z" fill="black"/>
<path d="M76.144 75.6048C75.969 75.3498 75.789 75.1298 75.609 74.9448C75.154 75.3698 74.724 75.7698 74.334 76.1248C74.794 75.9098 75.394 75.7048 76.149 75.5998L76.144 75.6048Z" fill="black"/>
<path d="M78.1002 73.5349C77.9502 73.3249 77.8002 73.1449 77.6502 72.9849C77.2752 73.3549 76.9002 73.7149 76.5352 74.0649C76.9302 73.8649 77.4502 73.6599 78.1052 73.5299L78.1002 73.5349Z" fill="black"/>
<path d="M79.7587 71.3549C79.6687 71.2649 79.5837 71.1849 79.4937 71.1099C79.3787 71.2349 79.2587 71.3599 79.1387 71.4799C79.3337 71.4299 79.5387 71.3849 79.7587 71.3499V71.3549Z" fill="black"/>
<path d="M114.775 13.7501C113.835 13.1101 112.905 13.7051 112.44 14.1701C111.975 14.6351 111.93 14.8351 111.34 15.7551C111.005 16.2851 110.36 16.9551 109.84 17.4601C109.54 17.4001 109.255 17.4851 109.13 17.7001C109.055 17.8301 109.05 17.9901 109.105 18.1451C109.075 18.1701 109.055 18.1901 109.055 18.1901L22.0203 108.595C22.1103 108.245 22.1503 107.825 22.0903 107.315L21.5953 107.37C21.7403 108.65 21.2003 109.255 20.9903 109.44C20.5753 109.53 20.2753 109.78 20.2753 110.07C20.2753 110.16 20.3053 110.245 20.3553 110.325L20.3303 110.35C20.3303 110.35 19.1603 110.83 19.3203 111.37C19.3203 111.37 16.9653 111.93 16.3803 113.22C15.8003 114.51 16.3053 115.185 16.3053 115.185C16.3053 115.185 17.3853 116.56 18.1603 115.46L17.5053 114.99C17.5053 114.99 16.7703 114.55 17.2053 113.68C17.6403 112.81 19.5003 112.07 19.5003 112.07L20.4353 111.625C20.4353 111.625 20.8753 111.565 20.8853 110.97C20.8853 110.97 21.0553 110.875 21.2603 110.735C21.2853 110.735 21.3103 110.735 21.3353 110.735C21.9253 110.735 22.4003 110.435 22.4003 110.065C22.4003 109.925 22.3303 109.795 22.2153 109.685L109.16 19.4851C109.145 19.8201 109.23 20.1451 109.53 20.3651L109.825 19.9601C109.53 19.7401 109.67 19.2051 109.85 18.7901C110.175 18.8701 110.485 18.7901 110.62 18.5601C110.71 18.4051 110.7 18.2151 110.615 18.0301C110.775 17.9951 111.205 17.9051 111.515 17.9251C111.585 17.6901 111.975 16.4351 112.095 16.1901C112.065 15.7001 113.015 14.7251 113.685 14.6101C114.45 14.4801 115.145 14.9651 115.145 14.9651C115.145 14.9651 115.715 14.3801 114.775 13.7401V13.7501Z" fill="black"/>
</svg>
