<svg width="128" height="128" viewBox="0 0 128 128" fill="none" xmlns="http://www.w3.org/2000/svg">
<path d="M34.7041 89.355C34.2441 89.845 32.2091 92.025 32.1791 92.155C32.1491 92.305 14.2841 110.3 11.1891 113.43C9.64406 114.995 8.39906 115.8 7.54406 116.215C6.79906 116.575 6.37906 117.39 6.55906 118.2L6.59906 118.39C6.74906 119.075 7.13406 119.69 7.68406 120.13L9.44906 121.535C9.99406 121.97 10.6491 122.24 11.3391 122.315L11.5541 122.34C13.2091 122.52 14.8341 121.79 15.7991 120.43L16.1491 119.075C16.3991 118.72 18.2091 117.105 18.5291 116.81C20.3441 115.125 26.8791 108.985 29.2591 105.82C35.1741 97.95 35.9991 98.455 35.9991 98.455L38.2091 99.285C38.9791 99.575 39.8491 99.39 40.4391 98.815L42.3991 96.905L34.6991 89.355H34.7041ZM13.4691 118.33C13.0041 118.785 12.2541 118.775 11.7991 118.31C11.3441 117.845 11.3541 117.095 11.8191 116.64C12.2841 116.185 13.0341 116.195 13.4891 116.66C13.9441 117.125 13.9341 117.875 13.4691 118.33ZM20.1541 111.81C19.6891 112.265 18.9391 112.255 18.4841 111.79C18.0291 111.325 18.0391 110.575 18.5041 110.12C18.9691 109.665 19.7191 109.675 20.1741 110.14C20.6291 110.605 20.6191 111.355 20.1541 111.81ZM26.5541 105.025C26.0941 105.475 25.3541 105.465 24.9091 105.005C24.4591 104.545 24.4691 103.805 24.9291 103.36C25.3891 102.91 26.1291 102.92 26.5741 103.38C27.0241 103.84 27.0141 104.58 26.5541 105.025ZM32.3391 98.41C31.8591 98.88 31.0941 98.87 30.6241 98.39C30.1541 97.91 30.1641 97.145 30.6441 96.675C31.1241 96.205 31.8891 96.215 32.3591 96.695C32.8291 97.175 32.8191 97.94 32.3391 98.41Z" fill="black"/>
<path d="M116.349 5.66504C114.969 12.575 98.5641 29.04 98.5641 29.04L35.7441 88.975L41.4591 94.58L41.3391 94.355C41.3391 94.355 59.4491 77.275 78.2141 60.6C93.4741 47.035 109.584 34.115 113.374 27.82C121.824 13.78 116.354 5.67004 116.354 5.67004L116.349 5.66504ZM115.219 17.715C113.944 22.5 110.974 26.645 107.534 30.125C101.409 36.445 94.7941 42.26 88.1741 48.035C79.3941 55.78 70.3991 63.3 61.8841 71.33C59.4941 73.74 57.0241 76.16 55.2891 79.1C55.0741 79.52 54.8291 79.985 54.8191 80.435L54.7191 80.455C55.5391 75.985 66.5291 66.54 70.1941 63.065C75.9741 57.855 90.7091 44.57 96.2641 39.505C99.1541 36.885 102.159 33.665 104.999 31C109.249 26.75 113.239 23.28 114.929 17.63C115.469 15.78 115.819 13.82 115.619 11.895L115.719 11.875C115.999 13.83 115.719 15.815 115.224 17.715H115.219Z" fill="black"/>
</svg>
