<svg width="128" height="128" viewBox="0 0 128 128" fill="none" xmlns="http://www.w3.org/2000/svg">
<path d="M22.5795 115.875L22.5895 115.865L14.9495 108.635L14.9345 108.65L13.8945 107.665C13.4345 107.225 12.7045 107.245 12.2645 107.71L12.1995 107.78C11.7395 108.27 11.7595 109.035 12.2445 109.5L21.7895 118.535C22.2595 118.98 23.0045 118.96 23.4495 118.49L23.5795 118.355C24.0045 117.91 23.9845 117.2 23.5345 116.78L22.5795 115.88V115.875Z" fill="black"/>
<path d="M47.0987 89.6901L39.3387 82.4201C38.7837 81.9701 37.9637 82.0151 37.4687 82.5451L37.3287 82.6951C36.8487 83.2051 36.8437 83.9851 37.2837 84.5101L44.6387 91.4001L44.6487 91.3901L45.2337 91.9251C45.7687 92.4101 46.5937 92.3801 47.0887 91.8551L47.2437 91.6901C47.7437 91.1601 47.7137 90.2701 47.1837 89.7701L47.1037 89.6951L47.0987 89.6901Z" fill="black"/>
<path d="M22.9238 115.495L44.2988 91.7699L37.6538 85.5449L15.2988 108.28L22.9238 115.495Z" fill="black"/>
<path d="M65.2541 57.6099L40.2891 82.6299L46.9491 88.8649L70.1041 62.3399L65.2541 57.6099Z" fill="black"/>
<path d="M72.5992 59.6497L86.3242 45.1497C85.4492 44.5947 83.9042 43.3997 81.8592 40.9697L68.0742 55.2347L72.5992 59.6497Z" fill="black"/>
<path d="M72.8988 60.6449L72.2438 60.0249L72.2538 60.0149L66.8588 54.7549C66.3388 54.4549 65.6638 54.5299 65.2338 54.9849L65.1888 55.0349C64.6988 55.5499 64.7138 56.3499 65.1988 56.8599L65.5188 57.1699L65.6088 57.2549L70.4338 61.9599L70.4488 61.9449L71.2838 62.7349C71.7738 63.1999 72.6438 63.1499 73.1088 62.6599L73.1388 62.6299C73.6188 62.1249 73.6038 61.3349 73.1188 60.8449L72.9088 60.6399L72.8988 60.6449Z" fill="black"/>
<path d="M111.3 20.6699L103.965 13.7299C103.895 13.6599 103.89 13.5499 103.96 13.4799L104.32 13.0949C106.16 11.1499 109.23 11.0649 111.175 12.9049L111.735 13.4349C113.675 15.2699 113.755 18.3299 111.925 20.2649L111.55 20.6599C111.48 20.7299 111.37 20.7349 111.3 20.6649V20.6699Z" fill="black"/>
<path d="M98.5652 10.1899L90.3702 11.2049C91.0352 13.6749 86.2752 20.5199 86.2752 20.5199C89.6252 24.3649 86.4802 32.5499 86.4802 32.5499C86.4802 32.5499 83.4402 27.4049 81.1552 31.4349C78.8702 35.4649 82.5702 40.2399 82.5702 40.2399L82.5552 40.2549C84.7252 42.8499 86.2952 43.9799 87.0252 44.4199C90.9852 46.4499 92.9902 47.0349 95.8052 45.3749C99.8752 42.9749 94.7302 40.6799 94.7302 40.6799C99.5152 35.8849 106.75 39.7749 106.75 39.7749C108.515 37.2599 115.365 34.8199 115.365 34.8199L116.09 26.7949L98.5552 10.1999L98.5652 10.1899ZM90.4302 25.0349C91.0102 24.3549 91.5802 23.6599 92.1252 22.9499C93.8002 20.9299 94.8702 18.5499 95.9302 16.1699C97.9702 15.7599 100.025 15.3949 102.095 15.2099L102.12 15.3049C100.335 15.9949 98.5002 16.5349 96.6502 17.0299C95.4402 20.1549 93.3552 22.8199 91.0702 25.2349C91.3352 28.2049 90.6102 31.1649 89.3752 33.8449L89.2852 33.8049C90.3652 31.0449 90.8902 27.9649 90.4302 25.0299V25.0349ZM84.0652 37.5999C83.8552 38.3499 83.7102 39.1149 83.5502 39.8849L83.4502 39.8749C83.5252 37.9349 83.5002 34.6599 85.3452 33.4899C86.5302 32.9249 87.7602 33.9549 88.1102 35.0149L88.0302 35.0749C87.4452 34.7399 86.7602 34.2799 86.1302 34.3299C84.7752 34.6599 84.4352 36.3999 84.0602 37.5949L84.0652 37.5999ZM84.8602 41.1199C84.8002 41.1199 84.7402 41.0999 84.6902 41.0549C84.5902 40.9599 84.5852 40.8049 84.6752 40.6999L105.35 18.3399C105.445 18.2399 105.6 18.2349 105.705 18.3249C105.805 18.4199 105.81 18.5749 105.72 18.6799L85.0452 41.0399C84.9952 41.0949 84.9302 41.1199 84.8602 41.1199ZM85.9802 42.1799C85.9202 42.1799 85.8552 42.1599 85.8102 42.1099C85.7102 42.0149 85.7052 41.8549 85.8002 41.7549L106.735 19.6399C106.83 19.5399 106.99 19.5349 107.09 19.6299C107.19 19.7249 107.195 19.8849 107.1 19.9849L86.1652 42.0999C86.1152 42.1499 86.0502 42.1799 85.9852 42.1799H85.9802ZM93.5652 41.0899C92.5152 42.9849 89.2152 43.1549 87.2952 43.3349L87.2802 43.2349C88.0402 43.0349 88.8002 42.8449 89.5352 42.5949C90.7052 42.1549 92.4302 41.7199 92.6802 40.3499C92.6952 39.7199 92.2002 39.0599 91.8302 38.4949L91.8852 38.4099C92.9652 38.7049 94.0602 39.8749 93.5602 41.0899H93.5652ZM109.75 29.4599C107.435 30.6449 105.115 31.8449 103.19 33.6299C102.515 34.2149 101.845 34.8199 101.2 35.4349L101.055 35.4199C98.1402 35.1699 95.1502 35.8499 92.5002 37.0599L92.4552 36.9699C94.4352 35.9049 96.6002 35.1649 98.8402 34.8899C99.5452 34.8099 100.235 34.7649 100.965 34.7999C102.135 33.5899 103.32 32.4349 104.63 31.3649C105.94 30.3349 107.345 29.4899 108.845 28.7849C109.24 26.9249 109.685 25.0749 110.275 23.2649L110.375 23.2849C110.3 25.3549 110.045 27.4099 109.745 29.4599H109.75Z" fill="black"/>
</svg>
