<svg width="128" height="128" viewBox="0 0 128 128" fill="none" xmlns="http://www.w3.org/2000/svg">
<g clip-path="url(#clip0_268_12818)">
<path d="M35.025 93.6738L36.0508 95.1912C36.9962 96.592 38.1089 97.8755 39.3614 99.0101L40.718 100.241L103.711 45.6318L101.746 43.8739C100.999 43.2038 100.337 42.4474 99.7674 41.6237L98.014 39.0682L35.021 93.6772L35.025 93.6738Z" fill="black"/>
<path d="M107.049 30.7178C107.644 30.7122 108.16 30.3759 108.447 29.8719L111.165 30.9706C111.134 31.5077 111.246 32.0513 111.504 32.5314C112.568 34.4984 115.251 34.6897 116.583 32.8935C117.253 31.9883 117.346 30.7353 116.807 29.7476C116.217 28.6528 115.121 28.113 114.044 28.1507C114.022 28.1418 114.001 28.1255 113.98 28.1166L110.465 26.6951C110.685 26.5113 110.915 26.3393 111.166 26.1836C113.329 24.853 116.19 25.1455 118.058 26.8633C120.644 29.2491 120.527 33.2743 117.944 35.5133C117.062 36.2778 116.01 36.7274 114.936 36.8724C114.19 36.9744 113.596 37.5378 113.506 38.2849L113.406 39.1162C113.351 39.5704 113.129 39.9904 112.787 40.2873L107.161 45.1646C106.393 45.8302 105.232 45.7474 104.566 44.9796L102.598 43.2104C101.824 42.5162 101.141 41.7288 100.564 40.8639L99.0916 38.6646C98.4261 37.8969 98.5089 36.7355 99.2766 36.07L104.93 31.1688C105.261 30.8821 105.682 30.7238 106.122 30.7219L107.053 30.7144L107.049 30.7178Z" fill="black"/>
<path d="M29.207 112.806L25.7975 115.762C24.2667 114.593 22.6474 113.162 21.1661 111.454C19.6848 109.745 18.4815 107.919 17.556 106.239L20.9655 103.283C21.9057 104.965 23.0954 106.774 24.5835 108.491C26.0716 110.208 27.6727 111.633 29.207 112.806Z" fill="black"/>
<path d="M33.0175 109.502L29.608 112.458C28.0772 111.289 26.4579 109.858 24.9766 108.15C23.4954 106.441 22.2921 104.616 21.3665 102.935L24.776 99.9797C25.7163 101.661 26.9059 103.471 28.394 105.187C29.8821 106.904 31.4833 108.329 33.0175 109.502Z" fill="black"/>
<path d="M21.5343 119.458L18.0776 122.455C16.6998 121.367 15.2745 120.065 13.9571 118.545C12.2949 116.628 11.0068 114.593 10.0369 112.758L13.3952 109.847C14.3591 111.611 15.6002 113.528 17.177 115.347C18.5695 116.953 20.0862 118.321 21.5343 119.458Z" fill="black"/>
<path d="M25.3964 116.11L21.9357 119.11C20.4832 117.984 18.9665 116.616 17.5706 115.006C15.9903 113.183 14.7532 111.263 13.7966 109.499L17.1549 106.588C18.0952 108.269 19.2848 110.079 20.7729 111.795C22.261 113.512 23.8622 114.937 25.3964 116.11Z" fill="black"/>
<path d="M13.5674 118.883C14.8814 120.399 16.3028 121.704 17.68 122.8L15.2705 124.888C14.6878 125.393 13.8226 125.406 13.2264 124.909L12.8636 124.61C10.5339 122.678 8.53726 120.375 6.95219 117.791L6.70748 117.389C6.30366 116.732 6.43507 115.874 7.01775 115.369L9.63589 113.099C10.6166 114.938 11.9092 116.962 13.5679 118.875L13.5674 118.883Z" fill="black"/>
<path d="M36.8339 106.195L33.4244 109.151C31.8936 107.982 30.2743 106.551 28.793 104.843C27.3118 103.134 26.1085 101.308 25.1829 99.6283L28.5924 96.6726C29.5327 98.3538 30.7223 100.164 32.2104 101.88C33.6985 103.597 35.2997 105.022 36.8339 106.195Z" fill="black"/>
<path d="M32.6031 101.539C31.1116 99.8183 29.9186 98.0046 28.993 96.3244L31.6545 94.0172C32.3513 93.4131 33.4179 93.5298 33.9629 94.2778L35.4403 96.3002C36.265 97.4265 37.1797 98.4816 38.1776 99.4577L39.9699 101.207C40.6331 101.853 40.5973 102.925 39.9004 103.529L37.235 105.84C35.7042 104.671 34.0849 103.24 32.6036 101.531L32.6031 101.539Z" fill="black"/>
<path d="M100.189 25.3263L100.187 25.3312C99.9694 26.032 99.2249 26.4236 98.5241 26.2059L91.3438 23.9753C90.6431 23.7576 90.2515 23.013 90.4692 22.3123L90.4707 22.3073C90.6884 21.6065 91.433 21.2149 92.1338 21.4326L99.314 23.6632C100.015 23.8809 100.406 24.6255 100.189 25.3263Z" fill="black"/>
<path d="M114.49 30.3219L114.488 30.3267C114.213 31.0071 113.439 31.3357 112.758 31.0607L104.604 27.7648C103.924 27.4898 103.595 26.7154 103.87 26.035L103.872 26.0302C104.147 25.3499 104.921 25.0212 105.602 25.2962L113.756 28.5921C114.436 28.8671 114.765 29.6416 114.49 30.3219Z" fill="black"/>
<path d="M87.8977 21.3311L87.8961 21.3361C87.6784 22.0369 86.9339 22.4285 86.2331 22.2108L79.0528 19.9802C78.3521 19.7625 77.9604 19.0179 78.1781 18.3171L78.1797 18.3122C78.3974 17.6114 79.142 17.2198 79.8427 17.4375L87.023 19.6681C87.7238 19.8858 88.1154 20.6304 87.8977 21.3311Z" fill="black"/>
<path d="M105.827 24.8207C105.519 24.6953 105.192 24.6683 104.886 24.713L100.556 23.3701C100.3 23.289 100.039 23.2667 99.7789 23.2925C99.6899 23.2455 99.5964 23.2093 99.499 23.1765L97.0668 22.4232C98.0986 21.3701 99.6751 20.9137 101.178 21.3828L105.561 22.748C106.599 23.0695 107.446 23.7763 107.953 24.7433C108.142 25.0966 108.271 25.4677 108.344 25.846L105.83 24.832L105.827 24.8207Z" fill="black"/>
<path d="M98.3936 26.7065C98.4876 26.7354 98.5753 26.749 98.6703 26.7632C98.8685 26.9362 99.1027 27.0711 99.3739 27.1532L103.757 28.5184C104.183 28.6522 104.617 28.6277 105.012 28.4859L107.306 29.4141C106.271 30.5039 104.675 30.9847 103.142 30.5135L98.7588 29.1483C98.0109 28.914 97.3767 28.4846 96.8988 27.9334C96.421 27.3822 96.0938 26.6866 95.9688 25.9537L98.401 26.7071L98.3936 26.7065Z" fill="black"/>
<path d="M92.3188 20.9398C92.2537 20.9203 92.1915 20.9122 92.1332 20.9007C92.1264 20.8928 92.1196 20.8849 92.1128 20.8771C91.8773 20.6054 91.5709 20.3952 91.2057 20.2842L86.8226 18.919C86.595 18.8474 86.3637 18.8272 86.1303 18.8364L83.3296 17.9682C84.3613 16.9151 85.9379 16.4587 87.441 16.9278L91.8242 18.293C93.3924 18.7816 94.4484 20.1349 94.6497 21.6637L92.3188 20.9398Z" fill="black"/>
<path d="M85.0031 22.3721C85.1916 22.5259 85.4087 22.6411 85.6436 22.7132L90.0268 24.0784C90.2255 24.1406 90.4235 24.1621 90.6196 24.1576C90.7978 24.2996 90.9968 24.4099 91.217 24.481L93.3888 25.1566C92.356 26.1209 90.8464 26.5193 89.4084 26.0696L85.0252 24.7044C84.2773 24.4701 83.643 24.0407 83.1652 23.4895C82.6874 22.9384 82.3602 22.2428 82.2312 21.5133L85.0065 22.376L85.0031 22.3721Z" fill="black"/>
<path d="M60.2507 12.13C61.4017 9.66342 63.486 7.62901 66.2474 6.61433C66.9907 6.34227 67.7386 6.16288 68.4919 6.06145L70.4103 2.36412L72.2665 6.22343C75.1496 6.86853 77.7082 8.69834 79.2277 11.3738L83.1049 11.8054L80.4312 14.6473C81.0703 17.9618 80.0921 21.3199 77.9276 23.7549L78.8511 27.6918L75.0546 26.0249C74.601 26.2733 74.1343 26.4985 73.6374 26.681C71.5359 27.4547 69.3553 27.5245 67.3343 27.0148L64.3303 29.7223L63.9523 25.4919C62.1624 24.2784 60.7136 22.5277 59.909 20.3427C59.272 18.6056 59.1082 16.8098 59.3631 15.0993L56.8155 12.8049L60.2507 12.13ZM74.871 19.8949C72.0154 20.5225 75.7306 20.5842 76.6527 20.4467C76.3276 19.5149 75.9686 18.5917 75.307 17.8206C75.2922 18.4955 75.4127 19.1357 75.5971 19.762C75.3548 19.7928 75.1081 19.8343 74.8676 19.891L74.871 19.8949ZM63.158 20.1052C64.1151 20.3582 65.0827 20.5675 66.0847 20.4505C65.5326 20.0603 64.9338 19.8071 64.3087 19.6111C64.4166 19.3934 64.5215 19.1645 64.6079 18.938C65.6738 16.2141 63.554 19.2654 63.154 20.1086L63.158 20.1052ZM68.3192 11.6452C68.8066 11.1812 69.1737 10.6423 69.4881 10.0663C69.6806 10.2167 69.8809 10.3603 70.093 10.4936C72.5552 12.069 69.9755 9.39555 69.2247 8.83967C68.7956 9.72882 68.3983 10.6387 68.3192 11.6452Z" fill="black"/>
</g>
<defs>
<clipPath id="clip0_268_12818">
<rect width="128" height="128" fill="white"/>
</clipPath>
</defs>
</svg>
