<svg width="128" height="128" viewBox="0 0 128 128" fill="none" xmlns="http://www.w3.org/2000/svg">
<path d="M94.3523 17.58C94.2223 17.445 94.1273 17.27 94.0973 17.07C94.0173 16.56 94.3673 16.085 94.8723 16.005L100.172 15.175C100.682 15.095 101.157 15.445 101.237 15.95C101.317 16.46 100.967 16.935 100.462 17.015L95.1623 17.845C94.8523 17.895 94.5573 17.785 94.3523 17.575V17.58Z" fill="black"/>
<path d="M86.8516 22.6296C86.8216 22.5996 86.7916 22.5646 86.7666 22.5296C86.4616 22.1146 86.5466 21.5296 86.9616 21.2246L91.2766 18.0396C91.6916 17.7346 92.2816 17.8196 92.5816 18.2346C92.8866 18.6496 92.8016 19.2346 92.3866 19.5396L88.0716 22.7246C87.6916 23.0046 87.1716 22.9546 86.8516 22.6296Z" fill="black"/>
<path d="M106.426 44.4251C106.071 44.0651 106.071 43.4851 106.426 43.1201L110.166 39.2751C110.526 38.9051 111.116 38.9001 111.486 39.2551L111.501 39.2701C111.856 39.6301 111.856 40.2101 111.501 40.5751L107.761 44.4201C107.401 44.7901 106.811 44.7951 106.441 44.4401L106.426 44.4251Z" fill="black"/>
<path d="M103.916 17.4947C103.656 17.2297 103.571 16.8247 103.726 16.4697C103.931 15.9997 104.481 15.7847 104.956 15.9897L109.871 18.1347C110.336 18.3397 110.561 18.8897 110.351 19.3647C110.141 19.8397 109.596 20.0497 109.121 19.8447L104.206 17.6997C104.091 17.6497 103.996 17.5797 103.911 17.4997L103.916 17.4947Z" fill="black"/>
<path d="M106.966 17.3849C107.001 17.2199 107.031 17.0649 107.036 16.8999L105.041 16.0099C105.181 16.3149 105.211 16.6499 105.151 16.9849C105.076 17.3349 104.881 17.6299 104.606 17.8549L106.391 18.6499C106.666 18.2749 106.861 17.8499 106.966 17.3849ZM104.076 18.1249C103.826 18.1999 103.561 18.2099 103.296 18.1549L101.011 17.6499C100.851 17.6199 100.701 17.5599 100.571 17.4799C100.551 17.4849 100.536 17.4849 100.516 17.4949L98.3759 17.8149C98.4009 17.8699 98.4259 17.9199 98.4609 17.9649C98.5959 18.1699 98.7409 18.3549 98.9109 18.5299C99.3659 18.9949 99.9509 19.3249 100.611 19.4649L102.896 19.9699C103.786 20.1699 104.696 20.0099 105.471 19.5199C105.696 19.3749 105.901 19.1999 106.081 19.0099L104.071 18.1199L104.076 18.1249ZM106.511 14.8149C106.031 14.0449 105.266 13.5149 104.376 13.3149L102.091 12.8099C101.201 12.6099 100.286 12.7649 99.5159 13.2599C98.8609 13.6799 98.3759 14.2949 98.1309 15.0349L100.101 14.7399C100.146 14.7349 100.191 14.7299 100.241 14.7199C100.386 14.7099 100.526 14.7299 100.656 14.7699C100.966 14.5949 101.331 14.5549 101.686 14.6349L103.971 15.1399C104.201 15.1899 104.406 15.2899 104.581 15.4299C104.771 15.4299 104.976 15.4599 105.166 15.5499L107.041 16.3849C107.001 15.8349 106.816 15.2999 106.511 14.8149Z" fill="black"/>
<path d="M94.731 14.0099C93.831 13.8499 92.926 14.0449 92.171 14.5699L90.251 15.8999C89.506 16.4199 89.006 17.1999 88.846 18.0999C88.771 18.5149 88.771 18.9299 88.841 19.3349L90.941 17.7849C90.941 17.7849 90.956 17.7699 90.966 17.7699H90.971C91.066 17.6349 91.176 17.5199 91.316 17.4249L93.236 16.0949C93.506 15.9049 93.821 15.8099 94.141 15.8199C94.321 15.6699 94.551 15.5599 94.801 15.5249L96.776 15.2349C96.261 14.5749 95.536 14.1549 94.726 14.0049L94.731 14.0099ZM97.486 17.9549L95.381 18.2699C95.281 18.4049 95.156 18.5299 95.006 18.6349L93.081 19.9749C92.856 20.1299 92.596 20.2249 92.326 20.2449L90.446 21.6299C90.791 21.8399 91.186 21.9849 91.601 22.0649C92.496 22.2299 93.401 22.0249 94.151 21.5099L96.076 20.1699C96.851 19.6299 97.336 18.8199 97.481 17.9549H97.486Z" fill="black"/>
<path d="M113.436 27.7799C113.331 27.6749 113.251 27.5399 113.206 27.3849L111.721 22.2299C111.576 21.7349 111.866 21.2199 112.361 21.0749C112.856 20.9299 113.371 21.2149 113.516 21.7099L115.001 26.8649C115.146 27.3599 114.856 27.8749 114.361 28.0199C114.021 28.1199 113.666 28.0149 113.436 27.7749V27.7799Z" fill="black"/>
<path d="M111.722 37.2551C111.492 37.0201 111.392 36.6751 111.492 36.3401L113.007 31.1951C113.152 30.7001 113.672 30.4201 114.167 30.5651C114.662 30.7101 114.942 31.2301 114.797 31.7251L113.282 36.8701C113.137 37.3651 112.617 37.6451 112.122 37.5001C111.962 37.4551 111.827 37.3701 111.722 37.2601V37.2551Z" fill="black"/>
<path d="M76.6463 39.2452C80.1413 35.6452 82.7013 33.0252 83.5013 32.2452C87.0713 28.7452 83.6813 25.5702 83.6813 25.5702C83.6813 25.5702 80.5713 22.1152 77.0013 25.6152C76.2013 26.3952 73.5313 28.9052 69.8613 32.3252L76.6463 39.2502V39.2452Z" fill="black"/>
<path d="M97.1366 60.1652C100.632 56.5652 103.192 53.9452 103.992 53.1652C107.562 49.6652 104.207 46.4852 104.207 46.4852C104.207 46.4852 101.062 43.0302 97.4916 46.5302C96.6916 47.3102 94.0216 49.8202 90.3516 53.2402L97.1366 60.1652Z" fill="black"/>
<path d="M114.162 33.8899L114.807 31.7949L114.162 33.8899Z" fill="black"/>
<path d="M114.985 26.8498C114.795 26.7248 114.58 26.6498 114.335 26.6248C113.86 26.5798 113.415 26.7548 113.105 27.0598L112.57 25.1698C113.115 24.8698 113.735 24.7198 114.385 24.7598L114.985 26.8498Z" fill="black"/>
<path d="M111.926 33.2147C111.786 33.1147 111.656 33.0097 111.541 32.8897C111.476 32.8247 111.406 32.7497 111.346 32.6747C110.766 31.9747 110.491 31.0847 110.581 30.1747L110.796 27.8497C110.886 26.8497 111.406 25.9847 112.161 25.4297L112.751 27.5147C112.751 27.5147 112.756 27.5497 112.766 27.5697C112.706 27.7097 112.666 27.8647 112.651 28.0247L112.441 30.3547C112.411 30.6297 112.461 30.8947 112.576 31.1347L111.926 33.2197V33.2147Z" fill="black"/>
<path d="M116.156 33.1196C115.716 33.4846 115.206 33.7096 114.666 33.8246L115.266 31.8796C115.336 31.6846 115.331 31.4796 115.306 31.2796C115.421 31.0896 115.496 30.8746 115.516 30.6446L115.736 28.3146C115.766 27.9596 115.676 27.6146 115.481 27.3246C115.511 27.1396 115.496 26.9446 115.441 26.7496L114.891 24.8296C115.641 24.9846 116.321 25.3846 116.811 25.9896C117.396 26.6946 117.671 27.5746 117.581 28.4846L117.366 30.8246C117.286 31.7246 116.846 32.5446 116.151 33.1246L116.156 33.1196Z" fill="black"/>
<path d="M113.512 21.6997C113.512 21.7097 113.522 21.7147 113.522 21.7197L114.132 23.8497L113.522 21.7247C113.522 21.7147 113.512 21.7097 113.512 21.6997Z" fill="black"/>
<path d="M109.022 19.8151L107.127 18.9701C107.207 18.3551 107.457 17.7601 107.872 17.2651L109.722 18.0901C109.637 18.1351 109.547 18.1951 109.477 18.2651C109.032 18.6651 108.872 19.2751 109.027 19.8151H109.022Z" fill="black"/>
<path d="M111.912 24.5497C111.077 24.5097 110.262 24.1697 109.642 23.5397L109.537 23.4347L107.972 21.6897C107.407 21.0597 107.112 20.2647 107.102 19.4697L108.912 20.2797C109.037 20.3397 109.177 20.3747 109.312 20.3847C109.327 20.4097 109.337 20.4247 109.357 20.4447L110.917 22.1797C111.032 22.3147 111.172 22.4147 111.317 22.4947L111.907 24.5497H111.912Z" fill="black"/>
<path d="M114.522 23.5099L113.972 21.5899C113.902 21.3599 113.777 21.1549 113.602 20.9849C113.572 20.6749 113.452 20.3649 113.222 20.1049L111.657 18.3749L111.607 18.3199C111.342 18.0449 110.977 17.8799 110.592 17.8549C110.492 17.8449 110.392 17.8549 110.307 17.8699C110.237 17.8099 110.152 17.7649 110.057 17.7249L108.197 16.8949L108.222 16.8699C109.612 15.6099 111.787 15.7249 113.037 17.1249L114.602 18.8699C115.807 20.2099 115.742 22.2299 114.517 23.5099H114.522Z" fill="black"/>
<path d="M108.041 40.8L107.936 40.92C107.486 40.03 107.416 38.95 107.861 37.965L108.826 35.83C109.196 34.995 109.871 34.365 110.726 34.035C111.061 33.915 111.401 33.855 111.741 33.835L111.101 35.925C110.851 36.08 110.651 36.315 110.521 36.6L109.561 38.725C109.471 38.915 109.426 39.12 109.431 39.325L108.046 40.8H108.041Z" fill="black"/>
<path d="M112.175 42.5548C111.5 42.8098 110.785 42.8448 110.125 42.6598L111.63 41.0648L111.855 40.8148C111.99 40.6698 112.09 40.5048 112.155 40.3348C112.24 40.2348 112.31 40.1198 112.37 39.9948L113.335 37.8598C113.39 37.7398 113.405 37.6098 113.425 37.4848C113.545 37.3398 113.635 37.1748 113.685 36.9948L114.355 34.8398C114.68 35.1748 114.95 35.5648 115.115 36.0148C115.44 36.8698 115.415 37.7998 115.035 38.6248L114.075 40.7648C113.695 41.5898 113.025 42.2248 112.17 42.5498L112.175 42.5548Z" fill="black"/>
<path d="M84.3177 24.94C85.0777 25.705 85.6077 26.545 85.8627 27.415C85.9027 27.56 85.9377 27.695 85.9627 27.835L89.7627 24.11C89.7627 24.11 90.6532 23.0511 90.1282 21.6211L89.0717 22.3855C88.9717 22.4555 88.8599 22.5287 88.7627 22.61C88.7027 22.855 88.5677 23.09 88.3677 23.285C87.7827 23.86 86.8377 23.855 86.2627 23.27C85.6877 22.685 85.6977 21.735 86.2827 21.16C86.4777 20.97 86.7077 20.85 86.9527 20.79C87.1573 20.6245 87.3493 20.4841 87.5643 20.3291L88.3719 19.705C86.8869 18.98 85.4927 19.705 85.4927 19.705L81.8027 23.32C82.5627 23.55 83.3977 24.01 84.3177 24.935V24.94Z" fill="black"/>
<path d="M84.9675 27.6801C84.7525 26.9501 84.3425 26.3151 83.6525 25.6001C82.6375 24.5851 81.7875 24.2151 81.0075 24.1001L80.8125 24.2951L84.8975 28.8801L85.1225 28.6601C85.1075 28.3701 85.0675 28.0351 84.9625 27.6851L84.9675 27.6801Z" fill="black"/>
<path d="M104.797 45.87C105.587 46.645 106.087 47.465 106.347 48.345C106.377 48.445 106.397 48.54 106.417 48.64L109.442 45.675C109.442 45.675 110.367 44.625 109.712 43.14L109.557 43.305L108.642 44.265C108.572 44.345 108.477 44.42 108.387 44.47C108.327 44.565 108.262 44.65 108.182 44.735C107.622 45.28 106.727 45.27 106.182 44.715C105.637 44.16 105.647 43.265 106.202 42.715C106.297 42.625 106.402 42.55 106.512 42.49C106.542 42.445 106.567 42.4 106.607 42.36L107.327 41.6L107.742 41.155C106.337 40.52 105.162 41.28 105.162 41.28L102.172 44.21C102.962 44.425 103.832 44.89 104.802 45.865L104.797 45.87Z" fill="black"/>
<path d="M105.451 48.6098C105.236 47.8798 104.811 47.2448 104.136 46.5298C103.066 45.4498 102.171 45.1098 101.356 45.0098L100.711 45.6398L104.806 50.2198L105.601 49.4398C105.581 49.1848 105.541 48.9048 105.451 48.6048V48.6098Z" fill="black"/>
<path d="M27.0248 72.1348L24.5098 74.5048L33.5398 83.7248L35.9648 81.2548L27.0248 72.1348Z" fill="black"/>
<path d="M37.4101 79.7844L28.5301 70.7144L27.7051 71.4944L36.6201 80.5894L37.4101 79.7844Z" fill="black"/>
<path d="M18.3711 80.2945L27.6261 89.7395L28.4211 88.9345L19.1961 79.5195L18.3711 80.2945Z" fill="black"/>
<path d="M23.0098 75.9195L32.0948 85.1945L32.8848 84.3895L23.8298 75.1445L23.0098 75.9195Z" fill="black"/>
<path d="M19.875 78.8796L29.075 88.2696L31.44 85.8596L22.33 76.5596L19.875 78.8796Z" fill="black"/>
<path d="M29.2051 70.0744L38.0651 79.1195L40.6301 76.5045L31.8701 67.5645L29.2051 70.0744Z" fill="black"/>
<path d="M39.0254 60.9343L47.4054 69.4893C48.3154 68.5493 49.2954 67.5293 50.3354 66.4543L42.1204 58.0693C41.0254 59.0843 39.9854 60.0443 39.0254 60.9343Z" fill="black"/>
<path d="M42.8066 57.4345L50.9866 65.7795C51.2516 65.5045 51.5216 65.2245 51.7916 64.9445L43.6566 56.6445C43.3716 56.9095 43.0866 57.1745 42.8066 57.4345Z" fill="black"/>
<path d="M26.9757 90.4047L17.6957 80.9297L14.1957 84.2297C14.1957 84.2297 6.9857 90.3147 12.4357 95.3697C17.3757 100.92 23.6057 93.8347 23.6057 93.8347L26.9757 90.4047Z" fill="black"/>
<path d="M34.0664 65.5247L42.7164 74.3497C43.4064 73.6347 44.2914 72.7197 45.3264 71.6447L36.8264 62.9697C35.7314 63.9847 34.7964 64.8497 34.0664 65.5247Z" fill="black"/>
<path d="M37.5098 62.3345L45.9698 70.9695C46.2248 70.7045 46.4848 70.4344 46.7548 70.1544L38.3398 61.5645C38.0548 61.8295 37.7798 62.0845 37.5098 62.3345Z" fill="black"/>
<path d="M32.5508 66.9297L41.2808 75.8397C41.4508 75.6597 41.7158 75.3847 42.0658 75.0247L33.3808 66.1597C33.0108 66.4997 32.7308 66.7597 32.5508 66.9297Z" fill="black"/>
<path d="M57.9062 100.7L49.0212 91.6348L48.2012 92.4098L57.1112 101.505L57.9062 100.7Z" fill="black"/>
<path d="M47.5209 93.0498L45.0059 95.4198L54.0359 104.64L56.4609 102.17L47.5209 93.0498Z" fill="black"/>
<path d="M40.3652 99.795L49.5652 109.185L51.9352 106.775L42.8252 97.48L40.3652 99.795Z" fill="black"/>
<path d="M43.5 96.8401L52.585 106.11L53.38 105.305L44.325 96.0601L43.5 96.8401Z" fill="black"/>
<path d="M38.8652 101.21L48.1202 110.66L48.9152 109.85L39.6852 100.435L38.8652 101.21Z" fill="black"/>
<path d="M49.7012 90.995L58.5562 100.035L61.1262 97.425L52.3662 88.48L49.7012 90.995Z" fill="black"/>
<path d="M54.5605 86.4398L63.2105 95.2648C63.9005 94.5498 64.7855 93.6348 65.8205 92.5598L57.3205 83.8848C56.2255 84.8998 55.2905 85.7648 54.5605 86.4398Z" fill="black"/>
<path d="M58.0059 83.2549L66.4659 91.8899C66.7209 91.6249 66.9809 91.3549 67.2509 91.0749L58.8359 82.4849C58.5509 82.7499 58.2759 83.0049 58.0059 83.2549Z" fill="black"/>
<path d="M47.4659 111.325L38.1859 101.85L34.6859 105.15C34.6859 105.15 27.4759 111.235 32.9259 116.29C37.8659 121.84 44.0959 114.755 44.0959 114.755L47.4659 111.325Z" fill="black"/>
<path d="M63.2969 78.3549L71.4769 86.6999C71.7419 86.4249 72.0119 86.1449 72.2819 85.8649L64.1469 77.5649C63.8619 77.8299 63.5769 78.0949 63.2969 78.3549Z" fill="black"/>
<path d="M53.0469 87.8447L61.7769 96.7547C61.9469 96.5747 62.2119 96.2997 62.5619 95.9397L53.8769 87.0747C53.5069 87.4147 53.2269 87.6747 53.0469 87.8447Z" fill="black"/>
<path d="M59.5215 81.8499L67.9015 90.4049C68.8115 89.4649 69.7915 88.4449 70.8315 87.3699L62.6165 78.9849C61.5215 79.9999 60.4815 80.9599 59.5215 81.8499Z" fill="black"/>
<path d="M68.4949 33.5947C61.6098 40.0047 51.9498 48.9647 44.3398 56.0147L52.4348 64.2797C59.6398 56.8147 68.7948 47.3397 75.3448 40.5897L68.4949 33.5947Z" fill="black"/>
<path d="M88.9851 54.5098C82.1001 60.9198 72.4401 69.8798 64.8301 76.9298L72.9251 85.1948C80.1301 77.7298 89.2851 68.2548 95.8351 61.5048L88.9851 54.5098Z" fill="black"/>
</svg>
