<svg width="128" height="128" viewBox="0 0 128 128" fill="none" xmlns="http://www.w3.org/2000/svg">
<path d="M114.455 14.1001L35.0547 89.1051C35.5697 89.9151 36.1247 90.7451 36.6047 91.3501C37.3147 92.2901 38.1597 93.0351 39.0897 93.7401L108.98 27.7201C108.98 27.7201 114.67 22.0551 114.455 14.1001Z" fill="black"/>
<path d="M16.596 106.57C16.196 107.475 15.826 108.58 15.666 109.805C17.626 110.745 19.826 111.145 21.936 110.485C21.936 110.485 22.021 110.78 22.071 110.96C22.121 110.515 22.216 110.095 22.381 109.72C22.381 109.72 22.381 109.72 22.381 109.715C20.711 109.425 19.081 108.835 17.766 107.75C17.336 107.39 16.946 107 16.586 106.57H16.596Z" fill="black"/>
<path d="M15.6453 109.995C15.5253 111.1 15.5803 112.295 15.9353 113.525C18.0553 113.74 20.1953 113.04 22.0353 111.915C22.0303 111.64 22.0353 111.365 22.0553 111.1C19.8303 111.62 17.5953 111.08 15.6453 109.995Z" fill="black"/>
<path d="M22.4498 109.6C22.5998 109.325 22.8698 108.95 23.2448 108.495C21.0548 107.585 19.4998 105.73 18.5348 103.61L18.0548 104.065C18.0548 104.065 17.4798 104.785 16.8848 105.965C18.1398 107.905 20.2248 109.055 22.4498 109.6Z" fill="black"/>
<path d="M16.1055 114.045C16.4155 114.915 16.8855 115.795 17.5555 116.67C19.5405 116.025 21.3155 114.84 22.3005 112.945C22.1855 112.715 22.0855 112.61 22.0805 112.605L22.0905 112.595C22.0905 112.595 22.0805 112.595 22.0755 112.59C22.0555 112.39 22.0455 112.19 22.0355 111.99C20.4405 113.115 18.5955 113.965 16.6305 114.04C16.4555 114.045 16.2805 114.045 16.1055 114.04V114.045Z" fill="black"/>
<path d="M31.5251 91.3403L29.5701 93.1853C30.6551 95.1303 32.2701 96.7753 34.4301 97.4503C34.9851 96.9353 35.3351 96.6203 35.3851 96.5753C32.9351 95.9803 31.8401 94.0403 31.4801 91.3903C32.1401 92.5503 32.4851 93.8553 33.3001 94.7903C34.0901 95.6953 35.2351 96.2503 36.3701 96.6853C36.2151 95.7953 36.3501 95.1103 36.7801 94.6353C37.2401 94.1253 37.9251 94.0003 38.4051 93.9803C36.5401 93.2453 35.1251 91.5253 34.4801 89.5953L32.9601 89.4103C32.9601 89.4103 30.2301 87.2353 32.2901 85.1953C32.2901 85.1953 34.6151 85.8303 34.4701 83.1353C34.3251 80.4403 31.3451 81.9603 31.3451 81.9603C31.3451 81.9603 30.3851 82.7703 30.5701 83.9853C30.5701 83.9853 28.2801 85.4253 29.6451 88.6503C29.6451 88.6503 29.9751 90.1153 31.5201 91.3453L31.5251 91.3403Z" fill="black"/>
<path d="M21.4145 103.86C20.9145 103.33 20.4845 102.76 20.1145 102.115L18.6445 103.505C19.7395 105.56 21.4095 107.305 23.6745 107.995C24.1395 107.46 24.7045 106.855 25.3345 106.205C23.8745 105.72 22.4895 104.975 21.4195 103.86H21.4145Z" fill="black"/>
<path d="M36.3852 96.7353C36.3852 96.7353 36.3852 96.7303 36.3852 96.7253C36.2952 96.7153 36.2002 96.7103 36.1152 96.6953C36.2002 96.7103 36.2952 96.7203 36.3902 96.7353H36.3852Z" fill="black"/>
<path d="M22.5603 113.695C21.3953 115.345 19.6203 116.345 17.6953 116.85C17.8253 117.01 17.9503 117.17 18.0953 117.33C18.0953 117.33 19.4253 119.265 22.5803 116.18C22.7453 115.07 22.6903 114.26 22.5653 113.7L22.5603 113.695Z" fill="black"/>
<path d="M38.7462 94.5104C38.4262 94.4904 37.6212 94.4854 37.1662 94.9854C36.8262 95.3604 36.7562 95.9704 36.9362 96.7804C36.9662 96.7804 36.9962 96.7804 37.0262 96.7804C37.7962 97.3154 39.6512 98.9154 40.0812 102.215C40.3762 104.47 39.0862 107.63 36.2212 109.735C33.7662 111.535 30.2312 112.845 27.6412 112.985C25.1362 113.115 23.6762 112.98 22.8262 112.8C23.0812 113.35 23.3362 114.32 23.1562 115.88C23.8062 115.86 24.8462 115.845 26.4962 115.84C32.4962 115.815 38.5762 112.665 40.3912 110.46C42.8562 107.47 43.0762 105.205 42.7662 102.07C42.5112 99.5204 39.7612 95.8004 38.7462 94.5054V94.5104Z" fill="black"/>
<path d="M22.3009 100.055L20.5859 101.675C21.5009 103.79 23.3509 105.225 25.4459 106.09C25.8809 105.64 26.3459 105.17 26.8259 104.695C24.7559 103.805 23.2559 102.065 22.3009 100.06V100.055Z" fill="black"/>
<path d="M32.2449 99.4803C32.8749 98.8903 33.4449 98.3603 33.9249 97.9153C31.8799 97.0203 30.3949 95.2903 29.4449 93.3003L28.2949 94.3903C28.8399 96.5753 30.3749 98.2803 32.2449 99.4753V99.4803Z" fill="black"/>
<path d="M25.0999 99.8905C24.7549 99.3655 24.4599 98.8205 24.2249 98.2305L22.4199 99.9355C23.5099 101.89 25.1349 103.54 27.3049 104.21C27.7399 103.78 28.1799 103.35 28.6249 102.92C27.2399 102.185 25.9749 101.205 25.0999 99.8955V99.8905Z" fill="black"/>
<path d="M28.7197 96.6305C28.3497 96.0705 28.0447 95.4855 27.8047 94.8555L26.0547 96.5105C27.1497 98.4455 28.7647 100.07 30.9197 100.73C31.3347 100.335 31.7397 99.9555 32.1247 99.5955C30.7847 98.8655 29.5747 97.9055 28.7197 96.6355V96.6305Z" fill="black"/>
<path d="M28.7351 102.81C29.3001 102.265 29.8651 101.72 30.4151 101.2C28.3651 100.32 26.8801 98.6054 25.9201 96.6304L24.7051 97.7754C25.2901 99.9454 26.8451 101.63 28.7301 102.81H28.7351Z" fill="black"/>
</svg>
