<svg width="128" height="128" viewBox="0 0 128 128" fill="none" xmlns="http://www.w3.org/2000/svg">
<path d="M19.4807 104.95C18.8157 104.79 18.1507 104.96 17.7207 105.125C16.7157 106.2 16.6857 107.875 17.7007 108.97C18.7607 110.12 20.5507 110.19 21.7007 109.13C21.9057 108.94 22.0657 108.715 22.2007 108.485C22.2807 106.64 20.5407 105.21 19.4857 104.955L19.4807 104.95Z" fill="black"/>
<path d="M44.1101 76.3351L40.7051 79.4801C45.4601 81.2651 46.6801 84.9751 46.9851 86.9851L50.9351 83.3351C50.2251 81.6001 48.3951 78.3801 44.1101 76.3301V76.3351Z" fill="black"/>
<path d="M40.2952 79.8601L40.2502 79.9001C39.0052 79.9551 37.5752 80.8751 35.2652 83.6301C32.0152 87.5051 29.0302 89.3901 29.0302 89.3901C29.0302 89.3901 13.3952 97.6101 17.7102 104.055C17.8152 104.215 17.9202 104.36 18.0252 104.505C18.4752 104.39 19.0302 104.325 19.5952 104.46C20.8352 104.76 22.8002 106.365 22.6952 108.5C24.4152 109.09 25.5402 108.545 25.5402 108.545C32.6552 105.82 34.7352 98.8201 38.6552 95.1151C42.5752 91.4051 44.7452 90.8601 46.2852 87.9751C46.3902 87.7801 46.4652 87.5801 46.5202 87.3751L46.5352 87.3901L46.5452 87.3801C46.3652 85.5701 45.3802 81.6251 40.2902 79.8501L40.2952 79.8601Z" fill="black"/>
<path d="M104.146 34.865C87.7422 18.5951 72.4008 18.23 72.4008 18.23C81.1008 22.67 85.3508 27.41 85.3508 27.41C101.516 45.045 98.1308 58.155 98.1308 58.155C98.1308 58.155 97.4808 67.685 85.1658 75.255C72.8508 82.825 52.2408 69.95 52.2408 69.95C51.5508 73.315 48.2308 76.03 47.0508 76.91C49.0558 78.355 50.3208 80 51.1058 81.38L53.3308 79.325C61.8108 85.805 66.6808 86.995 66.6808 86.995C94.2208 97.275 108.276 75.53 108.276 75.53C108.276 75.53 121.686 54.03 104.146 34.86V34.865ZM104.476 72.31C99.1958 81.295 88.5658 85.645 78.5508 86.405C85.1808 85.535 91.7958 83.31 97.1708 79.285C109.921 69.57 111.251 50.2 101.771 37.73C99.0008 34.02 95.6508 30.775 92.1808 27.715C97.4658 31.905 102.576 36.68 105.601 42.805C110.291 51.98 109.841 63.515 104.481 72.31H104.476Z" fill="black"/>
</svg>
