<svg width="128" height="128" viewBox="0 0 128 128" fill="none" xmlns="http://www.w3.org/2000/svg">
<g clip-path="url(#clip0_268_12825)">
<g clip-path="url(#clip1_268_12825)">
<path d="M38.7966 78.3063C41.2068 79.174 43.3665 79.4633 45.5422 79.7171C46.5963 79.8393 47.2326 79.3186 47.8914 78.6598C59.4994 67.0326 71.1138 55.4117 82.725 43.7941C91.0807 35.4384 98.9029 28.1047 101.3 25.8744C99.0668 28.275 91.7395 36.0972 83.3806 44.4497C71.763 56.0673 60.1389 67.6785 48.5149 79.2833C47.8561 79.9421 47.3354 80.5784 47.4575 81.6325C47.7082 83.8114 47.9942 85.9678 48.8684 88.3781C49.6975 87.549 50.3563 86.9416 50.9573 86.2828C63.3559 72.6116 75.6709 58.8697 88.1594 45.2821C97.9356 34.6446 111.996 19.9032 121.139 6.13885C121.052 6.19348 120.959 6.24811 120.869 6.30596C120.927 6.21598 120.984 6.12599 121.036 6.03601C107.275 15.1823 92.5333 29.2423 81.8926 39.0153C68.305 51.5038 54.5631 63.8188 40.8919 76.2174C40.2299 76.8151 39.6225 77.4804 38.7966 78.3063Z" fill="black"/>
<path d="M40.8361 80.1993C42.4366 80.3986 43.9727 80.6364 45.5185 80.7553C46.3541 80.8196 46.4473 81.3049 46.5276 81.938C46.714 83.4163 46.9229 84.8914 47.1286 86.389C44.3937 85.7816 42.128 83.5673 40.8393 80.2026L40.8361 80.1993Z" fill="black"/>
<path d="M39.8963 87.9026C38.7748 86.781 37.6467 85.6659 36.5316 84.5378C33.1475 81.1088 32.6397 75.8833 35.3039 71.8565C35.7185 71.2298 36.1652 70.5774 36.914 70.3107C37.4893 70.1082 38.1706 70.0054 38.5851 70.5613C39.0222 71.1462 38.3634 71.4708 38.0709 71.8533C37.5664 72.5121 36.9879 73.1227 36.5412 73.8201C35.0629 76.1275 35.5867 78.059 38.087 79.1131C39.0061 79.4987 39.5203 80.0258 39.9188 80.8999C41.1143 83.4966 42.8337 85.6851 45.4432 86.9771C46.8187 87.6584 47.8439 88.4136 48.4931 89.9626C49.2836 91.8394 51.0383 92.2315 52.8798 91.322C53.545 90.991 54.1396 90.4993 54.7277 90.0333C55.3479 89.5416 55.6854 88.5743 56.6816 88.7607C57.0737 88.8314 57.1155 89.3424 57.0962 89.7216C57.0448 90.7371 56.7684 91.4956 55.7368 92.103C50.9676 94.9182 46.266 94.4136 42.3998 90.5154C41.5482 89.6573 40.6933 88.8089 39.8385 87.954C39.8546 87.938 39.8706 87.9219 39.8835 87.909L39.8963 87.9026Z" fill="black"/>
<path d="M16.2271 121.194C14.1253 123.09 11.5929 123.797 8.80335 122.749C5.86279 121.647 4.16594 119.397 4.0374 116.248C3.91206 113.179 5.45144 110.964 8.09955 109.46C8.87727 109.017 9.54572 109.268 10.256 109.534C13.8489 110.891 16.2271 113.455 17.7279 116.936C18.5249 118.787 17.3583 119.902 16.2303 121.197L16.2271 121.194ZM14.2121 112.925C12.4799 111.212 9.89923 111.234 8.18953 112.976C6.5666 114.631 6.5666 117.492 8.18632 119.105C9.73855 120.651 12.8109 120.599 14.3535 118.999C15.9764 117.318 15.9121 114.606 14.2121 112.925Z" fill="black"/>
<path d="M38.7453 94.7028C37.8937 91.8586 36.8749 89.5351 35.1363 87.6101C34.7217 87.1505 34.6253 86.7199 35.0978 86.241C35.5766 85.7622 36.0458 85.5244 36.6596 86.0418C38.4015 87.5008 39.8894 89.188 41.2488 90.9974C41.6666 91.5501 41.5091 91.9454 41.0849 92.3632C40.3908 93.0509 39.703 93.7451 38.7421 94.706L38.7453 94.7028Z" fill="black"/>
<path d="M34.561 98.373C34.169 96.1813 33.748 94.147 33.1598 91.8813C35.1266 92.5819 37.7073 92.0388 38.1572 94.192C38.6232 96.432 35.8144 96.9076 34.5642 98.3698L34.561 98.373Z" fill="black"/>
<path d="M16.1309 107.291C16.0859 107.31 16.0441 107.333 16.0023 107.355C15.9155 107.404 15.8384 107.461 15.7645 107.529C15.411 107.857 15.1796 108.365 14.9 108.779C14.4597 109.438 15.0125 109.791 15.1957 109.93C15.3789 110.068 16.3976 110.759 16.5358 110.884C16.6579 111.025 17.3264 111.887 17.4903 112.224C17.6542 112.562 17.982 112.96 18.6408 112.52C19.0554 112.24 19.5663 112.012 19.8909 111.655C19.9584 111.588 20.0195 111.508 20.0645 111.418C20.087 111.376 20.1095 111.334 20.1287 111.289C20.1384 111.26 20.1512 111.228 20.1609 111.199C20.1673 111.18 20.1737 111.16 20.1802 111.141C20.4083 110.373 20.0934 109.223 19.2964 108.329C19.2932 108.326 19.29 108.316 19.29 108.31C19.2578 108.278 19.2289 108.249 19.2 108.22C19.1678 108.188 19.1389 108.159 19.11 108.13C19.1068 108.127 19.0971 108.123 19.0907 108.123C18.1973 107.326 17.0468 107.012 16.2787 107.24C16.2594 107.246 16.2401 107.253 16.2208 107.259C16.1919 107.269 16.1598 107.275 16.1309 107.291Z" fill="black"/>
<path d="M30.7112 102.172C30.3898 100.558 30.0813 99.4849 29.9977 98.3923C29.9334 97.5567 28.7219 96.3772 29.9141 95.9627C31.1032 95.5513 32.8161 95.7924 33.7063 96.7854C34.4326 97.5953 34.1145 98.9032 33.115 99.7806C32.3887 100.417 31.7363 101.14 30.7079 102.168L30.7112 102.172Z" fill="black"/>
<path d="M33.5425 95.6962C31.2126 95.4102 29.2554 94.9635 26.813 95.1885C28.5548 93.4723 29.3808 90.9046 31.8875 91.618C33.3883 92.0454 32.7584 94.2115 33.5425 95.6962Z" fill="black"/>
<path d="M30.8401 90.885C32.026 89.7506 32.6526 87.4528 34.2788 87.7806C35.9017 88.1051 36.2874 90.3226 37.335 92.0966C34.9569 91.7238 32.9933 91.0714 30.8401 90.885Z" fill="black"/>
<path d="M23.4737 99.2281C24.2803 98.2736 24.8845 97.6052 25.4341 96.8949C26.0768 96.0658 26.9059 95.5259 27.9343 95.6287C29.1427 95.7508 28.892 96.972 29.2263 97.7305C29.7437 98.9164 29.7854 99.7294 27.9986 99.4338C26.6328 99.2056 25.2091 99.2924 23.4769 99.2249L23.4737 99.2281Z" fill="black"/>
<path d="M27.1118 104.858C26.7744 103.499 26.6779 102.413 26.2344 101.494C25.5371 100.057 26.093 99.7132 27.3689 99.9478C28.333 100.121 29.7117 99.5911 30.1198 100.918C30.4766 102.079 29.5607 102.847 28.693 103.509C28.227 103.865 27.7963 104.27 27.1118 104.858Z" fill="black"/>
<path d="M20.6075 102.75C21.3403 101.889 21.8287 101.259 22.3686 100.687C23.0178 99.9991 23.9369 99.4914 24.7629 99.906C25.6627 100.356 25.6949 101.532 25.907 102.458C26.0644 103.149 25.5213 103.081 25.0585 103.049C23.7248 102.949 22.3911 102.869 20.6075 102.75Z" fill="black"/>
<path d="M23.553 107.15C23.1673 106.95 22.6788 103.647 22.9616 103.614C24.0704 103.476 25.433 103.258 26.1946 103.955C27.2423 104.919 24.5203 107.654 23.553 107.156L23.553 107.15Z" fill="black"/>
<path d="M11.5858 109.444C15.1595 109.502 17.6148 111.912 17.8622 115.656C16.3196 113.028 14.4525 110.743 11.5858 109.444Z" fill="black"/>
<path d="M17.9147 106.793C17.8118 106.754 17.8247 106.6 17.9372 106.584C18.8852 106.472 20.1322 106.51 20.9999 106.51C21.6169 106.51 22.9956 106.533 22.957 107.619C22.9281 108.458 20.5692 109.73 20.5692 109.73C20.5692 109.73 20.3828 107.699 17.9147 106.793Z" fill="black"/>
<path d="M18.3255 105.713C19.3893 104.553 19.9227 103.178 21.295 103.412C22.5773 103.634 22.227 105.07 22.6769 106.305C21.2468 106.109 20.0352 105.945 18.3223 105.71L18.3255 105.713Z" fill="black"/>
<path d="M13.8314 113.4C12.3831 111.952 10.0349 111.952 8.58658 113.4C7.13827 114.849 7.13827 117.197 8.58658 118.645C10.0349 120.093 12.3831 120.093 13.8314 118.645C15.2797 117.197 15.2797 114.849 13.8314 113.4Z" fill="black"/>
</g>
</g>
<defs>
<clipPath id="clip0_268_12825">
<rect width="128" height="128" fill="white"/>
</clipPath>
<clipPath id="clip1_268_12825">
<rect width="29.0419" height="162.635" fill="white" transform="translate(16.5 131.5) rotate(-135)"/>
</clipPath>
</defs>
</svg>
