<svg width="128" height="128" viewBox="0 0 128 128" fill="none" xmlns="http://www.w3.org/2000/svg">
<path d="M33.278 86.6748L33.158 86.7948L32.653 86.2798L9.83802 108.065C7.88802 111.215 8.05802 113.6 10.423 115.625C12.788 117.645 14.008 116.84 16.168 116.35C18.323 115.865 24.013 107.28 24.013 107.28C24.013 107.28 29.243 101.23 31.603 100.16C33.963 99.0898 39.248 98.9498 39.248 98.9498L42.383 95.9798L33.278 86.6748ZM14.328 112.265C13.943 112.64 13.328 112.635 12.953 112.25C12.578 111.865 12.583 111.25 12.968 110.875C13.353 110.5 13.968 110.505 14.343 110.89C14.718 111.275 14.713 111.89 14.328 112.265ZM22.323 103.665C21.938 104.04 21.323 104.035 20.948 103.65C20.573 103.265 20.578 102.65 20.963 102.275C21.348 101.9 21.963 101.905 22.338 102.29C22.713 102.675 22.708 103.29 22.323 103.665ZM30.373 96.5598C29.988 96.9348 29.373 96.9298 28.998 96.5448C28.623 96.1598 28.628 95.5448 29.013 95.1698C29.398 94.7948 30.013 94.7998 30.388 95.1848C30.763 95.5698 30.758 96.1848 30.373 96.5598Z" fill="black"/>
<path d="M119.002 20.01C113.747 17.72 98.2622 11 98.2622 11C95.7872 16.725 89.8872 28.665 83.4372 36C70.5272 50.69 56.7272 63.73 56.7272 63.73L33.9922 85.98L35.0122 87.025L77.0222 46.26L35.3572 87.38L35.9722 88.01L77.9822 47.245L36.3172 88.365L36.9322 88.995L78.9422 48.23L37.2772 89.35L37.8922 89.98L79.9022 49.215L38.2372 90.335L43.1072 95.315L56.6372 82.495L56.5722 81.24L119.002 20.03V20.01ZM54.5922 81.955L46.0472 90.195L45.9772 90.125L54.3522 81.81C54.3322 81.685 54.1322 80.56 54.1322 80.56L54.1172 80.485L54.1722 80.43C70.5872 63.745 94.0122 39.095 110.467 22.64C109.622 21.995 100.997 15 100.997 15L101.057 14.92L112.177 22.315L112.667 22.64L112.242 23.07C103.967 31.415 91.8322 43.49 83.3672 51.91C83.3822 51.805 54.1222 81.06 54.4222 80.51L54.6322 81.835L54.6422 81.905L54.5922 81.955Z" fill="black"/>
</svg>
