<svg width="128" height="128" viewBox="0 0 128 128" fill="none" xmlns="http://www.w3.org/2000/svg">
<path d="M83.4766 16.5301L81.4716 13.9601L82.6816 12.4101C82.9466 12.0751 82.8866 11.5851 82.5466 11.3251L73.8216 4.51514L74.0166 10.5551C67.1716 10.0451 69.5866 16.2301 69.5866 16.2301L63.9766 17.8101L72.5966 24.5401C72.8366 24.7251 73.1766 24.6851 73.3616 24.4451L74.4516 23.0451C76.0416 22.4101 77.4116 22.6101 78.4266 22.9951L83.4766 16.5251V16.5301ZM71.6116 17.4851C70.2416 17.8501 68.8616 18.1851 67.4666 18.4651C68.6816 17.9601 69.9116 17.5001 71.1516 17.0701C69.2916 13.4101 71.6116 11.3451 75.3616 11.6751C75.3666 10.3501 75.4016 9.03014 75.4866 7.70514C75.6866 9.21514 75.8216 10.7301 75.9216 12.2501C74.0066 12.1101 70.8166 12.4651 71.1766 15.0651C71.2416 15.8501 71.5816 16.6501 71.9066 17.4001L71.6116 17.4801V17.4851Z" fill="black"/>
<path d="M100.491 25.335L90.3609 17.43C90.0359 17.175 89.6359 17.04 89.2259 17.04L83.9509 17.055L79.0809 23.295C79.8309 23.69 80.2609 24.115 80.2609 24.115C85.0459 27.85 82.2459 31.74 82.2459 31.74L78.8809 35.815L84.5259 40.22L87.5559 36.225C87.5559 36.225 91.6209 32.68 94.0859 34.455C96.5509 36.23 95.5459 40.805 95.5459 40.805C105.236 42.025 117.371 53.16 117.371 53.16C116.341 45.06 107.996 33.78 104.266 29.08C103.161 27.685 101.891 26.435 100.491 25.34V25.335ZM85.9709 32.85C84.9359 32.38 84.7659 31.015 85.6559 30.305C86.0759 29.97 86.6759 29.9 87.1609 30.12C88.1959 30.59 88.3659 31.955 87.4759 32.665C87.0559 33 86.4559 33.07 85.9709 32.85ZM97.2259 34.705C95.8559 34 95.6309 32.175 96.7909 31.16C97.4309 30.595 98.3959 30.475 99.1559 30.87C100.526 31.575 100.751 33.4 99.5909 34.415C98.9509 34.98 97.9859 35.1 97.2259 34.705ZM101.306 37.5C100.271 37.03 100.101 35.665 100.991 34.955C101.411 34.62 102.011 34.55 102.496 34.77C103.531 35.24 103.701 36.605 102.811 37.315C102.391 37.65 101.791 37.72 101.306 37.5ZM104.011 39.66C103.611 39.35 103.541 38.77 103.851 38.37C104.161 37.97 104.741 37.9 105.141 38.21C105.541 38.52 105.611 39.1 105.301 39.5C104.991 39.9 104.411 39.97 104.011 39.66ZM113.481 47.08C107.091 37.17 101.876 27.285 91.7059 20.72C91.5409 20.595 90.5609 19.94 90.5609 19.94C95.8109 22.905 100.711 26.885 104.426 31.575C107.246 35.095 109.361 39.035 111.531 43.015C112.251 44.335 113.256 46.24 113.786 47.65L113.486 47.08H113.481Z" fill="black"/>
<path d="M22.8259 103.99C22.5859 103.805 22.2409 103.845 22.0509 104.08C20.5609 105.915 19.4809 107.255 18.9959 107.88C16.4959 111.12 18.3559 114.065 19.5759 115.445C20.0259 115.955 20.5559 116.4 21.1359 116.76C23.8859 118.465 25.8259 117.865 27.4109 116.81C28.0109 116.415 28.8459 115.61 29.2709 115.03L31.7709 111.66C31.9509 111.42 31.9059 111.08 31.6659 110.895L22.8209 103.995L22.8259 103.99Z" fill="black"/>
<path d="M44.8564 93.1105L36.8614 86.8705C36.6264 86.6855 36.2814 86.7255 36.0914 86.9555C35.2964 87.9205 34.5064 88.8805 33.7214 89.8355C33.5214 90.0755 33.5664 90.4305 33.8114 90.6205L41.9514 96.9755C42.1964 97.1655 42.5514 97.1205 42.7364 96.8705L44.9564 93.8755C45.1364 93.6355 45.0914 93.2955 44.8514 93.1105H44.8564Z" fill="black"/>
<path d="M34.9659 106.445L26.3259 99.7002C26.0909 99.5152 25.7459 99.5552 25.5559 99.7902C24.7109 100.825 23.9209 101.79 23.1959 102.675C23.0009 102.915 23.0409 103.265 23.2859 103.46L32.0659 110.31C32.3109 110.5 32.6659 110.455 32.8509 110.205L35.0709 107.21C35.2509 106.97 35.2059 106.63 34.9659 106.445Z" fill="black"/>
<path d="M38.2609 102L29.8309 95.4205C29.5959 95.2355 29.2509 95.2755 29.0609 95.5105C28.2409 96.5055 27.4509 97.4705 26.6959 98.3955C26.5009 98.6355 26.5409 98.9905 26.7859 99.1805L35.3609 105.87C35.6059 106.06 35.9609 106.015 36.1459 105.765L38.3659 102.77C38.5459 102.53 38.5009 102.19 38.2609 102.005V102Z" fill="black"/>
<path d="M67.0766 64.5052C66.3816 64.1902 64.8566 63.4252 63.1066 62.0602C61.9116 61.1302 60.6166 59.9202 59.4066 58.3852L59.4466 58.3502C55.0316 58.3252 55.8666 62.6652 55.9166 62.9102C58.8116 66.6552 62.0966 68.2902 63.5616 68.8702C67.5116 68.7702 67.4066 65.9802 67.0716 64.5052H67.0766ZM57.5366 61.7752C57.3116 61.6002 57.3466 61.1702 57.6216 60.8202C57.8966 60.4702 58.3016 60.3302 58.5266 60.5052C58.7516 60.6802 58.7166 61.1102 58.4416 61.4602C58.1666 61.8102 57.7616 61.9502 57.5316 61.7752H57.5366ZM60.8866 64.7852C60.5416 64.5152 60.4816 64.0152 60.7516 63.6702C61.0216 63.3252 61.5216 63.2652 61.8666 63.5352C62.2116 63.8052 62.2716 64.3052 62.0016 64.6502C61.7316 64.9952 61.2316 65.0552 60.8866 64.7852ZM64.4616 67.1802C64.2366 67.0052 64.2766 66.5802 64.5516 66.2302C64.8266 65.8802 65.2316 65.7352 65.4516 65.9102C65.6716 66.0852 65.6366 66.5102 65.3616 66.8602C65.0866 67.2102 64.6816 67.3552 64.4616 67.1802Z" fill="black"/>
<path d="M63.0917 69.4402C62.1417 69.0502 60.6567 68.3152 59.0067 67.0302C57.8617 66.1352 56.6467 64.9602 55.4767 63.4702C54.0967 65.1402 49.6417 70.5252 44.2917 77.0202C44.0917 77.2602 44.1317 77.6202 44.3767 77.8102L51.8517 83.6452C52.0967 83.8352 52.4517 83.7902 52.6367 83.5402L63.0917 69.4452V69.4402Z" fill="black"/>
<path d="M60.2765 58.3354C62.6865 61.2454 65.4215 62.8904 66.8115 63.5954L83.5515 42.4354C83.8765 42.0254 83.8115 41.4254 83.3965 41.0954L78.1765 36.9354C77.7615 36.6054 77.1565 36.6754 76.8265 37.0954L60.2715 58.3354H60.2765Z" fill="black"/>
<path d="M48.1568 88.6656L40.3818 82.6006C40.1468 82.4156 39.8068 82.4506 39.6168 82.6856C38.8318 83.6406 38.0368 84.6006 37.2468 85.5656C37.0468 85.8056 37.0868 86.1606 37.3318 86.3556L45.2518 92.5406C45.4968 92.7306 45.8518 92.6856 46.0368 92.4356L48.2568 89.4406C48.4368 89.2006 48.3918 88.8606 48.1518 88.6756L48.1568 88.6656Z" fill="black"/>
<path d="M41.5608 97.5555L33.3458 91.1454C33.1108 90.9604 32.7658 91.0005 32.5758 91.2305C31.7708 92.2105 30.9808 93.1705 30.2058 94.1105C30.0058 94.3505 30.0508 94.7054 30.2958 94.8954L38.6558 101.42C38.9008 101.61 39.2558 101.565 39.4408 101.315L41.6608 98.3205C41.8408 98.0805 41.7958 97.7405 41.5558 97.5555H41.5608Z" fill="black"/>
<path d="M51.4513 84.2205L43.9013 78.3305C43.6663 78.1455 43.3263 78.1805 43.1363 78.4105C42.3563 79.3555 41.5663 80.3155 40.7663 81.2855C40.5663 81.5255 40.6063 81.8855 40.8513 82.0755L48.5513 88.0855C48.7963 88.2755 49.1513 88.2305 49.3363 87.9805L51.5563 84.9855C51.7363 84.7455 51.6913 84.4055 51.4513 84.2205Z" fill="black"/>
</svg>
