<svg width="128" height="128" viewBox="0 0 128 128" fill="none" xmlns="http://www.w3.org/2000/svg">
<path d="M89.3663 31.085L89.4963 31.23L89.3613 31.09L89.3663 31.085Z" fill="black"/>
<path d="M107.936 33.8847C104.846 36.2997 102.086 39.1397 99.7963 42.3397C99.2763 42.2147 97.2913 41.6047 97.8463 39.5647L97.7937 39.4796L97.6532 39.3038L97.5013 39.1097L89.5063 31.2397L89.4963 31.2297L89.3663 31.0847L89.1113 30.7997C87.0813 31.3297 86.4813 29.3497 86.3613 28.8347C89.5463 26.5447 92.4213 23.8197 94.8413 20.7197C97.1063 21.1797 96.4613 23.4997 96.4613 23.4997L96.4813 23.5247C96.4813 23.5247 96.4713 23.5347 96.4663 23.5397L96.7196 23.8512L97.0887 24.2986L104.411 31.5597L105.121 32.2697C105.121 32.2697 105.141 32.2547 105.151 32.2447L105.161 32.2547C105.161 32.2547 107.486 31.6147 107.936 33.8847Z" fill="black"/>
<path d="M98.3861 25.5999C99.5761 24.0899 100.756 23.8349 101.701 24.0149C101.501 24.2149 101.521 24.5399 101.761 24.9899C101.946 25.3399 102.256 25.7399 102.631 26.1149C103.081 26.5649 103.851 27.1849 104.381 27.1849C104.496 27.1849 104.596 27.1499 104.686 27.0799C104.826 28.0099 104.536 29.1549 103.071 30.2999C102.323 29.768 98.4382 25.8294 98.3861 25.5999Z" fill="black"/>
<path d="M119.261 44.4252L121.701 41.9952L119.761 40.0502L120.216 39.6002L113.541 32.9052L113.136 33.3152L110.881 31.0552C106.617 35.3107 103.696 38.5819 97.7812 44.4852L99.7663 46.4752L99.3563 46.8802L106.026 53.5702L106.386 53.2102L108.371 55.2002L110.816 52.7602L110.861 52.8052C111.156 53.1052 111.641 53.1102 111.941 52.8102L119.346 45.4252C119.601 45.1752 119.601 44.7652 119.346 44.5102L119.266 44.4252H119.261ZM114.746 42.2852C114.746 42.2852 112.166 39.6902 111.211 38.7352L108.206 41.7302L106.841 43.1202L105.526 44.4352L104.411 44.4602C104.411 44.4602 109.876 39.0102 110.946 37.9402L111.216 37.6752L111.481 37.9402C112.061 38.5302 114.411 40.8852 114.411 40.8852L115.801 42.2702L114.746 42.2852Z" fill="black"/>
<path d="M104.57 26.4749C104.57 26.3949 104.35 25.8299 103.62 25.0949C102.94 24.4149 102.405 24.1749 102.24 24.1699C102.24 24.3349 102.48 24.8749 103.16 25.5549C103.89 26.2899 104.46 26.5049 104.575 26.4749H104.57Z" fill="black"/>
<path d="M96.9059 18.495L94.6509 16.23L95.0559 15.825L88.3859 9.13502L87.9359 9.59002L85.9959 7.64502L83.5559 10.075C83.2559 9.78002 82.7759 9.78002 82.4759 10.075L75.1509 17.375C74.8509 17.675 74.8509 18.16 75.1509 18.46L75.1959 18.505L72.7559 20.94L74.7359 22.925L74.3709 23.285L81.0459 29.98L81.4509 29.575L83.4309 31.56C87.8651 27.1432 92.4725 22.9109 96.9059 18.495ZM89.4309 18.37C89.4309 18.37 86.8509 15.775 85.8959 14.82L82.8909 17.82L81.5259 19.205L80.2109 20.52L79.0909 20.545C79.0909 20.545 84.5609 15.095 85.6309 14.025L85.8959 13.76L86.1609 14.03C86.7459 14.615 89.0959 16.97 89.0959 16.97L90.4809 18.36L89.4309 18.37Z" fill="black"/>
<path d="M94.3856 39.595H94.3906L89.1956 34.38H89.1906L88.1506 33.345C88.1506 33.345 86.8306 33.25 86.7656 34.725L87.8156 35.78L92.9856 40.965L94.0356 42.015C95.5106 41.955 95.4206 40.635 95.4206 40.635L94.3806 39.595H94.3856Z" fill="black"/>
<path d="M89.4907 31.9851C89.4907 31.9851 88.0657 31.8151 88.1207 33.3501L95.4157 40.6701C96.9557 40.7301 96.7857 39.3051 96.7857 39.3051L89.4907 31.9851Z" fill="black"/>
<path d="M92.6251 41.3153L87.4551 36.1303L87.4451 36.1403L86.7101 35.4053L86.3901 35.7353C86.0501 36.0853 86.0551 36.6453 86.4001 36.9903L86.4851 37.0753L84.8301 38.7253L90.0251 43.9353L91.6801 42.2853L91.8301 42.4403C92.1351 42.7503 92.6351 42.7553 92.9501 42.4503L93.3501 42.0653L92.6101 41.3253L92.6201 41.3153H92.6251Z" fill="black"/>
<path d="M34.7296 89.4017L20.543 103.549L25.0056 108.024L39.1923 93.8769L34.7296 89.4017Z" fill="black"/>
<path d="M62.7209 61.4849L61.9609 62.2399C63.4759 63.7949 65.3159 65.2399 67.3059 65.8649L69.6409 63.5399C69.6059 63.5399 69.5709 63.5399 69.5359 63.5399C67.2059 63.5399 64.7759 62.5949 62.7209 61.4849Z" fill="black"/>
<path d="M14.8605 107.09L13.0605 108.885C13.0605 108.885 11.1855 111.43 13.9105 114.64C17.1155 117.38 19.6605 115.51 19.6605 115.51L21.4605 113.715L14.8605 107.09Z" fill="black"/>
<path d="M65.7461 67.4251L66.8861 66.2851C64.8961 65.6001 63.0811 64.1601 61.5811 62.6201L60.7461 63.4501C62.1261 64.9951 63.8461 66.5401 65.7411 67.4201L65.7461 67.4251Z" fill="black"/>
<path d="M17.2359 105.245L16.9709 104.975C16.9709 104.975 15.3359 104.825 15.2109 106.73L16.2609 107.785L20.7609 112.305L21.8109 113.355C23.6559 113.24 23.5809 111.71 23.5709 111.61L17.2259 105.25L17.2359 105.245Z" fill="black"/>
<path d="M60.3762 63.8252L38.9512 85.1902L43.4262 89.6802L65.3462 67.8252C63.4462 66.9052 61.7462 65.3602 60.3762 63.8252Z" fill="black"/>
<path d="M83.6452 38.9551C83.5202 38.8551 83.3402 38.8551 83.2252 38.9701L82.7852 39.4101C82.4502 39.7401 82.4502 40.2801 82.7852 40.6151L83.2202 41.0501L63.1152 61.0951C65.2802 62.2401 67.8352 63.1801 70.1952 62.9901L87.6952 45.5401L88.1952 46.0401C88.4952 46.3401 88.9752 46.3401 89.2752 46.0401L89.7052 45.6151C89.8602 45.4601 89.8652 45.2101 89.7252 45.0451L83.6552 38.9551H83.6452Z" fill="black"/>
<path d="M19.1148 102.84C19.1148 102.84 17.3448 102.545 17.3398 104.61L23.9448 111.23C26.0098 111.23 25.7198 109.46 25.7198 109.46L19.1148 102.84Z" fill="black"/>
<path d="M43.07 90.0298L38.595 85.5448L38.585 85.5548L37.17 84.1348L36.425 84.2048L33.74 86.8848L33.625 87.5848L35.09 89.0498L35.085 89.0548L39.545 93.5298H39.55L41.015 94.9948L41.715 94.8848L44.405 92.2048L44.47 91.4598L43.06 90.0448L43.07 90.0298Z" fill="black"/>
</svg>
