<svg width="128" height="128" viewBox="0 0 128 128" fill="none" xmlns="http://www.w3.org/2000/svg">
<g clip-path="url(#clip0_268_12822)">
<path d="M96.972 28.2984C94.7263 22.4718 89.7744 26.0527 89.7744 26.0527C89.7744 26.0527 94.3759 28.1015 93.2095 30.7257C92.5624 32.1811 91.483 32.1914 90.1914 32.2604C89.7335 32.2834 89.3857 32.662 89.3703 33.1224C89.3575 33.4881 89.291 33.9383 89.1069 34.4294C88.7513 35.3681 88.0224 36.0101 87.0223 37.046C87.2116 38.0742 89.0532 40.233 90.639 40.7343C91.9076 39.5475 92.368 38.9899 93.1788 38.619C93.5651 38.4426 94.1406 38.3172 94.6138 38.2789C94.9846 38.2507 95.289 37.977 95.3836 37.6164C95.5832 36.8593 96.0794 35.7441 97.1638 35.207C98.5629 34.5138 100.944 35.4627 102.794 39.0769C105.003 34.964 102.292 32.8717 100.852 32.1837C104.574 30.8971 107.244 28.3087 110.827 23.9579C114.311 19.7324 115.585 17.676 123.279 2.69256C112.856 12.0873 105.865 19.3999 96.9695 28.2959L96.972 28.2984ZM100.052 31.0097L99.9595 31.1171C99.1768 31.1478 98.4069 31.3652 97.6805 31.6466C95.4987 32.4523 93.7774 34.854 94.3094 37.2071C92.8591 36.3196 91.4651 35.1865 90.7311 33.6135L90.7848 33.5802C91.2094 34.2248 91.68 34.8387 92.2606 35.3323C92.7338 35.739 93.2556 36.0868 93.7953 36.4117C93.6751 34.9256 94.4347 33.4754 95.4425 32.4267C96.417 31.3703 97.7931 30.8178 99.1717 30.5493C99.3226 30.5211 99.4838 30.4981 99.6423 30.4828C106.298 22.9271 113.434 14.2818 120.107 6.95893C114.28 13.9314 105.835 24.1676 100.052 31.0097Z" fill="black"/>
<path d="M30.4263 99.6066C32.6516 105.377 37.5522 101.832 37.5522 101.832C37.5522 101.832 32.9943 99.8061 34.1504 97.2023C34.7899 95.7597 35.8616 95.752 37.1379 95.683C37.5906 95.66 37.9359 95.284 37.9513 94.8287C37.964 94.468 38.028 94.0204 38.2147 93.5319C38.537 92.6725 39.1815 92.0637 40.0589 91.166C40.1637 91.0611 40.1202 90.8897 39.9821 90.8335C38.4833 90.2503 37.3195 89.0456 36.7926 87.5876C36.7414 87.4495 36.5701 87.4009 36.4626 87.5032C35.3781 88.5315 34.9305 89.0353 34.1811 89.3806C33.8 89.5571 33.2322 89.6799 32.759 89.7183C32.3907 89.749 32.0914 90.0175 31.9968 90.3731C31.7998 91.1225 31.3062 92.23 30.2345 92.7595C28.8481 93.4449 26.4924 92.5062 24.6585 88.9279C22.4716 93.0024 25.1573 95.0742 26.582 95.752C22.8962 97.0233 20.2515 99.5913 16.7013 103.899C13.2509 108.086 11.9873 110.122 4.37026 124.957C14.6934 115.652 21.6148 108.408 30.4263 99.5964L30.4263 99.6066ZM27.3749 96.9184L27.467 96.811C28.2394 96.7803 29.0042 96.5629 29.7255 96.2866C31.8868 95.486 33.5903 93.1124 33.0659 90.7772C34.5034 91.6571 35.8846 92.7774 36.611 94.3376L36.5573 94.3708C36.1352 93.734 35.6723 93.1227 35.0968 92.6341C34.6287 92.2326 34.1146 91.8873 33.5775 91.565C33.6951 93.0383 32.9431 94.4706 31.9456 95.5142C30.9788 96.5629 29.618 97.1051 28.2496 97.3737C28.0987 97.4018 27.9401 97.4223 27.7841 97.4402C21.1902 104.924 14.1256 113.488 7.51377 120.739C13.2841 113.833 21.6506 103.696 27.3749 96.9184Z" fill="black"/>
<path d="M66.9319 64.4065L66.9191 64.4193C66.7528 64.5855 66.5124 64.6316 66.3385 64.5293C65.763 64.1891 65.1823 63.7619 64.6529 63.2325C64.1234 62.703 63.6937 62.1147 63.3561 61.5367C63.2563 61.3653 63.3024 61.1249 63.4686 60.9586L63.4814 60.9458C63.7039 60.7233 64.0416 60.7284 64.1823 60.9561C64.5071 61.4804 64.9061 62.0124 65.3921 62.4984C65.8781 62.9844 66.3998 63.3783 66.9267 63.7057C67.1544 63.8463 67.1569 64.1814 66.9344 64.4039L66.9319 64.4065Z" fill="black"/>
<path d="M63.5822 67.8054L63.5695 67.8182C63.4032 67.9845 63.1628 68.0305 62.9888 67.9282C62.4133 67.588 61.8327 67.1609 61.3033 66.6314C60.7738 66.1019 60.3441 65.5137 60.0065 64.9356C59.9067 64.7642 59.9528 64.5238 60.119 64.3575L60.1318 64.3448C60.3543 64.1222 60.692 64.1273 60.8326 64.355C61.1575 64.8793 61.5565 65.4113 62.0425 65.8973C62.5284 66.3833 63.0502 66.7772 63.5771 67.1046C63.8048 67.2453 63.8073 67.5803 63.5848 67.8029L63.5822 67.8054Z" fill="black"/>
<path d="M65.8434 66.7569C65.2091 67.3913 65.8255 66.7748 65.8255 66.7748C65.5953 67.005 64.8408 67.4936 64.6029 67.3529C63.8126 66.8848 63.0094 66.2965 62.283 65.5701C61.5566 64.8437 60.9632 64.0304 60.4977 63.2374C60.3596 63.0021 60.8481 62.2476 61.0783 62.0174C61.0783 62.0174 60.3212 62.7745 61.0962 61.9995C61.8712 61.2245 62.4646 61.1017 62.659 61.4138C63.1066 62.1376 63.654 62.864 64.3241 63.5342C64.9943 64.2043 65.713 64.744 66.4343 65.1941C66.7463 65.3885 66.4854 66.1201 65.8486 66.7569L65.8434 66.7569Z" fill="black"/>
<path d="M77.1441 46.955L76.1798 47.7812C75.8064 48.1035 75.4406 48.4385 75.0902 48.7838C74.9802 49.0217 74.8677 49.2621 74.7628 49.5051C74.1847 50.8556 73.7167 52.265 73.5197 53.7203C73.3509 54.9481 73.3637 56.2551 73.8471 57.4086L76.6428 55.012C76.2796 54.3214 76.0852 53.5643 76.0238 52.7867C75.8575 50.7891 76.3844 48.8196 77.1415 46.9525L77.1441 46.955Z" fill="black"/>
<path d="M70.5824 56.659C70.4314 57.7767 70.4314 58.9533 70.7947 60.0276L73.5647 57.6514C73.2936 57.0426 73.1427 56.3904 73.0864 55.7254C72.9099 53.6101 73.5084 51.523 74.3423 49.5586C74.1811 49.7351 74.0226 49.909 73.8665 50.0906L71.7973 52.5077C71.232 53.8352 70.7767 55.2266 70.5798 56.6615L70.5824 56.659Z" fill="black"/>
<path d="M85.32 39.9466L83.128 41.8266C82.7622 42.8267 82.4758 43.8549 82.3351 44.9062C82.1637 46.1671 82.1867 47.51 82.706 48.684L85.2382 45.7272C85.0131 45.1696 84.8877 44.5736 84.8391 43.9726C84.724 42.6093 84.9363 41.2562 85.3226 39.9441L85.32 39.9466Z" fill="black"/>
<path d="M71.0573 53.3748L68.4944 56.3674C68.1031 57.4136 67.7961 58.493 67.6452 59.6005C67.5096 60.6006 67.4943 61.6544 67.7552 62.6365L70.5022 60.2834C70.313 59.7667 70.1979 59.2219 70.1518 58.6694C70.0009 56.8662 70.4178 55.0834 71.0573 53.38L71.0573 53.3748Z" fill="black"/>
<path d="M81.9019 46.9138C81.7714 45.351 82.0656 43.8036 82.5643 42.3124L80.4286 44.1412C79.9477 45.3331 79.5692 46.5711 79.3978 47.8474C79.2111 49.221 79.2495 50.6917 79.9196 51.9347C79.9836 51.8606 80.0501 51.789 80.1166 51.7122L82.4544 48.9856C82.1398 48.3385 81.9658 47.6326 81.907 46.9138L81.9019 46.9138Z" fill="black"/>
<path d="M67.215 61.6006C67.0897 60.089 67.3608 58.5901 67.8263 57.1424L64.6905 60.8C64.6905 60.8 64.9207 61.5418 65.6292 62.2503C66.3377 62.9588 67.0897 63.1992 67.0897 63.1992L67.4529 62.8872C67.3276 62.4703 67.2483 62.038 67.2125 61.5981L67.215 61.6006Z" fill="black"/>
<path d="M85.8552 39.4861C85.5917 40.2969 85.382 41.1257 85.2669 41.9723C85.1109 43.1156 85.116 44.3229 85.5073 45.415L89.2903 41.0029C89.2903 41.0029 88.7071 40.6704 87.9577 39.9209C87.2082 39.1715 86.8911 38.6037 86.8911 38.6037L85.8577 39.4887L85.8552 39.4861Z" fill="black"/>
<path d="M79.6271 52.1653C79.2306 51.4517 79.0311 50.6587 78.9646 49.8505C78.8188 48.078 79.2178 46.3233 79.8368 44.6454L77.7676 46.418C77.7471 46.4691 77.7215 46.5152 77.7011 46.5663C77.123 47.9168 76.655 49.3261 76.458 50.7815C76.2764 52.1192 76.3122 53.5465 76.9286 54.7665L77.8008 54.0171C78.4582 53.4518 79.0823 52.8482 79.6655 52.2088C79.6527 52.196 79.6373 52.1806 79.6245 52.1627L79.6271 52.1653Z" fill="black"/>
<path d="M50.064 73.7451L49.0997 74.5712C48.7263 74.8935 48.3605 75.2286 48.0101 75.5739C47.9001 75.8117 47.7876 76.0522 47.6827 76.2952C47.1047 77.6457 46.6366 79.055 46.4396 80.5104C46.2708 81.7381 46.2836 83.0451 46.767 84.1987L49.5627 81.802C49.1995 81.1114 49.0051 80.3543 48.9437 79.5768C48.7774 77.5792 49.3043 75.6097 50.0614 73.7425L50.064 73.7451Z" fill="black"/>
<path d="M43.5023 83.4519C43.3514 84.5697 43.3514 85.7463 43.7146 86.8205L46.4846 84.4444C46.2135 83.8356 46.0626 83.1834 46.0063 82.5184C45.8299 80.4031 46.4284 78.3159 47.2622 76.3516C47.1011 76.528 46.9425 76.702 46.7865 76.8836L44.7172 79.3007C44.152 80.6282 43.6967 82.0196 43.4997 83.4545L43.5023 83.4519Z" fill="black"/>
<path d="M58.2399 66.7391L56.0479 68.6191C55.6821 69.6192 55.3957 70.6474 55.255 71.6986C55.0836 72.9596 55.1067 74.3024 55.6259 75.4765L58.1581 72.5197C57.933 71.9621 57.8077 71.3661 57.7591 70.7651C57.644 69.4018 57.8563 68.0487 58.2425 66.7366L58.2399 66.7391Z" fill="black"/>
<path d="M43.9752 80.1649L41.4124 83.1575C41.021 84.2036 40.7141 85.283 40.5632 86.3905C40.4276 87.3906 40.4123 88.4444 40.6732 89.4266L43.4202 87.0734C43.2309 86.5568 43.1158 86.012 43.0698 85.4595C42.9189 83.6562 43.3358 81.8735 43.9752 80.17L43.9752 80.1649Z" fill="black"/>
<path d="M54.8199 73.7039C54.6894 72.1411 54.9835 70.5936 55.4823 69.1025L53.3466 70.9313C52.8657 72.1232 52.4872 73.3611 52.3158 74.6375C52.1291 76.011 52.1674 77.4817 52.8376 78.7248C52.9015 78.6506 52.968 78.579 53.0345 78.5023L55.3723 75.7757C55.0577 75.1286 54.8838 74.4226 54.825 73.7039L54.8199 73.7039Z" fill="black"/>
<path d="M40.131 88.3931C40.0057 86.8815 40.2768 85.3826 40.7423 83.9349L37.6065 87.5925C37.6065 87.5925 37.8367 88.3343 38.5452 89.0428C39.2537 89.7513 40.0057 89.9917 40.0057 89.9917L40.3689 89.6797C40.2436 89.2627 40.1643 88.8305 40.1285 88.3905L40.131 88.3931Z" fill="black"/>
<path d="M58.7771 66.2786C58.5136 67.0894 58.3039 67.9181 58.1888 68.7648C58.0327 69.9081 58.0379 71.1154 58.4292 72.2075L62.2121 67.7954C62.2121 67.7954 61.629 67.4629 60.8795 66.7134C60.1301 65.964 59.813 65.3962 59.813 65.3962L58.7796 66.2812L58.7771 66.2786Z" fill="black"/>
<path d="M52.5431 78.9578C52.1467 78.2441 51.9471 77.4512 51.8806 76.643C51.7348 74.8704 52.1339 73.1158 52.7528 71.4379L50.6836 73.2104C50.6631 73.2616 50.6376 73.3076 50.6171 73.3588C50.039 74.7093 49.571 76.1186 49.374 77.574C49.1924 78.9117 49.2282 80.339 49.8447 81.559L50.7169 80.8096C51.3742 80.2443 51.9983 79.6407 52.5815 79.0012C52.5687 78.9884 52.5533 78.9731 52.5405 78.9552L52.5431 78.9578Z" fill="black"/>
</g>
<defs>
<clipPath id="clip0_268_12822">
<rect width="128" height="128" fill="white"/>
</clipPath>
</defs>
</svg>
